<svg width="298" height="400" viewBox="0 0 298 400" fill="none" xmlns="http://www.w3.org/2000/svg">
<path d="M297.429 75C297.429 61.19 286.334 50 272.643 50C286.334 50 297.429 38.81 297.429 25C297.429 11.19 286.334 0 272.643 0C258.951 0 247.857 11.19 247.857 25C247.857 11.19 236.763 0 223.071 0C209.38 0 198.286 11.19 198.286 25C198.286 11.19 187.192 0 173.5 0C159.808 0 148.714 11.19 148.714 25C148.714 11.19 137.62 0 123.929 0C110.237 0 99.1429 11.19 99.1429 25C99.1429 11.19 88.0488 0 74.3571 0C60.6655 0 49.5714 11.19 49.5714 25C49.5714 11.19 38.4773 0 24.7857 0C11.0941 0 0 11.19 0 25C0 38.81 11.0941 50 24.7857 50C11.0941 50 0 61.19 0 75C0 88.81 11.0941 100 24.7857 100C11.0941 100 0 111.19 0 125C0 138.81 11.0941 150 24.7857 150C11.0941 150 0 161.19 0 175C0 188.81 11.0941 200 24.7857 200C11.0941 200 0 211.19 0 225C0 238.81 11.0941 250 24.7857 250C11.0941 250 0 261.19 0 275C0 288.81 11.0941 300 24.7857 300C11.0941 300 0 311.19 0 325C0 338.81 11.0941 350 24.7857 350C11.0941 350 0 361.19 0 375C0 388.81 11.0941 400 24.7857 400C38.4773 400 49.5714 388.81 49.5714 375C49.5714 388.81 60.6655 400 74.3571 400C88.0488 400 99.1429 388.81 99.1429 375C99.1429 388.81 110.237 400 123.929 400C137.62 400 148.714 388.81 148.714 375C148.714 388.81 159.808 400 173.5 400C187.192 400 198.286 388.81 198.286 375C198.286 388.81 209.38 400 223.071 400C236.763 400 247.857 388.81 247.857 375C247.857 388.81 258.951 400 272.643 400C286.334 400 297.429 388.81 297.429 375C297.429 361.19 286.334 350 272.643 350C286.334 350 297.429 338.81 297.429 325C297.429 311.19 286.334 300 272.643 300C286.334 300 297.429 288.81 297.429 275C297.429 261.19 286.334 250 272.643 250C286.334 250 297.429 238.81 297.429 225C297.429 211.19 286.334 200 272.643 200C286.334 200 297.429 188.81 297.429 175C297.429 161.19 286.334 150 272.643 150C286.334 150 297.429 138.81 297.429 125C297.429 111.19 286.334 100 272.643 100C286.334 100 297.429 88.81 297.429 75Z" fill="#B5FE28"/>
</svg>
