<svg width="298" height="400" viewBox="0 0 298 400" fill="none" xmlns="http://www.w3.org/2000/svg">
<path d="M272.643 25H24.7857V375H272.643V25Z" fill="#003BE2"/>
<path d="M272.643 50C286.332 50 297.429 38.8071 297.429 25C297.429 11.1929 286.332 0 272.643 0C258.954 0 247.857 11.1929 247.857 25C247.857 38.8071 258.954 50 272.643 50Z" fill="#003BE2"/>
<path d="M223.071 50C236.76 50 247.857 38.8071 247.857 25C247.857 11.1929 236.76 0 223.071 0C209.383 0 198.286 11.1929 198.286 25C198.286 38.8071 209.383 50 223.071 50Z" fill="#003BE2"/>
<path d="M173.5 50C187.189 50 198.286 38.8071 198.286 25C198.286 11.1929 187.189 0 173.5 0C159.811 0 148.714 11.1929 148.714 25C148.714 38.8071 159.811 50 173.5 50Z" fill="#003BE2"/>
<path d="M123.929 50C137.617 50 148.714 38.8071 148.714 25C148.714 11.1929 137.617 0 123.929 0C110.24 0 99.1429 11.1929 99.1429 25C99.1429 38.8071 110.24 50 123.929 50Z" fill="#003BE2"/>
<path d="M74.3571 50C88.0459 50 99.1428 38.8071 99.1428 25C99.1428 11.1929 88.0459 0 74.3571 0C60.6684 0 49.5714 11.1929 49.5714 25C49.5714 38.8071 60.6684 50 74.3571 50Z" fill="#003BE2"/>
<path d="M24.7857 50C38.4745 50 49.5714 38.8071 49.5714 25C49.5714 11.1929 38.4745 0 24.7857 0C11.0969 0 0 11.1929 0 25C0 38.8071 11.0969 50 24.7857 50Z" fill="#003BE2"/>
<path d="M272.643 400C286.332 400 297.429 388.807 297.429 375C297.429 361.193 286.332 350 272.643 350C258.954 350 247.857 361.193 247.857 375C247.857 388.807 258.954 400 272.643 400Z" fill="#003BE2"/>
<path d="M272.643 350C286.332 350 297.429 338.807 297.429 325C297.429 311.193 286.332 300 272.643 300C258.954 300 247.857 311.193 247.857 325C247.857 338.807 258.954 350 272.643 350Z" fill="#003BE2"/>
<path d="M272.643 300C286.332 300 297.429 288.807 297.429 275C297.429 261.193 286.332 250 272.643 250C258.954 250 247.857 261.193 247.857 275C247.857 288.807 258.954 300 272.643 300Z" fill="#003BE2"/>
<path d="M272.643 250C286.332 250 297.429 238.807 297.429 225C297.429 211.193 286.332 200 272.643 200C258.954 200 247.857 211.193 247.857 225C247.857 238.807 258.954 250 272.643 250Z" fill="#003BE2"/>
<path d="M272.643 200C286.332 200 297.429 188.807 297.429 175C297.429 161.193 286.332 150 272.643 150C258.954 150 247.857 161.193 247.857 175C247.857 188.807 258.954 200 272.643 200Z" fill="#003BE2"/>
<path d="M272.643 150C286.332 150 297.429 138.807 297.429 125C297.429 111.193 286.332 100 272.643 100C258.954 100 247.857 111.193 247.857 125C247.857 138.807 258.954 150 272.643 150Z" fill="#003BE2"/>
<path d="M272.643 100C286.332 100 297.429 88.8071 297.429 75C297.429 61.1929 286.332 50 272.643 50C258.954 50 247.857 61.1929 247.857 75C247.857 88.8071 258.954 100 272.643 100Z" fill="#003BE2"/>
<path d="M24.7857 350C38.4745 350 49.5714 338.807 49.5714 325C49.5714 311.193 38.4745 300 24.7857 300C11.0969 300 0 311.193 0 325C0 338.807 11.0969 350 24.7857 350Z" fill="#003BE2"/>
<path d="M24.7857 300C38.4745 300 49.5714 288.807 49.5714 275C49.5714 261.193 38.4745 250 24.7857 250C11.0969 250 0 261.193 0 275C0 288.807 11.0969 300 24.7857 300Z" fill="#003BE2"/>
<path d="M24.7857 250C38.4745 250 49.5714 238.807 49.5714 225C49.5714 211.193 38.4745 200 24.7857 200C11.0969 200 0 211.193 0 225C0 238.807 11.0969 250 24.7857 250Z" fill="#003BE2"/>
<path d="M24.7857 200C38.4745 200 49.5714 188.807 49.5714 175C49.5714 161.193 38.4745 150 24.7857 150C11.0969 150 0 161.193 0 175C0 188.807 11.0969 200 24.7857 200Z" fill="#003BE2"/>
<path d="M24.7857 150C38.4745 150 49.5714 138.807 49.5714 125C49.5714 111.193 38.4745 100 24.7857 100C11.0969 100 0 111.193 0 125C0 138.807 11.0969 150 24.7857 150Z" fill="#003BE2"/>
<path d="M24.7857 100C38.4745 100 49.5714 88.8071 49.5714 75C49.5714 61.1929 38.4745 50 24.7857 50C11.0969 50 0 61.1929 0 75C0 88.8071 11.0969 100 24.7857 100Z" fill="#003BE2"/>
<path d="M223.071 400C236.76 400 247.857 388.807 247.857 375C247.857 361.193 236.76 350 223.071 350C209.383 350 198.286 361.193 198.286 375C198.286 388.807 209.383 400 223.071 400Z" fill="#003BE2"/>
<path d="M173.5 400C187.189 400 198.286 388.807 198.286 375C198.286 361.193 187.189 350 173.5 350C159.811 350 148.714 361.193 148.714 375C148.714 388.807 159.811 400 173.5 400Z" fill="#003BE2"/>
<path d="M123.929 400C137.617 400 148.714 388.807 148.714 375C148.714 361.193 137.617 350 123.929 350C110.24 350 99.1429 361.193 99.1429 375C99.1429 388.807 110.24 400 123.929 400Z" fill="#003BE2"/>
<path d="M74.3571 400C88.0459 400 99.1428 388.807 99.1428 375C99.1428 361.193 88.0459 350 74.3571 350C60.6684 350 49.5714 361.193 49.5714 375C49.5714 388.807 60.6684 400 74.3571 400Z" fill="#003BE2"/>
<path d="M24.7857 400C38.4745 400 49.5714 388.807 49.5714 375C49.5714 361.193 38.4745 350 24.7857 350C11.0969 350 0 361.193 0 375C0 388.807 11.0969 400 24.7857 400Z" fill="#003BE2"/>
</svg>
