<svg width="254" height="140" viewBox="0 0 254 140" fill="none" xmlns="http://www.w3.org/2000/svg">
<path d="M253.999 49.4598L156.507 51.0496L26.9442 89.6734L134.916 93.4368L253.999 49.4598Z" fill="#023AB7"/>
<path d="M253.366 89.6731H26.9442V139.457H253.366V89.6731Z" fill="#003BE2"/>
<path d="M38.056 106.269V101.207H52.8501V106.269H38.056ZM42.3547 127.973V101.207H48.6001V127.973H42.3547Z" fill="#B5FE28"/>
<path d="M50.4659 127.973L54.9268 101.207H63.7677L68.18 127.973H61.6913L59.3878 105.944H59.0634L57.0032 127.973H50.4659ZM54.5213 123.512V119.457H63.8974V123.512H54.5213Z" fill="#B5FE28"/>
<path d="M76.1776 128.46C74.6366 128.46 73.3064 128.233 72.2033 127.779C71.1002 127.325 70.2243 126.643 69.5754 125.767C68.9265 124.891 68.521 123.837 68.375 122.604C68.229 121.371 68.3588 119.992 68.7643 118.451L74.523 117.689C74.3608 118.711 74.2959 119.717 74.3283 120.674C74.3608 121.631 74.523 122.426 74.815 123.026C75.107 123.626 75.5936 123.934 76.2749 123.934C76.5994 123.934 76.8751 123.853 77.1022 123.691C77.3293 123.529 77.5078 123.285 77.6376 122.961C77.7511 122.636 77.816 122.215 77.816 121.696C77.816 120.69 77.6051 119.83 77.1834 119.116C76.7616 118.403 76.2263 117.77 75.5774 117.235C74.9285 116.699 74.2635 116.196 73.5821 115.726C72.9819 115.288 72.3817 114.834 71.7653 114.331C71.1489 113.828 70.5811 113.26 70.062 112.628C69.5429 111.995 69.1374 111.265 68.8292 110.454C68.521 109.643 68.3588 108.718 68.3588 107.664C68.3588 106.285 68.6507 105.068 69.251 104.03C69.8512 102.992 70.7109 102.181 71.8626 101.597C73.0144 101.013 74.3932 100.721 76.0154 100.721C77.8484 100.721 79.3571 101.078 80.5412 101.824C81.7092 102.554 82.5527 103.608 83.0556 104.971C83.5585 106.334 83.7045 107.972 83.4774 109.854L77.8322 110.584C77.9133 109.935 77.9458 109.302 77.9296 108.702C77.9296 108.086 77.8484 107.55 77.7025 107.064C77.5727 106.577 77.3618 106.188 77.0698 105.912C76.794 105.636 76.4209 105.49 75.9992 105.49C75.7072 105.49 75.4314 105.571 75.2043 105.733C74.9772 105.896 74.7988 106.123 74.669 106.399C74.5554 106.674 74.4906 107.031 74.4906 107.437C74.4906 108.118 74.6528 108.702 74.9772 109.205C75.3016 109.708 75.7234 110.146 76.2587 110.535C76.794 110.924 77.3294 111.314 77.8971 111.687C78.6758 112.206 79.4382 112.741 80.1681 113.325C80.8981 113.909 81.547 114.558 82.131 115.288C82.715 116.018 83.1692 116.862 83.5098 117.802C83.8505 118.743 84.0127 119.846 84.0127 121.095C84.0127 122.507 83.7531 123.772 83.2178 124.891C82.6825 126.011 81.8552 126.887 80.7035 127.519C79.5517 128.152 78.0269 128.476 76.1452 128.476L76.1776 128.46Z" fill="#B5FE28"/>
<path d="M84.2551 106.269V101.207H99.0492V106.269H84.2551ZM88.5538 127.973V101.207H94.7992V127.973H88.5538Z" fill="#B5FE28"/>
<path d="M105.376 127.973V119.003L99.6987 101.207H106.917L108.783 113.617H108.945L110.892 101.207H117.575L111.93 119.003V127.973H105.36H105.376Z" fill="#B5FE28"/>
<path d="M124.632 127.973V101.207H130.958V127.973H124.632ZM125.686 127.973V122.701H137.074V127.973H125.686Z" fill="#B5FE28"/>
<path d="M137.9 127.973L142.361 101.207H151.202L155.614 127.973H149.126L146.822 105.944H146.498L144.437 127.973H137.9ZM141.956 123.512V119.457H151.332V123.512H141.956Z" fill="#B5FE28"/>
<path d="M156.507 127.973V101.207H162.914V127.973H156.507Z" fill="#B5FE28"/>
<path d="M164.537 127.973V101.207H171.351L176.379 117.234H176.509V101.207H182.381V127.973H175.536L170.588 111.946H170.475V127.973H164.554H164.537Z" fill="#B5FE28"/>
<path d="M184.003 127.973V101.207H190.816L195.845 117.234H195.975V101.207H201.847V127.973H195.001L190.054 111.946H189.94V127.973H184.019H184.003Z" fill="#B5FE28"/>
<path d="M208.416 127.973V119.003L202.738 101.207H209.957L211.823 113.617H211.985L213.931 101.207H220.615L214.97 119.003V127.973H208.4H208.416Z" fill="#B5FE28"/>
<path d="M217.468 127.973L221.929 101.207H230.77L235.182 127.973H228.693L226.39 105.944H226.066L224.005 127.973H217.468ZM221.523 123.512V119.457H230.9V123.512H221.523Z" fill="#B5FE28"/>
<path d="M237.339 119.781L235.441 101.207H242.255L240.357 119.781H237.356H237.339ZM238.88 128.492C237.858 128.492 237.096 128.184 236.593 127.584C236.09 126.967 235.847 126.059 235.847 124.842C235.847 123.626 236.09 122.669 236.593 122.068C237.096 121.452 237.858 121.16 238.88 121.16C239.902 121.16 240.665 121.468 241.168 122.068C241.671 122.669 241.914 123.61 241.914 124.842C241.914 127.276 240.908 128.492 238.864 128.492H238.88Z" fill="#B5FE28"/>
<path d="M248.381 -0.00961806L0.00238037 28.2018L5.62086 77.6681L254 49.4567L248.381 -0.00961806Z" fill="#003BE2"/>
<path d="M12.9125 43.4416L12.3448 38.4129L27.0579 36.7421L27.6256 41.7708L12.9125 43.4416ZM19.6445 64.5136L16.6273 37.9262L22.824 37.2287L25.8412 63.8161L19.6445 64.5136Z" fill="#B5FE28"/>
<path d="M31.0805 63.2157L28.0633 36.6284L34.3086 35.9146L37.3259 62.502L31.0805 63.2157ZM35.509 62.7128L34.9251 57.6355L42.2573 56.8082L42.8412 61.8855L35.509 62.7128ZM34.2438 51.5037L33.7247 46.8643L40.0187 46.1505L40.5378 50.7899L34.2438 51.5037ZM33.0758 41.1867L32.4918 36.1093L39.824 35.282L40.408 40.3594L33.0758 41.1867Z" fill="#B5FE28"/>
<path d="M44.0575 61.7393L41.0402 35.152L47.3342 34.4382L50.3515 61.0256L44.0575 61.7393ZM45.0956 61.6096L44.4954 56.3699L55.8182 55.0884L56.4184 60.328L45.0956 61.6096Z" fill="#B5FE28"/>
<path d="M64.8215 59.874C63.2642 60.0525 61.9664 59.9389 60.9283 59.5496C59.8901 59.144 59.0465 58.5925 58.4139 57.8625C57.7812 57.1326 57.2784 56.3377 56.9377 55.4779C56.5971 54.6182 56.3537 53.8233 56.224 53.0934C56.078 52.3634 55.9969 51.7956 55.9482 51.3901L53.9367 33.7084L60.1496 32.9947L62.0962 50.1248C62.226 51.2603 62.3882 52.1363 62.5829 52.7851C62.7775 53.434 63.0208 53.872 63.2804 54.1315C63.5562 54.3911 63.8644 54.4884 64.2213 54.456C64.5944 54.4073 64.8863 54.2451 65.0972 53.9531C65.3081 53.6611 65.4379 53.1745 65.4865 52.4932C65.5352 51.8281 65.4865 50.9034 65.3568 49.7517L63.4102 32.6216L69.6231 31.9078L71.6346 49.5895C71.813 51.2279 71.7968 52.6554 71.5697 53.8882C71.3426 55.1211 70.9208 56.143 70.3368 56.9866C69.7366 57.8301 68.9742 58.4952 68.0496 58.9656C67.1249 59.436 66.0543 59.7442 64.8539 59.874H64.8215Z" fill="#B5FE28"/>
<path d="M81.8212 57.944C80.2964 58.1225 78.95 58.0413 77.7983 57.7007C76.6465 57.3763 75.6894 56.8085 74.9595 55.9974C74.2133 55.2026 73.6942 54.1968 73.4184 52.9964C73.1264 51.796 73.094 50.4009 73.3373 48.8274L78.9662 47.4161C78.9176 48.4543 78.9662 49.4439 79.096 50.4009C79.2258 51.358 79.4853 52.1204 79.8422 52.6882C80.1991 53.256 80.7182 53.4993 81.3995 53.4344C81.7239 53.4019 81.9834 53.2884 82.1943 53.0937C82.4052 52.8991 82.5512 52.6395 82.6323 52.3151C82.7134 51.9744 82.7296 51.5527 82.6648 51.0498C82.5512 50.0603 82.243 49.233 81.7563 48.5679C81.2535 47.9028 80.6533 47.335 79.9557 46.8808C79.242 46.4104 78.5282 45.9886 77.8145 45.6155C77.1656 45.2587 76.5167 44.8531 75.8354 44.4314C75.1541 44.0096 74.5377 43.5067 73.9537 42.9227C73.3697 42.355 72.8831 41.6737 72.4775 40.9113C72.072 40.1488 71.8125 39.2242 71.6989 38.186C71.5367 36.8234 71.6989 35.5743 72.1693 34.4875C72.6398 33.4006 73.4184 32.476 74.489 31.7784C75.5597 31.0647 76.9061 30.6267 78.512 30.4483C80.3451 30.2374 81.8699 30.4483 83.1352 31.0322C84.3843 31.6324 85.3413 32.5733 85.9902 33.871C86.6391 35.1688 86.9635 36.7747 86.9635 38.6727L81.4481 40.0353C81.4481 39.3864 81.4157 38.7538 81.3346 38.1536C81.2535 37.5534 81.1237 37.018 80.929 36.5476C80.7344 36.0772 80.4911 35.7203 80.1828 35.477C79.8746 35.2337 79.5015 35.1201 79.0635 35.1688C78.7716 35.2012 78.512 35.3148 78.3011 35.4932C78.0902 35.6716 77.9443 35.915 77.8469 36.2232C77.7658 36.5152 77.7334 36.8721 77.782 37.2776C77.8631 37.9427 78.0902 38.5104 78.4633 38.9809C78.8364 39.4351 79.3231 39.8406 79.8909 40.1651C80.4586 40.4895 81.0426 40.8139 81.659 41.1221C82.4863 41.5439 83.3136 41.9981 84.1085 42.501C84.9033 42.9876 85.6171 43.5716 86.2822 44.2367C86.9473 44.9018 87.4988 45.6804 87.9368 46.5726C88.3748 47.481 88.6668 48.5517 88.8128 49.7845C88.975 51.1796 88.8452 52.4611 88.4559 53.6453C88.0504 54.8132 87.3204 55.7865 86.2497 56.549C85.1791 57.3114 83.7029 57.798 81.8212 58.0089V57.944Z" fill="#B5FE28"/>
<path d="M98.6274 56.0293C97.0701 56.2077 95.7723 56.0942 94.7342 55.6887C93.696 55.2993 92.8524 54.7316 92.2198 54.0016C91.5872 53.2716 91.0843 52.4768 90.7436 51.617C90.403 50.7573 90.1596 49.9624 90.0299 49.2324C89.8839 48.5024 89.8028 47.9347 89.7541 47.5291L87.7426 29.8475L93.9555 29.15L95.9021 46.2801C96.0319 47.4156 96.1941 48.2916 96.3888 48.9404C96.5834 49.5893 96.8268 50.0273 97.0863 50.2868C97.3621 50.5464 97.6703 50.6437 98.0272 50.6113C98.4003 50.5626 98.6923 50.4004 98.9031 50.1084C99.114 49.8164 99.2438 49.3297 99.2925 48.6484C99.3411 47.9833 99.2925 47.0587 99.1627 45.907L97.2161 28.7769L103.429 28.0793L105.44 45.761C105.619 47.3994 105.603 48.8269 105.376 50.0597C105.148 51.2764 104.727 52.3145 104.127 53.1581C103.526 54.0016 102.764 54.6667 101.839 55.1371C100.915 55.6075 99.844 55.9158 98.6436 56.0455L98.6274 56.0293Z" fill="#B5FE28"/>
<path d="M108.004 54.472L104.986 27.8847L112.319 27.0574C113.227 26.96 114.119 26.96 114.979 27.0574C115.839 27.1709 116.633 27.398 117.363 27.7549C118.093 28.1118 118.759 28.566 119.343 29.1175C119.926 29.6691 120.397 30.3666 120.786 31.1777C121.159 31.9888 121.419 32.9296 121.532 34.0165C121.63 34.9087 121.614 35.7522 121.5 36.5471C121.37 37.3581 121.111 38.0881 120.705 38.737C120.3 39.4021 119.781 39.9698 119.132 40.4727C118.483 40.9756 117.672 41.3487 116.731 41.6244L116.779 41.9813C118.207 41.8678 119.326 42.0462 120.105 42.5004C120.884 42.9546 121.484 43.6197 121.873 44.4795C122.262 45.3392 122.603 46.3612 122.879 47.5291L124.16 52.6552L117.72 53.3852L116.877 49.1513C116.698 48.2429 116.487 47.4318 116.277 46.7018C116.066 45.9719 115.741 45.4203 115.336 45.031C114.93 44.6417 114.314 44.4795 113.503 44.5443L113.227 44.5768L114.265 53.7583L108.052 54.4558L108.004 54.472ZM112.692 40.4727L113.049 40.424C113.243 40.4078 113.454 40.3592 113.697 40.3105C113.941 40.2618 114.184 40.1483 114.411 39.9861C114.654 39.8238 114.865 39.5805 115.044 39.2399C115.222 38.9154 115.352 38.445 115.417 37.8772C115.482 37.3095 115.466 36.5633 115.368 35.6711C115.287 34.8924 115.157 34.2598 114.995 33.7731C114.833 33.2865 114.638 32.9296 114.427 32.6701C114.2 32.4267 113.973 32.2483 113.73 32.151C113.486 32.0537 113.243 32.005 113 32.005C112.757 32.005 112.529 32.005 112.319 32.0374L111.751 32.1023L112.692 40.4403V40.4727Z" fill="#B5FE28"/>
<path d="M125.28 52.509L122.263 25.9216L128.621 25.1917L131.639 51.779L125.28 52.509Z" fill="#B5FE28"/>
<path d="M139.393 50.9205L136.375 24.3332L142.588 23.6194L145.606 50.223L139.393 50.9205ZM143.075 43.3936L142.507 38.3974L144.681 38.154C144.892 38.1378 145.135 38.0891 145.378 38.0405C145.638 37.9918 145.865 37.862 146.092 37.6674C146.319 37.4727 146.514 37.197 146.692 36.8239C146.871 36.4508 146.984 35.9317 147.033 35.2828C147.082 34.6177 147.033 33.7904 146.936 32.8009C146.838 31.8925 146.676 31.1463 146.481 30.5947C146.287 30.027 146.043 29.6052 145.784 29.3132C145.524 29.0212 145.265 28.8103 145.005 28.6968C144.746 28.5832 144.502 28.5184 144.292 28.5184C144.081 28.5184 143.902 28.5184 143.756 28.5346L141.42 28.7941L140.853 23.8303L144 23.4734C144.892 23.3761 145.833 23.4572 146.838 23.7167C147.844 23.9925 148.817 24.4629 149.774 25.1442C150.715 25.8256 151.526 26.7664 152.192 27.9506C152.857 29.1348 153.295 30.611 153.489 32.3629C153.733 34.4879 153.522 36.321 152.873 37.862C152.224 39.4031 151.202 40.636 149.839 41.5281C148.477 42.4366 146.838 42.9881 144.924 43.2152L143.075 43.4261V43.3936Z" fill="#B5FE28"/>
<path d="M156.474 48.9731L153.457 22.3858L160.789 21.5585C161.698 21.4611 162.59 21.4611 163.434 21.5585C164.293 21.672 165.088 21.8991 165.818 22.256C166.548 22.6129 167.213 23.0671 167.797 23.6186C168.381 24.1702 168.852 24.8677 169.241 25.6788C169.614 26.4899 169.874 27.4307 169.987 28.5176C170.084 29.4098 170.068 30.2533 169.955 31.0482C169.825 31.8592 169.565 32.573 169.16 33.2381C168.754 33.9032 168.235 34.4709 167.586 34.9738C166.937 35.4767 166.143 35.8498 165.185 36.1255L165.234 36.4824C166.662 36.3689 167.781 36.5473 168.56 37.0015C169.338 37.4557 169.938 38.1208 170.344 38.9806C170.733 39.8403 171.074 40.8623 171.35 42.0302L172.631 47.1563L166.191 47.8863L165.348 43.6524C165.169 42.744 164.958 41.9329 164.748 41.2029C164.52 40.473 164.212 39.9214 163.807 39.5321C163.401 39.1428 162.785 38.9806 161.974 39.0454L161.698 39.0779L162.736 48.2594L156.539 48.9569L156.474 48.9731ZM161.163 34.9738L161.519 34.9251C161.698 34.9089 161.925 34.8602 162.152 34.8116C162.395 34.7629 162.622 34.6494 162.866 34.4872C163.109 34.3249 163.32 34.0816 163.498 33.741C163.677 33.4165 163.807 32.9461 163.872 32.3783C163.936 31.7944 163.92 31.0644 163.823 30.1884C163.742 29.4098 163.612 28.7771 163.45 28.2905C163.288 27.8038 163.093 27.4307 162.882 27.1874C162.655 26.9441 162.428 26.7656 162.184 26.6683C161.941 26.571 161.698 26.5223 161.455 26.5223C161.211 26.5223 160.984 26.5223 160.757 26.5548L160.189 26.6196L161.13 34.9576L161.163 34.9738Z" fill="#B5FE28"/>
<path d="M181.147 46.6535C179.671 46.8157 178.39 46.6859 177.287 46.2317C176.184 45.7775 175.259 45.0313 174.496 43.9607C173.734 42.89 173.118 41.5274 172.647 39.8403C172.177 38.1695 171.804 36.1905 171.544 33.9032C171.187 30.7075 171.139 28.0634 171.431 25.9546C171.723 23.8458 172.42 22.2398 173.507 21.1043C174.61 19.9688 176.151 19.2875 178.13 19.0604C179.639 18.8819 180.936 19.0279 182.056 19.4497C183.159 19.8877 184.116 20.6177 184.895 21.6558C185.673 22.694 186.322 24.0566 186.825 25.7599C187.328 27.4632 187.717 29.4747 187.977 31.8106C188.236 34.1465 188.317 36.2067 188.204 37.9749C188.09 39.743 187.766 41.2354 187.214 42.452C186.679 43.6687 185.9 44.6257 184.911 45.3233C183.921 46.0208 182.656 46.4588 181.115 46.6372L181.147 46.6535ZM180.726 41.8843C181.099 41.8356 181.407 41.641 181.634 41.2679C181.861 40.8948 182.007 40.3594 182.072 39.6295C182.137 38.8995 182.137 37.9749 182.072 36.8556C182.007 35.7363 181.894 34.4061 181.715 32.8812C181.488 30.886 181.245 29.2151 180.969 27.8687C180.693 26.5061 180.369 25.5004 180.012 24.8191C179.655 24.1378 179.201 23.8295 178.665 23.8944C178.309 23.9431 178.049 24.1378 177.838 24.5271C177.643 24.9002 177.497 25.4842 177.449 26.2466C177.384 27.009 177.384 27.9823 177.449 29.1665C177.514 30.3344 177.643 31.7457 177.822 33.3841C178 35.0225 178.195 36.4013 178.39 37.5206C178.584 38.6399 178.795 39.5321 179.022 40.181C179.249 40.8299 179.493 41.3003 179.769 41.5598C180.044 41.8356 180.353 41.9492 180.709 41.9005L180.726 41.8843Z" fill="#B5FE28"/>
<path d="M190.961 45.0636L187.944 18.4762L194.141 17.7787L197.158 44.3661L190.961 45.0636ZM193.67 44.7554L193.103 39.7915L197.207 39.3211C197.628 39.2724 198.018 39.1102 198.358 38.8507C198.699 38.5749 198.959 38.1207 199.137 37.4881C199.315 36.8554 199.429 35.9794 199.429 34.8764C199.429 33.7733 199.348 32.362 199.153 30.6425C198.959 28.8743 198.715 27.4468 198.472 26.3762C198.212 25.3056 197.92 24.4945 197.58 23.9267C197.239 23.359 196.866 23.0021 196.477 22.8237C196.071 22.6452 195.649 22.5966 195.195 22.6452L191.205 23.0994L190.637 18.1518L194.384 17.73C196.347 17.5029 198.083 17.8274 199.624 18.7033C201.149 19.5793 202.414 20.9582 203.403 22.8723C204.393 24.7703 205.058 27.1548 205.382 29.9936C205.642 32.3296 205.658 34.3086 205.431 35.947C205.188 37.5854 204.798 38.9318 204.214 39.9862C203.647 41.0406 202.982 41.8679 202.252 42.4681C201.522 43.0683 200.775 43.5063 200.029 43.7658C199.283 44.0254 198.618 44.1876 198.018 44.2525L193.67 44.7391V44.7554Z" fill="#B5FE28"/>
<path d="M216.121 42.6952C214.564 42.8737 213.266 42.7601 212.228 42.3546C211.19 41.9652 210.346 41.3975 209.714 40.6675C209.081 39.9375 208.578 39.1427 208.238 38.2829C207.897 37.4232 207.654 36.6283 207.524 35.8983C207.378 35.1683 207.297 34.6006 207.248 34.1951L205.237 16.5134L211.449 15.8159L213.396 32.946C213.526 34.0815 213.688 34.9575 213.883 35.6063C214.077 36.2552 214.321 36.6932 214.58 36.9527C214.84 37.2123 215.164 37.3096 215.521 37.2772C215.894 37.2285 216.186 37.0663 216.397 36.7743C216.608 36.4823 216.738 35.9957 216.786 35.3306C216.835 34.6655 216.786 33.7408 216.657 32.5891L214.71 15.459L220.923 14.7615L222.934 32.4431C223.113 34.0815 223.097 35.509 222.87 36.7419C222.642 37.9585 222.221 38.9967 221.637 39.8402C221.037 40.6837 220.274 41.3488 219.349 41.8192C218.425 42.2897 217.354 42.5979 216.154 42.7277L216.121 42.6952Z" fill="#B5FE28"/>
<path d="M225.498 41.1381L222.48 14.5507L228.677 13.8532L230.04 25.8572C230.413 25.1273 230.737 24.3648 230.98 23.57C231.224 22.7751 231.418 21.8829 231.548 20.8934C231.678 19.9039 231.759 18.817 231.792 17.6004C231.824 16.3838 231.792 15.0211 231.727 13.5125L238.621 12.7339C238.702 14.2425 238.67 15.7025 238.524 17.1137C238.378 18.525 238.069 19.839 237.631 21.0556C237.177 22.2722 236.593 23.3915 235.847 24.3811C235.101 25.3706 234.192 26.2303 233.105 26.9603L233.138 27.2361C233.998 27.1712 234.809 27.1712 235.539 27.2361C236.269 27.301 236.95 27.5118 237.55 27.8525C238.15 28.1769 238.67 28.696 239.091 29.4098C239.529 30.1235 239.87 31.0806 240.113 32.281L241.654 39.3374L235.214 40.0674L234.29 35.2334C234.014 33.7085 233.722 32.5568 233.446 31.7457C233.17 30.9346 232.814 30.3831 232.408 30.1073C232.002 29.8315 231.467 29.718 230.818 29.7991L230.494 29.8315L231.694 40.473L225.498 41.1705V41.1381Z" fill="#B5FE28"/>
</svg>
