<svg width="319" height="250" viewBox="0 0 319 250" fill="none" xmlns="http://www.w3.org/2000/svg">
<path d="M31.4821 97.5299C30.8937 81.5604 35.6665 67.8466 45.294 57.8922C51.4072 51.5666 59.4491 46.9408 69.2237 44.1621C79.7665 41.1709 92.2217 40.4517 105.216 42.0862C117.688 43.6554 130.715 47.4148 142.942 52.9559C155.969 37.8201 173.05 26.4273 191.013 20.9843L202.668 3.78888C202.668 3.78888 228.15 14.3317 246.326 27.8657C248.827 29.6146 251.214 31.5761 253.486 33.75C256.297 36.3326 258.733 38.9806 260.563 41.6449C267.249 50.4224 272.185 61.0959 275.258 73.355C281.338 97.677 279.426 125.938 269.864 152.941C263.309 171.46 253.469 188.296 241.406 201.634C229.36 214.955 215.434 224.485 201.115 229.209C200.216 229.519 199.301 229.797 198.369 230.059C196.832 230.5 195.247 230.876 193.612 231.203L193.482 231.235C193.236 231.284 193.008 231.35 192.762 231.383H192.73H192.697C192.452 231.432 192.223 231.464 191.978 231.513H191.847C189.232 232.004 186.633 232.314 184.099 232.461C168.963 233.442 151.654 230.026 134.001 222.621C134.001 222.621 100.166 209.463 75.909 190.928L79.1127 186.204C65.6277 173.438 54.2513 159.087 46.0786 144.409C37.0886 128.308 32.0706 112.094 31.5312 97.5135L31.4821 97.5299Z" fill="#003BE2"/>
<path d="M164.814 205.197C165.615 204.968 166.416 204.723 167.201 204.462C180.326 200.13 193.125 191.336 204.272 178.995C215.665 166.393 224.965 150.44 231.193 132.869C240.265 107.272 242.095 80.5633 236.375 57.6797C233.563 46.434 229.068 36.6922 223.02 28.732C216.662 20.3794 208.882 14.3807 199.875 10.8827C189.185 6.73101 176.452 6.55121 163.082 10.3433C146.066 15.1816 129.802 25.8552 117.265 40.4026L113.539 44.7341L108.341 42.3804C96.801 37.1498 84.5256 33.6029 72.8223 32.1318C60.8247 30.6117 49.432 31.2491 39.8699 33.9788C31.403 36.3816 24.5052 40.3209 19.34 45.6658C11.2 54.1001 7.1627 65.8851 7.66941 79.7297C8.15977 93.1002 12.8509 108.138 21.2525 123.192C29.8175 138.557 42.0929 153.611 56.722 166.704C71.7108 180.123 88.5629 190.977 105.48 198.087C122.038 205.05 138.171 208.237 152.13 207.355C154.419 207.224 156.707 206.946 159.012 206.537C159.012 206.537 159.665 206.439 159.829 206.407C160.009 206.374 160.63 206.227 160.63 206.227C162.068 205.933 163.474 205.589 164.814 205.214V205.197Z" fill="#B5FE28"/>
<path d="M41.9582 41.318C50.5395 38.8825 60.8862 38.3268 71.8703 39.6998C82.8381 41.0891 94.3616 44.4073 105.199 49.3272L115.611 54.051L123.064 45.388C134.62 31.9684 149.593 22.1284 165.186 17.6825C176.939 14.3317 187.988 14.4461 197.125 17.993C204.791 20.9679 211.477 26.1331 216.952 33.3414C222.379 40.468 226.416 49.2782 228.982 59.5104C234.344 80.9556 232.578 106.095 224.013 130.302C218.129 146.926 209.335 161.996 198.613 173.863C188.348 185.223 176.677 193.281 164.876 197.172H164.81L164.745 197.221C164.091 197.449 163.405 197.662 162.718 197.842C161.558 198.169 160.348 198.463 159.106 198.708L158.959 198.741L158.812 198.773L158.681 198.806C158.55 198.839 158.468 198.855 158.387 198.871C158.272 198.888 158.19 198.904 158.109 198.921L157.929 198.953H157.782L157.635 199.002C155.641 199.362 153.663 199.607 151.75 199.705H151.685H151.62C138.838 200.522 123.898 197.531 108.419 191.026C92.2694 184.242 76.1528 173.863 61.7852 160.999C47.7772 148.462 36.0575 134.095 27.9011 119.449C20.088 105.441 15.7238 91.5965 15.2825 79.4191C14.8575 67.6995 18.1429 57.8432 24.8118 50.9291C29.029 46.5648 34.7825 43.3121 41.9255 41.2853M37.7901 26.6398C28.0155 29.4185 19.9572 34.0443 13.8604 40.3699C4.23295 50.3406 -0.539913 64.0381 0.0485223 80.0076C0.587921 94.5877 5.60597 110.802 14.5959 126.903C23.5696 143.003 36.3844 158.727 51.6347 172.376C67.2446 186.351 84.8486 197.662 102.534 205.099C120.171 212.52 137.497 215.92 152.633 214.939C155.167 214.792 157.766 214.481 160.381 214.007H160.512C160.757 213.942 161.002 213.909 161.231 213.86H161.263H161.296C161.541 213.811 161.77 213.762 162.015 213.713L162.146 213.68C163.764 213.354 165.366 212.961 166.903 212.536C167.834 212.275 168.75 211.981 169.649 211.686C183.967 206.962 197.894 197.433 209.94 184.112C222.003 170.774 231.843 153.922 238.397 135.419C247.96 108.416 249.872 80.1547 243.791 55.8327C240.719 43.5736 235.782 32.9001 229.097 24.1226C221.872 14.6422 212.98 7.7935 202.634 3.77253C190.375 -0.98399 175.974 -1.24552 161.002 3.00429C142.515 8.26752 124.879 19.8891 111.492 35.4336C99.2652 29.8925 86.2543 26.1331 73.7664 24.5639C60.7554 22.913 48.3166 23.6322 37.7738 26.6398H37.7901Z" fill="white"/>
<path d="M227.482 97.1703C234.87 89.4226 247.358 89.8966 254.158 98.1674C258.26 103.169 264.766 105.555 271.14 104.395C281.667 102.466 291.507 110.198 292.144 120.871C292.537 127.328 296.394 133.081 302.229 135.876C311.873 140.502 315.289 152.532 309.536 161.555C306.054 167.014 305.793 173.928 308.866 179.617C313.949 189.032 309.65 200.768 299.68 204.674C293.648 207.044 289.382 212.487 288.516 218.895C287.094 229.503 276.714 236.466 266.351 233.769C260.091 232.134 253.422 234.031 248.96 238.722C241.572 246.469 229.084 245.995 222.284 237.725C218.181 232.723 211.676 230.336 205.301 231.497C194.775 233.426 184.935 225.694 184.297 215.021C183.905 208.564 180.047 202.811 174.212 200.016C164.568 195.39 161.152 183.36 166.906 174.337C170.387 168.878 170.649 161.964 167.576 156.275C162.492 146.86 166.791 135.124 176.762 131.218C182.793 128.848 187.06 123.405 187.926 116.997C189.348 106.389 199.727 99.426 210.09 102.123C216.351 103.758 223.02 101.861 227.482 97.1703Z" fill="#FCCC08"/>
<path d="M236.03 249.967C235.736 249.967 235.442 249.967 235.164 249.967C228.429 249.722 222.12 246.584 217.838 241.386C215.042 237.986 210.629 236.368 206.314 237.169C199.678 238.378 192.845 236.695 187.549 232.527C182.254 228.375 178.984 222.131 178.576 215.397C178.314 211.016 175.699 207.11 171.727 205.197C165.647 202.288 161.119 196.894 159.272 190.405C157.425 183.932 158.455 176.952 162.083 171.28C164.453 167.586 164.617 162.879 162.541 159.005C159.337 153.072 158.831 146.043 161.152 139.717C163.473 133.392 168.393 128.357 174.669 125.889C178.756 124.287 181.665 120.577 182.254 116.229C183.153 109.56 186.879 103.561 192.469 99.8183C198.06 96.0752 205.006 94.8819 211.528 96.5819C215.778 97.6934 220.306 96.4021 223.346 93.2311C228.004 88.3601 234.526 85.7122 241.261 85.9573C247.995 86.2025 254.304 89.3408 258.587 94.5387C261.382 97.9385 265.795 99.5567 270.11 98.7558C276.73 97.5462 283.579 99.2298 288.875 103.398C294.171 107.55 297.44 113.794 297.848 120.528C298.11 124.908 300.725 128.815 304.697 130.727C310.778 133.637 315.305 139.031 317.152 145.52C318.999 152.009 317.97 158.972 314.341 164.644C311.971 168.338 311.791 173.046 313.883 176.92C317.087 182.853 317.594 189.882 315.273 196.207C312.952 202.533 308.032 207.567 301.755 210.035C297.669 211.637 294.759 215.348 294.171 219.696C293.272 226.365 289.545 232.363 283.955 236.106C278.365 239.866 271.418 241.043 264.896 239.343C260.646 238.231 256.118 239.523 253.078 242.71C248.632 247.368 242.454 250 236.046 250L236.03 249.967ZM208.488 225.515C215.467 225.515 222.169 228.62 226.68 234.112C228.903 236.826 232.074 238.395 235.589 238.526C239.103 238.64 242.372 237.332 244.791 234.782C250.692 228.604 259.486 226.087 267.756 228.244C271.156 229.127 274.638 228.538 277.564 226.577C280.49 224.616 282.353 221.624 282.811 218.143C283.955 209.676 289.594 202.468 297.554 199.362C300.823 198.087 303.291 195.553 304.501 192.252C305.71 188.95 305.449 185.436 303.782 182.33C299.728 174.811 300.055 165.658 304.664 158.466C306.56 155.507 307.067 152.009 306.103 148.626C305.138 145.242 302.866 142.545 299.695 141.025C291.997 137.331 286.897 129.73 286.39 121.198C286.178 117.684 284.543 114.562 281.781 112.388C279.018 110.214 275.586 109.364 272.137 110.001C263.719 111.538 255.138 108.383 249.711 101.78C247.488 99.0664 244.317 97.4972 240.803 97.3665C237.289 97.2357 234.019 98.5597 231.6 101.11C225.7 107.288 216.906 109.805 208.635 107.648C205.235 106.765 201.754 107.354 198.828 109.315C195.902 111.276 194.039 114.268 193.581 117.749C192.437 126.216 186.798 133.424 178.837 136.53C175.568 137.805 173.1 140.339 171.891 143.64C170.681 146.942 170.942 150.456 172.61 153.562C176.663 161.081 176.32 170.234 171.727 177.426C169.831 180.385 169.324 183.883 170.289 187.266C171.253 190.65 173.525 193.347 176.696 194.867C184.395 198.561 189.495 206.162 190.001 214.694C190.214 218.208 191.848 221.33 194.611 223.504C197.373 225.678 200.806 226.528 204.254 225.891C205.66 225.629 207.082 225.515 208.488 225.515Z" fill="white"/>
<path d="M193.892 164.742C193.353 164.938 192.879 164.971 192.47 164.84C192.045 164.709 191.669 164.415 191.31 163.958L182.63 152.45C182.336 152.042 182.173 151.666 182.156 151.29C182.156 150.93 182.238 150.603 182.45 150.293C182.663 149.982 182.957 149.77 183.349 149.606C183.823 149.427 184.248 149.394 184.624 149.508C185 149.623 185.393 149.95 185.785 150.505L193.353 160.917L192.209 161.359L194.693 146.746C194.808 146.19 194.971 145.749 195.184 145.455C195.396 145.144 195.739 144.899 196.213 144.719C196.72 144.523 197.145 144.507 197.505 144.637C197.864 144.768 198.142 144.997 198.306 145.34C198.485 145.683 198.518 146.092 198.436 146.566L195.478 162.732C195.38 163.271 195.216 163.696 194.971 164.007C194.726 164.317 194.383 164.562 193.909 164.742H193.892Z" fill="#003BE2"/>
<path d="M208.128 159.365C206.935 159.822 205.839 159.986 204.826 159.888C203.813 159.773 202.946 159.414 202.194 158.792C201.443 158.171 200.87 157.321 200.462 156.259C200.053 155.196 199.873 154.183 199.906 153.219C199.939 152.254 200.151 151.355 200.56 150.538C200.969 149.721 201.508 149.018 202.178 148.429C202.848 147.841 203.617 147.383 204.499 147.056C205.692 146.599 206.788 146.435 207.801 146.533C208.814 146.648 209.697 147.007 210.449 147.629C211.201 148.25 211.789 149.1 212.198 150.162C212.607 151.241 212.786 152.271 212.754 153.235C212.705 154.199 212.492 155.082 212.1 155.899C211.707 156.717 211.168 157.419 210.498 157.992C209.828 158.58 209.043 159.038 208.161 159.381L208.128 159.365ZM207.229 156.7C207.834 156.471 208.291 156.079 208.586 155.556C208.88 155.017 209.027 154.396 209.027 153.66C209.027 152.941 208.88 152.173 208.586 151.404C208.275 150.571 207.834 150.015 207.278 149.737C206.722 149.459 206.117 149.443 205.447 149.704C204.826 149.95 204.352 150.326 204.058 150.849C203.764 151.372 203.617 151.993 203.617 152.712C203.617 153.431 203.78 154.199 204.091 155C204.401 155.818 204.842 156.357 205.398 156.651C205.954 156.945 206.575 156.962 207.245 156.7H207.229Z" fill="#003BE2"/>
<path d="M220.275 154.723C218.869 155.262 217.708 155.262 216.793 154.723C215.878 154.183 215.257 153.104 214.93 151.503L212.56 140.273C212.429 139.652 212.478 139.113 212.707 138.704C212.936 138.279 213.344 137.968 213.933 137.74C214.488 137.527 214.979 137.544 215.371 137.805C215.763 138.067 216.041 138.541 216.172 139.243L218.477 150.129C218.591 150.767 218.804 151.192 219.13 151.404C219.441 151.633 219.833 151.65 220.291 151.47C220.454 151.404 220.569 151.355 220.667 151.306C220.765 151.257 220.863 151.208 220.978 151.159C221.141 151.094 221.321 151.11 221.468 151.192C221.631 151.274 221.778 151.503 221.909 151.862C222.122 152.418 222.171 152.876 222.073 153.235C221.958 153.595 221.778 153.873 221.501 154.085C221.386 154.199 221.206 154.314 220.978 154.428C220.749 154.543 220.52 154.641 220.291 154.723H220.275Z" fill="#003BE2"/>
<path d="M229.704 151.143C228.446 151.617 227.318 151.797 226.304 151.682C225.291 151.568 224.408 151.192 223.673 150.554C222.937 149.917 222.365 149.067 221.956 148.005C221.629 147.155 221.45 146.288 221.417 145.389C221.384 144.49 221.515 143.624 221.826 142.774C222.136 141.924 222.659 141.156 223.362 140.469C224.065 139.783 224.997 139.211 226.141 138.786C226.68 138.573 227.22 138.426 227.743 138.344C228.266 138.263 228.772 138.23 229.246 138.263C229.688 138.263 230.031 138.377 230.276 138.573C230.521 138.769 230.701 138.998 230.783 139.292C230.865 139.587 230.881 139.865 230.816 140.159C230.75 140.437 230.619 140.682 230.407 140.862C230.194 141.041 229.917 141.139 229.557 141.107C229.148 141.074 228.772 141.074 228.429 141.107C228.086 141.156 227.759 141.238 227.432 141.368C226.811 141.613 226.321 141.924 225.977 142.3C225.634 142.676 225.405 143.117 225.291 143.608C225.176 144.098 225.16 144.588 225.209 145.111C225.258 145.618 225.373 146.108 225.569 146.599C225.879 147.4 226.321 147.955 226.925 148.299C227.53 148.642 228.298 148.626 229.23 148.266C229.475 148.168 229.753 148.021 230.047 147.841C230.342 147.645 230.619 147.4 230.881 147.106C231.11 146.893 231.355 146.795 231.6 146.795C231.862 146.795 232.107 146.86 232.336 147.007C232.565 147.155 232.728 147.351 232.842 147.629C232.957 147.89 232.99 148.168 232.941 148.479C232.891 148.789 232.728 149.083 232.45 149.394C232.14 149.753 231.731 150.08 231.208 150.407C230.701 150.734 230.194 150.979 229.704 151.159V151.143Z" fill="#003BE2"/>
<path d="M238.792 147.661C238.073 147.939 237.354 148.021 236.651 147.923C235.932 147.825 235.295 147.563 234.739 147.171C234.183 146.779 233.758 146.239 233.513 145.585C233.202 144.768 233.186 144.016 233.448 143.33C233.709 142.643 234.281 141.989 235.131 141.385C235.997 140.78 237.158 140.191 238.629 139.636L240.525 138.916L240.917 140.862L239.397 141.45C238.662 141.728 238.073 142.006 237.648 142.267C237.207 142.529 236.929 142.807 236.831 143.085C236.717 143.362 236.733 143.689 236.864 144.049C237.044 144.523 237.338 144.817 237.746 144.948C238.155 145.079 238.613 145.046 239.07 144.866C239.544 144.686 239.92 144.441 240.215 144.114C240.509 143.804 240.705 143.411 240.819 142.97C240.934 142.529 240.917 142.055 240.819 141.564L240.198 138.688C240.067 138.001 239.757 137.56 239.299 137.347C238.825 137.135 238.204 137.184 237.403 137.478C236.929 137.658 236.488 137.887 236.046 138.148C235.621 138.426 235.18 138.753 234.772 139.145C234.461 139.423 234.167 139.587 233.856 139.619C233.562 139.652 233.284 139.587 233.055 139.439C232.81 139.292 232.647 139.08 232.549 138.802C232.45 138.524 232.434 138.23 232.549 137.887C232.647 137.56 232.875 137.233 233.251 136.939C233.823 136.399 234.412 135.958 235.049 135.582C235.687 135.222 236.292 134.912 236.913 134.683C238.237 134.176 239.381 134.029 240.313 134.225C241.244 134.421 241.996 134.879 242.585 135.582C243.157 136.285 243.565 137.2 243.811 138.279L244.857 143.33C245.004 143.934 244.955 144.458 244.742 144.866C244.53 145.275 244.137 145.585 243.598 145.798C243.091 145.994 242.666 145.978 242.29 145.749C241.914 145.52 241.653 145.079 241.506 144.392L241.244 143.085L241.588 143.657C241.588 144.343 241.457 144.948 241.228 145.471C240.999 145.994 240.672 146.452 240.264 146.811C239.855 147.171 239.397 147.449 238.874 147.645L238.792 147.661Z" fill="#003BE2"/>
<path d="M249.647 143.477C249.092 143.689 248.601 143.657 248.209 143.379C247.8 143.101 247.539 142.627 247.375 141.957L245.561 133.408C245.463 132.803 245.512 132.28 245.757 131.855C245.986 131.43 246.378 131.103 246.95 130.891C247.49 130.695 247.931 130.695 248.323 130.924C248.716 131.152 248.961 131.594 249.092 132.28L249.353 133.539L249.026 132.803C249.124 131.872 249.435 131.071 249.974 130.384C250.514 129.698 251.266 129.175 252.23 128.815C253.08 128.488 253.848 128.39 254.567 128.521C255.27 128.652 255.891 129.027 256.414 129.665C256.937 130.302 257.313 131.218 257.575 132.411L258.735 137.985C258.883 138.59 258.834 139.113 258.605 139.554C258.376 139.995 257.967 140.322 257.379 140.551C256.839 140.763 256.365 140.731 255.957 140.453C255.564 140.191 255.287 139.717 255.139 139.031L254.061 133.8C253.897 133.048 253.636 132.509 253.26 132.231C252.884 131.953 252.393 131.921 251.772 132.149C250.988 132.444 250.448 132.95 250.154 133.637C249.86 134.34 249.811 135.157 250.023 136.089L251.037 140.943C251.298 142.186 250.841 143.036 249.664 143.477H249.647Z" fill="#003BE2"/>
<path d="M260.514 123.535C259.876 123.781 259.353 123.813 258.945 123.617C258.536 123.421 258.258 123.045 258.111 122.473C257.948 121.852 257.997 121.312 258.274 120.855C258.552 120.397 259.026 120.038 259.713 119.776C260.334 119.531 260.857 119.498 261.282 119.678C261.707 119.858 261.985 120.234 262.099 120.822C262.246 121.46 262.197 122.015 261.919 122.473C261.642 122.931 261.168 123.29 260.497 123.552L260.514 123.535ZM263.57 138.165C263.015 138.377 262.524 138.361 262.132 138.099C261.74 137.838 261.462 137.364 261.298 136.661L259.5 128.079C259.386 127.475 259.435 126.968 259.664 126.543C259.893 126.118 260.301 125.791 260.873 125.562C261.429 125.35 261.919 125.366 262.312 125.628C262.704 125.889 262.966 126.363 263.113 127.066L264.927 135.631C265.041 136.252 264.976 136.775 264.764 137.184C264.535 137.609 264.142 137.919 263.554 138.132L263.57 138.165Z" fill="#003BE2"/>
<path d="M274.165 134.176C272.906 134.65 271.779 134.83 270.765 134.716C269.752 134.601 268.869 134.225 268.134 133.588C267.398 132.95 266.826 132.1 266.417 131.038C266.09 130.188 265.911 129.322 265.878 128.423C265.845 127.524 265.976 126.657 266.287 125.807C266.597 124.957 267.12 124.189 267.823 123.503C268.542 122.816 269.458 122.244 270.602 121.819C271.141 121.607 271.681 121.459 272.204 121.378C272.727 121.296 273.233 121.263 273.707 121.296C274.149 121.296 274.492 121.41 274.737 121.607C274.982 121.803 275.162 122.032 275.244 122.326C275.326 122.62 275.342 122.898 275.277 123.192C275.211 123.47 275.08 123.715 274.868 123.895C274.655 124.075 274.378 124.173 274.018 124.14C273.609 124.107 273.233 124.107 272.89 124.14C272.547 124.189 272.22 124.271 271.893 124.402C271.272 124.647 270.782 124.957 270.438 125.333C270.095 125.709 269.866 126.151 269.752 126.641C269.637 127.131 269.621 127.622 269.67 128.145C269.719 128.651 269.834 129.142 270.03 129.632C270.34 130.433 270.782 130.989 271.386 131.332C271.991 131.675 272.759 131.659 273.691 131.299C273.936 131.201 274.214 131.054 274.508 130.874C274.803 130.695 275.08 130.433 275.342 130.139C275.571 129.926 275.8 129.828 276.061 129.828C276.323 129.828 276.568 129.894 276.797 130.041C277.026 130.188 277.189 130.384 277.303 130.662C277.418 130.923 277.451 131.201 277.401 131.512C277.352 131.822 277.189 132.117 276.911 132.427C276.601 132.787 276.192 133.114 275.669 133.441C275.162 133.768 274.655 134.013 274.165 134.193V134.176Z" fill="#003BE2"/>
<path d="M193.482 193.2C192.877 193.429 192.371 193.412 191.978 193.151C191.586 192.889 191.308 192.382 191.145 191.647L188.235 177.884C188.105 177.247 188.154 176.723 188.382 176.299C188.611 175.874 189.02 175.547 189.625 175.318C190.262 175.073 190.785 175.089 191.178 175.367C191.57 175.645 191.848 176.135 191.995 176.854L193.041 181.856L200.723 178.93L199.563 173.569C199.432 172.931 199.481 172.408 199.71 171.983C199.939 171.558 200.347 171.231 200.952 171.003C201.557 170.774 202.064 170.79 202.456 171.052C202.848 171.313 203.142 171.82 203.306 172.555L206.166 186.318C206.313 186.939 206.281 187.479 206.052 187.904C205.839 188.345 205.431 188.672 204.826 188.901C204.205 189.146 203.682 189.113 203.29 188.835C202.897 188.558 202.619 188.067 202.472 187.348L201.377 182.134L193.678 185.06L194.855 190.617C194.986 191.255 194.953 191.778 194.741 192.203C194.528 192.628 194.103 192.971 193.482 193.2Z" fill="#003BE2"/>
<path d="M208.34 171.738C207.702 171.983 207.179 172.016 206.771 171.82C206.362 171.624 206.084 171.248 205.937 170.676C205.774 170.054 205.823 169.515 206.101 169.057C206.378 168.6 206.852 168.24 207.539 167.979C208.16 167.733 208.683 167.717 209.108 167.881C209.533 168.06 209.811 168.436 209.925 169.025C210.073 169.662 210.024 170.218 209.746 170.676C209.468 171.133 208.994 171.493 208.324 171.754L208.34 171.738ZM211.397 186.367C210.841 186.58 210.35 186.563 209.958 186.302C209.566 186.04 209.288 185.566 209.125 184.863L207.326 176.282C207.212 175.677 207.261 175.171 207.49 174.746C207.719 174.321 208.127 173.994 208.7 173.781C209.255 173.569 209.746 173.585 210.138 173.847C210.53 174.108 210.808 174.582 210.939 175.285L212.753 183.85C212.868 184.471 212.802 184.994 212.59 185.403C212.361 185.828 211.969 186.138 211.38 186.367H211.397Z" fill="#003BE2"/>
<path d="M223.2 186.76C222.301 187.103 221.385 187.348 220.47 187.511C219.555 187.659 218.721 187.691 217.953 187.577C217.56 187.528 217.25 187.397 217.037 187.168C216.825 186.956 216.678 186.694 216.612 186.416C216.547 186.138 216.563 185.861 216.661 185.583C216.76 185.305 216.939 185.076 217.184 184.929C217.446 184.765 217.757 184.716 218.149 184.765C218.721 184.814 219.309 184.814 219.931 184.749C220.535 184.684 221.107 184.553 221.647 184.357C222.546 184.014 223.216 183.54 223.641 182.951C224.066 182.363 224.164 181.611 223.968 180.712L223.559 178.636L223.755 178.587C223.657 179.47 223.33 180.221 222.775 180.859C222.219 181.496 221.516 181.97 220.682 182.281C219.751 182.641 218.868 182.771 218.034 182.657C217.201 182.559 216.465 182.216 215.795 181.66C215.141 181.104 214.618 180.319 214.242 179.339C213.899 178.44 213.703 177.524 213.687 176.593C213.654 175.677 213.785 174.811 214.063 173.994C214.34 173.177 214.782 172.457 215.37 171.82C215.959 171.182 216.694 170.692 217.593 170.349C218.476 170.022 219.309 169.924 220.127 170.071C220.944 170.218 221.63 170.61 222.17 171.264V172.278L221.859 170.741C221.712 170.12 221.745 169.613 221.99 169.205C222.219 168.796 222.628 168.485 223.2 168.273C223.739 168.06 224.213 168.093 224.589 168.355C224.965 168.616 225.226 169.107 225.374 169.809L227.368 179.192C227.744 180.973 227.58 182.493 226.91 183.801C226.224 185.092 224.998 186.089 223.2 186.776V186.76ZM220.83 179.208C221.483 178.963 221.974 178.571 222.268 178.031C222.578 177.492 222.742 176.903 222.758 176.217C222.775 175.53 222.66 174.86 222.399 174.174C222.137 173.471 221.729 172.98 221.173 172.719C220.617 172.457 219.996 172.457 219.277 172.719C218.639 172.964 218.165 173.34 217.855 173.863C217.544 174.386 217.381 174.991 217.364 175.677C217.364 176.364 217.479 177.05 217.74 177.737C218.002 178.44 218.41 178.93 218.966 179.192C219.522 179.453 220.143 179.453 220.846 179.192L220.83 179.208Z" fill="#003BE2"/>
<path d="M232.11 178.472C231.571 178.685 231.097 178.652 230.688 178.374C230.28 178.096 230.018 177.622 229.887 176.936L226.929 163.075C226.831 162.47 226.88 161.964 227.109 161.539C227.337 161.114 227.73 160.787 228.318 160.574C228.857 160.362 229.348 160.378 229.756 160.64C230.165 160.901 230.427 161.359 230.557 162.062L231.783 167.717L231.522 167.815C231.62 166.884 231.93 166.083 232.47 165.396C233.009 164.71 233.761 164.187 234.726 163.827C235.575 163.5 236.344 163.402 237.063 163.533C237.766 163.663 238.387 164.039 238.91 164.677C239.433 165.314 239.825 166.23 240.07 167.423L241.264 173.029C241.378 173.634 241.329 174.141 241.1 174.566C240.871 174.991 240.463 175.318 239.858 175.547C239.319 175.759 238.845 175.726 238.436 175.465C238.027 175.203 237.766 174.729 237.619 174.026L236.54 168.796C236.376 168.044 236.115 167.505 235.739 167.227C235.363 166.933 234.873 166.916 234.251 167.145C233.467 167.439 232.928 167.946 232.633 168.632C232.339 169.335 232.29 170.136 232.503 171.084L233.5 175.972C233.777 177.197 233.303 178.031 232.127 178.489L232.11 178.472Z" fill="#003BE2"/>
<path d="M248.632 172.228C247.226 172.768 246.066 172.768 245.15 172.228C244.235 171.689 243.614 170.61 243.287 169.008L240.917 157.779C240.786 157.142 240.835 156.619 241.064 156.21C241.293 155.785 241.702 155.474 242.29 155.246C242.846 155.033 243.336 155.049 243.728 155.311C244.121 155.572 244.399 156.046 244.529 156.749L246.834 167.635C246.948 168.273 247.161 168.698 247.488 168.91C247.798 169.139 248.191 169.155 248.648 168.976C248.812 168.91 248.926 168.861 249.024 168.796C249.122 168.747 249.22 168.698 249.335 168.649C249.498 168.583 249.678 168.6 249.825 168.681C249.989 168.763 250.136 168.992 250.267 169.352C250.479 169.907 250.528 170.365 250.43 170.725C250.316 171.084 250.136 171.362 249.858 171.575C249.744 171.689 249.564 171.803 249.335 171.918C249.106 172.032 248.877 172.13 248.648 172.212L248.632 172.228Z" fill="#003BE2"/>
<path d="M256.103 169.384C255.384 169.662 254.665 169.744 253.962 169.646C253.259 169.548 252.605 169.286 252.049 168.894C251.494 168.502 251.085 167.962 250.823 167.309C250.513 166.491 250.497 165.739 250.758 165.053C251.02 164.366 251.575 163.713 252.442 163.108C253.308 162.503 254.469 161.915 255.94 161.359L257.836 160.64L258.228 162.585L256.708 163.173C255.972 163.451 255.384 163.729 254.959 163.99C254.518 164.252 254.24 164.53 254.125 164.808C254.011 165.086 254.027 165.412 254.158 165.772C254.338 166.246 254.632 166.54 255.057 166.671C255.466 166.802 255.923 166.769 256.381 166.589C256.855 166.41 257.231 166.164 257.525 165.854C257.819 165.543 258.015 165.151 258.13 164.71C258.244 164.268 258.228 163.794 258.13 163.304L257.509 160.427C257.378 159.741 257.067 159.299 256.61 159.087C256.136 158.874 255.515 158.907 254.714 159.218C254.24 159.397 253.798 159.626 253.357 159.888C252.932 160.166 252.491 160.492 252.082 160.885C251.772 161.163 251.477 161.326 251.167 161.359C250.873 161.391 250.595 161.326 250.366 161.179C250.137 161.032 249.957 160.819 249.859 160.542C249.761 160.264 249.745 159.969 249.859 159.626C249.957 159.299 250.186 158.972 250.562 158.678C251.134 158.139 251.722 157.697 252.36 157.321C252.981 156.962 253.602 156.651 254.223 156.422C255.547 155.916 256.675 155.769 257.623 155.965C258.555 156.161 259.307 156.619 259.895 157.321C260.467 158.024 260.876 158.94 261.121 160.018L262.167 165.069C262.314 165.674 262.265 166.197 262.053 166.606C261.84 167.014 261.448 167.325 260.909 167.537C260.402 167.733 259.977 167.717 259.601 167.488C259.225 167.259 258.963 166.818 258.816 166.132L258.555 164.824L258.898 165.396C258.898 166.083 258.767 166.687 258.539 167.21C258.31 167.734 257.983 168.191 257.574 168.551C257.166 168.91 256.708 169.188 256.185 169.384H256.103Z" fill="#003BE2"/>
<path d="M266.94 165.2C266.385 165.412 265.894 165.38 265.502 165.102C265.093 164.824 264.832 164.35 264.668 163.68L262.854 155.131C262.74 154.526 262.805 154.003 263.034 153.578C263.263 153.153 263.655 152.827 264.227 152.614C264.766 152.418 265.208 152.418 265.6 152.647C265.976 152.876 266.237 153.317 266.368 154.003L266.63 155.278L266.303 154.543C266.401 153.611 266.711 152.81 267.267 152.124C267.807 151.437 268.559 150.914 269.523 150.554C270.373 150.228 271.141 150.13 271.86 150.26C272.563 150.391 273.184 150.767 273.707 151.404C274.23 152.042 274.623 152.957 274.868 154.15L276.028 159.724C276.175 160.329 276.126 160.852 275.898 161.293C275.669 161.735 275.26 162.062 274.672 162.29C274.132 162.503 273.658 162.47 273.25 162.192C272.857 161.931 272.58 161.457 272.432 160.77L271.354 155.54C271.19 154.788 270.929 154.249 270.553 153.971C270.177 153.676 269.686 153.66 269.065 153.889C268.281 154.183 267.741 154.69 267.447 155.376C267.153 156.079 267.104 156.897 267.316 157.828L268.33 162.683C268.591 163.925 268.134 164.775 266.957 165.216L266.94 165.2Z" fill="#003BE2"/>
<path d="M283.728 158.842C282.861 159.168 282.044 159.25 281.227 159.087C280.426 158.923 279.707 158.547 279.069 157.943C278.432 157.338 277.925 156.52 277.533 155.507C277.026 154.183 276.797 152.892 276.862 151.65C276.928 150.407 277.271 149.312 277.925 148.38C278.562 147.432 279.478 146.746 280.655 146.288C281.521 145.961 282.338 145.88 283.139 146.027C283.94 146.174 284.61 146.582 285.166 147.22L284.97 147.285L283.728 141.336C283.597 140.731 283.646 140.208 283.891 139.815C284.12 139.407 284.528 139.096 285.133 138.867C285.673 138.655 286.147 138.671 286.523 138.933C286.899 139.178 287.176 139.652 287.324 140.338L290.266 154.265C290.364 154.87 290.315 155.393 290.102 155.818C289.89 156.243 289.481 156.569 288.893 156.798C288.353 157.011 287.879 156.962 287.487 156.684C287.095 156.406 286.85 155.916 286.735 155.229L286.49 154.167L286.833 155.049C286.67 155.916 286.31 156.684 285.787 157.338C285.264 157.992 284.561 158.482 283.711 158.809L283.728 158.842ZM284.153 155.67C284.79 155.425 285.264 155.033 285.542 154.51C285.836 153.987 285.967 153.349 285.967 152.63C285.967 151.911 285.803 151.159 285.509 150.375C285.199 149.541 284.757 148.985 284.218 148.707C283.679 148.429 283.057 148.413 282.371 148.675C281.766 148.903 281.308 149.296 280.998 149.819C280.687 150.342 280.54 150.963 280.54 151.682C280.54 152.401 280.704 153.153 281.014 153.971C281.325 154.788 281.75 155.327 282.306 155.621C282.861 155.916 283.466 155.932 284.136 155.67H284.153Z" fill="#003BE2"/>
<path d="M212.442 214.073C211.789 214.318 211.233 214.334 210.791 214.073C210.35 213.828 210.056 213.37 209.892 212.667L207.065 199.182C206.934 198.577 206.999 198.054 207.228 197.613C207.457 197.188 207.866 196.861 208.47 196.632L213.799 194.605C215.058 194.115 216.153 193.903 217.052 193.952C217.951 194.001 218.703 194.246 219.291 194.703C219.88 195.145 220.304 195.766 220.599 196.518C221.04 197.695 221.04 198.79 220.599 199.82C220.141 200.849 219.356 201.699 218.245 202.353L218.098 201.977C219.193 201.781 220.141 201.895 220.958 202.353C221.776 202.794 222.38 203.497 222.74 204.445C223.361 206.064 223.279 207.486 222.511 208.744C221.743 210.003 220.419 211 218.523 211.719L212.459 214.04L212.442 214.073ZM211.658 203.203L215.27 201.83C216.202 201.47 216.856 200.996 217.199 200.408C217.542 199.82 217.575 199.133 217.281 198.348C217.068 197.809 216.725 197.449 216.234 197.302C215.744 197.155 215.09 197.237 214.24 197.564L210.791 198.872L211.658 203.187V203.203ZM213.211 210.657L217.264 209.104C218.212 208.744 218.85 208.254 219.16 207.665C219.471 207.061 219.471 206.358 219.16 205.573C218.915 204.952 218.539 204.56 218 204.413C217.46 204.266 216.79 204.347 216.006 204.658L212.279 206.08L213.227 210.657H213.211Z" fill="#003BE2"/>
<path d="M230.424 207.486C229.705 207.763 228.986 207.845 228.283 207.747C227.564 207.649 226.926 207.387 226.37 206.979C225.798 206.57 225.39 206.047 225.145 205.393C224.834 204.576 224.818 203.824 225.079 203.138C225.341 202.451 225.913 201.797 226.763 201.193C227.629 200.588 228.79 199.999 230.261 199.444L232.157 198.724L232.549 200.67L231.029 201.258C230.293 201.536 229.705 201.814 229.28 202.075C228.839 202.337 228.577 202.615 228.463 202.909C228.348 203.187 228.365 203.514 228.495 203.873C228.675 204.347 228.969 204.641 229.378 204.772C229.787 204.903 230.244 204.87 230.702 204.691C231.176 204.511 231.552 204.266 231.846 203.955C232.14 203.644 232.337 203.252 232.451 202.811C232.565 202.369 232.549 201.895 232.451 201.405L231.83 198.528C231.699 197.842 231.388 197.4 230.931 197.188C230.457 196.975 229.836 197.025 229.035 197.319C228.561 197.499 228.119 197.727 227.678 197.989C227.253 198.267 226.812 198.594 226.387 198.986C226.076 199.264 225.782 199.411 225.471 199.46C225.161 199.509 224.899 199.444 224.67 199.28C224.425 199.133 224.262 198.921 224.164 198.643C224.066 198.365 224.049 198.071 224.164 197.727C224.262 197.4 224.491 197.074 224.867 196.779C225.439 196.24 226.027 195.799 226.665 195.423C227.302 195.063 227.923 194.752 228.528 194.524C229.852 194.017 230.996 193.87 231.928 194.066C232.86 194.262 233.611 194.72 234.184 195.439C234.756 196.142 235.164 197.057 235.409 198.136L236.456 203.187C236.603 203.792 236.57 204.315 236.341 204.723C236.129 205.132 235.736 205.442 235.197 205.655C234.69 205.851 234.265 205.835 233.889 205.606C233.513 205.377 233.252 204.936 233.105 204.249L232.843 202.942L233.186 203.514C233.186 204.2 233.056 204.805 232.811 205.328C232.582 205.851 232.255 206.309 231.846 206.668C231.437 207.028 230.98 207.306 230.457 207.502L230.424 207.486Z" fill="#003BE2"/>
<path d="M241.261 203.301C240.705 203.514 240.215 203.481 239.822 203.203C239.414 202.925 239.152 202.451 238.989 201.781L237.174 193.232C237.076 192.628 237.125 192.104 237.37 191.679C237.599 191.255 237.992 190.928 238.564 190.715C239.103 190.519 239.544 190.519 239.937 190.748C240.313 190.977 240.574 191.418 240.705 192.104L240.966 193.363L240.64 192.628C240.738 191.696 241.048 190.895 241.588 190.208C242.127 189.522 242.879 188.999 243.843 188.639C244.693 188.312 245.461 188.214 246.181 188.345C246.883 188.476 247.505 188.852 248.028 189.489C248.551 190.127 248.943 191.042 249.188 192.235L250.349 197.809C250.496 198.414 250.447 198.937 250.218 199.378C249.989 199.82 249.58 200.146 248.992 200.375C248.453 200.588 247.979 200.555 247.57 200.277C247.178 200.016 246.9 199.542 246.753 198.855L245.674 193.625C245.51 192.873 245.249 192.333 244.873 192.055C244.497 191.761 244.007 191.745 243.386 191.974C242.601 192.268 242.062 192.775 241.767 193.461C241.473 194.164 241.424 194.981 241.637 195.913L242.65 200.768C242.912 202.01 242.454 202.86 241.277 203.301H241.261Z" fill="#003BE2"/>
<path d="M257.427 197.188C256.708 197.466 255.989 197.548 255.286 197.45C254.583 197.351 253.929 197.09 253.374 196.681C252.802 196.273 252.409 195.75 252.148 195.096C251.837 194.278 251.821 193.527 252.082 192.84C252.344 192.154 252.916 191.5 253.766 190.895C254.632 190.29 255.793 189.702 257.264 189.146L259.16 188.427L259.552 190.372L258.032 190.96C257.297 191.238 256.708 191.516 256.283 191.778C255.842 192.039 255.564 192.317 255.449 192.611C255.335 192.889 255.351 193.216 255.482 193.576C255.662 194.05 255.956 194.344 256.381 194.475C256.806 194.605 257.247 194.573 257.705 194.393C258.179 194.213 258.555 193.968 258.849 193.657C259.144 193.347 259.34 192.955 259.454 192.513C259.569 192.072 259.552 191.598 259.454 191.107L258.833 188.231C258.702 187.544 258.392 187.103 257.934 186.89C257.46 186.678 256.839 186.727 256.038 187.021C255.564 187.201 255.123 187.43 254.681 187.691C254.256 187.969 253.815 188.296 253.406 188.688C253.096 188.966 252.802 189.13 252.491 189.162C252.18 189.195 251.919 189.13 251.69 188.983C251.461 188.835 251.281 188.623 251.183 188.345C251.085 188.067 251.069 187.773 251.183 187.43C251.298 187.086 251.51 186.776 251.886 186.482C252.458 185.942 253.047 185.501 253.684 185.125C254.305 184.765 254.926 184.455 255.548 184.226C256.872 183.719 257.999 183.572 258.947 183.768C259.879 183.965 260.631 184.422 261.219 185.141C261.791 185.844 262.2 186.76 262.445 187.838L263.491 192.889C263.639 193.494 263.59 194.017 263.377 194.426C263.165 194.834 262.772 195.145 262.233 195.357C261.726 195.553 261.301 195.537 260.925 195.308C260.549 195.079 260.288 194.638 260.141 193.952L259.879 192.644L260.222 193.216C260.222 193.903 260.092 194.507 259.846 195.03C259.618 195.553 259.291 196.011 258.882 196.371C258.473 196.73 258.016 197.008 257.493 197.204L257.427 197.188Z" fill="#003BE2"/>
<path d="M268.264 192.987C267.708 193.2 267.218 193.167 266.826 192.889C266.417 192.611 266.155 192.137 265.992 191.467L264.178 182.918C264.063 182.314 264.129 181.791 264.374 181.366C264.603 180.941 264.995 180.614 265.567 180.401C266.106 180.205 266.548 180.205 266.94 180.434C267.316 180.663 267.578 181.104 267.708 181.791L267.97 183.049L267.643 182.314C267.741 181.382 268.052 180.581 268.607 179.895C269.163 179.208 269.899 178.685 270.863 178.325C271.713 177.998 272.481 177.9 273.2 178.031C273.903 178.162 274.524 178.538 275.047 179.175C275.57 179.813 275.963 180.728 276.208 181.921L277.368 187.495C277.516 188.1 277.466 188.623 277.238 189.064C277.009 189.506 276.6 189.833 276.012 190.061C275.472 190.274 274.998 190.241 274.59 189.963C274.197 189.702 273.92 189.228 273.772 188.541L272.694 183.311C272.53 182.559 272.269 182.019 271.893 181.742C271.517 181.447 271.026 181.431 270.405 181.66C269.621 181.954 269.081 182.461 268.787 183.147C268.493 183.85 268.444 184.667 268.656 185.599L269.67 190.454C269.931 191.696 269.474 192.546 268.297 192.987H268.264Z" fill="#003BE2"/>
<path d="M284.448 186.874C283.728 187.152 283.009 187.233 282.306 187.135C281.587 187.037 280.95 186.776 280.394 186.367C279.822 185.959 279.429 185.435 279.168 184.782C278.857 183.964 278.841 183.213 279.103 182.526C279.364 181.839 279.936 181.186 280.786 180.581C281.636 179.976 282.813 179.388 284.284 178.832L286.18 178.113L286.572 180.058L285.052 180.646C284.317 180.924 283.728 181.202 283.303 181.464C282.862 181.725 282.584 182.003 282.47 182.297C282.355 182.575 282.372 182.902 282.502 183.262C282.682 183.736 282.976 184.03 283.401 184.161C283.81 184.291 284.268 184.259 284.725 184.079C285.199 183.899 285.575 183.654 285.87 183.343C286.164 183.033 286.36 182.64 286.474 182.199C286.589 181.758 286.572 181.284 286.474 180.793L285.853 177.917C285.722 177.23 285.412 176.789 284.954 176.576C284.48 176.364 283.859 176.413 283.058 176.707C282.584 176.887 282.143 177.116 281.701 177.377C281.276 177.655 280.835 177.982 280.41 178.374C280.1 178.652 279.805 178.816 279.495 178.848C279.201 178.881 278.923 178.816 278.694 178.668C278.449 178.521 278.285 178.309 278.187 178.031C278.089 177.753 278.073 177.459 278.187 177.116C278.285 176.789 278.514 176.462 278.89 176.168C279.462 175.628 280.051 175.187 280.688 174.811C281.309 174.451 281.93 174.141 282.551 173.912C283.875 173.405 285.02 173.258 285.951 173.454C286.883 173.65 287.635 174.108 288.223 174.827C288.795 175.546 289.204 176.445 289.449 177.524L290.495 182.575C290.642 183.18 290.593 183.703 290.381 184.112C290.168 184.52 289.776 184.831 289.237 185.043C288.73 185.239 288.305 185.223 287.929 184.994C287.553 184.765 287.292 184.324 287.145 183.637L286.883 182.33L287.226 182.902C287.226 183.588 287.095 184.193 286.85 184.716C286.621 185.239 286.295 185.697 285.886 186.057C285.477 186.416 285.02 186.694 284.497 186.89L284.448 186.874Z" fill="#003BE2"/>
</svg>
