<svg width="336" height="187" viewBox="0 0 336 187" fill="none" xmlns="http://www.w3.org/2000/svg">
<path d="M8.47814 158.007L25.74 142.558L23.999 119.439C23.7993 116.754 27.1276 115.346 28.9209 117.34L44.3707 134.602L67.4892 132.861C70.1739 132.661 71.5823 135.99 69.5881 137.783L52.3262 153.233L54.0672 176.351C54.2669 179.036 50.9386 180.444 49.1453 178.45L33.6956 161.188L10.577 162.929C7.89233 163.129 6.48395 159.801 8.47814 158.007Z" fill="#003BE2"/>
<path d="M316.868 74.8139L324.265 75.5662L329.373 70.1598C329.969 69.5329 331.019 70.0188 330.925 70.8807L330.173 78.2772L335.579 83.3858C336.206 83.9813 335.72 85.0312 334.858 84.9372L327.462 84.185L322.353 89.5914C321.757 90.2183 320.708 89.7324 320.802 88.8706L321.554 81.474L316.147 76.3654C315.521 75.7699 316.006 74.7199 316.868 74.8139Z" fill="#003BE2"/>
<path d="M50.6161 83.3788L168.468 113.675L300.863 102.376L171.397 73.7516L50.6161 83.3788Z" fill="#023AB7"/>
<path d="M297.177 -0.000194206L46.8632 13.1865L50.5259 83.4383L300.839 70.2516L297.177 -0.000194206Z" fill="#003BE2"/>
<path d="M84.5142 34.6235L84.1484 27.4718L63.3021 28.5491L63.6907 35.7008L69.748 35.4028L71.3481 66.0038L80.1255 65.5453L78.5254 34.9215L84.5142 34.6235Z" fill="#B5FE28"/>
<path d="M87.0514 27.3114L82.7541 65.4078L91.9429 64.9265L92.1944 58.6L97.5659 58.3249L98.5488 64.5826L107.669 64.1013L99.4631 26.6696L87.0285 27.3343L87.0514 27.3114ZM92.4458 52.8465L93.223 33.6837H93.6801L96.6745 52.6173L92.4458 52.8465Z" fill="#B5FE28"/>
<path d="M128.538 48.6058C127.99 47.2993 127.281 46.1532 126.413 45.1675C125.544 44.1819 124.561 43.3108 123.51 42.5315C122.435 41.7751 121.338 41.0416 120.195 40.3768C119.372 39.8955 118.572 39.3912 117.795 38.864C117.018 38.3597 116.401 37.7637 115.898 37.0761C115.395 36.3884 115.144 35.5861 115.075 34.6234C115.052 34.0503 115.098 33.569 115.258 33.1564C115.418 32.7438 115.646 32.4229 115.944 32.1707C116.264 31.9186 116.607 31.7811 117.041 31.7811C117.658 31.7581 118.161 31.9186 118.595 32.3083C119.007 32.6979 119.349 33.2251 119.555 33.8899C119.784 34.5775 119.921 35.334 119.989 36.1821C120.058 37.0302 120.058 37.9242 119.989 38.841L127.875 37.397C128.035 34.7151 127.715 32.4229 126.915 30.5203C126.115 28.6407 124.858 27.2196 123.144 26.2798C121.429 25.34 119.281 24.9274 116.698 25.0649C114.412 25.1795 112.492 25.6838 110.915 26.6007C109.338 27.4946 108.172 28.7095 107.418 30.2224C106.663 31.7352 106.32 33.4544 106.435 35.4027C106.503 36.8927 106.801 38.1992 107.303 39.3224C107.806 40.4456 108.446 41.4312 109.201 42.2794C109.978 43.1504 110.823 43.9068 111.715 44.5716C112.629 45.2363 113.521 45.8323 114.389 46.4053C115.372 47.0013 116.355 47.666 117.292 48.3766C118.252 49.0872 119.052 49.9353 119.692 50.921C120.332 51.9066 120.698 53.0986 120.767 54.5197C120.812 55.2532 120.767 55.8492 120.607 56.3077C120.469 56.7661 120.218 57.1328 119.921 57.3621C119.601 57.6142 119.235 57.7517 118.778 57.7747C117.818 57.8205 117.109 57.4308 116.652 56.5827C116.195 55.7575 115.898 54.6573 115.784 53.3049C115.669 51.9525 115.692 50.5542 115.852 49.0872L107.806 50.6001C107.349 52.8006 107.281 54.7719 107.578 56.491C107.875 58.2102 108.515 59.6772 109.498 60.8691C110.481 62.0611 111.761 62.9321 113.361 63.5052C114.961 64.0782 116.835 64.3075 119.007 64.1928C121.658 64.0553 123.784 63.4823 125.361 62.5195C126.938 61.5339 128.035 60.2273 128.698 58.6228C129.361 56.9953 129.635 55.2074 129.521 53.2132C129.43 51.4482 129.11 49.9353 128.561 48.6058H128.538Z" fill="#B5FE28"/>
<path d="M149.133 24.0336L128.31 25.1338L128.698 32.2855L134.733 31.9646L136.333 62.5885L145.133 62.13L143.533 31.5062L149.522 31.1853L149.133 24.0336Z" fill="#B5FE28"/>
<path d="M165.796 23.1625L163.991 40.8125L163.762 40.8354L160.219 23.4605L150.047 23.9877L159.351 48.6977L160.013 61.3506L169.271 60.8463L168.608 48.2163L175.214 22.6582L165.796 23.1625Z" fill="#B5FE28"/>
<path d="M201.729 28.5033L201.363 21.3058L193.934 21.6955L185.157 22.1539L187.123 59.9065L195.923 59.4481L195.169 45.2593L201.569 44.9155L201.203 37.993L194.803 38.3369L194.323 28.893L201.729 28.5033Z" fill="#B5FE28"/>
<path d="M225.25 46.0617C224.77 44.801 223.992 43.8154 222.918 43.1048C221.844 42.3942 220.312 42.0504 218.278 42.0962V41.569C219.604 41.271 220.77 40.7896 221.73 40.1478C222.69 39.506 223.467 38.7267 224.107 37.8327C224.724 36.9387 225.158 35.9302 225.41 34.807C225.661 33.6838 225.753 32.4919 225.684 31.2312C225.593 29.6954 225.341 28.343 224.861 27.1739C224.404 26.0049 223.787 24.9734 223.01 24.1482C222.232 23.323 221.364 22.6125 220.358 22.0394C219.352 21.4893 218.255 21.0767 217.067 20.8704C215.878 20.6412 214.621 20.5724 213.341 20.6412L202.963 21.1913L204.952 58.9668L213.729 58.5084L213.044 45.4657H213.455C214.598 45.4199 215.444 45.7179 215.992 46.2909C216.541 46.864 216.929 47.6892 217.181 48.7207C217.432 49.7522 217.638 50.9212 217.821 52.2048L218.644 58.2333L227.764 57.752L226.415 50.4169C226.141 48.7436 225.753 47.2766 225.272 46.0388L225.25 46.0617ZM216.792 36.2052C216.632 37.0075 216.427 37.6493 216.152 38.1078C215.878 38.5662 215.558 38.8871 215.192 39.1163C214.849 39.3226 214.506 39.4602 214.164 39.506C213.821 39.5748 213.524 39.5977 213.249 39.6206H212.746L212.129 27.7928L212.929 27.747C213.226 27.747 213.569 27.747 213.912 27.747C214.255 27.747 214.598 27.8616 214.918 27.9991C215.261 28.1596 215.558 28.4117 215.855 28.7785C216.129 29.1452 216.381 29.6725 216.564 30.383C216.747 31.0707 216.884 31.9876 216.929 33.0878C216.998 34.3486 216.952 35.38 216.815 36.1823L216.792 36.2052Z" fill="#B5FE28"/>
<path d="M240.336 19.2429L241.616 43.5632C241.707 45.2136 241.684 46.4972 241.57 47.437C241.456 48.3768 241.227 49.0645 240.907 49.4542C240.587 49.8438 240.153 50.0731 239.627 50.096C239.124 50.1189 238.69 49.9584 238.347 49.5688C237.981 49.1791 237.684 48.5373 237.479 47.5975C237.25 46.6806 237.113 45.397 237.021 43.8153L235.741 19.495L226.941 19.9535L228.267 45.076C228.29 45.6491 228.381 46.4514 228.518 47.5058C228.655 48.5602 228.93 49.7063 229.318 50.9441C229.73 52.1819 230.347 53.3509 231.193 54.4282C232.038 55.5056 233.158 56.3766 234.598 57.0414C236.016 57.6832 237.844 57.9582 240.039 57.8436C241.753 57.7519 243.284 57.4081 244.61 56.8351C245.959 56.2391 247.079 55.391 247.993 54.2449C248.907 53.0988 249.57 51.6776 250.005 49.9814C250.439 48.2851 250.576 46.268 250.462 43.9299L249.136 18.8074L240.336 19.2658V19.2429Z" fill="#B5FE28"/>
<path d="M260.363 18.1687L251.347 18.6442L253.327 56.4134L262.343 55.9379L260.363 18.1687Z" fill="#B5FE28"/>
<path d="M282.988 24.1711L282.623 17.0194L261.776 18.1197L262.165 25.2713L268.222 24.9504L269.822 55.5743L278.6 55.0929L277 24.492L282.988 24.1711Z" fill="#B5FE28"/>
<path d="M300.801 102.403H100.841V172.751H300.801V102.403Z" fill="#003BE2"/>
<path d="M130.419 143.021C130.419 144.672 130.328 145.955 130.168 146.895C130.008 147.835 129.734 148.5 129.391 148.866C129.048 149.256 128.614 149.439 128.065 149.439C127.562 149.439 127.151 149.233 126.808 148.843C126.465 148.454 126.214 147.766 126.031 146.826C125.848 145.886 125.779 144.626 125.779 143.021V118.678H116.979V143.823C116.979 144.396 117.025 145.199 117.093 146.253C117.162 147.308 117.368 148.454 117.711 149.714C118.053 150.975 118.625 152.167 119.402 153.29C120.179 154.413 121.276 155.353 122.671 156.064C124.065 156.797 125.871 157.141 128.065 157.141C129.779 157.141 131.311 156.889 132.682 156.362C134.054 155.835 135.22 155.032 136.202 153.955C137.162 152.878 137.917 151.479 138.42 149.806C138.945 148.133 139.197 146.116 139.197 143.801V118.655H130.397V142.998L130.419 143.021Z" fill="#B5FE28"/>
<path d="M158.306 141.302H158.123L151.037 118.678H141.437V156.5H149.78V133.853H149.963L156.934 156.5H166.58V118.678H158.306V141.302Z" fill="#B5FE28"/>
<path d="M177.895 118.678H168.866V156.5H177.895V118.678Z" fill="#B5FE28"/>
<path d="M191.838 148.821H191.45L188.638 118.678H179.267L185.278 156.5H197.736L204.182 118.678H195.107L191.838 148.821Z" fill="#B5FE28"/>
<path d="M211.839 118.678H205.553V156.5H211.839H214.422H222.239V149.279H214.422V140.569H220.753V133.967H214.422V125.899H222.239V118.678H214.422H211.839Z" fill="#B5FE28"/>
<path d="M244.937 144.649C244.526 143.365 243.794 142.357 242.766 141.577C241.737 140.821 240.205 140.385 238.194 140.317V139.789C239.565 139.56 240.754 139.148 241.737 138.552C242.72 137.956 243.543 137.222 244.228 136.374C244.914 135.526 245.371 134.54 245.691 133.417C245.988 132.317 246.148 131.125 246.148 129.864C246.148 128.328 245.943 126.976 245.554 125.761C245.166 124.569 244.594 123.515 243.863 122.644C243.131 121.773 242.285 121.016 241.325 120.42C240.343 119.801 239.268 119.366 238.103 119.068C236.937 118.77 235.68 118.632 234.4 118.632H223.999V156.454H232.8V143.388H233.211C234.354 143.434 235.177 143.755 235.702 144.351C236.228 144.97 236.571 145.795 236.754 146.849C236.937 147.904 237.097 149.073 237.211 150.379L237.714 156.454H246.857L245.897 149.073C245.714 147.4 245.394 145.91 244.983 144.626L244.937 144.649ZM236.982 134.38C236.8 135.182 236.548 135.801 236.228 136.236C235.931 136.672 235.588 136.993 235.222 137.176C234.857 137.36 234.514 137.474 234.171 137.52C233.828 137.566 233.531 137.589 233.257 137.589H232.731V125.738H233.531C233.828 125.738 234.148 125.738 234.491 125.784C234.834 125.83 235.177 125.922 235.497 126.105C235.817 126.288 236.114 126.563 236.388 126.93C236.662 127.32 236.868 127.847 237.005 128.558C237.142 129.268 237.234 130.162 237.234 131.285C237.234 132.546 237.142 133.577 236.96 134.38H236.982Z" fill="#B5FE28"/>
<path d="M267.429 138.552C266.606 137.52 265.692 136.603 264.663 135.778C263.635 134.953 262.56 134.173 261.463 133.463C260.663 132.936 259.886 132.385 259.155 131.835C258.4 131.285 257.806 130.643 257.349 129.933C256.892 129.222 256.663 128.397 256.663 127.434C256.663 126.861 256.754 126.38 256.914 125.967C257.097 125.578 257.326 125.257 257.669 125.028C257.989 124.798 258.355 124.684 258.789 124.684C259.406 124.684 259.909 124.89 260.297 125.28C260.686 125.669 260.983 126.219 261.189 126.907C261.372 127.595 261.486 128.374 261.509 129.222C261.509 130.093 261.486 130.964 261.372 131.881L269.326 130.85C269.623 128.168 269.441 125.876 268.732 123.95C268.023 122.025 266.835 120.535 265.189 119.503C263.52 118.472 261.417 117.968 258.812 117.968C256.526 117.968 254.583 118.38 252.96 119.205C251.337 120.031 250.103 121.177 249.28 122.644C248.457 124.111 248.023 125.83 248.023 127.778C248.023 129.268 248.251 130.598 248.686 131.744C249.12 132.89 249.714 133.921 250.423 134.815C251.154 135.709 251.954 136.511 252.823 137.222C253.692 137.933 254.56 138.597 255.383 139.193C256.343 139.835 257.28 140.546 258.195 141.302C259.109 142.059 259.863 142.953 260.457 143.961C261.052 144.97 261.349 146.185 261.349 147.606C261.349 148.339 261.257 148.935 261.097 149.394C260.915 149.852 260.686 150.196 260.343 150.425C260.023 150.654 259.635 150.769 259.177 150.769C258.217 150.769 257.532 150.333 257.12 149.485C256.709 148.637 256.48 147.514 256.434 146.162C256.389 144.809 256.503 143.411 256.709 141.944L248.594 143.021C248.023 145.199 247.84 147.147 248.046 148.889C248.251 150.631 248.823 152.121 249.737 153.359C250.651 154.597 251.886 155.537 253.44 156.202C254.994 156.866 256.869 157.164 259.04 157.164C261.715 157.164 263.84 156.706 265.463 155.812C267.086 154.918 268.252 153.68 269.006 152.098C269.761 150.517 270.126 148.729 270.126 146.735C270.126 144.97 269.898 143.434 269.418 142.082C268.938 140.752 268.298 139.56 267.475 138.529L267.429 138.552Z" fill="#B5FE28"/>
<path d="M288.481 125.899V118.678H280.641H278.081H271.795V156.5H278.081H280.641H288.481V149.279H280.641V140.569H286.995V133.967H280.641V125.899H288.481Z" fill="#B5FE28"/>
</svg>
