<svg width="625" height="298" viewBox="0 0 625 298" fill="none" xmlns="http://www.w3.org/2000/svg">
<path d="M616.872 197.042L621.608 132.317C621.683 131.68 621.733 131.042 621.733 130.392C621.733 121.829 614.827 114.879 606.289 114.879H603.708C603.795 114.754 603.883 114.629 603.97 114.504L603.995 114.467C604.169 114.242 604.344 114.004 604.506 113.767L604.531 113.729C604.705 113.504 604.88 113.267 605.042 113.029V113.004C605.241 112.779 605.416 112.542 605.578 112.304L605.603 112.267C605.777 112.042 605.952 111.804 606.114 111.567L606.139 111.529C606.313 111.304 606.488 111.067 606.65 110.829L606.675 110.792C606.849 110.554 607.024 110.329 607.186 110.092V110.067C607.385 109.842 607.56 109.604 607.722 109.367L607.747 109.329C607.922 109.104 608.096 108.867 608.258 108.629L608.283 108.592C608.47 108.354 608.632 108.117 608.807 107.879V107.854C609.006 107.629 609.18 107.392 609.343 107.154L609.367 107.117C609.542 106.892 609.716 106.654 609.879 106.417L609.903 106.379C610.078 106.154 610.253 105.917 610.415 105.679L610.44 105.642C610.614 105.404 610.789 105.179 610.951 104.942L610.975 104.917C611.15 104.692 611.325 104.454 611.487 104.217L611.511 104.179C611.686 103.954 611.861 103.717 612.023 103.479L612.047 103.442C612.234 103.204 612.397 102.967 612.571 102.729V102.704C612.771 102.479 612.945 102.242 613.107 102.004L613.132 101.967C613.307 101.742 613.481 101.504 613.643 101.267L613.668 101.229C613.843 101.004 614.017 100.767 614.179 100.529L614.204 100.492C614.379 100.254 614.553 100.029 614.715 99.7919V99.7669C614.915 99.5419 615.089 99.3044 615.251 99.0669L615.276 99.0294C615.451 98.8044 615.625 98.5669 615.787 98.3294L615.812 98.2919C615.999 98.0544 616.161 97.8169 616.336 97.5794V97.5544C616.535 97.3294 616.71 97.0919 616.872 96.8544L616.897 96.8169C617.071 96.5919 617.246 96.3544 617.408 96.1169L617.432 96.0919C617.607 95.8669 617.782 95.6294 617.944 95.3919L617.969 95.3544C618.143 95.1169 618.318 94.8919 618.492 94.6419L618.517 94.6169C618.692 94.3919 618.866 94.1544 619.028 93.9169L619.053 93.8794C619.228 93.6544 619.402 93.4169 619.564 93.1794L619.589 93.1419C619.776 92.9044 619.938 92.6669 620.113 92.4294V92.4044C620.312 92.1794 620.487 91.9419 620.649 91.7044L620.674 91.6669C620.848 91.4294 621.023 91.2044 621.185 90.9669V90.9418C621.384 90.7169 621.546 90.4793 621.708 90.2419L621.733 90.2044C625.672 85.1418 626.083 78.1668 622.78 72.6668L620.761 69.3043C611.661 53.9667 591.629 35.9791 565.24 35.9791C558.397 35.9791 551.491 37.2166 544.71 39.6541C534.052 43.5166 525.089 50.2042 518.757 59.0042L518.208 59.7417L517.673 60.4667L517.124 61.2167L516.588 61.9542L516.064 62.6667L515.516 63.4167L514.992 64.1417L514.444 64.8792L513.908 65.6042L513.359 66.3542L512.824 67.0792L512.3 67.7917L511.751 68.5417L511.215 69.2668L510.692 69.9918L510.156 70.7293L509.607 71.4793L509.084 72.1918L508.548 72.9168L507.999 73.6668L507.463 74.3918L506.927 75.1293L506.404 75.8418L505.855 76.5918L505.332 77.3168L504.796 78.0418L504.247 78.7918L503.711 79.5168L503.188 80.2293L502.639 80.9793L502.091 81.7168L501.567 82.4418L501.031 83.1668L500.483 83.9168L499.947 84.6418L499.423 85.3543L498.875 86.1043L498.326 86.8418L497.79 87.5668L497.254 88.3043C495.522 90.5918 493.951 93.0919 492.567 95.7794C479.491 88.4168 474.443 78.4793 473.745 77.0043C474.779 75.0168 475.39 72.8043 475.49 70.5043L476.612 45.1791C476.874 39.4041 473.894 33.9541 468.896 31.0541C465.904 29.3166 462.788 28.0291 459.609 27.2041C456.518 26.4166 453.464 26.0166 450.497 26.0166C446.009 26.0166 441.671 27.0291 437.72 28.9791C435.825 28.1541 433.743 27.7041 431.562 27.7041H411.917C406.731 27.7041 402.144 30.2541 399.339 34.1791C397.42 32.8416 395.375 31.6416 393.206 30.5916C386.562 27.3666 378.796 25.7291 370.12 25.7291C361.445 25.7291 353.666 27.3666 347.035 30.5791C345.651 31.2541 344.317 31.9791 343.033 32.7541C343.432 30.9291 343.644 29.0666 343.644 27.1666C343.644 19.0665 340.403 11.954 334.532 7.14148C329.396 2.94146 322.74 0.828949 314.712 0.828949C306.684 0.828949 300.277 2.89146 295.191 6.95398C292.636 8.99149 290.567 11.454 289.034 14.304C288.909 14.4665 288.772 14.6415 288.635 14.8415C285.867 12.2665 282.165 10.679 278.101 10.679H264.776C259.503 10.679 254.841 13.329 252.049 17.379C251.862 17.6165 251.687 17.854 251.513 18.104C251.326 18.3415 251.151 18.5915 250.977 18.8415C250.79 19.079 250.615 19.3165 250.441 19.5665C250.254 19.804 250.067 20.054 249.892 20.304C249.705 20.5415 249.531 20.779 249.356 21.029C249.169 21.2665 248.995 21.504 248.82 21.754C248.633 21.9915 248.446 22.2415 248.272 22.4915C248.085 22.729 247.91 22.9665 247.736 23.2165C247.549 23.4541 247.374 23.7041 247.2 23.9541C247.013 24.1916 246.838 24.4291 246.664 24.6791C246.477 24.9166 246.29 25.1666 246.115 25.4166C245.928 25.6541 245.754 25.8916 245.579 26.1416C245.392 26.3791 245.218 26.6166 245.043 26.8666C244.856 27.1041 244.669 27.3541 244.495 27.6041C244.308 27.8416 244.133 28.0791 243.959 28.3291C243.772 28.5666 243.597 28.8166 243.423 29.0666C243.236 29.3041 243.061 29.5541 242.887 29.8041C242.7 30.0416 242.513 30.2916 242.351 30.5416C242.164 30.7791 241.989 31.0166 241.815 31.2666C241.628 31.5041 241.453 31.7416 241.279 31.9916C241.129 32.1791 240.992 32.3666 240.855 32.5666C240.469 32.7541 240.082 32.9541 239.721 33.1666C237.253 31.6291 234.572 30.3291 231.693 29.2916C225.074 26.9166 217.931 25.7041 210.477 25.7041C202.2 25.7041 194.621 27.0416 187.977 29.6666C182.131 31.9791 177.145 35.2166 173.106 39.3041C170.426 36.4416 167.31 33.9791 163.794 31.9291C156.652 27.7916 147.914 25.6916 137.804 25.6916C132.644 25.6916 127.396 26.2916 122.21 27.4916C121.948 27.5541 121.687 27.6166 121.425 27.6791V24.6041C121.425 16.0415 114.494 9.09149 105.955 9.09149H37.5082C32.2353 9.09149 27.5733 11.7415 24.7811 15.779C24.5941 16.0165 24.4071 16.2665 24.2326 16.5165C24.0456 16.754 23.8711 16.9915 23.6966 17.2415C23.5096 17.479 23.3351 17.7165 23.1606 17.9665C22.9736 18.204 22.7866 18.454 22.6121 18.704C22.4251 18.9415 22.2506 19.179 22.0761 19.429C21.8891 19.6665 21.7021 19.9165 21.5401 20.1665C21.3531 20.404 21.1786 20.6415 21.0041 20.8915C20.8171 21.129 20.6301 21.379 20.4556 21.629C20.2686 21.8665 20.0941 22.104 19.9196 22.354C19.7326 22.5915 19.5581 22.8415 19.3836 23.0915C19.1966 23.3291 19.0221 23.5791 18.8476 23.8166C18.6606 24.0541 18.4861 24.3041 18.3116 24.5541C18.1246 24.7916 17.9376 25.0416 17.7756 25.2916C17.5886 25.5291 17.4141 25.7666 17.2395 26.0166C17.0526 26.2541 16.8656 26.5041 16.6911 26.7541C16.5041 26.9916 16.3296 27.2291 16.1551 27.4791C15.9681 27.7166 15.7936 27.9666 15.6191 28.2166C15.4321 28.4541 15.2576 28.7041 15.083 28.9541C14.8961 29.1916 14.7215 29.4416 14.547 29.6791C14.3601 29.9166 14.1731 30.1666 14.011 30.4166C13.824 30.6541 13.6495 30.8916 13.475 31.1416C13.288 31.3791 13.1135 31.6291 12.939 31.8791C12.752 32.1166 12.5775 32.3666 12.403 32.6041C12.216 32.8416 12.0415 33.0916 11.867 33.3416C11.68 33.5791 11.5055 33.8291 11.331 34.0791C11.144 34.3166 10.9695 34.5666 10.795 34.8041C10.608 35.0416 10.421 35.2916 10.259 35.5416C10.072 35.7791 9.89747 36.0166 9.72295 36.2666C9.53597 36.5041 9.34899 36.7541 9.18694 37.0041C8.99996 37.2416 8.82545 37.4791 8.65094 37.7291C8.46396 37.9666 8.28944 38.2166 8.11493 38.4666C7.92795 38.7041 7.75343 38.9541 7.57892 39.1916C7.39194 39.4291 7.21742 39.6791 7.04291 39.9291C6.85593 40.1666 6.66895 40.4166 6.5069 40.6666C6.31992 40.9041 6.14541 41.1416 5.97089 41.3916C5.78391 41.6291 5.6094 41.8791 5.43488 42.1291C5.2479 42.3666 5.07339 42.6166 4.89887 42.8666C4.71189 43.1041 4.53738 43.3541 4.36286 43.6041C4.17588 43.8416 3.9889 44.0916 3.82685 44.3416C3.63987 44.5791 3.46536 44.8166 3.29085 45.0666C1.23407 47.7042 0 51.0167 0 54.6292V74.0418C0 82.6043 6.93072 89.5543 15.4695 89.5543H22.8614V146.942C22.8614 146.942 22.8115 147.005 22.7991 147.042C22.6121 147.28 22.4376 147.53 22.2631 147.767C22.0761 148.005 21.8891 148.255 21.7271 148.505C21.5401 148.742 21.3656 148.98 21.1911 149.23C21.0041 149.467 20.8296 149.717 20.655 149.967C20.4681 150.205 20.2811 150.455 20.119 150.705C18.0623 153.342 16.8407 156.655 16.8407 160.255V259.593C16.8407 268.155 23.7714 275.105 32.3101 275.105H56.63C61.9028 275.105 66.5648 272.455 69.3571 268.418C69.5441 268.18 69.7186 267.943 69.8931 267.693C70.0801 267.455 70.2546 267.218 70.4291 266.968C70.6161 266.73 70.803 266.48 70.9776 266.23C71.1645 265.993 71.3391 265.755 71.5136 265.505C71.7006 265.268 71.8875 265.018 72.062 264.768C72.249 264.53 72.4235 264.293 72.5981 264.043C72.785 263.805 72.972 263.555 73.1465 263.305C73.3335 263.068 73.508 262.83 73.6825 262.58C73.8695 262.343 74.044 262.093 74.2186 261.843C74.4055 261.605 74.58 261.355 74.7546 261.105C74.9415 260.868 75.1161 260.618 75.2906 260.38C75.4775 260.143 75.6645 259.893 75.8266 259.643C75.9388 259.505 76.0385 259.368 76.1507 259.218V259.605C76.1507 268.168 83.0814 275.118 91.6201 275.118H115.94C119.729 275.118 123.207 273.755 125.9 271.48C127.57 272.48 129.34 273.343 131.21 274.068C136.595 276.168 142.317 277.23 148.225 277.23C155.891 277.23 162.922 275.593 169.154 272.38C171.648 274.105 174.677 275.13 177.943 275.13H193.387V281.893C193.387 290.455 200.318 297.405 208.857 297.405H233.176C238.449 297.405 243.111 294.755 245.903 290.718C246.09 290.48 246.265 290.23 246.439 289.993C246.626 289.755 246.813 289.505 246.975 289.255C247.162 289.018 247.337 288.78 247.512 288.53C247.698 288.293 247.885 288.043 248.06 287.793C248.247 287.555 248.421 287.318 248.596 287.068C248.783 286.83 248.957 286.58 249.132 286.33C249.319 286.093 249.493 285.843 249.668 285.593C249.855 285.355 250.029 285.105 250.204 284.855C250.391 284.618 250.566 284.368 250.74 284.118C250.927 283.88 251.102 283.643 251.276 283.393C251.463 283.155 251.638 282.905 251.812 282.655C251.999 282.418 252.174 282.168 252.348 281.93C252.535 281.693 252.71 281.443 252.884 281.193C253.071 280.955 253.246 280.705 253.42 280.455C253.607 280.218 253.782 279.968 253.956 279.73C254.143 279.493 254.33 279.243 254.492 278.993C254.679 278.755 254.854 278.518 255.028 278.268C255.215 278.03 255.39 277.78 255.564 277.53C255.651 277.43 255.726 277.318 255.801 277.218C256.2 277.218 256.611 277.243 257.01 277.243C265.362 277.243 273.04 275.043 279.809 270.718V281.905C279.809 290.468 286.74 297.418 295.279 297.418H319.599C324.871 297.418 329.533 294.768 332.326 290.73C332.513 290.493 332.687 290.243 332.862 290.005C333.049 289.768 333.236 289.518 333.398 289.268C333.585 289.03 333.759 288.793 333.934 288.543C334.121 288.305 334.308 288.055 334.482 287.805C334.669 287.568 334.844 287.33 335.018 287.08C335.205 286.843 335.38 286.593 335.554 286.343C335.741 286.105 335.916 285.855 336.09 285.605C336.277 285.368 336.452 285.118 336.626 284.88C336.813 284.643 337 284.393 337.162 284.143C337.349 283.905 337.524 283.668 337.698 283.418C337.885 283.18 338.06 282.93 338.234 282.68C338.421 282.443 338.596 282.193 338.77 281.943C338.957 281.705 339.132 281.455 339.306 281.218C339.493 280.98 339.668 280.73 339.842 280.48C340.029 280.243 340.204 279.993 340.378 279.755C340.565 279.518 340.752 279.268 340.914 279.018C341.101 278.78 341.276 278.543 341.45 278.293C341.637 278.055 341.812 277.805 341.986 277.555C342.073 277.455 342.148 277.343 342.223 277.243C342.622 277.243 343.033 277.268 343.432 277.268C352.121 277.268 360.073 274.893 367.054 270.205C367.765 269.73 368.463 269.23 369.136 268.693C371.94 272.605 376.528 275.155 381.701 275.155H406.021C411.293 275.155 415.955 272.505 418.748 268.468C418.935 268.23 419.109 267.98 419.284 267.73C419.421 267.555 419.558 267.38 419.683 267.193C422.674 269.368 425.99 271.243 429.605 272.78C436.561 275.755 444.937 277.255 454.498 277.255C464.059 277.255 471.389 275.943 477.983 273.243C480.75 272.105 483.306 270.805 485.662 269.343C488.491 272.88 492.854 275.155 497.728 275.155H521.898C527.171 275.155 531.833 272.505 534.625 268.468C534.812 268.23 534.987 267.98 535.161 267.73C535.348 267.493 535.523 267.243 535.697 266.993C535.884 266.755 536.059 266.505 536.233 266.268C536.42 266.03 536.607 265.78 536.769 265.53C536.956 265.293 537.131 265.055 537.305 264.805C537.492 264.568 537.667 264.318 537.841 264.068C538.028 263.83 538.203 263.58 538.377 263.33C538.564 263.093 538.739 262.843 538.913 262.593C539.1 262.355 539.287 262.105 539.449 261.855C539.636 261.618 539.811 261.38 539.985 261.13C540.172 260.893 540.359 260.643 540.534 260.393C540.721 260.155 540.895 259.918 541.07 259.668C541.257 259.43 541.431 259.18 541.606 258.93C541.793 258.693 541.967 258.455 542.142 258.205C542.242 258.068 542.354 257.93 542.454 257.793C544.224 263.668 547.44 267.568 550.282 270.018C555.717 274.718 562.971 277.093 571.872 277.093C586.531 277.093 594.16 270.68 598.024 265.018C598.186 264.805 598.336 264.593 598.485 264.38C598.672 264.13 598.847 263.893 599.021 263.655C599.208 263.405 599.383 263.168 599.557 262.918C599.744 262.668 599.919 262.43 600.093 262.193C600.28 261.943 600.455 261.705 600.629 261.455C600.816 261.205 601.003 260.968 601.178 260.718C601.365 260.468 601.539 260.23 601.714 259.993C601.901 259.743 602.075 259.505 602.25 259.268C602.437 259.018 602.624 258.768 602.798 258.53C602.985 258.28 603.16 258.043 603.334 257.793C603.521 257.543 603.696 257.305 603.87 257.068C604.057 256.818 604.232 256.58 604.406 256.343C604.593 256.093 604.78 255.843 604.955 255.605C605.142 255.355 605.316 255.118 605.491 254.88C605.678 254.63 605.852 254.393 606.027 254.143C606.214 253.893 606.401 253.643 606.575 253.405C606.762 253.155 606.937 252.918 607.111 252.668C607.298 252.418 607.473 252.18 607.647 251.943C607.834 251.693 608.009 251.455 608.183 251.205C608.37 250.955 608.557 250.718 608.719 250.468C608.906 250.218 609.081 249.98 609.255 249.73C609.442 249.48 609.617 249.243 609.791 249.005C609.978 248.755 610.153 248.518 610.327 248.28C610.514 248.03 610.701 247.793 610.863 247.543C611.05 247.293 611.225 247.055 611.399 246.818C611.586 246.568 611.761 246.33 611.935 246.08C612.122 245.83 612.309 245.593 612.471 245.343C612.658 245.093 612.833 244.855 613.007 244.618C613.194 244.368 613.369 244.13 613.543 243.893C613.73 243.643 613.905 243.405 614.079 243.155C614.266 242.905 614.453 242.668 614.615 242.418C614.802 242.168 614.977 241.93 615.151 241.693C615.338 241.443 615.513 241.205 615.687 240.955C615.874 240.705 616.061 240.468 616.223 240.218C616.41 239.968 616.585 239.73 616.759 239.493C616.946 239.243 617.121 239.005 617.295 238.755C617.482 238.505 617.657 238.268 617.831 238.03C618.018 237.78 618.193 237.543 618.367 237.293C618.554 237.043 618.741 236.805 618.903 236.555C619.103 236.293 619.302 236.03 619.477 235.768C623.117 230.867 624.974 224.892 624.974 218.017C624.974 207.355 620.798 200.767 616.834 196.917L616.872 197.042Z" fill="#003BE2"/>
<path d="M105.968 44.1792V24.7666H83.0938H60.3695H37.5081V44.1792H60.3695V117.617H83.0938V44.1792H105.968Z" fill="white"/>
<path d="M156.041 45.5167C151.267 42.7541 145.196 41.3666 137.804 41.3666C133.778 41.3666 129.739 41.8416 125.675 42.7791C121.612 43.7166 117.86 45.2917 114.457 47.4917C111.041 49.6917 108.349 52.7417 106.391 56.6417C104.422 60.5292 103.537 65.4292 103.724 71.3418L123.93 72.7543C123.83 69.1918 124.441 66.4417 125.75 64.5292C127.059 62.6042 128.742 61.2667 130.799 60.5167C132.855 59.7667 134.912 59.3917 136.969 59.3917C140.247 59.3917 142.877 60.0917 144.897 61.5042C146.904 62.9167 147.913 64.9792 147.913 67.6918C147.913 69.0043 147.465 70.0418 146.58 70.7918C145.695 71.5418 144.024 72.2043 141.594 72.7668C139.163 73.3293 135.51 74.0793 130.649 75.0168C127.184 75.6793 123.681 76.4418 120.128 77.3418C116.576 78.2293 113.297 79.5418 110.306 81.2793C107.314 83.0168 104.921 85.3168 103.15 88.1668C101.368 91.0294 100.483 94.7544 100.483 99.3544C100.483 104.329 101.555 108.292 103.711 111.242C105.868 114.192 108.623 116.329 111.988 117.642C115.354 118.954 118.907 119.617 122.646 119.617C127.695 119.617 132.157 118.567 136.046 116.454C139.923 114.342 143.064 111.529 145.445 108.017C147.826 104.504 149.21 100.629 149.584 96.4044H150.431V117.642H170.077V76.4168C170.077 69.0043 168.93 62.7042 166.636 57.4917C164.343 52.2917 160.815 48.3042 156.041 45.5292V45.5167ZM146.368 93.2044C145.333 95.6919 143.999 97.6419 142.366 99.0419C140.733 100.454 139.001 101.454 137.181 102.067C135.361 102.679 133.653 102.979 132.058 102.979C129.627 102.979 127.545 102.342 125.812 101.079C124.08 99.8169 123.22 97.9669 123.22 95.5169C123.22 93.4544 123.806 91.8419 124.977 90.6669C126.149 89.4918 127.67 88.5543 129.54 87.8543C131.409 87.1543 133.441 86.5918 135.648 86.1668C137.841 85.7418 140.023 85.3168 142.167 84.9043C144.286 84.4918 146.206 83.9168 147.913 83.1793V83.9918C147.913 87.6543 147.402 90.7169 146.368 93.2044Z" fill="white"/>
<path d="M234.473 79.1418C231.481 77.4043 228.252 76.0293 224.787 74.9918C221.322 73.9668 218.006 73.1167 214.827 72.4542C211.175 71.6042 208.208 70.8417 205.915 70.1292C203.621 69.4292 201.938 68.5792 200.866 67.5917C199.794 66.6042 199.258 65.4167 199.258 64.0042C199.258 62.2292 200.118 60.7417 201.851 59.5667C203.584 58.3917 206.039 57.8042 209.218 57.8042C212.023 57.8042 214.403 58.2917 216.373 59.2792C218.342 60.2667 219.826 61.7167 220.86 63.6417C221.883 65.5667 222.269 67.8917 221.982 70.6042L241.341 68.7792C242.089 62.1167 241.042 56.7792 238.187 52.7417C235.333 48.7041 231.431 45.8041 226.47 44.0166C221.509 42.2416 216.186 41.3416 210.477 41.3416C204.12 41.3416 198.51 42.3041 193.636 44.2291C188.775 46.1541 184.96 48.9166 182.206 52.5292C179.451 56.1417 178.067 60.5292 178.067 65.6792C178.067 69.3417 178.765 72.4042 180.174 74.8918C181.582 77.3793 183.627 79.4668 186.344 81.1543C189.061 82.8418 192.327 84.2918 196.167 85.5168C200.006 86.7418 204.307 87.9543 209.068 89.1793C212.908 90.1168 215.824 90.9418 217.831 91.6418C219.838 92.3418 221.222 93.0918 221.97 93.8918C222.718 94.6918 223.092 95.7043 223.092 96.9168C223.092 99.2669 222.045 100.929 219.938 101.917C217.831 102.904 215.326 103.392 212.434 103.392C209.343 103.392 206.725 102.929 204.581 101.979C202.424 101.042 200.741 99.5669 199.532 97.5418C198.311 95.5293 197.613 92.9668 197.426 89.8793L177.643 91.5668C177.356 96.7293 178.042 101.117 179.675 104.717C181.308 108.329 183.689 111.217 186.83 113.367C189.959 115.529 193.661 117.092 197.912 118.079C202.162 119.067 206.775 119.554 211.736 119.554C218.841 119.554 224.824 118.617 229.698 116.742C234.56 114.867 238.262 112.192 240.78 108.729C243.311 105.267 244.57 101.229 244.57 96.6293C244.57 92.3168 243.635 88.7543 241.765 85.9418C239.895 83.1293 237.464 80.8543 234.473 79.1168V79.1418Z" fill="white"/>
<path d="M278.101 26.3165H264.776V26.604C264.215 32.9791 262.719 37.7416 260.288 40.8791C257.858 44.0166 253.744 45.9666 247.948 46.7166H247.524V61.0667H255.664V91.8793C255.664 101.254 257.795 108.179 262.046 112.629C266.297 117.079 272.779 119.317 281.479 119.317C283.162 119.317 285.132 119.192 287.376 118.967C289.619 118.729 292.187 118.192 295.092 117.354V97.5169C293.87 98.1794 292.561 98.6919 291.165 99.0669C289.756 99.4419 288.41 99.6294 287.101 99.6294C284.571 99.6294 282.452 98.8794 280.719 97.3793C278.986 95.8793 278.126 93.3418 278.126 89.7793V61.6417H295.104V43.3541H278.126V26.329L278.101 26.3165Z" fill="white"/>
<path d="M326.218 43.3416H303.493V117.617H326.218V43.3416Z" fill="white"/>
<path d="M324.747 19.279C322.453 17.404 319.112 16.4665 314.712 16.4665C310.312 16.4665 307.108 17.379 304.827 19.204C302.533 21.029 301.386 23.7291 301.386 27.2916C301.386 30.8541 302.533 33.4166 304.827 35.2416C307.121 37.0666 310.411 37.9791 314.712 37.9791C319.012 37.9791 322.453 37.0416 324.747 35.1666C327.04 33.2916 328.187 30.6666 328.187 27.2916C328.187 23.9166 327.04 21.154 324.747 19.279Z" fill="white"/>
<path d="M383.309 90.1793C383.396 92.1543 383.259 93.9044 382.885 95.4544C382.511 97.0044 381.85 98.3169 380.915 99.3919C379.98 100.467 378.759 101.292 377.263 101.854C375.767 102.417 373.897 102.704 371.654 102.704C366.418 102.704 362.529 100.967 360.011 97.5044C357.967 94.6919 356.77 90.5168 356.371 85.0043L402.231 84.2793C403.253 78.2793 403.378 72.6918 402.58 67.5417C401.782 62.3792 400.025 57.8292 397.32 53.8917C394.602 49.9542 390.987 46.8791 386.45 44.6791C381.913 42.4791 376.465 41.3791 370.108 41.3791C363.751 41.3791 358.303 42.4791 353.766 44.6791C349.228 46.8791 345.539 49.8792 342.684 53.6792C339.83 57.4792 337.723 61.8167 336.377 66.6917C335.018 71.5668 334.345 76.6793 334.345 82.0293C334.345 87.0043 334.981 91.7418 336.24 96.2419C337.499 100.742 339.58 104.754 342.485 108.267C345.377 111.779 349.191 114.554 353.915 116.567C358.64 118.579 364.511 119.592 371.516 119.592C378.16 119.592 383.645 118.704 387.996 116.917C392.346 115.142 395.737 112.842 398.167 110.029C400.598 107.217 402.256 104.167 403.153 100.879C404.039 97.5919 404.35 94.4044 404.063 91.3168L383.296 90.1918L383.309 90.1793ZM361.843 61.9042C363.9 60.1292 366.655 59.2292 370.12 59.2292C373.399 59.2292 375.967 60.0042 377.836 61.5542C379.706 63.1042 380.99 65.3542 381.688 68.3042C381.962 69.4542 382.137 70.7168 382.224 72.0793L356.857 72.5668C357.032 71.4668 357.244 70.4043 357.493 69.4167C358.341 66.1792 359.787 63.6792 361.843 61.8917V61.9042Z" fill="white"/>
<path d="M454.012 67.1793C455.981 67.7918 457.988 68.7043 460.045 69.9168L461.167 44.5916C459.384 43.5666 457.589 42.8166 455.769 42.3416C453.95 41.8791 452.192 41.6416 450.509 41.6416C447.418 41.6416 444.638 42.6041 442.157 44.5291C439.677 46.4542 437.62 49.6917 435.987 54.2417C434.354 58.7917 433.257 65.0042 432.696 72.8793H431.574V43.3416H411.929V117.617H434.516V88.2168C434.516 83.5293 435.052 79.5418 436.124 76.2543C437.196 72.9668 438.767 70.4918 440.824 68.8043C442.88 67.1168 445.411 66.2667 448.402 66.2667C450.173 66.2667 452.055 66.5667 454.012 67.1793Z" fill="white"/>
<path d="M113.621 169.53H78.6437V130.392H54.3363V229.73H78.6437V190.005H113.621V229.73H137.941V130.392H113.621V169.53Z" fill="#B5FE28"/>
<path d="M205.927 152.592C200.829 149.63 194.322 148.155 186.419 148.155C182.118 148.155 177.793 148.655 173.43 149.655C169.08 150.655 165.078 152.342 161.426 154.692C157.774 157.055 154.894 160.317 152.8 164.48C150.693 168.642 149.746 173.892 149.945 180.205L171.56 181.705C171.46 177.892 172.109 174.955 173.517 172.905C174.913 170.855 176.721 169.417 178.927 168.617C181.121 167.817 183.327 167.417 185.534 167.417C189.037 167.417 191.866 168.167 194.01 169.68C196.167 171.18 197.239 173.392 197.239 176.305C197.239 177.705 196.765 178.817 195.818 179.617C194.87 180.417 193.088 181.117 190.495 181.73C187.89 182.33 183.988 183.13 178.79 184.142C175.088 184.842 171.336 185.667 167.534 186.63C163.732 187.58 160.229 188.992 157.026 190.842C153.822 192.705 151.267 195.155 149.372 198.217C147.465 201.28 146.517 205.267 146.517 210.18C146.517 215.505 147.664 219.742 149.97 222.892C152.276 226.055 155.218 228.342 158.821 229.742C162.423 231.142 166.225 231.855 170.226 231.855C175.624 231.855 180.411 230.73 184.562 228.467C188.712 226.205 192.066 223.205 194.621 219.442C197.176 215.68 198.647 211.542 199.046 207.03H199.944V229.755H220.96V185.655C220.96 177.73 219.739 170.98 217.283 165.405C214.827 159.83 211.05 155.567 205.952 152.605L205.927 152.592ZM195.568 203.617C194.471 206.28 193.038 208.355 191.293 209.867C189.535 211.367 187.69 212.455 185.733 213.105C183.776 213.755 181.956 214.08 180.249 214.08C177.643 214.08 175.424 213.405 173.567 212.042C171.71 210.692 170.787 208.705 170.787 206.092C170.787 203.892 171.411 202.155 172.657 200.905C173.904 199.655 175.537 198.642 177.531 197.892C179.526 197.142 181.707 196.542 184.063 196.092C186.419 195.642 188.737 195.192 191.043 194.742C193.312 194.292 195.369 193.68 197.201 192.892V193.767C197.201 197.68 196.653 200.967 195.556 203.63L195.568 203.617Z" fill="#B5FE28"/>
<path d="M295.017 152.892C290.666 149.73 285.381 148.155 279.186 148.155C274.287 148.155 270.099 149.13 266.658 151.092C263.205 153.055 260.376 156.005 258.182 159.967C255.975 163.93 254.33 168.867 253.233 174.792H252.186V150.255H230.87V252.005H255.19V232.442C255.19 229.63 255.065 226.705 254.816 223.642C254.567 220.58 254.243 217.467 253.844 214.305C253.445 211.142 252.996 208.105 252.498 205.192H253.844C254.741 211.217 256.324 216.205 258.568 220.167C260.824 224.13 263.666 227.067 267.119 228.967C270.572 230.867 274.549 231.83 279.049 231.83C284.646 231.83 289.657 230.342 294.057 227.392C298.457 224.43 301.935 219.842 304.49 213.617C307.046 207.392 308.317 199.417 308.317 189.68C308.317 180.642 307.195 173.042 304.939 166.88C302.683 160.705 299.38 156.042 295.029 152.88L295.017 152.892ZM282.252 200.917C281.305 204.18 279.797 206.817 277.752 208.817C275.695 210.83 273.078 211.83 269.874 211.83C268.466 211.83 267.069 211.605 265.673 211.155C264.265 210.705 262.919 209.98 261.622 208.967C260.326 207.967 259.166 206.655 258.169 205.055C257.172 203.455 256.374 201.542 255.763 199.33C255.165 197.13 254.866 194.517 254.866 191.505V190.605C254.866 186.792 255.29 183.53 256.137 180.817C256.985 178.105 258.107 175.88 259.516 174.117C260.912 172.367 262.52 171.055 264.315 170.205C266.11 169.355 267.967 168.93 269.874 168.93C272.878 168.93 275.396 169.905 277.453 171.867C279.497 173.83 281.056 176.43 282.103 179.692C283.15 182.955 283.673 186.592 283.673 190.605C283.673 194.217 283.2 197.655 282.252 200.917Z" fill="#B5FE28"/>
<path d="M381.464 152.892C377.113 149.73 371.828 148.155 365.633 148.155C360.734 148.155 356.546 149.13 353.105 151.092C349.652 153.055 346.823 156.005 344.629 159.967C342.422 163.93 340.777 168.867 339.68 174.792H338.633V150.255H317.317V252.005H341.637V232.442C341.637 229.63 341.512 226.705 341.263 223.642C341.014 220.58 340.69 217.467 340.291 214.305C339.892 211.142 339.443 208.105 338.945 205.192H340.291C341.188 211.217 342.771 216.205 345.015 220.167C347.271 224.13 350.114 227.067 353.566 228.967C357.019 230.867 360.996 231.83 365.496 231.83C371.093 231.83 376.104 230.342 380.504 227.392C384.904 224.43 388.382 219.842 390.938 213.617C393.493 207.392 394.764 199.417 394.764 189.68C394.764 180.642 393.642 173.042 391.386 166.88C389.13 160.705 385.827 156.042 381.476 152.88L381.464 152.892ZM368.712 200.917C367.764 204.18 366.256 206.817 364.212 208.817C362.155 210.83 359.537 211.83 356.334 211.83C354.925 211.83 353.529 211.605 352.133 211.155C350.724 210.705 349.378 209.98 348.082 208.967C346.785 207.967 345.626 206.655 344.629 205.055C343.632 203.455 342.834 201.542 342.223 199.33C341.625 197.13 341.325 194.517 341.325 191.505V190.605C341.325 186.792 341.749 183.53 342.597 180.817C343.445 178.105 344.566 175.88 345.975 174.117C347.371 172.367 348.979 171.055 350.774 170.205C352.569 169.355 354.427 168.93 356.334 168.93C359.338 168.93 361.856 169.905 363.913 171.867C365.957 173.83 367.515 176.43 368.562 179.692C369.609 182.955 370.133 186.592 370.133 190.605C370.133 194.217 369.659 197.655 368.712 200.917Z" fill="#B5FE28"/>
<path d="M428.072 150.267H403.752V229.742H428.072V150.267Z" fill="#B5FE28"/>
<path d="M489.164 200.38C489.264 202.492 489.114 204.367 488.715 206.03C488.316 207.68 487.618 209.092 486.609 210.242C485.612 211.392 484.303 212.28 482.707 212.88C481.112 213.48 479.105 213.78 476.699 213.78C471.089 213.78 466.938 211.93 464.246 208.205C462.065 205.205 460.768 200.73 460.357 194.83L509.42 194.055C510.517 187.63 510.642 181.667 509.794 176.142C508.947 170.63 507.064 165.755 504.16 161.542C501.255 157.33 497.379 154.042 492.53 151.68C487.681 149.33 481.847 148.142 475.041 148.142C468.235 148.142 462.401 149.317 457.552 151.68C452.703 154.042 448.752 157.255 445.698 161.317C442.644 165.38 440.387 170.017 438.941 175.242C437.495 180.467 436.76 185.93 436.76 191.655C436.76 196.98 437.433 202.042 438.792 206.855C440.138 211.667 442.369 215.967 445.473 219.73C448.577 223.492 452.653 226.455 457.702 228.605C462.75 230.767 469.033 231.843 476.537 231.843C483.642 231.843 489.526 230.892 494.175 228.98C498.825 227.08 502.452 224.617 505.057 221.605C507.663 218.592 509.433 215.33 510.38 211.817C511.327 208.305 511.652 204.892 511.352 201.58L489.139 200.38H489.164ZM466.191 170.13C468.384 168.23 471.339 167.267 475.041 167.267C478.544 167.267 481.299 168.092 483.293 169.755C485.287 171.405 486.671 173.817 487.419 176.98C487.718 178.217 487.905 179.567 487.992 181.017L460.855 181.542C461.042 180.367 461.267 179.23 461.541 178.18C462.438 174.717 463.997 172.03 466.191 170.13Z" fill="#B5FE28"/>
<path d="M561.052 148.455C557.748 148.455 554.769 149.48 552.127 151.542C549.471 153.605 547.278 157.067 545.52 161.93C543.762 166.792 542.591 173.442 541.992 181.867H540.796V150.255H519.779V229.73H543.949V198.267C543.949 193.255 544.523 188.992 545.67 185.467C546.816 181.955 548.499 179.292 550.693 177.492C552.887 175.692 555.592 174.78 558.795 174.78C560.69 174.78 562.697 175.105 564.804 175.755C566.91 176.405 569.054 177.392 571.261 178.692L572.458 151.605C570.55 150.505 568.631 149.705 566.674 149.192C564.717 148.692 562.847 148.442 561.039 148.442L561.052 148.455Z" fill="#B5FE28"/>
<path d="M601.277 198.13L606.239 130.392H579.675L584.624 198.13H601.277Z" fill="#B5FE28"/>
<path d="M605.64 207.755C603.035 205.555 599.133 204.442 593.935 204.442C588.737 204.442 585.01 205.542 582.455 207.755C579.899 209.967 578.628 213.43 578.628 218.142C578.628 222.855 579.899 226.167 582.455 228.38C585.01 230.58 588.837 231.693 593.935 231.693C604.344 231.693 609.542 227.18 609.542 218.142C609.542 213.43 608.245 209.967 605.64 207.755Z" fill="#B5FE28"/>
<path d="M463.049 107.267C469.307 113.454 477.895 119.767 489.351 124.367C496.319 127.092 504.297 129.217 513.484 130.305C515.154 130.53 516.762 130.68 518.308 130.767C525.089 131.142 531.584 130.592 537.804 129.38C547.489 127.517 556.415 124.055 564.417 119.817C589.822 106.292 606.126 85.1918 607.173 83.8293L609.542 80.7793L607.522 77.4168C600.118 64.9417 578.553 44.0791 549.958 54.3792C537.679 58.8292 529.153 67.8292 525.426 80.3418C521.686 92.9169 523.381 108.067 529.452 118.917C524.703 119.429 519.841 119.429 514.83 118.892C472.909 113.917 459.908 84.2418 459.397 82.9168C458.138 79.9293 454.785 78.5668 451.868 79.7793C448.951 80.9793 447.542 84.3418 448.739 87.3293C449.088 88.1293 453.04 97.4294 463.049 107.267ZM552.538 65.1667C577.244 54.5792 592.701 73.4293 596.927 78.9793C574.951 104.554 552.874 112.367 544.46 114.542C549.284 97.6169 558.746 83.6043 578.266 81.1668C579.176 81.0293 579.912 80.2543 579.949 79.2918C579.986 78.2168 579.139 77.3043 578.067 77.2668C560.291 76.0668 544.136 88.8293 537.766 105.004C537.679 105.267 537.567 105.529 537.467 105.792C534.837 92.9669 535.722 72.3668 552.538 65.1542V65.1667Z" fill="#B5FE28"/>
</svg>
