<svg width="721" height="460" viewBox="0 0 721 460" fill="none" xmlns="http://www.w3.org/2000/svg">
<path d="M207.041 30.9628L226.194 25.9578L233.908 7.71697C234.811 5.59914 237.882 5.83431 238.449 8.072L243.455 27.2245L261.695 34.9394C263.813 35.8418 263.578 38.9131 261.34 39.4804L242.188 44.4856L234.473 62.7264C233.571 64.8443 230.499 64.6091 229.932 62.3714L224.927 43.2187L206.686 35.5041C204.568 34.6016 204.803 31.5301 207.041 30.9628Z" fill="#003CE9"/>
<path d="M675.201 372.319L690.951 370.874L699.413 357.503C700.401 355.952 702.791 356.538 702.946 358.376L704.391 374.125L717.761 382.587C719.313 383.575 718.726 385.965 716.888 386.12L701.139 387.565L692.677 400.936C691.689 402.487 689.299 401.901 689.144 400.063L687.699 384.313L674.329 375.852C672.777 374.864 673.364 372.474 675.201 372.319Z" fill="#003CE9"/>
<path d="M467.597 403.169L477.436 402.077L482.573 393.608C483.173 392.625 484.676 392.964 484.795 394.112L485.887 403.952L494.356 409.089C495.338 409.688 495 411.191 493.852 411.31L484.012 412.402L478.875 420.871C478.275 421.854 476.772 421.515 476.653 420.367L475.561 410.527L467.093 405.39C466.11 404.791 466.448 403.288 467.597 403.169Z" fill="#003CE9"/>
<path d="M7.85873 208.475L18.2546 199.571L17.5358 185.896C17.4565 184.306 19.4375 183.524 20.4669 184.744L29.3707 195.139L43.0459 194.421C44.6357 194.341 45.4182 196.322 44.1984 197.352L33.8027 206.255L34.5214 219.931C34.6007 221.52 32.6198 222.303 31.5903 221.083L22.6864 210.687L9.01131 211.406C7.42154 211.485 6.63887 209.504 7.85873 208.475Z" fill="#003CE9"/>
<path d="M571.635 63.5552L592.104 66.4148L606.851 51.9109C608.565 50.2283 611.441 51.6845 611.116 54.055L608.256 74.5241L622.76 89.2707C624.443 90.9846 622.987 93.8614 620.616 93.5359L600.147 90.6763L585.4 105.18C583.686 106.863 580.81 105.407 581.135 103.036L583.995 82.567L569.491 67.8204C567.808 66.1065 569.264 63.2297 571.635 63.5552Z" fill="#003CE9"/>
<path d="M68.3716 426.353L84.2595 408.703L79.9505 385.362C79.4499 382.655 82.682 380.842 84.7307 382.687L102.38 398.575L125.721 394.266C128.429 393.765 130.241 396.998 128.396 399.046L112.508 416.696L116.817 440.037C117.318 442.744 114.086 444.557 112.037 442.712L94.3878 426.824L71.0469 431.133C68.3394 431.634 66.5265 428.402 68.3716 426.353Z" fill="#003CE9"/>
<path d="M681.872 277.042L686.608 212.317C686.683 211.68 686.733 211.042 686.733 210.392C686.733 201.83 679.827 194.879 671.289 194.879H668.708C668.795 194.754 668.883 194.629 668.97 194.504L668.995 194.467C669.169 194.242 669.344 194.004 669.506 193.767L669.531 193.729C669.705 193.504 669.88 193.267 670.042 193.029V193.004C670.241 192.779 670.416 192.542 670.578 192.304L670.603 192.267C670.777 192.042 670.952 191.804 671.114 191.567L671.139 191.529C671.313 191.304 671.488 191.067 671.65 190.829L671.675 190.792C671.849 190.554 672.024 190.329 672.186 190.092V190.067C672.385 189.842 672.56 189.604 672.722 189.367L672.747 189.329C672.921 189.104 673.096 188.867 673.258 188.629L673.283 188.592C673.47 188.354 673.632 188.117 673.807 187.879V187.854C674.006 187.629 674.18 187.392 674.343 187.154L674.367 187.117C674.542 186.892 674.716 186.654 674.879 186.417L674.903 186.379C675.078 186.154 675.252 185.917 675.415 185.679L675.439 185.642C675.614 185.404 675.789 185.179 675.951 184.942L675.975 184.917C676.15 184.692 676.325 184.454 676.487 184.217L676.511 184.179C676.686 183.954 676.861 183.717 677.023 183.479L677.047 183.442C677.234 183.204 677.397 182.967 677.571 182.729V182.704C677.77 182.479 677.945 182.242 678.107 182.004L678.132 181.967C678.307 181.742 678.481 181.504 678.643 181.267L678.668 181.229C678.843 181.004 679.017 180.767 679.179 180.529L679.204 180.492C679.379 180.254 679.553 180.029 679.715 179.792V179.767C679.915 179.542 680.089 179.304 680.251 179.067L680.276 179.029C680.451 178.804 680.625 178.567 680.787 178.329L680.812 178.292C680.999 178.054 681.161 177.817 681.336 177.579V177.554C681.535 177.329 681.71 177.092 681.872 176.854L681.897 176.817C682.071 176.592 682.246 176.354 682.408 176.117L682.433 176.092C682.607 175.867 682.782 175.629 682.944 175.392L682.969 175.354C683.143 175.117 683.318 174.892 683.492 174.642L683.517 174.617C683.692 174.392 683.866 174.154 684.028 173.917L684.053 173.879C684.228 173.654 684.402 173.417 684.564 173.179L684.589 173.142C684.776 172.904 684.938 172.667 685.113 172.429V172.404C685.312 172.179 685.487 171.942 685.649 171.704L685.674 171.667C685.848 171.429 686.023 171.204 686.185 170.967V170.942C686.384 170.717 686.546 170.479 686.708 170.242L686.733 170.204C690.672 165.142 691.083 158.167 687.78 152.667L685.761 149.304C676.661 133.967 656.629 115.979 630.24 115.979C623.397 115.979 616.491 117.217 609.71 119.654C599.052 123.517 590.089 130.204 583.757 139.004L583.209 139.742L582.673 140.467L582.124 141.217L581.588 141.954L581.064 142.667L580.516 143.417L579.992 144.142L579.444 144.879L578.908 145.604L578.36 146.354L577.824 147.079L577.3 147.792L576.751 148.542L576.215 149.267L575.692 149.992L575.156 150.729L574.607 151.479L574.084 152.192L573.548 152.917L572.999 153.667L572.463 154.392L571.927 155.129L571.404 155.842L570.855 156.592L570.332 157.317L569.796 158.042L569.247 158.792L568.711 159.517L568.188 160.229L567.639 160.979L567.091 161.717L566.567 162.442L566.031 163.167L565.483 163.917L564.947 164.642L564.423 165.354L563.875 166.104L563.326 166.842L562.79 167.567L562.254 168.304C560.522 170.592 558.951 173.092 557.567 175.779C544.491 168.417 539.443 158.479 538.745 157.004C539.779 155.017 540.39 152.804 540.49 150.504L541.612 125.179C541.874 119.404 538.894 113.954 533.896 111.054C530.904 109.317 527.788 108.029 524.609 107.204C521.518 106.417 518.464 106.017 515.497 106.017C511.009 106.017 506.671 107.029 502.72 108.979C500.825 108.154 498.743 107.704 496.562 107.704H476.917C471.731 107.704 467.144 110.254 464.339 114.179C462.42 112.842 460.375 111.642 458.206 110.592C451.562 107.367 443.796 105.729 435.12 105.729C426.445 105.729 418.666 107.367 412.035 110.579C410.651 111.254 409.317 111.979 408.033 112.754C408.432 110.929 408.644 109.067 408.644 107.167C408.644 99.0666 405.403 91.954 399.532 87.1415C394.396 82.9415 387.74 80.829 379.712 80.829C371.684 80.829 365.277 82.8915 360.191 86.954C357.636 88.9915 355.567 91.454 354.033 94.304C353.909 94.4665 353.772 94.6415 353.635 94.8415C350.867 92.2665 347.165 90.679 343.101 90.679H329.776C324.503 90.679 319.841 93.329 317.049 97.3791C316.862 97.6166 316.687 97.8541 316.513 98.1041C316.326 98.3416 316.151 98.5916 315.977 98.8416C315.79 99.0791 315.615 99.3166 315.441 99.5666C315.254 99.8041 315.067 100.054 314.892 100.304C314.705 100.542 314.531 100.779 314.356 101.029C314.169 101.267 313.995 101.504 313.82 101.754C313.633 101.992 313.446 102.242 313.272 102.492C313.085 102.729 312.91 102.967 312.736 103.217C312.549 103.454 312.374 103.704 312.2 103.954C312.013 104.192 311.838 104.429 311.664 104.679C311.477 104.917 311.29 105.167 311.115 105.417C310.928 105.654 310.754 105.892 310.579 106.142C310.392 106.379 310.218 106.617 310.043 106.867C309.856 107.104 309.669 107.354 309.495 107.604C309.308 107.842 309.133 108.079 308.959 108.329C308.772 108.567 308.597 108.817 308.423 109.067C308.236 109.304 308.061 109.554 307.887 109.804C307.7 110.042 307.513 110.292 307.351 110.542C307.164 110.779 306.989 111.017 306.815 111.267C306.628 111.504 306.453 111.742 306.279 111.992C306.129 112.179 305.992 112.367 305.855 112.567C305.469 112.754 305.082 112.954 304.721 113.167C302.253 111.629 299.572 110.329 296.693 109.292C290.074 106.917 282.931 105.704 275.477 105.704C267.2 105.704 259.621 107.042 252.977 109.667C247.131 111.979 242.145 115.217 238.106 119.304C235.426 116.442 232.31 113.979 228.794 111.929C221.652 107.792 212.914 105.692 202.804 105.692C197.644 105.692 192.396 106.292 187.21 107.492C186.948 107.554 186.687 107.617 186.425 107.679V104.604C186.425 96.0415 179.494 89.0915 170.955 89.0915H102.508C97.2353 89.0915 92.5733 91.7415 89.7811 95.779C89.5941 96.0165 89.4071 96.2665 89.2326 96.5166C89.0456 96.7541 88.8711 96.9916 88.6966 97.2416C88.5096 97.4791 88.3351 97.7166 88.1606 97.9666C87.9736 98.2041 87.7866 98.4541 87.6121 98.7041C87.4251 98.9416 87.2506 99.1791 87.0761 99.4291C86.8891 99.6666 86.7021 99.9166 86.5401 100.167C86.3531 100.404 86.1786 100.642 86.0041 100.892C85.8171 101.129 85.6301 101.379 85.4556 101.629C85.2686 101.867 85.0941 102.104 84.9196 102.354C84.7326 102.592 84.5581 102.842 84.3836 103.092C84.1966 103.329 84.0221 103.579 83.8476 103.817C83.6606 104.054 83.4861 104.304 83.3116 104.554C83.1246 104.792 82.9376 105.042 82.7756 105.292C82.5886 105.529 82.4141 105.767 82.2395 106.017C82.0526 106.254 81.8656 106.504 81.6911 106.754C81.5041 106.992 81.3296 107.229 81.1551 107.479C80.9681 107.717 80.7936 107.967 80.6191 108.217C80.4321 108.454 80.2576 108.704 80.083 108.954C79.8961 109.192 79.7215 109.442 79.547 109.679C79.3601 109.917 79.1731 110.167 79.011 110.417C78.824 110.654 78.6495 110.892 78.475 111.142C78.288 111.379 78.1135 111.629 77.939 111.879C77.752 112.117 77.5775 112.367 77.403 112.604C77.216 112.842 77.0415 113.092 76.867 113.342C76.68 113.579 76.5055 113.829 76.331 114.079C76.144 114.317 75.9695 114.567 75.795 114.804C75.608 115.042 75.421 115.292 75.259 115.542C75.072 115.779 74.8975 116.017 74.723 116.267C74.536 116.504 74.349 116.754 74.1869 117.004C74 117.242 73.8255 117.479 73.6509 117.729C73.464 117.967 73.2894 118.217 73.1149 118.467C72.9279 118.704 72.7534 118.954 72.5789 119.192C72.3919 119.429 72.2174 119.679 72.0429 119.929C71.8559 120.167 71.6689 120.417 71.5069 120.667C71.3199 120.904 71.1454 121.142 70.9709 121.392C70.7839 121.629 70.6094 121.879 70.4349 122.129C70.2479 122.367 70.0734 122.617 69.8989 122.867C69.7119 123.104 69.5374 123.354 69.3629 123.604C69.1759 123.842 68.9889 124.092 68.8269 124.342C68.6399 124.579 68.4654 124.817 68.2908 125.067C66.2341 127.704 65 131.017 65 134.629V154.042C65 162.604 71.9307 169.554 80.4695 169.554H87.8614V226.942C87.8614 226.942 87.8115 227.005 87.7991 227.042C87.6121 227.28 87.4376 227.53 87.2631 227.767C87.0761 228.005 86.8891 228.255 86.7271 228.505C86.5401 228.742 86.3656 228.98 86.1911 229.23C86.0041 229.467 85.8296 229.717 85.655 229.967C85.4681 230.205 85.2811 230.455 85.119 230.705C83.0623 233.342 81.8407 236.655 81.8407 240.255V339.593C81.8407 348.155 88.7714 355.105 97.3101 355.105H121.63C126.903 355.105 131.565 352.455 134.357 348.418C134.544 348.18 134.719 347.943 134.893 347.693C135.08 347.455 135.255 347.218 135.429 346.968C135.616 346.73 135.803 346.48 135.978 346.23C136.165 345.993 136.339 345.755 136.514 345.505C136.701 345.268 136.888 345.018 137.062 344.768C137.249 344.53 137.424 344.293 137.598 344.043C137.785 343.805 137.972 343.555 138.147 343.305C138.334 343.068 138.508 342.83 138.683 342.58C138.87 342.343 139.044 342.093 139.219 341.843C139.406 341.605 139.58 341.355 139.755 341.105C139.942 340.868 140.116 340.618 140.291 340.38C140.478 340.143 140.665 339.893 140.827 339.643C140.939 339.505 141.038 339.368 141.151 339.218V339.605C141.151 348.168 148.081 355.118 156.62 355.118H180.94C184.729 355.118 188.207 353.755 190.9 351.48C192.57 352.48 194.34 353.343 196.21 354.068C201.595 356.168 207.317 357.23 213.225 357.23C220.891 357.23 227.922 355.593 234.154 352.38C236.648 354.105 239.677 355.13 242.943 355.13H258.387V361.893C258.387 370.455 265.318 377.405 273.857 377.405H298.176C303.449 377.405 308.111 374.755 310.903 370.718C311.09 370.48 311.265 370.23 311.439 369.993C311.626 369.755 311.813 369.505 311.975 369.255C312.162 369.018 312.337 368.78 312.512 368.53C312.698 368.293 312.885 368.043 313.06 367.793C313.247 367.555 313.421 367.318 313.596 367.068C313.783 366.83 313.957 366.58 314.132 366.33C314.319 366.093 314.493 365.843 314.668 365.593C314.855 365.355 315.03 365.105 315.204 364.855C315.391 364.618 315.566 364.368 315.74 364.118C315.927 363.88 316.102 363.643 316.276 363.393C316.463 363.155 316.638 362.905 316.812 362.655C316.999 362.418 317.174 362.168 317.348 361.93C317.535 361.693 317.71 361.443 317.884 361.193C318.071 360.955 318.246 360.705 318.42 360.455C318.607 360.218 318.782 359.968 318.956 359.73C319.143 359.493 319.33 359.243 319.492 358.993C319.679 358.755 319.854 358.518 320.028 358.268C320.215 358.03 320.39 357.78 320.564 357.53C320.651 357.43 320.726 357.318 320.801 357.218C321.2 357.218 321.611 357.243 322.01 357.243C330.362 357.243 338.04 355.043 344.809 350.718V361.905C344.809 370.468 351.74 377.418 360.279 377.418H384.599C389.871 377.418 394.533 374.768 397.326 370.73C397.513 370.493 397.687 370.243 397.862 370.005C398.049 369.768 398.236 369.518 398.398 369.268C398.585 369.03 398.759 368.793 398.934 368.543C399.121 368.305 399.308 368.055 399.482 367.805C399.669 367.568 399.844 367.33 400.018 367.08C400.205 366.843 400.38 366.593 400.554 366.343C400.741 366.105 400.916 365.855 401.09 365.605C401.277 365.368 401.452 365.118 401.626 364.88C401.813 364.643 402 364.393 402.162 364.143C402.349 363.905 402.524 363.668 402.698 363.418C402.885 363.18 403.06 362.93 403.234 362.68C403.421 362.443 403.596 362.193 403.77 361.943C403.957 361.705 404.132 361.455 404.306 361.218C404.493 360.98 404.668 360.73 404.842 360.48C405.029 360.243 405.204 359.993 405.378 359.755C405.565 359.518 405.752 359.268 405.914 359.018C406.101 358.78 406.276 358.543 406.45 358.293C406.637 358.055 406.812 357.805 406.986 357.555C407.073 357.455 407.148 357.343 407.223 357.243C407.622 357.243 408.033 357.268 408.432 357.268C417.121 357.268 425.073 354.893 432.054 350.205C432.765 349.73 433.463 349.23 434.136 348.693C436.94 352.605 441.528 355.155 446.701 355.155H471.021C476.293 355.155 480.955 352.505 483.748 348.468C483.935 348.23 484.109 347.98 484.284 347.73C484.421 347.555 484.558 347.38 484.683 347.193C487.674 349.368 490.99 351.243 494.605 352.78C501.561 355.755 509.937 357.255 519.498 357.255C529.059 357.255 536.389 355.943 542.983 353.243C545.75 352.105 548.306 350.805 550.662 349.343C553.491 352.88 557.854 355.155 562.728 355.155H586.898C592.171 355.155 596.833 352.505 599.625 348.468C599.812 348.23 599.987 347.98 600.161 347.73C600.348 347.493 600.523 347.243 600.697 346.993C600.884 346.755 601.059 346.505 601.233 346.268C601.42 346.03 601.607 345.78 601.769 345.53C601.956 345.293 602.131 345.055 602.305 344.805C602.492 344.568 602.667 344.318 602.841 344.068C603.028 343.83 603.203 343.58 603.377 343.33C603.564 343.093 603.739 342.843 603.913 342.593C604.1 342.355 604.287 342.105 604.449 341.855C604.636 341.618 604.811 341.38 604.985 341.13C605.172 340.893 605.359 340.643 605.534 340.393C605.721 340.155 605.895 339.918 606.07 339.668C606.257 339.43 606.431 339.18 606.606 338.93C606.793 338.693 606.967 338.455 607.142 338.205C607.242 338.068 607.354 337.93 607.454 337.793C609.224 343.668 612.44 347.568 615.282 350.018C620.717 354.718 627.972 357.093 636.872 357.093C651.531 357.093 659.16 350.68 663.024 345.018C663.186 344.805 663.336 344.593 663.485 344.38C663.672 344.13 663.847 343.893 664.021 343.655C664.208 343.405 664.383 343.168 664.557 342.918C664.744 342.668 664.919 342.43 665.093 342.193C665.28 341.943 665.455 341.705 665.629 341.455C665.816 341.205 666.003 340.968 666.178 340.718C666.365 340.468 666.539 340.23 666.714 339.993C666.901 339.743 667.075 339.505 667.25 339.268C667.437 339.018 667.624 338.768 667.798 338.53C667.985 338.28 668.16 338.043 668.334 337.793C668.521 337.543 668.696 337.305 668.87 337.068C669.057 336.818 669.232 336.58 669.406 336.343C669.593 336.093 669.78 335.843 669.955 335.605C670.142 335.355 670.316 335.118 670.491 334.88C670.678 334.63 670.852 334.393 671.027 334.143C671.214 333.893 671.401 333.643 671.575 333.405C671.762 333.155 671.937 332.918 672.111 332.668C672.298 332.418 672.473 332.18 672.647 331.943C672.834 331.693 673.009 331.455 673.183 331.205C673.37 330.955 673.557 330.718 673.719 330.468C673.906 330.218 674.081 329.98 674.255 329.73C674.442 329.48 674.617 329.243 674.791 329.005C674.978 328.755 675.153 328.518 675.327 328.28C675.514 328.03 675.701 327.793 675.863 327.543C676.05 327.293 676.225 327.055 676.399 326.818C676.586 326.568 676.761 326.33 676.935 326.08C677.122 325.83 677.309 325.593 677.471 325.343C677.658 325.093 677.833 324.855 678.007 324.618C678.194 324.368 678.369 324.13 678.543 323.893C678.73 323.643 678.905 323.405 679.079 323.155C679.266 322.905 679.453 322.668 679.615 322.418C679.802 322.168 679.977 321.93 680.151 321.693C680.338 321.443 680.513 321.205 680.687 320.955C680.874 320.705 681.061 320.468 681.223 320.218C681.41 319.968 681.585 319.73 681.759 319.493C681.946 319.243 682.121 319.005 682.295 318.755C682.482 318.505 682.657 318.268 682.831 318.03C683.018 317.78 683.193 317.543 683.367 317.293C683.554 317.043 683.741 316.805 683.903 316.555C684.103 316.293 684.302 316.03 684.477 315.768C688.117 310.868 689.974 304.892 689.974 298.017C689.974 287.355 685.798 280.767 681.834 276.917L681.872 277.042Z" fill="#003BE2"/>
<path d="M170.968 124.179V104.767H148.094H125.369H102.508V124.179H125.369V197.617H148.094V124.179H170.968Z" fill="white"/>
<path d="M221.041 125.517C216.267 122.754 210.196 121.367 202.804 121.367C198.778 121.367 194.739 121.842 190.675 122.779C186.612 123.717 182.86 125.292 179.457 127.492C176.041 129.692 173.349 132.742 171.391 136.642C169.422 140.529 168.537 145.429 168.724 151.342L188.93 152.754C188.83 149.192 189.441 146.442 190.75 144.529C192.059 142.604 193.742 141.267 195.799 140.517C197.855 139.767 199.912 139.392 201.969 139.392C205.247 139.392 207.877 140.092 209.897 141.504C211.904 142.917 212.913 144.979 212.913 147.692C212.913 149.004 212.465 150.042 211.58 150.792C210.695 151.542 209.024 152.204 206.594 152.767C204.163 153.329 200.51 154.079 195.649 155.017C192.184 155.679 188.681 156.442 185.128 157.342C181.576 158.229 178.297 159.542 175.306 161.279C172.314 163.017 169.921 165.317 168.15 168.167C166.368 171.029 165.483 174.754 165.483 179.354C165.483 184.329 166.555 188.292 168.711 191.242C170.868 194.192 173.623 196.33 176.988 197.642C180.354 198.955 183.907 199.617 187.646 199.617C192.695 199.617 197.157 198.567 201.046 196.455C204.923 194.342 208.064 191.53 210.445 188.017C212.826 184.504 214.21 180.629 214.584 176.404H215.431V197.642H235.077V156.417C235.077 149.004 233.93 142.704 231.636 137.492C229.343 132.292 225.815 128.304 221.041 125.529V125.517ZM211.368 173.204C210.333 175.692 208.999 177.642 207.366 179.042C205.733 180.454 204.001 181.454 202.181 182.067C200.361 182.679 198.653 182.979 197.058 182.979C194.627 182.979 192.545 182.342 190.812 181.079C189.08 179.817 188.22 177.967 188.22 175.517C188.22 173.454 188.806 171.842 189.977 170.667C191.149 169.492 192.67 168.554 194.54 167.854C196.409 167.154 198.441 166.592 200.648 166.167C202.841 165.742 205.023 165.317 207.167 164.904C209.286 164.492 211.206 163.917 212.913 163.179V163.992C212.913 167.654 212.402 170.717 211.368 173.204Z" fill="white"/>
<path d="M299.472 159.142C296.481 157.404 293.252 156.029 289.787 154.992C286.322 153.967 283.006 153.117 279.827 152.454C276.175 151.604 273.208 150.842 270.914 150.129C268.621 149.429 266.938 148.579 265.866 147.592C264.794 146.604 264.258 145.417 264.258 144.004C264.258 142.229 265.118 140.742 266.851 139.567C268.583 138.392 271.039 137.804 274.218 137.804C277.022 137.804 279.403 138.292 281.373 139.279C283.342 140.267 284.826 141.717 285.86 143.642C286.883 145.567 287.269 147.892 286.982 150.604L306.341 148.779C307.089 142.117 306.042 136.779 303.187 132.742C300.333 128.704 296.431 125.804 291.47 124.017C286.509 122.242 281.186 121.342 275.477 121.342C269.119 121.342 263.51 122.304 258.636 124.229C253.775 126.154 249.96 128.917 247.205 132.529C244.451 136.142 243.067 140.529 243.067 145.679C243.067 149.342 243.765 152.404 245.174 154.892C246.582 157.379 248.626 159.467 251.344 161.154C254.061 162.842 257.327 164.292 261.167 165.517C265.006 166.742 269.306 167.954 274.068 169.179C277.907 170.117 280.824 170.942 282.831 171.642C284.838 172.342 286.222 173.092 286.97 173.892C287.718 174.692 288.092 175.704 288.092 176.917C288.092 179.267 287.045 180.929 284.938 181.917C282.831 182.904 280.326 183.392 277.434 183.392C274.342 183.392 271.725 182.929 269.581 181.979C267.424 181.042 265.741 179.567 264.532 177.542C263.311 175.529 262.613 172.967 262.426 169.879L242.643 171.567C242.356 176.729 243.042 181.117 244.675 184.717C246.308 188.329 248.689 191.217 251.83 193.367C254.959 195.529 258.661 197.092 262.912 198.079C267.162 199.067 271.775 199.555 276.736 199.555C283.841 199.555 289.824 198.617 294.698 196.742C299.56 194.867 303.262 192.192 305.78 188.729C308.31 185.267 309.569 181.229 309.569 176.629C309.569 172.317 308.635 168.754 306.765 165.942C304.895 163.129 302.464 160.854 299.472 159.117V159.142Z" fill="white"/>
<path d="M343.101 106.317H329.776V106.604C329.215 112.979 327.719 117.742 325.288 120.879C322.858 124.017 318.744 125.967 312.948 126.717H312.524V141.067H320.664V171.879C320.664 181.254 322.795 188.179 327.046 192.629C331.297 197.079 337.779 199.317 346.479 199.317C348.162 199.317 350.132 199.192 352.376 198.967C354.619 198.729 357.187 198.192 360.092 197.354V177.517C358.87 178.179 357.561 178.692 356.165 179.067C354.756 179.442 353.41 179.629 352.101 179.629C349.571 179.629 347.452 178.879 345.719 177.379C343.986 175.879 343.126 173.342 343.126 169.779V141.642H360.104V123.354H343.126V106.329L343.101 106.317Z" fill="white"/>
<path d="M391.217 123.342H368.493V197.617H391.217V123.342Z" fill="white"/>
<path d="M389.747 99.2791C387.453 97.4041 384.112 96.4666 379.712 96.4666C375.312 96.4666 372.108 97.3791 369.827 99.2041C367.533 101.029 366.386 103.729 366.386 107.292C366.386 110.854 367.533 113.417 369.827 115.242C372.121 117.067 375.411 117.979 379.712 117.979C384.012 117.979 387.453 117.042 389.747 115.167C392.04 113.292 393.187 110.667 393.187 107.292C393.187 103.917 392.04 101.154 389.747 99.2791Z" fill="white"/>
<path d="M448.309 170.179C448.396 172.154 448.259 173.904 447.885 175.454C447.511 177.004 446.85 178.317 445.915 179.392C444.98 180.467 443.759 181.292 442.263 181.854C440.767 182.417 438.897 182.704 436.653 182.704C431.418 182.704 427.529 180.967 425.011 177.504C422.967 174.692 421.77 170.517 421.371 165.004L467.231 164.279C468.253 158.279 468.378 152.692 467.58 147.542C466.782 142.379 465.025 137.829 462.32 133.892C459.602 129.954 455.987 126.879 451.45 124.679C446.912 122.479 441.465 121.379 435.108 121.379C428.75 121.379 423.303 122.479 418.766 124.679C414.228 126.879 410.539 129.879 407.684 133.679C404.829 137.479 402.723 141.817 401.377 146.692C400.018 151.567 399.345 156.679 399.345 162.029C399.345 167.004 399.98 171.742 401.239 176.242C402.498 180.742 404.58 184.754 407.485 188.267C410.377 191.779 414.191 194.554 418.915 196.567C423.64 198.579 429.511 199.592 436.516 199.592C443.16 199.592 448.645 198.704 452.996 196.917C457.346 195.142 460.736 192.842 463.167 190.029C465.598 187.217 467.256 184.167 468.153 180.879C469.038 177.592 469.35 174.404 469.063 171.317L448.296 170.192L448.309 170.179ZM426.843 141.904C428.9 140.129 431.655 139.229 435.12 139.229C438.399 139.229 440.966 140.004 442.836 141.554C444.706 143.104 445.99 145.354 446.688 148.304C446.962 149.454 447.137 150.717 447.224 152.079L421.857 152.567C422.032 151.467 422.244 150.404 422.493 149.417C423.34 146.179 424.786 143.679 426.843 141.892V141.904Z" fill="white"/>
<path d="M519.012 147.179C520.981 147.792 522.988 148.704 525.045 149.917L526.167 124.592C524.384 123.567 522.589 122.817 520.769 122.342C518.95 121.879 517.192 121.642 515.509 121.642C512.418 121.642 509.638 122.604 507.157 124.529C504.677 126.454 502.62 129.692 500.987 134.242C499.354 138.792 498.257 145.004 497.696 152.879H496.574V123.342H476.929V197.617H499.516V168.217C499.516 163.529 500.052 159.542 501.124 156.254C502.196 152.967 503.767 150.492 505.824 148.804C507.88 147.117 510.411 146.267 513.402 146.267C515.173 146.267 517.055 146.567 519.012 147.179Z" fill="white"/>
<path d="M178.621 249.53H143.644V210.392H119.336V309.73H143.644V270.005H178.621V309.73H202.941V210.392H178.621V249.53Z" fill="#B5FE28"/>
<path d="M270.927 232.592C265.829 229.63 259.322 228.155 251.419 228.155C247.118 228.155 242.793 228.655 238.43 229.655C234.08 230.655 230.078 232.342 226.426 234.692C222.774 237.055 219.894 240.317 217.8 244.48C215.693 248.642 214.746 253.892 214.945 260.205L236.56 261.705C236.46 257.892 237.109 254.955 238.517 252.905C239.913 250.855 241.721 249.417 243.927 248.617C246.121 247.817 248.327 247.417 250.534 247.417C254.037 247.417 256.866 248.167 259.01 249.68C261.167 251.18 262.239 253.392 262.239 256.305C262.239 257.705 261.765 258.817 260.818 259.617C259.87 260.417 258.088 261.117 255.495 261.73C252.89 262.33 248.988 263.13 243.79 264.142C240.088 264.842 236.336 265.667 232.534 266.63C228.732 267.58 225.229 268.992 222.026 270.842C218.822 272.705 216.267 275.155 214.372 278.217C212.465 281.28 211.517 285.267 211.517 290.18C211.517 295.505 212.664 299.742 214.97 302.893C217.276 306.055 220.218 308.343 223.821 309.743C227.423 311.143 231.225 311.855 235.226 311.855C240.624 311.855 245.411 310.73 249.562 308.468C253.712 306.205 257.066 303.205 259.621 299.442C262.176 295.68 263.647 291.542 264.046 287.03H264.944V309.755H285.96V265.655C285.96 257.73 284.739 250.98 282.283 245.405C279.827 239.83 276.05 235.567 270.952 232.605L270.927 232.592ZM260.568 283.617C259.471 286.28 258.038 288.355 256.293 289.867C254.535 291.367 252.69 292.455 250.733 293.105C248.776 293.755 246.956 294.08 245.249 294.08C242.643 294.08 240.424 293.405 238.567 292.042C236.71 290.692 235.787 288.705 235.787 286.092C235.787 283.892 236.411 282.155 237.657 280.905C238.904 279.655 240.537 278.642 242.531 277.892C244.526 277.142 246.707 276.542 249.063 276.092C251.419 275.642 253.737 275.192 256.043 274.742C258.312 274.292 260.369 273.68 262.201 272.892V273.767C262.201 277.68 261.653 280.967 260.556 283.63L260.568 283.617Z" fill="#B5FE28"/>
<path d="M360.017 232.892C355.666 229.73 350.381 228.155 344.186 228.155C339.287 228.155 335.099 229.13 331.658 231.092C328.205 233.055 325.376 236.005 323.182 239.967C320.975 243.93 319.33 248.867 318.233 254.792H317.186V230.255H295.87V332.005H320.19V312.443C320.19 309.63 320.065 306.705 319.816 303.642C319.567 300.58 319.243 297.467 318.844 294.305C318.445 291.142 317.996 288.105 317.497 285.192H318.844C319.741 291.217 321.324 296.205 323.568 300.167C325.824 304.13 328.666 307.068 332.119 308.968C335.572 310.868 339.549 311.83 344.049 311.83C349.646 311.83 354.657 310.343 359.057 307.393C363.457 304.43 366.935 299.842 369.49 293.617C372.046 287.392 373.317 279.417 373.317 269.68C373.317 260.642 372.195 253.042 369.939 246.88C367.683 240.705 364.38 236.042 360.029 232.88L360.017 232.892ZM347.252 280.917C346.305 284.18 344.797 286.817 342.752 288.817C340.695 290.83 338.078 291.83 334.874 291.83C333.466 291.83 332.069 291.605 330.673 291.155C329.265 290.705 327.918 289.98 326.622 288.967C325.326 287.967 324.166 286.655 323.169 285.055C322.172 283.455 321.374 281.542 320.763 279.33C320.165 277.13 319.866 274.517 319.866 271.505V270.605C319.866 266.792 320.29 263.53 321.137 260.817C321.985 258.105 323.107 255.88 324.515 254.117C325.912 252.367 327.52 251.055 329.315 250.205C331.11 249.355 332.967 248.93 334.874 248.93C337.878 248.93 340.396 249.905 342.453 251.867C344.497 253.83 346.056 256.43 347.103 259.692C348.15 262.955 348.673 266.592 348.673 270.605C348.673 274.217 348.2 277.655 347.252 280.917Z" fill="#B5FE28"/>
<path d="M446.464 232.892C442.113 229.73 436.828 228.155 430.633 228.155C425.734 228.155 421.546 229.13 418.105 231.092C414.652 233.055 411.823 236.005 409.629 239.967C407.422 243.93 405.777 248.867 404.68 254.792H403.633V230.255H382.317V332.005H406.637V312.443C406.637 309.63 406.512 306.705 406.263 303.642C406.014 300.58 405.69 297.467 405.291 294.305C404.892 291.142 404.443 288.105 403.944 285.192H405.291C406.188 291.217 407.771 296.205 410.015 300.167C412.271 304.13 415.113 307.068 418.566 308.968C422.019 310.868 425.996 311.83 430.496 311.83C436.093 311.83 441.104 310.343 445.504 307.393C449.904 304.43 453.382 299.842 455.937 293.617C458.493 287.392 459.764 279.417 459.764 269.68C459.764 260.642 458.642 253.042 456.386 246.88C454.13 240.705 450.827 236.042 446.476 232.88L446.464 232.892ZM433.712 280.917C432.764 284.18 431.256 286.817 429.212 288.817C427.155 290.83 424.537 291.83 421.334 291.83C419.925 291.83 418.529 291.605 417.133 291.155C415.724 290.705 414.378 289.98 413.082 288.967C411.785 287.967 410.626 286.655 409.629 285.055C408.631 283.455 407.834 281.542 407.223 279.33C406.625 277.13 406.325 274.517 406.325 271.505V270.605C406.325 266.792 406.749 263.53 407.597 260.817C408.444 258.105 409.566 255.88 410.975 254.117C412.371 252.367 413.979 251.055 415.774 250.205C417.569 249.355 419.426 248.93 421.334 248.93C424.338 248.93 426.856 249.905 428.913 251.867C430.957 253.83 432.515 256.43 433.562 259.692C434.609 262.955 435.133 266.592 435.133 270.605C435.133 274.217 434.659 277.655 433.712 280.917Z" fill="#B5FE28"/>
<path d="M493.072 230.267H468.752V309.742H493.072V230.267Z" fill="#B5FE28"/>
<path d="M554.164 280.38C554.264 282.492 554.114 284.367 553.715 286.03C553.316 287.68 552.618 289.092 551.609 290.242C550.611 291.392 549.303 292.28 547.707 292.88C546.111 293.48 544.104 293.78 541.699 293.78C536.089 293.78 531.938 291.93 529.246 288.205C527.064 285.205 525.768 280.73 525.357 274.83L574.42 274.055C575.517 267.63 575.642 261.667 574.794 256.142C573.946 250.63 572.064 245.755 569.16 241.542C566.255 237.33 562.379 234.042 557.53 231.68C552.681 229.33 546.847 228.142 540.041 228.142C533.235 228.142 527.401 229.317 522.552 231.68C517.703 234.042 513.751 237.255 510.697 241.317C507.643 245.38 505.387 250.017 503.941 255.242C502.495 260.467 501.76 265.93 501.76 271.655C501.76 276.98 502.433 282.042 503.792 286.855C505.138 291.667 507.369 295.967 510.473 299.73C513.577 303.492 517.653 306.455 522.702 308.605C527.75 310.767 534.032 311.842 541.537 311.842C548.642 311.842 554.525 310.892 559.175 308.98C563.825 307.08 567.452 304.617 570.057 301.605C572.663 298.592 574.433 295.33 575.38 291.817C576.327 288.305 576.651 284.892 576.352 281.58L554.139 280.38H554.164ZM531.19 250.13C533.384 248.23 536.339 247.267 540.041 247.267C543.544 247.267 546.298 248.092 548.293 249.755C550.287 251.405 551.671 253.817 552.419 256.98C552.718 258.217 552.905 259.567 552.992 261.017L525.855 261.542C526.042 260.367 526.267 259.23 526.541 258.18C527.438 254.717 528.997 252.03 531.19 250.13Z" fill="#B5FE28"/>
<path d="M626.052 228.455C622.748 228.455 619.769 229.48 617.127 231.542C614.471 233.605 612.278 237.067 610.52 241.93C608.762 246.792 607.591 253.442 606.992 261.867H605.796V230.255H584.779V309.73H608.949V278.267C608.949 273.255 609.523 268.992 610.67 265.467C611.816 261.955 613.499 259.292 615.693 257.492C617.887 255.692 620.592 254.78 623.795 254.78C625.69 254.78 627.697 255.105 629.804 255.755C631.91 256.405 634.054 257.392 636.261 258.692L637.458 231.605C635.55 230.505 633.631 229.705 631.674 229.192C629.717 228.692 627.847 228.442 626.039 228.442L626.052 228.455Z" fill="#B5FE28"/>
<path d="M666.277 278.13L671.238 210.392H644.675L649.624 278.13H666.277Z" fill="#B5FE28"/>
<path d="M670.64 287.755C668.035 285.555 664.133 284.442 658.935 284.442C653.737 284.442 650.01 285.542 647.455 287.755C644.899 289.967 643.628 293.43 643.628 298.142C643.628 302.855 644.899 306.167 647.455 308.38C650.01 310.58 653.837 311.693 658.935 311.693C669.344 311.693 674.542 307.18 674.542 298.142C674.542 293.43 673.245 289.967 670.64 287.755Z" fill="#B5FE28"/>
<path d="M528.049 187.267C534.307 193.455 542.895 199.767 554.351 204.367C561.319 207.092 569.297 209.217 578.484 210.305C580.154 210.53 581.762 210.68 583.308 210.767C590.089 211.142 596.584 210.592 602.804 209.38C612.489 207.517 621.415 204.055 629.417 199.817C654.822 186.292 671.126 165.192 672.173 163.829L674.542 160.779L672.522 157.417C665.118 144.942 643.553 124.079 614.958 134.379C602.679 138.829 594.153 147.829 590.426 160.342C586.686 172.917 588.381 188.067 594.452 198.917C589.703 199.43 584.841 199.43 579.83 198.892C537.909 193.917 524.908 164.242 524.397 162.917C523.138 159.929 519.785 158.567 516.868 159.779C513.951 160.979 512.542 164.342 513.739 167.329C514.088 168.129 518.04 177.429 528.049 187.267ZM617.538 145.167C642.244 134.579 657.701 153.429 661.927 158.979C639.951 184.554 617.874 192.367 609.46 194.542C614.284 177.617 623.746 163.604 643.266 161.167C644.176 161.029 644.912 160.254 644.949 159.292C644.986 158.217 644.139 157.304 643.067 157.267C625.291 156.067 609.136 168.829 602.766 185.004C602.679 185.267 602.567 185.529 602.467 185.792C599.837 172.967 600.722 152.367 617.538 145.154V145.167Z" fill="#B5FE28"/>
</svg>
