<svg width="1007" height="263" viewBox="0 0 1007 263" fill="none" xmlns="http://www.w3.org/2000/svg">
<path d="M1000.02 112.849L528.231 111.977L528.04 239.814L999.829 240.686L1000.02 112.849Z" fill="#003BE2"/>
<path d="M556.06 154.622L556.067 141.611L593.924 141.693L593.918 154.704L556.06 154.622ZM567.013 210.358L567.12 141.629L583.078 141.665L582.97 210.394L567.013 210.358Z" fill="#B5FE28"/>
<path d="M587.748 210.376L599.24 141.649L621.847 141.704L633.042 210.439L616.419 210.393L610.58 153.831L609.751 153.87L604.369 210.381L587.663 210.338L587.748 210.376ZM598.135 198.958L598.139 188.532L622.116 188.563L622.111 198.989L598.135 198.958Z" fill="#B5FE28"/>
<path d="M653.548 211.76C649.6 211.739 646.206 211.149 643.367 209.991C640.526 208.791 638.286 207.104 636.639 204.805C634.995 202.548 633.953 199.845 633.595 196.693C633.238 193.54 633.568 189.98 634.585 186.012L649.326 184.062C648.912 186.709 648.742 189.261 648.817 191.718C648.892 194.175 649.278 196.2 650.058 197.747C650.838 199.295 652.082 200.112 653.785 200.114C654.615 200.075 655.313 199.917 655.916 199.471C656.52 199.067 656.946 198.422 657.282 197.613C657.574 196.765 657.732 195.715 657.752 194.38C657.754 191.794 657.235 189.609 656.151 187.784C655.067 185.958 653.701 184.313 652.057 182.932C650.412 181.55 648.689 180.256 646.971 179.086C645.463 177.948 643.911 176.771 642.312 175.471C640.713 174.17 639.274 172.737 637.949 171.09C636.625 169.443 635.583 167.616 634.777 165.528C633.972 163.439 633.609 161.037 633.605 158.327C633.603 154.783 634.371 151.702 635.905 149.002C637.441 146.344 639.668 144.236 642.59 142.763C645.553 141.289 649.091 140.537 653.247 140.548C657.943 140.576 661.811 141.519 664.808 143.378C667.804 145.238 669.97 147.971 671.216 151.456C672.505 154.982 672.826 159.137 672.309 163.998L657.895 165.849C658.106 164.171 658.197 162.582 658.164 160.999C658.13 159.416 657.941 158.049 657.589 156.773C657.24 155.538 656.693 154.522 655.994 153.804C655.254 153.089 654.364 152.714 653.242 152.726C652.496 152.761 651.797 152.919 651.237 153.363C650.632 153.767 650.202 154.329 649.864 155.096C649.566 155.819 649.4 156.702 649.408 157.745C649.408 159.496 649.811 160.978 650.662 162.272C651.513 163.567 652.565 164.726 653.941 165.703C655.277 166.724 656.695 167.699 658.154 168.673C660.169 169.995 662.106 171.405 663.963 172.901C665.821 174.398 667.521 176.069 668.982 177.959C670.484 179.848 671.625 182.004 672.488 184.424C673.35 186.843 673.775 189.659 673.761 192.87C673.766 196.498 673.089 199.741 671.729 202.6C670.368 205.458 668.232 207.728 665.277 209.369C662.319 210.969 658.452 211.778 653.591 211.8L653.548 211.76Z" fill="#B5FE28"/>
<path d="M674.242 154.816L674.248 141.805L712.106 141.887L712.099 154.898L674.242 154.816ZM685.195 210.552L685.302 141.823L701.26 141.859L701.152 210.588L685.195 210.552Z" fill="#B5FE28"/>
<path d="M728.246 210.638L728.277 187.618L713.809 141.89L732.302 141.93L737.013 173.817L737.428 173.798L742.441 141.95L759.562 141.973L745.065 187.656L745.035 210.676L728.246 210.638Z" fill="#B5FE28"/>
<path d="M777.53 210.72L777.637 141.991L793.636 142.025L793.529 210.754L777.53 210.72ZM785.031 184.885L785.057 172.29L805.17 172.337L805.144 184.932L785.031 184.885ZM785.074 155.108L785.074 141.972L807.057 142.014L807.056 155.15L785.074 155.108Z" fill="#B5FE28"/>
<path d="M809.901 210.77L810.008 142.041L828.874 142.064C831.243 142.077 833.458 142.347 835.602 142.871C837.746 143.395 839.696 144.22 841.453 145.346C843.21 146.472 844.728 147.818 846.051 149.423C847.374 151.029 848.377 152.899 849.105 155.117C849.831 157.293 850.198 159.777 850.165 162.573C850.149 164.867 849.876 167.007 849.308 169.036C848.739 171.064 847.866 172.815 846.652 174.374C845.438 175.933 843.922 177.256 842.145 178.341C840.368 179.426 838.2 180.154 835.685 180.565L835.731 181.522C839.353 181.684 842.131 182.428 843.985 183.842C845.838 185.255 847.173 187.11 847.905 189.411C848.681 191.751 849.224 194.436 849.534 197.465L851.292 210.893L834.669 210.847L833.771 199.797C833.576 197.429 833.31 195.315 832.97 193.413C832.631 191.511 831.977 189.999 831.051 188.875C830.126 187.751 828.602 187.156 826.521 187.088L825.774 187.124L825.734 210.812L809.777 210.776L809.901 210.77ZM825.933 176.441L826.886 176.395C827.388 176.455 827.927 176.429 828.545 176.317C829.167 176.287 829.82 176.048 830.468 175.683C831.115 175.319 831.711 174.749 832.298 173.97C832.843 173.194 833.287 172.047 833.676 170.611C834.023 169.176 834.183 167.292 834.199 164.998C834.188 162.997 834.026 161.336 833.799 160.054C833.53 158.774 833.151 157.791 832.66 157.064C832.17 156.378 831.647 155.861 831.051 155.556C830.455 155.25 829.864 155.07 829.237 154.975C828.611 154.921 828.026 154.865 827.487 154.891L826.032 154.876L826.016 176.437L825.933 176.441Z" fill="#B5FE28"/>
<path d="M873.622 212.128C869.591 212.111 866.32 211.473 863.805 210.133C861.29 208.793 859.3 207.136 857.914 205.074C856.487 203.015 855.47 200.853 854.862 198.547C854.254 196.24 853.865 194.174 853.733 192.262C853.601 190.35 853.532 188.894 853.524 187.851L853.601 142.143L869.6 142.177L869.537 186.425C869.55 189.343 869.7 191.63 869.99 193.368C870.32 195.062 870.752 196.292 871.368 197.014C871.984 197.735 872.75 198.116 873.664 198.114C874.62 198.111 875.435 197.78 876.067 197.083C876.699 196.386 877.141 195.197 877.477 193.513C877.812 191.829 877.951 189.487 877.974 186.484L878.037 142.235L894.036 142.269L893.959 187.978C893.953 192.232 893.46 195.841 892.567 198.928C891.631 201.975 890.255 204.5 888.52 206.459C886.743 208.42 884.611 209.897 882.119 210.808C879.628 211.718 876.824 212.185 873.709 212.207L873.622 212.128Z" fill="#B5FE28"/>
<path d="M897.873 210.937L897.981 142.207L914.394 142.222L914.287 210.951L897.873 210.937Z" fill="#B5FE28"/>
<path d="M916.964 155.236L916.971 142.224L954.828 142.306L954.822 155.317L916.964 155.236ZM927.875 210.974L927.983 142.244L943.94 142.28L943.833 211.009L927.875 210.974Z" fill="#B5FE28"/>
<path d="M965.754 212.389C963.137 212.388 961.188 211.604 959.909 210.039C958.63 208.473 957.978 206.127 957.996 202.998C958.01 199.787 958.646 197.421 959.943 195.858C961.24 194.296 963.199 193.536 965.816 193.537C968.434 193.538 970.383 194.321 971.662 195.887C972.941 197.452 973.595 199.84 973.579 203.01C973.584 209.265 970.949 212.393 965.796 212.387L965.754 212.389ZM961.827 190.014L957.031 142.327L974.485 142.375L969.558 190.065L961.87 190.054L961.827 190.014Z" fill="#B5FE28"/>
<path d="M594.96 -5.7851e-06L81.0049 27.0325L87.6714 154.696L601.627 127.663L594.96 -5.7851e-06Z" fill="#B5FE28"/>
<path d="M116.002 123.306L112.391 54.6586L138.622 53.284L146.508 107.102H146.84L148.458 52.7841L173.735 51.4512L177.346 120.098L162.321 120.89L159.499 66.8218H159.167L154.518 121.306L138.788 122.139L128.495 68.4463H128.162L130.985 122.556L115.96 123.347L116.002 123.306Z" fill="#003BE2"/>
<path d="M181.496 119.89L177.885 51.2429L193.948 50.4098L197.559 119.057L181.496 119.89ZM190.005 63.7394L189.299 50.6181L208.142 49.6184L208.848 62.7396L190.005 63.7394ZM191.374 90.3567L190.752 78.4018L206.939 77.5687L207.561 89.5236L191.374 90.3567ZM192.91 119.265L192.205 106.144L211.048 105.144L211.753 118.265L192.91 119.265Z" fill="#003BE2"/>
<path d="M214.866 118.099L211.255 49.4517L227.193 48.6187L230.804 117.266L214.866 118.099ZM221.798 117.765L221.133 104.977L231.717 104.436C232.838 104.394 233.834 104.019 234.747 103.395C235.66 102.77 236.407 101.645 236.947 100.062C237.486 98.4793 237.901 96.2716 238.109 93.4391C238.317 90.6066 238.275 86.9826 238.067 82.5256C237.818 77.9436 237.445 74.2779 236.988 71.4871C236.49 68.6962 235.868 66.5718 235.079 65.0723C234.332 63.5727 233.419 62.573 232.423 62.0731C231.427 61.5733 230.348 61.365 229.185 61.4066L218.934 61.9482L218.27 49.1602L227.899 48.6603C232.962 48.4104 237.362 49.4934 241.097 51.9927C244.874 54.4503 247.863 58.2409 250.104 63.2394C252.345 68.2797 253.632 74.4446 254.047 81.8174C254.379 87.8574 254.088 92.9392 253.217 97.0631C252.345 101.229 251.142 104.603 249.481 107.227C247.863 109.851 246.036 111.892 244.086 113.308C242.135 114.725 240.143 115.724 238.192 116.266C236.241 116.807 234.498 117.141 233.004 117.224L221.798 117.807V117.765Z" fill="#003BE2"/>
<path d="M259.442 115.766L255.832 47.1191L272.184 46.2444L275.795 114.891L259.442 115.766Z" fill="#003BE2"/>
<path d="M278.078 114.766L285.881 45.5359L308.46 44.3279L323.36 112.35L306.8 113.225L297.959 57.0742H297.129L294.805 113.85L278.12 114.724L278.078 114.766ZM287.832 102.811L287.292 92.3974L311.241 91.1478L311.78 101.561L287.832 102.811Z" fill="#003BE2"/>
<path d="M360.922 111.684C356.979 111.892 353.576 111.475 350.67 110.434C347.765 109.393 345.441 107.81 343.656 105.644C341.871 103.478 340.709 100.812 340.17 97.6877C339.63 94.5636 339.754 90.9813 340.585 86.9825L355.194 84.2333C354.904 86.8992 354.862 89.4401 355.07 91.8977C355.277 94.3554 355.775 96.3548 356.647 97.8544C357.477 99.3956 358.764 100.104 360.507 100.02C361.337 99.9788 362.043 99.7288 362.582 99.2706C363.163 98.8124 363.578 98.1876 363.827 97.3545C364.076 96.5214 364.201 95.4384 364.118 94.1055C363.993 91.5229 363.329 89.3568 362.167 87.5657C361.005 85.7745 359.552 84.2333 357.809 82.942C356.066 81.6507 354.323 80.4427 352.538 79.3597C350.961 78.3183 349.342 77.2353 347.682 76.0273C346.022 74.8193 344.486 73.4447 343.116 71.8618C341.705 70.3206 340.585 68.5295 339.671 66.4884C338.758 64.4473 338.26 62.073 338.094 59.3654C337.928 55.8248 338.509 52.7007 339.879 49.9515C341.249 47.2023 343.365 44.9946 346.229 43.37C349.093 41.7038 352.579 40.7874 356.73 40.5792C361.42 40.3292 365.321 41.079 368.434 42.7869C371.547 44.4947 373.83 47.0773 375.283 50.493C376.735 53.9503 377.316 58.0741 377.026 62.9894L362.707 65.6136C362.831 63.9475 362.831 62.3229 362.707 60.74C362.582 59.1988 362.333 57.7826 361.918 56.5746C361.503 55.3666 360.922 54.4085 360.175 53.7004C359.428 53.0339 358.473 52.7007 357.353 52.7423C356.605 52.7423 355.941 53.0339 355.36 53.4505C354.779 53.9087 354.364 54.4918 354.115 55.2416C353.866 55.9914 353.742 56.8662 353.783 57.9075C353.866 59.657 354.364 61.1149 355.277 62.3646C356.149 63.6142 357.311 64.6972 358.722 65.6136C360.133 66.5717 361.586 67.4881 363.08 68.3628C365.155 69.5708 367.148 70.8621 369.098 72.2784C371.049 73.653 372.792 75.2775 374.37 77.0687C375.947 78.8598 377.233 80.9426 378.23 83.3169C379.226 85.6912 379.807 88.4821 379.973 91.6895C380.18 95.3134 379.641 98.5625 378.479 101.52C377.275 104.477 375.241 106.852 372.419 108.643C369.555 110.434 365.737 111.434 360.88 111.684H360.922Z" fill="#003BE2"/>
<path d="M404.129 109.393C400.31 109.601 397.073 109.018 394.333 107.727C391.594 106.394 389.353 104.311 387.568 101.479C385.783 98.6045 384.414 95.0222 383.459 90.6485C382.504 86.2747 381.882 81.1512 381.55 75.2779C381.135 67.0302 381.425 60.2405 382.504 54.9087C383.584 49.5769 385.617 45.5364 388.564 42.7872C391.553 40.0797 395.579 38.5801 400.684 38.2885C404.544 38.0802 407.864 38.6217 410.645 39.913C413.426 41.2043 415.708 43.2038 417.576 45.9946C419.402 48.7855 420.855 52.4094 421.893 56.8248C422.93 61.2402 423.594 66.4887 423.926 72.5287C424.258 78.5686 424.134 83.8171 423.553 88.3575C422.972 92.8562 421.934 96.6467 420.357 99.6875C418.78 102.728 416.663 105.061 414.007 106.686C411.35 108.31 408.071 109.226 404.129 109.435V109.393ZM403.796 97.1049C404.751 97.0633 405.581 96.5634 406.204 95.6887C406.826 94.7723 407.324 93.3977 407.615 91.5649C407.905 89.6904 408.03 87.3577 408.072 84.4419C408.072 81.5677 407.989 78.1521 407.781 74.1949C407.532 69.0713 407.117 64.7392 406.619 61.1986C406.121 57.6579 405.457 55.0337 404.627 53.2009C403.797 51.4097 402.717 50.535 401.306 50.6183C400.393 50.66 399.688 51.1598 399.106 52.0762C398.525 52.9926 398.11 54.4505 397.82 56.4083C397.529 58.3661 397.405 60.8654 397.363 63.8645C397.363 66.9053 397.446 70.5292 397.695 74.7364C397.903 78.9852 398.193 82.5258 398.525 85.4416C398.857 88.3575 399.231 90.6485 399.729 92.3563C400.186 94.0641 400.767 95.3138 401.431 96.0219C402.095 96.7717 402.883 97.1049 403.755 97.0633L403.796 97.1049Z" fill="#003BE2"/>
<path d="M448.165 107.102C444.222 107.31 440.819 106.893 437.914 105.852C435.008 104.811 432.684 103.228 430.899 101.062C429.115 98.8956 427.952 96.2297 427.413 93.1056C426.873 89.9815 426.998 86.3992 427.828 82.4004L442.438 79.6512C442.147 82.3171 442.106 84.858 442.313 87.3156C442.521 89.7732 443.019 91.7727 443.89 93.2722C444.72 94.8135 446.007 95.5216 447.75 95.3966C448.58 95.3966 449.286 95.105 449.825 94.6468C450.407 94.1886 450.822 93.5638 451.071 92.6891C451.32 91.856 451.444 90.773 451.361 89.44C451.237 86.8574 450.573 84.6914 449.41 82.9002C448.248 81.1091 446.796 79.5678 445.052 78.2766C443.309 76.9853 441.566 75.7773 439.781 74.6943C438.204 73.6529 436.585 72.5699 434.925 71.3619C433.265 70.1539 431.729 68.7793 430.36 67.2381C428.948 65.6968 427.828 63.864 426.915 61.8646C426.002 59.8235 425.504 57.4492 425.338 54.7417C425.172 51.201 425.753 48.0769 427.122 45.3277C428.492 42.5785 430.609 40.3708 433.473 38.7463C436.336 37.0801 439.823 36.1637 443.973 35.9554C448.663 35.7055 452.565 36.4552 455.678 38.1631C458.79 39.8709 461.073 42.4535 462.526 45.8692C463.979 49.2849 464.56 53.4504 464.269 58.3656L449.95 60.9899C450.074 59.3237 450.074 57.6991 449.95 56.1579C449.825 54.575 449.576 53.2004 449.161 51.9924C448.746 50.7845 448.165 49.7847 447.418 49.1183C446.671 48.4101 445.716 48.1186 444.596 48.1602C443.849 48.1602 443.185 48.4518 442.604 48.91C442.023 49.3682 441.607 49.9514 441.358 50.7012C441.109 51.4509 440.985 52.3257 441.026 53.367C441.109 55.1165 441.607 56.5745 442.521 57.8241C443.434 59.0737 444.554 60.1568 445.965 61.0732C447.377 61.9896 448.829 62.906 450.324 63.8224C452.399 65.0304 454.391 66.3217 456.342 67.7379C458.292 69.1125 460.036 70.7371 461.613 72.5282C463.19 74.3194 464.477 76.4021 465.473 78.7764C466.469 81.1507 467.05 83.9416 467.216 87.149C467.382 90.773 466.884 94.022 465.722 96.9795C464.518 99.937 462.484 102.311 459.662 104.061C456.798 105.852 452.98 106.852 448.124 107.102H448.165Z" fill="#003BE2"/>
<path d="M471.325 104.602L467.714 35.9556L484.109 35.0808L487.719 103.728L471.325 104.602Z" fill="#003BE2"/>
<path d="M489.961 103.644L497.764 34.414L520.342 33.2061L535.243 101.228L518.641 102.103L509.8 45.9524H508.97L506.646 102.728L489.961 103.602V103.644ZM499.756 91.6476L499.216 81.2339L523.165 79.9843L523.704 90.398L499.756 91.6476Z" fill="#003BE2"/>
<path d="M537.525 101.104L533.914 32.4566L550.06 31.6235L553.671 100.27L537.525 101.104ZM540.223 100.979L539.518 87.4408L568.613 85.8996L569.318 99.4374L540.223 100.979Z" fill="#003BE2"/>
<path d="M313.507 165.622L329.61 152.203L328.774 131.243C328.679 128.809 331.734 127.642 333.292 129.502L346.71 145.605L367.671 144.769C370.105 144.674 371.272 147.729 369.412 149.287L353.309 162.706L354.145 183.666C354.24 186.1 351.185 187.267 349.627 185.407L336.208 169.304L315.248 170.14C312.814 170.235 311.647 167.18 313.507 165.622Z" fill="#003CE9"/>
<path d="M591.528 55.3339L604.513 54.5173L611.787 43.7223C612.635 42.4698 614.587 43.0082 614.671 44.5232L615.488 57.5082L626.283 64.7819C627.535 65.6308 626.997 67.5823 625.482 67.6665L612.497 68.4833L605.223 79.2783C604.374 80.5308 602.423 79.9923 602.339 78.4774L601.522 65.4922L590.727 58.2186C589.474 57.3698 590.013 55.4181 591.528 55.3339Z" fill="#003CE9"/>
<path d="M60.8973 63.3785L68.7142 57.4296L68.7612 47.6115C68.7664 46.4725 70.2196 45.9847 70.9101 46.8925L76.859 54.7094L86.6772 54.7565C87.8161 54.7616 88.3039 56.2149 87.3961 56.9054L79.5792 62.8543L79.5322 72.6724C79.527 73.8113 78.0737 74.2991 77.3832 73.3914L71.4344 65.5745L61.6162 65.5274C60.4773 65.5223 59.9895 64.069 60.8973 63.3785Z" fill="#003CE9"/>
<path d="M435.853 165.568C434.884 158.72 436.34 152.599 440.05 147.871C442.41 144.869 445.687 142.509 449.788 140.87C454.215 139.1 459.567 138.228 465.266 138.344C470.736 138.456 476.532 139.481 482.072 141.311C487.032 134.203 493.91 128.518 501.436 125.359L505.705 117.425C505.705 117.425 517.2 120.81 525.672 125.816C526.833 126.457 527.953 127.192 529.028 128.024C530.359 129.012 531.529 130.038 532.443 131.101C535.727 134.581 538.344 138.949 540.221 144.093C543.941 154.293 544.377 166.548 541.447 178.608C539.439 186.879 535.937 194.577 531.315 200.868C526.702 207.152 521.105 211.887 515.12 214.566C514.748 214.736 514.36 214.905 513.969 215.059C513.326 215.315 512.655 215.557 511.964 215.773L511.912 215.784C511.811 215.824 511.709 215.86 511.611 215.89L511.591 215.894L511.572 215.898C511.469 215.929 511.37 215.954 511.267 215.985L511.21 215.997C510.099 216.324 508.989 216.577 507.901 216.751C501.4 217.859 493.751 217.18 485.79 214.785C485.79 214.785 470.559 210.654 459.241 203.77L460.414 201.595C454.004 196.71 448.446 191.042 444.249 185.099C439.643 178.573 436.739 171.815 435.857 165.562L435.853 165.568Z" fill="#003BE2"/>
<path d="M498.358 205.882C498.698 205.748 499.032 205.605 499.359 205.454C504.842 202.997 509.987 198.627 514.259 192.809C518.623 186.863 521.936 179.575 523.842 171.725C526.622 160.289 526.221 148.709 522.723 139.111C521.004 134.395 518.624 130.404 515.646 127.252C512.522 123.947 508.887 121.712 504.835 120.615C500.021 119.314 494.511 119.808 488.895 122.055C481.749 124.913 475.187 130.247 470.418 137.077L468.997 139.11L466.64 138.328C461.415 136.602 455.943 135.634 450.812 135.526C445.557 135.419 440.656 136.208 436.637 137.815C433.083 139.237 430.275 141.244 428.281 143.78C425.138 147.784 423.917 153.039 424.754 158.98C425.566 164.718 428.273 170.977 432.578 177.081C436.973 183.31 442.951 189.233 449.867 194.207C456.947 199.305 464.727 203.211 472.364 205.505C479.837 207.748 486.958 208.397 492.96 207.377C493.942 207.22 494.919 206.994 495.899 206.709C495.899 206.709 496.177 206.632 496.247 206.613C496.321 206.587 496.587 206.503 496.587 206.503C497.195 206.314 497.787 206.103 498.352 205.878L498.358 205.882Z" fill="#B5FE28"/>
<path d="M437.875 140.889C441.48 139.446 445.927 138.74 450.743 138.839C455.549 138.94 460.681 139.849 465.591 141.471L470.304 143.03L473.145 138.96C477.546 132.655 483.577 127.737 490.126 125.12C495.063 123.147 499.845 122.694 503.954 123.803C507.406 124.736 510.525 126.662 513.223 129.515C515.885 132.336 518.033 135.945 519.601 140.242C522.879 149.233 523.241 160.138 520.617 170.949C518.813 178.377 515.685 185.26 511.582 190.856C507.648 196.214 502.963 200.213 498.03 202.423L498.002 202.429L497.976 202.449C497.704 202.575 497.416 202.698 497.131 202.811C496.649 203.004 496.134 203.184 495.607 203.351L495.54 203.365L495.481 203.392L495.429 203.403C495.379 203.428 495.342 203.44 495.305 203.453C495.257 203.463 495.22 203.475 495.188 203.487L495.111 203.503L495.051 203.525L494.989 203.538C494.142 203.791 493.296 203.979 492.478 204.113L492.45 204.119L492.421 204.125C486.923 205.061 480.326 204.443 473.345 202.346C466.058 200.159 458.615 196.416 451.832 191.533C445.212 186.765 439.499 181.114 435.313 175.179C431.305 169.504 428.799 163.743 428.059 158.519C427.349 153.491 428.335 149.095 430.911 145.816C432.538 143.746 434.886 142.087 437.885 140.887M435.407 134.754C431.301 136.394 428.028 138.748 425.669 141.755C421.954 146.484 420.503 152.603 421.472 159.452C422.354 165.705 425.258 172.462 429.864 178.989C434.469 185.511 440.715 191.7 447.923 196.891C455.301 202.2 463.424 206.278 471.405 208.674C479.366 211.065 487.014 211.744 493.516 210.64C494.604 210.466 495.719 210.213 496.826 209.891L496.883 209.879C496.986 209.848 497.09 209.822 497.188 209.792L497.208 209.788L497.227 209.784C497.33 209.753 497.427 209.718 497.53 209.687L497.582 209.677C498.268 209.457 498.943 209.214 499.586 208.958C499.977 208.804 500.365 208.635 500.737 208.465C506.722 205.786 512.323 201.045 516.932 194.767C521.553 188.471 525.055 180.774 527.064 172.507C529.994 160.447 529.557 148.187 525.838 137.992C523.962 132.853 521.344 128.48 518.06 125C514.515 121.243 510.355 118.7 505.703 117.44C500.188 115.947 493.948 116.487 487.656 119.001C479.895 122.104 472.783 127.907 467.689 135.209C462.154 133.379 456.352 132.35 450.883 132.242C445.183 132.123 439.832 132.999 435.405 134.769L435.407 134.754Z" fill="white"/>
</svg>
