<svg width="333" height="241" viewBox="0 0 333 241" fill="none" xmlns="http://www.w3.org/2000/svg">
<path d="M5.33984 116.463L127.375 150.082L271.694 141.312L142.804 102.821L5.33984 116.463Z" fill="#A4DD26"/>
<path d="M327.425 0.000116195L0 17.1598L5.21725 116.711L332.643 99.5512L327.425 0.000116195Z" fill="#B5FE28"/>
<path d="M56.0118 70.4361C55.2322 68.9419 54.2578 67.87 53.1209 67.1229C51.984 66.4083 50.6523 65.9211 49.1906 65.6612C47.6964 65.4014 46.1047 65.3039 44.3832 65.3364V64.7842C46.6245 63.4849 48.5409 61.8608 50.165 59.9768C51.7891 58.0929 53.0884 55.949 54.1278 53.5454C55.1673 51.1742 55.9144 48.5756 56.4016 45.7821C56.8888 42.9887 57.1162 40.0653 57.1162 37.0444L43.2463 37.759C43.1814 40.8124 43.0514 43.5409 42.8565 45.9445C42.6616 48.3482 42.3693 50.557 41.9795 52.5059C41.5897 54.4549 41.1025 56.2089 40.5178 57.8005C39.9331 59.3597 39.1861 60.8539 38.3415 62.2831L37.0747 38.1163L24.6016 38.766L27.4275 92.2966L39.9007 91.6469L38.7638 70.2412H39.4134C40.7127 70.1437 41.7521 70.4036 42.5317 71.0208C43.3113 71.6379 43.9609 72.7748 44.4157 74.3989C44.8704 76.0555 45.2927 78.4267 45.6825 81.48L46.9168 91.2572L59.8772 90.575L57.6684 76.2829C57.3111 73.8792 56.7589 71.9303 55.9793 70.4361H56.0118Z" fill="#003BE2"/>
<path d="M90.5078 49.615C89.6957 46.1719 88.5913 43.346 87.1296 41.1697C85.7004 38.9933 83.8814 37.4017 81.7051 36.4273C79.5288 35.4203 76.9302 34.998 73.9094 35.1605C69.9141 35.3553 66.7308 36.5247 64.4246 38.6685C62.0859 40.8123 60.5267 43.9306 59.6822 48.1208C58.8377 52.2785 58.5778 57.5731 58.9351 64.0046C59.1625 68.6171 59.6822 72.6124 60.4293 75.9905C61.1764 79.4012 62.2483 82.2271 63.645 84.4359C65.0418 86.6772 66.7958 88.3013 68.9396 89.3082C71.0834 90.3152 73.6495 90.7699 76.6054 90.6075C79.6912 90.4451 82.2573 89.7305 84.3362 88.4637C86.415 87.1969 88.0716 85.3779 89.3059 83.0067C90.5403 80.6355 91.3848 77.7121 91.8071 74.1715C92.2618 70.6635 92.3593 66.5382 92.0994 61.8608C91.8395 57.1509 91.3198 53.0581 90.5078 49.615ZM79.3339 76.7051C79.1065 78.1668 78.7492 79.2387 78.2295 79.9209C77.7098 80.6355 77.0926 80.9928 76.3456 81.0253C75.6309 81.0577 75.0463 80.7979 74.5266 80.2457C74.0068 79.661 73.5521 78.719 73.1948 77.3873C72.8375 76.0555 72.5127 74.269 72.2528 71.9952C71.9929 69.7215 71.7981 66.9605 71.6032 63.6473C71.4408 60.3341 71.3433 57.5082 71.3758 55.1695C71.3758 52.7983 71.5057 50.8818 71.7331 49.3552C71.9605 47.8285 72.2853 46.6916 72.74 45.977C73.1948 45.2624 73.7795 44.8726 74.4616 44.8401C75.5335 44.7752 76.4105 45.4573 77.0602 46.854C77.7098 48.2508 78.2295 50.3296 78.6193 53.0906C79.0091 55.8191 79.3014 59.1972 79.5288 63.225C79.6912 66.3108 79.7562 68.9744 79.7562 71.2156C79.7562 73.4569 79.6263 75.3084 79.3989 76.7701L79.3339 76.7051Z" fill="#003BE2"/>
<path d="M121.821 33.6338L120.554 75.9906H120.327L114.122 34.0236L93.6262 35.0955L96.4197 88.6261L108.178 88.009L105.969 45.8471L106.197 45.8146L114.252 87.6841L126.596 87.0345L130.201 44.5803L130.461 44.5478L132.67 86.7097L144.428 86.125L141.602 32.5944L121.821 33.6338Z" fill="#003BE2"/>
<path d="M157.651 31.7336L144.838 32.4073L147.652 85.9289L160.465 85.2552L157.651 31.7336Z" fill="#003BE2"/>
<path d="M189.286 30.0932L159.695 31.6523L160.247 41.7868L168.822 41.332L171.096 84.6957L183.602 84.0461L181.328 40.6824L189.838 40.2276L189.286 30.0932Z" fill="#003BE2"/>
<path d="M219.559 28.5019L218.26 70.8586H218.033L211.829 28.8917L191.332 29.9636L194.126 83.4942L205.884 82.877L203.676 40.7152H203.935L211.991 82.5522L224.302 81.9026L227.94 39.4484L228.167 39.4159L230.376 81.6102L242.134 80.9931L239.341 27.4625L219.559 28.5019Z" fill="#003BE2"/>
<path d="M268.542 69.3642L257.434 69.9489L256.784 57.6057L265.781 57.151L265.294 47.7961L256.297 48.2833L255.68 36.8496L266.788 36.2649L266.269 26.0331L252.659 26.7477L242.589 27.2999L245.383 80.798L257.953 80.1483L269.062 79.5636L268.542 69.3642Z" fill="#003BE2"/>
<path d="M293.489 78.2968L307.196 77.5822L304.37 24.0516L292.612 24.6688L294.301 56.6962H294.041L282.315 25.221L268.673 25.9356L271.499 79.4337L283.355 78.8165L281.665 46.7891H281.893L293.489 78.2968Z" fill="#003BE2"/>
<path d="M271.693 141.312H70.6938V241H271.693V141.312Z" fill="#B5FE28"/>
<path d="M122.145 174.51V164.375H113.635H101.129H92.5217V174.51H101.129V217.971H113.635V174.51H122.145Z" fill="#003BE2"/>
<path d="M126.303 164.375L117.371 217.971H130.461L131.306 209.038H138.939L139.881 217.971H152.874L144.039 164.375H126.336H126.303ZM132.053 200.918L134.586 173.86H135.236L138.062 200.918H132.02H132.053Z" fill="#003BE2"/>
<path d="M180.841 192.537C179.672 191.075 178.372 189.776 176.911 188.607C175.449 187.437 173.922 186.333 172.363 185.326C171.226 184.579 170.122 183.799 169.082 183.02C168.01 182.24 167.166 181.331 166.516 180.324C165.867 179.317 165.542 178.147 165.542 176.783C165.542 175.971 165.672 175.289 165.899 174.704C166.159 174.152 166.484 173.697 166.971 173.373C167.426 173.048 167.945 172.885 168.563 172.885C169.44 172.885 170.154 173.178 170.706 173.73C171.259 174.282 171.681 175.062 171.973 176.036C172.233 177.011 172.396 178.115 172.428 179.317C172.428 180.551 172.396 181.785 172.233 183.085L183.537 181.623C183.959 177.823 183.699 174.574 182.692 171.846C181.685 169.117 179.996 167.006 177.658 165.544C175.286 164.083 172.298 163.368 168.595 163.368C165.347 163.368 162.586 163.953 160.28 165.122C157.973 166.291 156.219 167.916 155.05 169.994C153.881 172.073 153.264 174.509 153.264 177.27C153.264 179.382 153.588 181.266 154.206 182.89C154.823 184.514 155.667 185.976 156.674 187.242C157.714 188.509 158.85 189.646 160.085 190.653C161.319 191.66 162.553 192.602 163.723 193.447C165.087 194.356 166.419 195.363 167.718 196.435C169.017 197.507 170.089 198.774 170.934 200.203C171.778 201.632 172.201 203.354 172.201 205.367C172.201 206.407 172.071 207.251 171.843 207.901C171.583 208.551 171.259 209.038 170.771 209.363C170.317 209.688 169.764 209.85 169.115 209.85C167.751 209.85 166.776 209.233 166.191 208.031C165.607 206.829 165.282 205.238 165.217 203.321C165.152 201.405 165.314 199.423 165.607 197.344L154.076 198.871C153.264 201.957 153.004 204.718 153.296 207.186C153.588 209.655 154.4 211.766 155.7 213.52C156.999 215.275 158.753 216.606 160.962 217.548C163.171 218.49 165.834 218.913 168.92 218.913C172.72 218.913 175.741 218.263 178.047 216.996C180.354 215.729 182.01 213.975 183.082 211.734C184.154 209.493 184.674 206.959 184.674 204.133C184.674 201.632 184.349 199.456 183.667 197.539C182.985 195.655 182.075 193.966 180.906 192.505L180.841 192.537Z" fill="#003BE2"/>
<path d="M193.606 164.375H184.998V174.51H193.606V217.971H206.112V174.51H214.655V164.375H206.112H193.606Z" fill="#003BE2"/>
<path d="M238.367 164.375L234.469 189.224H234.144L230.409 164.375H215.954L227.323 200.008V217.971H240.478V200.008L251.749 164.375H238.367Z" fill="#003BE2"/>
</svg>
