<svg width="346" height="184" viewBox="0 0 346 184" fill="none" xmlns="http://www.w3.org/2000/svg">
<path d="M278.667 79.429H195.612L126.342 103.687L223.494 108.479L278.667 79.429Z" fill="#A4DD26"/>
<path d="M346 103.687H126.342V183.116H346V103.687Z" fill="#B5FE28"/>
<path d="M146.046 164.663V121.959H155.975V164.663H146.046ZM152.209 146.857V138.705H165.311V146.857H152.209ZM160.927 164.663V121.959H170.856V164.663H160.927Z" fill="#003BE2"/>
<path d="M172.275 164.663L179.367 121.959H193.423L200.464 164.663H190.148L186.46 129.517H185.944L182.643 164.663H172.249H172.275ZM178.722 157.546V151.076H193.629V157.546H178.722Z" fill="#003BE2"/>
<path d="M201.856 164.663V121.959H213.591C215.061 121.959 216.454 122.115 217.769 122.451C219.085 122.788 220.322 123.279 221.406 123.978C222.515 124.677 223.469 125.505 224.268 126.489C225.094 127.472 225.713 128.663 226.177 130.008C226.615 131.38 226.847 132.907 226.847 134.641C226.847 136.065 226.667 137.41 226.332 138.653C225.996 139.895 225.429 141.008 224.681 141.991C223.933 142.975 223.005 143.777 221.87 144.45C220.761 145.123 219.42 145.589 217.872 145.848V146.443C220.142 146.521 221.87 147.012 223.03 147.866C224.191 148.72 225.016 149.885 225.481 151.334C225.945 152.784 226.306 154.44 226.512 156.355L227.595 164.689H217.279L216.686 157.831C216.557 156.355 216.376 155.035 216.17 153.845C215.964 152.654 215.551 151.723 214.984 151.024C214.416 150.325 213.462 149.963 212.173 149.937H211.734V164.689H201.805L201.856 164.663ZM211.786 143.311H212.379C212.688 143.311 213.024 143.311 213.411 143.234C213.797 143.182 214.184 143.053 214.597 142.845C215.01 142.638 215.371 142.276 215.732 141.784C216.067 141.293 216.351 140.594 216.583 139.688C216.789 138.782 216.892 137.618 216.892 136.194C216.892 134.952 216.815 133.917 216.634 133.114C216.454 132.312 216.222 131.691 215.938 131.277C215.629 130.837 215.293 130.526 214.932 130.345C214.571 130.164 214.184 130.034 213.797 129.983C213.411 129.931 213.05 129.931 212.714 129.931H211.812V143.311H211.786Z" fill="#003BE2"/>
<path d="M229.53 164.663V121.959H239.717V164.663H229.53Z" fill="#003BE2"/>
<path d="M252.096 164.663V121.959H262.284V164.663H252.096Z" fill="#003BE2"/>
<path d="M264.863 164.663V121.959H275.695L283.69 147.53H283.896V121.959H293.232V164.663H282.349L274.483 139.093H274.276V164.663H264.863Z" fill="#003BE2"/>
<path d="M295.812 164.663V121.959H305.999V164.663H295.812Z" fill="#003BE2"/>
<path d="M311.415 151.593C311.105 149.911 311.079 148.487 311.286 147.297C311.492 146.106 311.879 145.097 312.395 144.269C312.91 143.415 313.478 142.664 314.123 141.965C314.767 141.267 315.386 140.568 315.98 139.869C316.573 139.17 317.089 138.368 317.501 137.488C317.914 136.608 318.12 135.547 318.12 134.279C318.12 132.648 317.733 131.458 316.985 130.759C316.237 130.034 315.309 129.698 314.174 129.698C313.349 129.698 312.549 129.853 311.75 130.164C310.95 130.474 310.228 130.862 309.558 131.354C308.887 131.846 308.32 132.389 307.855 133.011L307.469 124.677C308.165 123.849 308.964 123.202 309.893 122.736C310.821 122.27 311.827 121.908 312.91 121.675C313.994 121.442 315.128 121.312 316.289 121.312C317.836 121.312 319.306 121.519 320.673 121.908C322.04 122.296 323.252 122.917 324.31 123.771C325.367 124.625 326.193 125.738 326.786 127.11C327.379 128.455 327.688 130.086 327.688 132.001C327.688 133.916 327.431 135.469 326.889 136.867C326.347 138.238 325.677 139.455 324.851 140.49C324.026 141.525 323.175 142.483 322.272 143.337C321.37 144.191 320.544 145.045 319.771 145.899C318.997 146.727 318.404 147.607 317.965 148.513C317.527 149.419 317.372 150.48 317.527 151.697H311.389L311.415 151.593ZM314.69 165.491C313.065 165.491 311.853 165 311.054 164.042C310.254 163.058 309.867 161.609 309.867 159.668C309.867 157.727 310.254 156.2 311.054 155.242C311.853 154.259 313.065 153.793 314.69 153.793C316.315 153.793 317.527 154.285 318.326 155.242C319.126 156.226 319.513 157.701 319.513 159.668C319.513 163.55 317.914 165.491 314.664 165.491H314.69Z" fill="#003BE2"/>
<path d="M278.667 0H0V79.429H278.667V0Z" fill="#B5FE28"/>
<path d="M19.7039 60.9757V18.272H36.0293L39.1757 51.9174H39.3821L42.1675 18.272H57.8997V60.9757H48.5635V27.3303H48.3572L43.7149 60.9757H33.9145L29.2722 27.3303H29.0658V60.9757H19.7296H19.7039Z" fill="#003BE2"/>
<path d="M59.2924 60.9757L66.3848 18.272H80.4407L87.4557 60.9757H77.1395L73.4772 25.8292H72.9614L69.686 60.9757H59.2924ZM65.7401 53.8584V47.3882H80.647V53.8584H65.7401Z" fill="#003BE2"/>
<path d="M100.171 61.7525C97.7205 61.7525 95.6057 61.3901 93.8519 60.6655C92.0981 59.9408 90.6797 58.8538 89.6738 57.4562C88.6422 56.0586 87.9974 54.3764 87.7653 52.4094C87.5332 50.4425 87.7395 48.2426 88.3843 45.7839L97.54 44.5674C97.282 46.198 97.1789 47.8026 97.2305 49.3296C97.2821 50.8565 97.54 52.1247 98.0042 53.0823C98.4684 54.0399 99.2421 54.5317 100.325 54.5317C100.841 54.5317 101.28 54.4023 101.641 54.1434C102.002 53.8846 102.285 53.4964 102.466 52.9788C102.672 52.4612 102.75 51.7883 102.75 50.9601C102.75 49.3554 102.414 47.9838 101.744 46.845C101.073 45.7062 100.222 44.6969 99.1906 43.8428C98.1589 42.9887 97.1015 42.1864 96.0183 41.4617C95.0641 40.7629 94.1098 40.0383 93.1298 39.2359C92.1497 38.4336 91.2471 37.5278 90.4218 36.5184C89.5965 35.5091 88.9517 34.3444 88.4617 33.0504C87.9716 31.7563 87.7137 30.2552 87.7137 28.5988C87.7137 26.3989 88.178 24.4579 89.1322 22.8015C90.0865 21.1451 91.4534 19.851 93.2845 18.9193C95.1156 17.9876 97.3078 17.5217 99.8869 17.5217C102.801 17.5217 105.2 18.0911 107.082 19.2558C108.939 20.4204 110.281 22.1027 111.08 24.2767C111.88 26.4507 112.112 29.0647 111.751 32.0669L102.775 33.2315C102.904 32.1963 102.956 31.1869 102.93 30.2293C102.904 29.2717 102.801 28.3918 102.569 27.6153C102.363 26.8389 102.028 26.2178 101.563 25.7778C101.099 25.3378 100.532 25.1049 99.8611 25.1049C99.3969 25.1049 98.9584 25.2343 98.5974 25.4931C98.2363 25.7519 97.9526 26.1142 97.7463 26.5542C97.54 26.9942 97.4626 27.5636 97.4626 28.2106C97.4626 29.2976 97.7205 30.2293 98.2363 31.0316C98.7521 31.834 99.4227 32.5328 100.274 33.1539C101.099 33.775 101.976 34.3962 102.879 34.9915C104.117 35.8196 105.329 36.6737 106.489 37.6054C107.65 38.5372 108.681 39.5724 109.61 40.737C110.538 41.9017 111.261 43.2475 111.802 44.7486C112.344 46.2497 112.602 48.0096 112.602 49.9766C112.602 52.2282 112.189 54.247 111.338 56.0328C110.487 57.8186 109.172 59.2161 107.34 60.2255C105.509 61.2349 103.085 61.7525 100.093 61.7525H100.171Z" fill="#003BE2"/>
<path d="M112.808 60.9757L119.901 18.272H133.956L140.971 60.9757H130.655L126.993 25.8292H126.477L123.202 60.9757H112.808ZM119.256 53.8584V47.3882H134.163V53.8584H119.256Z" fill="#003BE2"/>
<path d="M142.39 60.9757V18.272H152.319V37.5534C153.041 36.4664 153.686 35.3276 154.228 34.0853C154.769 32.8689 155.233 31.4713 155.62 29.9443C156.007 28.4174 156.342 26.6833 156.6 24.7681C156.858 22.8529 157.064 20.6789 157.245 18.272H168.283C168.154 20.6789 167.845 23.0082 167.355 25.1822C166.865 27.3821 166.143 29.4008 165.214 31.2643C164.286 33.1277 163.151 34.7582 161.784 36.2076C160.417 37.6569 158.818 38.8474 156.987 39.805V40.245C158.354 40.2968 159.618 40.4521 160.778 40.685C161.939 40.9438 162.971 41.3838 163.847 42.0049C164.724 42.6261 165.446 43.5578 166.014 44.7483C166.581 45.9647 166.942 47.5435 167.097 49.4846L168.258 60.924H157.941L157.348 53.1079C157.168 50.6492 156.936 48.7599 156.652 47.4141C156.342 46.0682 155.904 45.1365 155.285 44.6189C154.666 44.1013 153.866 43.8425 152.835 43.8425H152.319V60.924H142.39V60.9757Z" fill="#003BE2"/>
<path d="M179.012 60.9757L186.105 18.272H200.161L207.201 60.9757H196.885L193.197 25.8292H192.681L189.38 60.9757H178.987H179.012ZM185.46 53.8584V47.3882H200.367V53.8584H185.46Z" fill="#003BE2"/>
<path d="M208.594 60.9757V18.272H218.523V60.9757H208.594ZM215.764 49.7175V41.6943H219.246C219.581 41.6943 219.968 41.6943 220.38 41.6426C220.793 41.5908 221.18 41.4355 221.567 41.2026C221.954 40.9438 222.315 40.5297 222.676 39.9603C223.011 39.3909 223.295 38.6145 223.475 37.5793C223.656 36.544 223.759 35.2241 223.759 33.6194C223.759 32.1442 223.656 30.9537 223.449 30.022C223.243 29.0903 222.934 28.3656 222.573 27.848C222.211 27.3303 221.825 26.9421 221.438 26.7092C221.051 26.4763 220.69 26.321 220.355 26.2951C220.019 26.2433 219.736 26.2175 219.503 26.2175H215.764V18.2461H220.793C222.211 18.2461 223.681 18.5567 225.255 19.1519C226.802 19.7472 228.272 20.6789 229.639 21.9212C231.006 23.1635 232.115 24.794 232.966 26.8127C233.817 28.8315 234.23 31.2125 234.23 34.0335C234.23 37.4498 233.585 40.2968 232.27 42.6261C230.954 44.9554 229.149 46.7153 226.828 47.9058C224.507 49.0963 221.825 49.6916 218.781 49.6916H215.815L215.764 49.7175Z" fill="#003BE2"/>
<path d="M232.193 60.9757L239.285 18.272H253.341L260.382 60.9757H250.065L246.377 25.8292H245.862L242.56 60.9757H232.167H232.193ZM238.64 53.8584V47.3882H253.547V53.8584H238.64Z" fill="#003BE2"/>
</svg>
