<svg width="48" height="43" viewBox="0 0 48 43" fill="none" xmlns="http://www.w3.org/2000/svg">
<path d="M5.92228 17.0187C6.09243 14.3 7.13601 12.0571 8.92825 10.5278C10.0739 9.55357 11.5145 8.90787 13.2274 8.60201C15.065 8.2735 17.1975 8.3528 19.3754 8.85123C21.4626 9.32701 23.6178 10.1879 25.6029 11.3321C28.0757 8.98717 31.1611 7.33328 34.3032 6.71024L36.5718 3.99152C36.5718 3.99152 40.7235 6.2118 43.582 8.80592C43.979 9.14576 44.3533 9.51958 44.6936 9.92739C45.1247 10.4145 45.499 10.9016 45.7599 11.3887C46.7468 12.986 47.4047 14.8777 47.7223 17.0187C48.3462 21.2441 47.5521 26.0018 45.465 30.4197C44.0357 33.4443 42.0847 36.1404 39.816 38.2021C37.5473 40.2638 35.0178 41.6458 32.5109 42.2009C32.3521 42.2349 32.1933 42.2688 32.0345 42.3028C31.7623 42.3481 31.49 42.3934 31.2065 42.4161H31.1838C31.1838 42.4161 31.1044 42.4274 31.059 42.4274C31.0136 42.4274 30.9796 42.4274 30.9342 42.4274H30.9115C30.4578 42.4614 30.0154 42.4727 29.5844 42.4614C26.9981 42.3708 24.1169 41.5099 21.2471 39.9579C21.2471 39.9579 15.7229 37.1599 11.9115 33.6029L12.5354 32.8553C10.4596 30.4651 8.76945 27.837 7.62378 25.2089C6.36467 22.3316 5.78617 19.4882 5.94498 17.0074L5.92228 17.0187Z" fill="#003BE2"/>
<path d="M26.7485 37.5111C26.8847 37.4884 27.0321 37.4544 27.1682 37.4205C29.4709 36.9107 31.7963 35.6306 33.8948 33.7275C36.0387 31.7791 37.8876 29.2303 39.2375 26.353C41.2112 22.1616 41.9712 17.6644 41.3814 13.6883C41.0978 11.7285 40.4966 10.0067 39.6005 8.55671C38.659 7.03875 37.4452 5.8833 35.9706 5.14698C34.2238 4.26339 32.0685 4.01418 29.7318 4.44464C26.7599 4.97706 23.822 6.51767 21.4512 8.77194L20.7479 9.44029L19.9085 8.95319C18.0369 7.87703 16.0065 7.06141 14.0441 6.61962C12.0363 6.1665 10.0853 6.07587 8.41779 6.38173C6.94316 6.64227 5.70674 7.19735 4.73122 8.02429C3.21122 9.31568 2.32645 11.2528 2.17898 13.609C2.04286 15.8859 2.58734 18.514 3.7557 21.2101C4.95809 23.9628 6.78436 26.7155 9.04167 29.185C11.3557 31.7111 14.0441 33.8295 16.8005 35.3248C19.5002 36.7861 22.1772 37.5904 24.5706 37.681C24.9563 37.6923 25.3533 37.681 25.7503 37.6583C25.7503 37.6583 25.8638 37.6583 25.8864 37.6583C25.9205 37.6583 26.0226 37.647 26.0226 37.647C26.2721 37.6244 26.5217 37.5904 26.7485 37.5451V37.5111Z" fill="#B5FE28"/>
<path d="M8.64463 7.66178C10.1419 7.38991 11.9115 7.4692 13.7491 7.88834C15.5867 8.30747 17.4924 9.06645 19.2506 10.0746L20.9407 11.0489L22.3473 9.70082C24.5366 7.61647 27.2363 6.20047 29.97 5.71336C32.0231 5.33954 33.8948 5.54344 35.3921 6.30242C36.6399 6.93679 37.6948 7.92232 38.5002 9.23637C39.3055 10.5391 39.8387 12.1024 40.0996 13.8809C40.6554 17.6078 39.9294 21.8444 38.0691 25.7979C36.7873 28.5166 35.0405 30.9295 33.0214 32.7533C31.093 34.5091 28.9718 35.6759 26.896 36.1404C26.7825 36.163 26.6578 36.197 26.5443 36.2083C26.3402 36.2423 26.136 36.2763 25.9205 36.299H25.8978H25.8751H25.8524C25.8524 36.299 25.8184 36.299 25.7957 36.299C25.773 36.299 25.7617 36.299 25.7503 36.299H25.7163H25.6936H25.6709C25.3306 36.333 24.9903 36.333 24.6614 36.3216C22.4721 36.2423 19.9879 35.4834 17.4697 34.124C14.8381 32.708 12.2745 30.6689 10.0512 28.2448C7.88464 25.8772 6.13777 23.2491 4.9921 20.6323C3.90314 18.1289 3.39269 15.7047 3.51746 13.6316C3.64224 11.6379 4.36822 10.018 5.61598 8.9645C6.41001 8.29615 7.44226 7.84303 8.69002 7.61647M8.17956 5.10165C6.47806 5.40751 5.02613 6.0532 3.88046 7.02741C2.07688 8.55669 1.04464 10.7996 0.874495 13.5184C0.715689 15.9992 1.30554 18.8312 2.5533 21.7198C3.8124 24.5971 5.71807 27.4858 8.07747 30.0572C10.4936 32.6853 13.2954 34.9056 16.1652 36.4576C19.0351 38.0095 21.9163 38.8818 24.5025 38.9611C24.9336 38.9837 25.3873 38.961 25.8297 38.9384H25.8524C25.8524 38.9384 25.9318 38.9384 25.9772 38.9384C26.0225 38.9384 26.0566 38.9384 26.1019 38.9271H26.1246C26.4082 38.8931 26.6805 38.8591 26.9527 38.8138C27.1115 38.7798 27.2816 38.7458 27.4291 38.7118C29.936 38.1568 32.4655 36.7747 34.7342 34.713C37.0028 32.6514 38.9652 29.9666 40.3831 26.9307C42.459 22.5128 43.2643 17.755 42.6405 13.5297C42.3228 11.4 41.6649 9.50824 40.6781 7.89967C39.6118 6.16648 38.2166 4.86376 36.5264 4.00283C34.53 2.99464 32.0799 2.70011 29.4709 3.17589C26.2381 3.75362 23.0506 5.43016 20.5211 7.84303C18.536 6.6989 16.3921 5.83797 14.2936 5.36219C12.1157 4.86376 9.98314 4.77314 8.14553 5.11298L8.17956 5.10165Z" fill="white"/>
<path d="M32.3861 11.9098C35.6563 11.9098 38.3073 9.26237 38.3073 5.99659C38.3073 2.73081 35.6563 0.083374 32.3861 0.083374C29.1159 0.083374 26.4649 2.73081 26.4649 5.99659C26.4649 9.26237 29.1159 11.9098 32.3861 11.9098Z" fill="#FFE600"/>
<path d="M35.1539 5.24897H32.5903V1.70331L29.607 6.73294H32.1706V10.2899L35.1539 5.24897Z" fill="#003BE2"/>
</svg>
