<svg width="94" height="78" viewBox="0 0 94 78" fill="none" xmlns="http://www.w3.org/2000/svg">
<path d="M10.0354 27.7719C10.3681 22.4092 12.4328 17.9799 15.995 14.9618C18.2602 13.0463 21.1228 11.763 24.4997 11.1571C28.1451 10.5023 32.3539 10.6754 36.6724 11.6539C40.817 12.5947 45.0674 14.2806 48.9964 16.5386C53.8822 11.906 60.0045 8.65454 66.2251 7.42772L70.7137 2.05756C70.7137 2.05756 78.931 6.43046 84.5957 11.5635C85.3785 12.2334 86.1159 12.9672 86.8041 13.7688C87.6625 14.7284 88.3924 15.6918 88.9218 16.6439C90.8768 19.8051 92.1852 23.5382 92.8092 27.7455C94.0458 36.0887 92.4613 45.4817 88.347 54.2012C85.526 60.181 81.6575 65.491 77.1575 69.5553C72.665 73.6158 67.6658 76.3442 62.6931 77.4468C62.383 77.5183 62.0616 77.5861 61.7402 77.6425C61.2108 77.7366 60.6624 77.8156 60.1028 77.8721H60.0612C59.978 77.8871 59.8948 77.8984 59.8154 77.9059H59.8003H59.7851C59.7019 77.9135 59.6225 77.9172 59.5393 77.9248H59.494C58.5977 78 57.7128 78.0188 56.8582 77.9812C51.738 77.8081 46.0242 76.0958 40.3405 73.0288C40.3405 73.0288 29.3968 67.5043 21.8602 60.4971L23.093 59.0257C18.9787 54.3066 15.6358 49.1246 13.3707 43.9463C10.8862 38.2601 9.73284 32.6641 10.0391 27.7681L10.0354 27.7719Z" fill="#003CE9"/>
<path d="M51.2956 68.2193C51.5755 68.1703 51.8515 68.1139 52.1238 68.0499C56.6805 67.0376 61.2789 64.5162 65.4385 60.7567C69.689 56.9144 73.3495 51.8867 76.0268 46.2118C79.9293 37.9439 81.4344 29.0701 80.2735 21.22C79.7024 17.3626 78.515 13.9531 76.7415 11.0893C74.881 8.08623 72.4646 5.81698 69.5528 4.34932C66.0927 2.60693 61.8234 2.12147 57.1986 2.95315C51.3145 4.01062 45.4872 7.04381 40.7905 11.4957L39.3914 12.8204L37.7199 11.857C34.014 9.72701 30.0018 8.13515 26.1144 7.25078C22.1325 6.3476 18.2791 6.18202 14.9703 6.77661C12.0434 7.30347 9.59295 8.39105 7.67949 10.0092C4.66184 12.5645 2.91099 16.3729 2.61981 21.0243C2.33998 25.5176 3.42149 30.7034 5.74335 36.0209C8.11437 41.4475 11.7371 46.8891 16.222 51.755C20.8127 56.7413 26.122 60.9298 31.575 63.8689C36.9107 66.7441 42.2275 68.351 46.9544 68.5128C47.7259 68.5467 48.5049 68.5278 49.2952 68.4639C49.2952 68.4639 49.5183 68.4488 49.575 68.4451C49.6355 68.4375 49.8511 68.415 49.8511 68.415C50.3427 68.366 50.8267 68.2983 51.2918 68.2155L51.2956 68.2193Z" fill="#9CFF00"/>
<path d="M15.4316 9.30932C18.4001 8.77494 21.8942 8.933 25.5434 9.76091C29.185 10.5888 32.9476 12.0828 36.4304 14.0849L39.7733 16.0079L42.5716 13.3548C46.9053 9.24535 52.2637 6.44549 57.6561 5.47833C61.7213 4.74826 65.431 5.15093 68.3843 6.63741C70.865 7.88681 72.9373 9.83994 74.5444 12.4328C76.1289 14.9956 77.1991 18.0777 77.7209 21.5926C78.81 28.946 77.3806 37.3004 73.6936 45.1167C71.16 50.4868 67.7037 55.2361 63.7066 58.8526C59.8759 62.3148 55.686 64.6254 51.5868 65.5361H51.5641L51.5414 65.5474C51.3145 65.6001 51.0763 65.649 50.8418 65.6904C50.4448 65.7619 50.025 65.8183 49.5977 65.8635H49.5448L49.4956 65.8748H49.454C49.4124 65.8861 49.3822 65.8898 49.3519 65.8936C49.3141 65.8936 49.2838 65.8974 49.2574 65.9011H49.1969L49.1477 65.9087H49.0985C48.4141 65.9689 47.741 65.9802 47.0981 65.9538H47.0754H47.0527C42.7229 65.8071 37.7993 64.3055 32.8153 61.6186C27.6119 58.8149 22.5333 54.8033 18.1354 50.0277C13.8434 45.3651 10.3795 40.1718 8.12192 35.0011C5.95888 30.0561 4.953 25.2806 5.20636 21.1899C5.45216 17.2536 6.88914 14.0623 9.36226 11.9699C10.924 10.649 12.9698 9.75339 15.4392 9.30932M14.5127 4.25527C11.132 4.86116 8.27318 6.14066 6.00804 8.05992C2.44206 11.0781 0.381131 15.5074 0.0483567 20.87C-0.257947 25.766 0.895419 31.362 3.37988 37.0483C5.86435 42.7308 9.64965 48.4171 14.3236 53.4937C19.1073 58.687 24.651 63.0599 30.3497 66.1307C36.0334 69.194 41.7473 70.9063 46.8674 71.0831C47.7221 71.1208 48.6107 71.102 49.5032 71.0305H49.5485C49.6317 71.0229 49.7149 71.0192 49.7943 71.0116H49.8095H49.8246C49.9078 71.0041 49.9872 70.9928 50.0704 70.9853H50.112C50.6679 70.9251 51.22 70.8461 51.7494 70.752C52.0708 70.6955 52.3923 70.6278 52.7023 70.5563C57.675 69.4536 62.678 66.7215 67.1667 62.6647C71.6667 58.5967 75.5352 53.2867 78.3562 47.3107C82.4705 38.5912 84.055 29.1944 82.8184 20.855C82.1945 16.6514 80.8861 12.9145 78.931 9.75339C76.8209 6.34011 74.0528 3.75476 70.71 2.06882C66.7469 0.070533 61.9141 -0.493955 56.7334 0.435569C50.3427 1.58336 44.0237 4.8875 39.0056 9.64802C35.0804 7.39006 30.8262 5.70036 26.6817 4.76331C22.3631 3.7811 18.1543 3.61175 14.5089 4.26656L14.5127 4.25527Z" fill="white"/>
</svg>
