<svg width="26" height="21" viewBox="0 0 26 21" fill="none" xmlns="http://www.w3.org/2000/svg">
<path d="M2.57499 2.96332L10.3693 8.90939L10.3719 8.91157C11.2374 9.55272 11.6704 9.87349 12.1446 9.9974C12.5638 10.1069 13.0045 10.1069 13.4236 9.9974C13.8983 9.87338 14.3326 9.55167 15.1996 8.90939C15.1996 8.90939 20.1989 5.03368 22.9936 2.96332M1.29883 15.5976V5.79978C1.29883 4.35576 1.29883 3.63321 1.57702 3.08166C1.82172 2.59651 2.21189 2.20236 2.69214 1.95516C3.23811 1.67413 3.95337 1.67413 5.3828 1.67413H20.1863C21.6158 1.67413 22.3295 1.67413 22.8755 1.95516C23.3557 2.20236 23.7472 2.59651 23.9919 3.08166C24.2698 3.63267 24.2698 4.35435 24.2698 5.79555V15.602C24.2698 17.0432 24.2698 17.7638 23.9919 18.3148C23.7472 18.8 23.3557 19.1948 22.8755 19.442C22.33 19.7227 21.6167 19.7227 20.19 19.7227H5.37861C3.95197 19.7227 3.23758 19.7227 2.69214 19.442C2.21189 19.1948 1.82172 18.8 1.57702 18.3148C1.29883 17.7633 1.29883 17.0416 1.29883 15.5976Z" stroke="#003BE2" stroke-width="1.80917" stroke-linecap="round" stroke-linejoin="round"/>
</svg>
