<svg width="39" height="31" viewBox="0 0 39 31" fill="none" xmlns="http://www.w3.org/2000/svg">
<path d="M3.94444 3.92857L15.8204 12.8237L15.8244 12.8269C17.143 13.786 17.8028 14.2659 18.5254 14.4513C19.1641 14.6151 19.8354 14.6151 20.4741 14.4513C21.1974 14.2657 21.859 13.7845 23.18 12.8237C23.18 12.8237 30.7974 7.02574 35.0556 3.92857M2 22.8289V8.17181C2 6.0116 2 4.9307 2.42386 4.10561C2.7967 3.37984 3.3912 2.7902 4.12294 2.4204C4.95482 2 6.04462 2 8.2226 2H30.7782C32.9561 2 34.0436 2 34.8755 2.4204C35.6072 2.7902 36.2037 3.37984 36.5766 4.10561C37 4.92989 37 6.00949 37 8.16547V22.8355C37 24.9915 37 26.0695 36.5766 26.8938C36.2037 27.6195 35.6072 28.2102 34.8755 28.58C34.0444 29 32.9575 29 30.7838 29H8.21621C6.04249 29 4.954 29 4.12294 28.58C3.3912 28.2102 2.7967 27.6195 2.42386 26.8938C2 26.0687 2 24.9892 2 22.8289Z" stroke="white" stroke-width="3" stroke-linecap="round" stroke-linejoin="round"/>
</svg>
