<svg width="30" height="30" viewBox="0 0 30 30" fill="none" xmlns="http://www.w3.org/2000/svg">
<path d="M24.8627 29.2135C26.8827 28.4344 28.4797 26.8403 29.2602 24.8239C29.6296 23.8687 29.8882 22.7789 29.9584 21.1848C29.9751 20.8114 29.988 20.4979 30 20.1835V9.53255C29.9917 9.31035 29.9824 9.07893 29.9704 8.81892C29.9002 7.22479 29.6416 6.12945 29.2722 5.17979C28.8907 4.17205 28.3033 3.26941 27.5348 2.51982C26.7829 1.75733 25.8732 1.16541 24.8747 0.791077C23.9178 0.422277 22.826 0.164118 21.2291 0.0940457C19.6201 0.0175198 19.1093 0 15.0296 0C10.9498 0 10.4381 0.0175191 8.83559 0.087591C7.23861 0.157663 6.14131 0.415822 5.18996 0.784622C4.18042 1.16541 3.27617 1.7518 2.52432 2.51982C1.76139 3.27033 1.16841 4.1785 0.792486 5.17426C0.423028 6.12945 0.164408 7.21925 0.0942108 8.81339C0.0175482 10.4195 0 10.9294 0 15.0028C0 19.0762 0.0175476 19.586 0.0877446 21.1857C0.157942 22.7798 0.416563 23.8761 0.786945 24.8248C1.16841 25.8326 1.76139 26.7352 2.52432 27.4857C3.27617 28.2473 4.18596 28.8401 5.18442 29.2145C6.14132 29.5833 7.23306 29.8414 8.83005 29.9115C10.4326 29.9825 10.9433 30 15.024 30C19.1047 30 19.6145 29.9825 21.218 29.9115C22.815 29.8414 23.9113 29.5823 24.8627 29.2135ZM15.0351 27.3032C11.0246 27.3032 10.5434 27.2856 8.96398 27.2156C7.4963 27.151 6.70382 26.9049 6.17549 26.7002C5.52432 26.4595 4.93134 26.0787 4.4492 25.5809C3.95043 25.094 3.56804 24.5086 3.32789 23.8576C3.12284 23.3303 2.87623 22.5327 2.81157 21.0741C2.74138 19.492 2.72383 19.0172 2.72383 15.0138C2.72383 11.0105 2.74138 10.5302 2.81157 8.95446C2.87623 7.4894 3.12284 6.69832 3.32789 6.17094C3.56897 5.52001 3.95043 4.92809 4.45566 4.44772C4.94243 3.94984 5.52986 3.56906 6.18103 3.32842C6.70936 3.12373 7.50831 2.87756 8.96952 2.81302C10.5545 2.74295 11.0302 2.72543 15.0397 2.72543C19.0493 2.72543 19.5314 2.74295 21.1108 2.81302C22.5785 2.87756 23.371 3.12373 23.8993 3.32842C24.5505 3.56906 25.1435 3.94984 25.6247 4.44772C26.1235 4.93454 26.5059 5.52001 26.746 6.17094C26.951 6.69832 27.1977 7.49493 27.2623 8.95446C27.3325 10.5366 27.3501 11.0114 27.3501 15.0138C27.3501 19.0162 27.3325 19.4855 27.2623 21.0677C27.1977 22.5327 26.951 23.3238 26.746 23.8512C26.2408 25.1586 25.2017 26.1958 23.8929 26.6992C23.3645 26.9039 22.5665 27.1501 21.1044 27.2146C19.5194 27.2847 19.0446 27.3032 15.0351 27.3032Z" fill="white"/>
<path d="M15.0299 7.29492C10.7672 7.29492 7.30912 10.7469 7.30912 15.0019C7.30912 19.2569 10.7672 22.7089 15.0299 22.7089C19.2925 22.7089 22.7497 19.2569 22.7497 15.0019C22.7497 10.7469 19.2916 7.29492 15.0299 7.29492ZM15.0299 20.0001C12.2645 20.0001 10.0219 17.7615 10.0219 15.001C10.0219 12.2405 12.2645 10.0019 15.0299 10.0019C17.7953 10.0019 20.0379 12.2405 20.0379 15.001C20.0379 17.7615 17.7953 20.0001 15.0299 20.0001Z" fill="white"/>
<path d="M24.8555 6.99022C24.8555 5.99631 24.0482 5.19141 23.0525 5.19141C22.0568 5.19141 21.2505 5.99723 21.2505 6.99022C21.2505 7.98322 22.0578 8.78905 23.0525 8.78905C24.0473 8.78905 24.8555 7.98414 24.8555 6.99022Z" fill="white"/>
</svg>
