<svg width="20" height="20" viewBox="0 0 20 20" fill="none" xmlns="http://www.w3.org/2000/svg">
<path d="M19.3258 4.95981C18.8888 2.51653 16.8964 0.847142 14.4168 0.843388C13.0588 0.841137 11.7 0.842638 10.342 0.842638C8.98393 0.842638 7.64091 0.84489 6.29037 0.841887C5.9991 0.841137 5.70857 0.854648 5.42255 0.904189C3.00075 1.32454 1.30564 3.32945 1.30114 5.7855C1.29663 8.52527 1.30038 11.2651 1.29888 14.0056C1.29888 14.2811 1.3154 14.5558 1.36495 14.826C1.81537 17.2738 3.79876 18.9297 6.28362 18.9312C8.99219 18.9334 11.7008 18.9312 14.4093 18.9334C14.7014 18.9334 14.9919 18.9192 15.2772 18.8674C17.735 18.4192 19.3873 16.4338 19.3888 13.9298C19.3911 11.2373 19.3881 8.54404 19.3903 5.85155C19.3911 5.55205 19.3783 5.2533 19.3258 4.95981ZM18.6351 13.9711C18.6306 16.0428 17.2583 17.7092 15.2276 18.11C14.9656 18.1618 14.6999 18.1798 14.4319 18.179C11.7083 18.1775 8.98393 18.1805 6.26035 18.1775C3.88434 18.1745 2.0571 16.349 2.0541 13.9748C2.0511 11.2508 2.0511 8.52677 2.0541 5.80351C2.0571 3.42629 3.88209 1.60002 6.25734 1.59777C8.98093 1.59401 11.7045 1.59476 14.4289 1.59777C16.8049 1.60002 18.6291 3.42328 18.6351 5.79976C18.6381 7.16589 18.6359 8.53128 18.6359 9.89741C18.6359 11.2635 18.6381 12.6132 18.6351 13.9711ZM15.2486 4.23546C14.8365 4.23396 14.4972 4.56648 14.4912 4.97707C14.4852 5.39817 14.8297 5.74421 15.2501 5.74046C15.6615 5.73671 15.9956 5.39968 15.9963 4.98758C15.9978 4.57924 15.6563 4.23621 15.2486 4.23546ZM10.3878 5.74271C8.08908 5.73145 6.20855 7.57273 6.19954 9.84337C6.19128 12.156 8.03053 14.0236 10.324 14.0311C12.6241 14.0386 14.4844 12.1861 14.4897 9.8839C14.4949 7.62603 12.6407 5.75397 10.3878 5.74271ZM10.363 13.279C8.48471 13.282 6.954 11.7642 6.95325 9.89967C6.95325 8.0111 8.46894 6.49709 10.3615 6.49634C12.2233 6.49559 13.7397 8.02986 13.7359 9.91017C13.7322 11.7522 12.206 13.2767 10.363 13.279Z" fill="#003BE2" stroke="#003BE2" stroke-width="1.20611" stroke-miterlimit="10"/>
</svg>
