<svg width="18" height="23" viewBox="0 0 18 23" fill="none" xmlns="http://www.w3.org/2000/svg">
<path d="M2 9.41846C2 14.6169 6.4545 18.9158 8.42617 20.564C8.70835 20.7999 8.85113 20.9192 9.06165 20.9797C9.22558 21.0268 9.46684 21.0268 9.63077 20.9797C9.84169 20.9191 9.98347 20.8009 10.2667 20.5641C12.2384 18.916 16.6926 14.6174 16.6926 9.41894C16.6926 7.45165 15.9187 5.5647 14.541 4.17362C13.1633 2.78254 11.2948 2.00104 9.34645 2.00104C7.39807 2.00104 5.52941 2.78266 4.1517 4.17374C2.77399 5.56482 2 7.45117 2 9.41846Z" stroke="#003BE2" stroke-width="2.41249" stroke-linecap="round" stroke-linejoin="round"/>
<path d="M7.2474 8.42968C7.2474 9.61316 8.18714 10.5726 9.34637 10.5726C10.5056 10.5726 11.4453 9.61316 11.4453 8.42968C11.4453 7.2462 10.5056 6.2868 9.34637 6.2868C8.18714 6.2868 7.2474 7.2462 7.2474 8.42968Z" stroke="#003BE2" stroke-width="2.41249" stroke-linecap="round" stroke-linejoin="round"/>
</svg>
