<svg width="27" height="34" viewBox="0 0 27 34" fill="none" xmlns="http://www.w3.org/2000/svg">
<path d="M2 13.7031C2 21.9051 8.97311 28.6878 12.0596 31.2883C12.5013 31.6605 12.7248 31.8488 13.0544 31.9442C13.311 32.0186 13.6887 32.0186 13.9453 31.9442C14.2754 31.8486 14.4974 31.6621 14.9408 31.2885C18.0273 28.6881 25 21.9058 25 13.7038C25 10.5999 23.7885 7.62269 21.6318 5.42787C19.4751 3.23304 16.5502 2 13.5002 2C10.4502 2 7.52497 3.23323 5.36829 5.42805C3.21161 7.62288 2 10.5991 2 13.7031Z" stroke="white" stroke-width="3" stroke-linecap="round" stroke-linejoin="round"/>
<path d="M10.2143 12.143C10.2143 14.0103 11.6854 15.524 13.5001 15.524C15.3147 15.524 16.7858 14.0103 16.7858 12.143C16.7858 10.2757 15.3147 8.762 13.5001 8.762C11.6854 8.762 10.2143 10.2757 10.2143 12.143Z" stroke="white" stroke-width="3" stroke-linecap="round" stroke-linejoin="round"/>
</svg>
