<svg width="21" height="20" viewBox="0 0 21 20" fill="none" xmlns="http://www.w3.org/2000/svg">
<path d="M7.83424 2.27247C7.52898 1.50929 6.78983 1.00885 5.96788 1.00885H3.20317C2.15143 1.00885 1.29883 1.86127 1.29883 2.91303C1.29883 11.853 8.54615 19.1005 17.4859 19.1005C18.5377 19.1005 19.3901 18.2479 19.3901 17.1961L19.3905 14.4308C19.3905 13.6089 18.8902 12.8698 18.1271 12.5646L15.4773 11.505C14.7917 11.2308 14.0112 11.3542 13.444 11.8269L12.7601 12.3973C11.9615 13.0628 10.7863 13.0099 10.0512 12.2747L8.12547 10.3472C7.39033 9.61208 7.33601 8.43784 8.00157 7.63914L8.57183 6.95529C9.0445 6.38807 9.169 5.60732 8.89479 4.92178L7.83424 2.27247Z" stroke="#003BE2" stroke-width="1.80917" stroke-linecap="round" stroke-linejoin="round"/>
</svg>
