<svg width="31" height="31" viewBox="0 0 31 31" fill="none" xmlns="http://www.w3.org/2000/svg">
<path d="M11.7534 3.88583C11.2979 2.74685 10.1948 2 8.96808 2H4.84203C3.27242 2 2 3.27215 2 4.8418C2 18.1838 12.8159 29 26.1576 29C27.7272 29 28.9993 27.7274 28.9993 26.1578L29 22.031C29 20.8042 28.2534 19.7013 27.1144 19.2457L23.1598 17.6644C22.1368 17.2552 20.9719 17.4394 20.1254 18.1448L19.1048 18.996C17.9129 19.9893 16.1591 19.9103 15.062 18.8132L12.1881 15.9366C11.0909 14.8394 11.0099 13.087 12.0032 11.895L12.8542 10.8745C13.5596 10.0279 13.7454 8.86274 13.3362 7.83964L11.7534 3.88583Z" stroke="white" stroke-width="3" stroke-linecap="round" stroke-linejoin="round"/>
</svg>
