<svg width="294" height="170" viewBox="0 0 294 170" fill="none" xmlns="http://www.w3.org/2000/svg">
<path d="M96.795 171.487C96.8087 172.217 97.4909 172.545 97.9752 173.049C98.2549 173.343 98.5005 173.67 98.7256 174.011C100.95 178.016 104.449 181.754 109.136 182.586C113.631 183.357 118.086 181.365 122.309 179.946C123.775 179.414 125.235 178.868 126.681 178.295C127.793 177.859 128.912 177.395 130.011 176.938C130.147 176.89 130.263 176.856 130.399 176.863C130.815 176.863 131 177.313 131.314 177.661C131.511 177.886 131.696 178.173 131.532 178.466C130.604 179.653 129.765 180.935 129.062 182.313C128.107 184.108 127.159 185.943 125.706 187.341C125.072 187.962 124.383 188.514 123.68 189.06C121.497 190.732 119.232 192.519 116.537 193.228C110.507 194.538 103.351 192.764 98.7051 188.733C95.724 186.079 93.6979 182.204 93.7866 178.166C93.7525 175.717 94.8031 173.445 94.9736 171.016C95.0145 170.055 94.8918 168.629 96.0037 168.404C96.3516 168.288 96.911 168.254 96.9724 168.724C96.9997 169.618 96.7677 170.559 96.8019 171.446V171.494L96.795 171.487Z" fill="#A4DD26"/>
<path d="M40.1737 171.883C40.508 172.49 40.0987 173.097 39.9418 173.745C39.8463 174.12 39.8054 174.509 39.7781 174.898C39.8463 179.285 38.7275 184.06 35.2415 186.993C31.8784 189.783 27.2259 190.261 23.0509 191.1C21.5774 191.359 20.1039 191.605 18.6304 191.823C17.498 191.994 16.3519 192.144 15.2195 192.294C15.083 192.321 14.9671 192.348 14.8579 192.417C14.5168 192.621 14.5714 193.078 14.4759 193.515C14.4213 193.795 14.4008 194.122 14.6805 194.293C16.0244 194.832 17.3274 195.493 18.569 196.305C20.2199 197.342 21.8844 198.406 23.7604 198.87C24.579 199.082 25.4249 199.211 26.264 199.327C28.8768 199.668 31.6055 200.071 34.1842 199.368C39.8122 197.567 44.9081 192.676 46.8387 187.109C48.0461 183.487 47.8756 179.291 45.8631 175.99C44.7171 173.943 42.766 172.558 41.4631 170.628C40.9719 169.85 40.392 168.608 39.3551 168.949C39.0072 169.018 38.5297 169.256 38.707 169.679C39.1163 170.437 39.7508 171.105 40.1533 171.856L40.1737 171.897V171.883Z" fill="#A4DD26"/>
<path d="M81.7801 166.903C82.053 167.387 81.7324 167.872 81.6096 168.39C81.5345 168.69 81.5073 168.997 81.4936 169.311C81.5823 172.804 80.7296 176.617 77.9736 178.984C75.3199 181.236 71.6156 181.652 68.2934 182.354C67.1268 182.573 65.9535 182.777 64.7801 182.961C63.8797 183.105 62.9655 183.234 62.065 183.364C61.9559 183.384 61.8672 183.412 61.7785 183.466C61.5057 183.63 61.5534 183.992 61.4852 184.346C61.4443 184.571 61.4306 184.831 61.6557 184.96C62.7268 185.383 63.7773 185.895 64.7665 186.529C66.0899 187.341 67.4202 188.18 68.921 188.528C69.5759 188.692 70.2512 188.787 70.9198 188.869C73.0073 189.122 75.1834 189.415 77.23 188.842C81.6983 187.362 85.7163 183.425 87.2103 178.978C88.1381 176.078 87.9744 172.742 86.3439 170.123C85.4162 168.499 83.8471 167.415 82.7966 165.886C82.4009 165.272 81.9234 164.283 81.1048 164.57C80.8319 164.624 80.4499 164.822 80.5931 165.156C80.9206 165.757 81.439 166.282 81.7597 166.876L81.7733 166.91L81.7801 166.903Z" fill="#A4DD26"/>
<path d="M295.685 171.883C296.02 172.49 295.61 173.097 295.454 173.745C295.358 174.12 295.317 174.509 295.29 174.898C295.358 179.285 294.239 184.06 290.753 186.993C287.39 189.783 282.738 190.261 278.563 191.1C277.089 191.359 275.616 191.605 274.142 191.823C273.01 191.994 271.864 192.144 270.731 192.294C270.595 192.321 270.479 192.348 270.37 192.417C270.029 192.621 270.083 193.078 269.988 193.515C269.933 193.795 269.913 194.122 270.192 194.293C271.536 194.832 272.839 195.493 274.081 196.305C275.732 197.342 277.396 198.406 279.272 198.87C280.091 199.082 280.937 199.211 281.776 199.327C284.389 199.668 287.117 200.071 289.696 199.368C295.324 197.567 300.42 192.676 302.35 187.109C303.558 183.487 303.387 179.291 301.375 175.99C300.229 173.943 298.278 172.558 296.975 170.628C296.484 169.85 295.904 168.608 294.867 168.949C294.519 169.018 294.041 169.256 294.219 169.679C294.628 170.437 295.262 171.105 295.665 171.856L295.685 171.897V171.883Z" fill="#A4DD26"/>
<path d="M206.183 165.73C206.456 166.214 206.135 166.698 206.012 167.217C205.937 167.517 205.91 167.824 205.896 168.138C205.985 171.63 205.132 175.444 202.376 177.811C199.723 180.062 196.018 180.478 192.696 181.181C191.53 181.399 190.356 181.604 189.183 181.788C188.282 181.931 187.368 182.061 186.468 182.191C186.359 182.211 186.27 182.238 186.181 182.293C185.908 182.457 185.956 182.818 185.888 183.173C185.847 183.398 185.833 183.657 186.059 183.787C187.13 184.21 188.18 184.722 189.169 185.356C190.493 186.168 191.823 187.007 193.324 187.355C193.979 187.519 194.654 187.614 195.323 187.696C197.41 187.948 199.586 188.242 201.633 187.669C206.101 186.188 210.119 182.252 211.613 177.804C212.541 174.905 212.377 171.569 210.747 168.95C209.819 167.326 208.25 166.241 207.199 164.713C206.804 164.099 206.326 163.11 205.508 163.397C205.235 163.451 204.853 163.649 204.996 163.983C205.323 164.584 205.842 165.109 206.163 165.702L206.176 165.736L206.183 165.73Z" fill="#A4DD26"/>
<path d="M170.437 114.648C170.9 115.193 171.63 115.023 172.313 115.105C172.708 115.152 173.097 115.255 173.486 115.371C177.688 117.049 182.702 117.724 186.809 115.432C190.732 113.215 192.894 108.904 195.241 105.186C196.032 103.862 196.803 102.532 197.56 101.188C198.14 100.158 198.706 99.1075 199.266 98.0706C199.341 97.9547 199.409 97.8523 199.518 97.7705C199.839 97.5181 200.262 97.7363 200.719 97.8046C201.012 97.8523 201.333 97.9547 201.387 98.2889C201.415 99.7829 201.571 101.284 201.899 102.778C202.288 104.749 202.711 106.741 202.465 108.726C202.37 109.6 202.185 110.452 201.988 111.305C201.36 113.952 200.739 116.728 199.122 118.959C195.323 123.728 188.74 126.838 182.661 126.661C178.725 126.49 174.748 124.792 172.299 121.64C170.744 119.784 170.13 117.39 168.745 115.432C168.172 114.675 167.189 113.659 167.899 112.785C168.09 112.478 168.499 112.103 168.84 112.431C169.42 113.099 169.829 113.965 170.402 114.62L170.437 114.654V114.648Z" fill="#A4DD26"/>
<path d="M253.465 156.957C253.431 156.234 254.093 155.852 254.536 155.319C254.795 155.006 255.014 154.665 255.218 154.31C257.169 150.162 260.403 146.199 265.028 145.053C269.462 143.982 274.04 145.667 278.344 146.792C279.845 147.222 281.339 147.672 282.82 148.143C283.959 148.504 285.105 148.893 286.23 149.268C286.367 149.309 286.49 149.33 286.626 149.316C287.035 149.282 287.199 148.832 287.486 148.457C287.663 148.218 287.834 147.925 287.649 147.638C286.64 146.512 285.719 145.298 284.928 143.968C283.856 142.242 282.785 140.475 281.237 139.179C280.562 138.606 279.832 138.094 279.095 137.603C276.803 136.082 274.422 134.458 271.686 133.926C265.581 133.033 258.561 135.284 254.195 139.616C251.398 142.46 249.638 146.472 250.007 150.496C250.143 152.939 251.337 155.135 251.671 157.543C251.773 158.498 251.753 159.931 252.879 160.081C253.233 160.177 253.793 160.17 253.82 159.692C253.786 158.799 253.493 157.878 253.465 156.991V156.943V156.957Z" fill="#A4DD26"/>
<path d="M271.454 103.569C271.898 102.941 271.523 102.239 271.434 101.509C271.379 101.086 271.379 100.656 271.4 100.233C272.014 95.4579 271.386 90.1096 267.934 86.4803C264.612 83.0217 259.598 81.937 255.143 80.4976C253.574 80.0337 251.992 79.5835 250.409 79.1673C249.195 78.8399 247.96 78.5397 246.746 78.2396C246.602 78.1986 246.48 78.1509 246.37 78.0622C246.023 77.803 246.139 77.305 246.091 76.8138C246.063 76.5 246.084 76.1453 246.411 75.9952C247.939 75.5654 249.447 75.0128 250.9 74.2761C252.824 73.3483 254.775 72.3932 256.876 72.1204C257.797 71.9908 258.732 71.9567 259.659 71.9362C262.552 71.8884 265.581 71.7861 268.303 72.864C274.217 75.5176 279.17 81.4799 280.596 87.7901C281.462 91.89 280.766 96.4402 278.167 99.8034C276.666 101.898 274.36 103.167 272.71 105.111C272.075 105.902 271.291 107.185 270.206 106.68C269.838 106.564 269.34 106.243 269.592 105.807C270.131 105.029 270.909 104.381 271.434 103.617L271.461 103.576L271.454 103.569Z" fill="#A4DD26"/>
<path d="M182.852 36.5104C183.487 37.138 183.207 38.0249 183.248 38.8776C183.268 39.3756 183.357 39.8668 183.473 40.3511C185.165 45.7063 185.54 51.9687 182.334 56.8463C179.23 61.4988 173.704 63.7841 168.881 66.3491C167.176 67.2087 165.457 68.0477 163.724 68.8527C162.394 69.4803 161.043 70.0806 159.713 70.6741C159.556 70.756 159.426 70.831 159.317 70.9538C158.976 71.3222 159.208 71.868 159.256 72.441C159.29 72.8025 159.385 73.2119 159.795 73.3142C161.636 73.4847 163.485 73.819 165.3 74.3579C167.701 75.0196 170.13 75.7223 172.606 75.5995C173.691 75.5586 174.768 75.4085 175.84 75.2379C179.169 74.699 182.668 74.1874 185.567 72.3864C191.809 68.116 196.264 60.2572 196.598 52.7191C196.748 47.8347 195.002 42.7524 191.325 39.437C189.169 37.3427 186.263 36.3603 183.964 34.4707C183.077 33.693 181.911 32.3832 180.765 33.1882C180.369 33.3997 179.864 33.8704 180.24 34.3206C181.017 35.0983 182.047 35.685 182.811 36.4558L182.852 36.4968V36.5104Z" fill="#A4DD26"/>
<path d="M277.464 110.207C277.226 110.705 277.58 111.169 277.73 111.673C277.819 111.967 277.874 112.274 277.915 112.581C278.065 116.073 279.17 119.819 282.083 121.988C284.887 124.055 288.604 124.219 291.968 124.696C293.148 124.84 294.335 124.962 295.515 125.065C296.422 125.147 297.343 125.215 298.25 125.283C298.36 125.297 298.455 125.317 298.544 125.365C298.824 125.508 298.803 125.876 298.899 126.224C298.953 126.443 298.987 126.702 298.769 126.852C297.725 127.343 296.716 127.93 295.767 128.632C294.505 129.533 293.23 130.454 291.756 130.911C291.115 131.116 290.446 131.259 289.785 131.388C287.724 131.777 285.569 132.221 283.488 131.784C278.931 130.611 274.654 126.954 272.86 122.616C271.734 119.791 271.679 116.449 273.126 113.727C273.944 112.049 275.431 110.855 276.38 109.258C276.734 108.617 277.137 107.601 277.976 107.826C278.256 107.867 278.645 108.031 278.522 108.378C278.235 108.999 277.758 109.559 277.471 110.173L277.458 110.207H277.464Z" fill="#A4DD26"/>
<path d="M197.922 160.818C198.311 160.347 198.058 159.76 198.031 159.174C198.01 158.833 198.038 158.492 198.085 158.15C198.877 154.378 198.713 150.08 196.196 146.963C193.76 143.995 189.831 142.808 186.372 141.382C185.151 140.912 183.917 140.455 182.682 140.025C181.734 139.691 180.772 139.37 179.817 139.049C179.707 139.008 179.612 138.961 179.523 138.886C179.264 138.654 179.387 138.272 179.38 137.876C179.38 137.624 179.414 137.344 179.687 137.242C180.935 136.996 182.17 136.648 183.378 136.157C184.974 135.543 186.584 134.895 188.282 134.813C189.026 134.765 189.77 134.799 190.513 134.84C192.826 134.983 195.248 135.093 197.349 136.13C201.899 138.62 205.473 143.688 206.21 148.811C206.647 152.14 205.794 155.722 203.509 158.239C202.179 159.815 200.262 160.681 198.822 162.128C198.27 162.714 197.56 163.69 196.728 163.219C196.441 163.103 196.066 162.817 196.291 162.482C196.769 161.896 197.431 161.432 197.901 160.852L197.929 160.818H197.922Z" fill="#A4DD26"/>
<path d="M219.301 104.34C219.097 103.31 218.039 103.003 217.228 102.403C216.75 102.055 216.327 101.652 215.925 101.222C211.75 96.065 205.828 91.6104 198.931 91.5899C192.321 91.6104 186.468 95.5738 180.799 98.6437C178.841 99.7624 176.897 100.915 174.966 102.096C173.486 102.996 172.012 103.937 170.553 104.858C170.375 104.961 170.205 105.036 170.014 105.063C169.42 105.159 169.045 104.572 168.506 104.156C168.172 103.883 167.831 103.528 167.994 103.057C169.024 101.127 169.904 99.0939 170.553 96.9518C171.467 94.1549 172.36 91.3034 174.093 88.943C174.843 87.8993 175.689 86.9374 176.556 85.9892C179.257 83.0626 182.041 79.945 185.711 78.26C193.986 74.8901 204.641 75.6268 212.282 80.2179C217.193 83.2536 221.061 88.2881 221.935 94.0731C222.589 97.559 221.669 101.065 222.03 104.565C222.214 105.943 222.746 107.949 221.211 108.556C220.748 108.808 219.956 108.999 219.752 108.337C219.492 107.069 219.588 105.67 219.322 104.415L219.308 104.347L219.301 104.34Z" fill="#A4DD26"/>
<path d="M213.216 143.17C212.916 142.508 213.394 141.915 213.612 141.253C213.742 140.871 213.817 140.468 213.878 140.066C214.172 135.495 215.727 130.618 219.595 127.848C223.326 125.222 228.204 125.112 232.625 124.573C234.173 124.423 235.728 124.294 237.284 124.185C238.478 124.103 239.685 124.041 240.872 123.98C241.015 123.966 241.138 123.946 241.261 123.884C241.629 123.7 241.616 123.223 241.745 122.772C241.827 122.486 241.875 122.145 241.595 121.947C240.245 121.272 238.935 120.48 237.714 119.532C236.083 118.318 234.439 117.069 232.522 116.435C231.683 116.148 230.817 115.944 229.957 115.76C227.263 115.193 224.459 114.545 221.716 115.064C215.713 116.469 210.01 121.142 207.541 126.784C205.985 130.461 205.822 134.833 207.643 138.442C208.666 140.666 210.59 142.269 211.784 144.391C212.234 145.244 212.732 146.581 213.837 146.308C214.199 146.267 214.724 146.055 214.567 145.598C214.206 144.78 213.592 144.029 213.244 143.217L213.223 143.17H213.216Z" fill="#A4DD26"/>
<path d="M235.831 131.743C236.765 131.805 237.263 130.972 237.966 130.413C238.375 130.086 238.819 129.813 239.276 129.567C244.651 127.166 249.829 123.114 251.425 117.206C252.919 111.537 250.866 105.609 249.529 100.049C249.017 98.1116 248.478 96.181 247.905 94.2641C247.469 92.7906 247.005 91.3102 246.548 89.8504C246.5 89.673 246.473 89.5161 246.493 89.3455C246.548 88.8202 247.135 88.6224 247.619 88.2609C247.933 88.0357 248.315 87.8243 248.676 88.0698C250.095 89.3933 251.637 90.6144 253.322 91.6581C255.512 93.0839 257.749 94.5028 259.38 96.5221C260.103 97.4021 260.73 98.3504 261.344 99.3122C263.234 102.3 265.267 105.397 265.874 108.924C266.87 116.79 263.8 125.747 258.111 131.245C254.379 134.758 249.188 136.921 244.031 136.348C240.893 136.109 238.102 134.52 235.019 134.029C233.791 133.872 231.956 133.865 231.785 132.412C231.676 131.955 231.697 131.232 232.311 131.211C233.464 131.279 234.637 131.682 235.769 131.743H235.831Z" fill="#A4DD26"/>
<path d="M239.753 160.34C239.992 159.842 239.637 159.378 239.487 158.874C239.399 158.58 239.344 158.273 239.303 157.966C239.153 154.474 238.048 150.728 235.135 148.559C232.331 146.492 228.613 146.328 225.25 145.851C224.07 145.707 222.883 145.585 221.703 145.482C220.795 145.4 219.875 145.332 218.967 145.264C218.858 145.25 218.763 145.23 218.674 145.182C218.394 145.039 218.415 144.671 218.319 144.323C218.265 144.104 218.23 143.845 218.449 143.695C219.493 143.204 220.502 142.617 221.45 141.915C222.712 141.014 223.988 140.093 225.462 139.636C226.103 139.431 226.771 139.288 227.433 139.159C229.493 138.77 231.649 138.326 233.73 138.763C238.287 139.936 242.564 143.593 244.358 147.931C245.484 150.756 245.538 154.098 244.092 156.82C243.273 158.498 241.786 159.692 240.838 161.289C240.483 161.93 240.081 162.946 239.242 162.721C238.962 162.68 238.573 162.516 238.696 162.169C238.982 161.548 239.46 160.988 239.747 160.374L239.76 160.34H239.753Z" fill="#A4DD26"/>
<path d="M170.443 135.366C170.205 135.864 170.559 136.327 170.709 136.832C170.798 137.126 170.853 137.433 170.894 137.74C171.044 141.232 172.149 144.977 175.062 147.147C177.866 149.214 181.583 149.378 184.947 149.855C186.127 149.998 187.314 150.121 188.494 150.223C189.401 150.305 190.322 150.374 191.23 150.442C191.339 150.455 191.434 150.476 191.523 150.524C191.803 150.667 191.782 151.035 191.878 151.383C191.932 151.601 191.966 151.861 191.748 152.011C190.704 152.502 189.695 153.089 188.746 153.791C187.484 154.692 186.209 155.613 184.735 156.07C184.094 156.274 183.425 156.418 182.764 156.547C180.703 156.936 178.548 157.38 176.467 156.943C171.91 155.77 167.633 152.113 165.839 147.774C164.713 144.95 164.658 141.607 166.105 138.886C166.923 137.207 168.41 136.014 169.359 134.417C169.713 133.776 170.116 132.76 170.955 132.985C171.235 133.026 171.624 133.189 171.501 133.537C171.214 134.158 170.737 134.717 170.45 135.331L170.437 135.366H170.443Z" fill="#A4DD26"/>
<path d="M238.962 82.0803C238.416 82.3941 238.443 83.049 238.252 83.6288C238.143 83.9631 237.993 84.2837 237.83 84.5975C235.687 87.9471 234.275 92.163 235.572 96.0923C236.84 99.8443 240.197 102.423 243.021 105.07C244.031 105.97 245.054 106.857 246.091 107.73C246.882 108.399 247.701 109.061 248.499 109.716C248.588 109.797 248.669 109.879 248.717 109.982C248.881 110.302 248.622 110.63 248.485 111.012C248.397 111.257 248.253 111.516 247.96 111.51C246.664 111.291 245.347 111.175 244.003 111.21C242.236 111.223 240.449 111.257 238.778 110.718C238.041 110.493 237.332 110.186 236.629 109.879C234.453 108.897 232.154 107.908 230.496 106.141C227.01 102.075 225.407 95.874 226.574 90.6622C227.372 87.2922 229.493 84.1405 232.624 82.5442C234.48 81.5072 236.649 81.3708 238.573 80.4976C239.324 80.1292 240.36 79.4471 240.995 80.2043C241.227 80.4226 241.486 80.8387 241.145 81.0775C240.47 81.4663 239.658 81.6778 238.996 82.0667L238.962 82.0871V82.0803Z" fill="#A4DD26"/>
<path d="M316.656 37.6701C316.226 37.0903 315.489 37.2131 314.814 37.0834C314.418 37.0084 314.036 36.8856 313.661 36.7355C309.582 34.7777 304.629 33.768 300.372 35.7736C296.306 37.7179 293.857 41.8724 291.265 45.4265C290.385 46.6886 289.525 47.9711 288.68 49.2604C288.031 50.2496 287.397 51.2592 286.769 52.2552C286.688 52.3712 286.612 52.4667 286.497 52.5417C286.162 52.7737 285.753 52.5281 285.303 52.4257C285.016 52.3575 284.702 52.2347 284.668 51.9005C284.736 50.4065 284.689 48.8988 284.457 47.3912C284.198 45.3992 283.918 43.38 284.293 41.4221C284.45 40.5626 284.689 39.7167 284.948 38.8776C285.753 36.2853 286.558 33.5497 288.325 31.435C292.438 26.9394 299.219 24.2789 305.27 24.8655C309.186 25.3021 313.04 27.2668 315.271 30.5754C316.697 32.5333 317.147 34.9619 318.402 37.0152C318.921 37.8134 319.835 38.8912 319.064 39.7099C318.852 40.0032 318.416 40.3511 318.102 40.0032C317.57 39.2937 317.222 38.4069 316.69 37.711L316.663 37.6769L316.656 37.6701Z" fill="#A4DD26"/>
<path d="M235.578 -8.02929C235.565 -7.29935 234.882 -6.97191 234.398 -6.46709C234.118 -6.17376 233.873 -5.84631 233.648 -5.50521C231.424 -1.5008 227.924 2.23756 223.238 3.06982C218.742 3.84069 214.287 1.84872 210.065 0.429775C208.598 -0.102327 207.138 -0.648063 205.692 -1.2211C204.58 -1.65769 203.461 -2.12159 202.363 -2.57865C202.226 -2.62641 202.11 -2.66051 201.974 -2.65368C201.558 -2.65368 201.374 -2.20345 201.06 -1.85554C200.862 -1.63042 200.678 -1.34389 200.842 -1.05055C201.769 0.136448 202.608 1.41894 203.311 2.79695C204.266 4.59109 205.214 6.42616 206.667 7.82464C207.302 8.44542 207.991 8.998 208.693 9.54375C210.876 11.2151 213.141 13.0024 215.836 13.7119C221.866 15.0217 229.023 13.248 233.668 9.2163C236.649 6.5626 238.675 2.68781 238.587 -1.35071C238.621 -3.79975 237.57 -6.07143 237.4 -8.5C237.359 -9.46188 237.482 -10.8876 236.37 -11.1128C236.022 -11.2287 235.462 -11.2628 235.401 -10.7921C235.374 -9.89847 235.606 -8.95706 235.571 -8.07022V-8.02247L235.578 -8.02929Z" fill="#A4DD26"/>
<path d="M215.12 41.8793C214.635 42.4728 214.963 43.2027 215.004 43.9326C215.031 44.3556 215.004 44.7854 214.949 45.2083C214.015 49.929 214.281 55.3046 217.473 59.1589C220.557 62.8359 225.482 64.2617 229.834 65.9944C231.369 66.5675 232.918 67.1132 234.466 67.6453C235.66 68.0546 236.868 68.4366 238.055 68.8186C238.191 68.8732 238.314 68.9278 238.423 69.0233C238.75 69.3098 238.6 69.7942 238.614 70.2853C238.614 70.5991 238.573 70.9539 238.239 71.0835C236.683 71.4041 235.142 71.8612 233.648 72.4956C231.663 73.287 229.657 74.1124 227.535 74.242C226.608 74.3102 225.673 74.2829 224.745 74.242C221.86 74.0988 218.831 73.9896 216.184 72.7276C210.46 69.6782 205.924 63.3953 204.935 57.0032C204.348 52.8487 205.351 48.36 208.175 45.181C209.812 43.1959 212.2 42.0839 213.98 40.2557C214.663 39.5121 215.536 38.2842 216.586 38.8572C216.948 39.0004 217.419 39.3552 217.139 39.7713C216.552 40.5081 215.727 41.1016 215.154 41.8315L215.126 41.8724L215.12 41.8793Z" fill="#A4DD26"/>
<path d="M171.214 39.5189C170.621 38.8503 170.962 37.984 170.976 37.1312C170.989 36.6332 170.935 36.1352 170.853 35.6441C169.529 30.1866 169.577 23.9105 173.104 19.2649C176.515 14.8307 182.184 12.9274 187.164 10.6898C188.924 9.94623 190.697 9.22994 192.478 8.54094C193.842 8.00883 195.234 7.49718 196.605 6.99237C196.762 6.92415 196.905 6.85594 197.021 6.73996C197.39 6.39205 197.192 5.83267 197.185 5.25964C197.171 4.89126 197.11 4.48194 196.707 4.35232C194.879 4.05216 193.065 3.60192 191.284 2.9402C188.931 2.11476 186.557 1.2484 184.08 1.20747C182.996 1.17336 181.911 1.25522 180.826 1.35072C177.47 1.66453 173.943 1.93741 170.921 3.53372C164.399 7.36759 159.426 14.9125 158.587 22.4097C158.11 27.2737 159.501 32.4583 162.946 36.0193C164.952 38.25 167.79 39.4302 169.952 41.4767C170.785 42.309 171.862 43.6938 173.056 42.9775C173.466 42.7933 173.998 42.3568 173.657 41.886C172.933 41.0538 171.944 40.4057 171.242 39.5803L171.207 39.5325L171.214 39.5189Z" fill="#A4DD26"/>
<path d="M199.975 40.2147C200.248 39.7303 199.927 39.246 199.805 38.7275C199.73 38.4274 199.702 38.1204 199.689 37.8066C199.777 34.3138 198.925 30.5004 196.169 28.1332C193.515 25.882 189.811 25.4659 186.488 24.7633C185.322 24.545 184.149 24.3403 182.975 24.1561C182.075 24.0128 181.161 23.8832 180.26 23.7536C180.151 23.7332 180.062 23.7059 179.974 23.6513C179.701 23.4876 179.748 23.126 179.68 22.7713C179.639 22.5462 179.626 22.2869 179.851 22.1573C180.922 21.7344 181.972 21.2227 182.962 20.5883C184.285 19.7765 185.615 18.9374 187.116 18.5895C187.771 18.4258 188.446 18.3303 189.115 18.2484C191.202 17.996 193.378 17.7027 195.425 18.2757C199.893 19.756 203.911 23.6922 205.405 28.14C206.333 31.0393 206.169 34.3752 204.539 36.9948C203.611 38.6184 202.042 39.7031 200.992 41.2311C200.596 41.8451 200.118 42.8343 199.3 42.5478C199.027 42.4932 198.645 42.2954 198.788 41.9611C199.116 41.3608 199.634 40.8355 199.955 40.242L199.968 40.2079L199.975 40.2147Z" fill="#A4DD26"/>
<path d="M292.206 -7.6336C291.872 -7.02646 292.281 -6.41932 292.438 -5.77125C292.534 -5.39605 292.575 -5.0072 292.602 -4.61836C292.534 -0.231921 293.653 4.54337 297.138 7.47675C300.502 10.2669 305.154 10.7444 309.329 11.5835C310.803 11.8427 312.276 12.0883 313.75 12.3066C314.882 12.4771 316.028 12.6272 317.161 12.7773C317.297 12.8046 317.413 12.8319 317.522 12.9001C317.863 13.1047 317.809 13.5618 317.904 13.9984C317.959 14.2781 317.979 14.6056 317.699 14.7761C316.356 15.315 315.053 15.9767 313.811 16.7885C312.16 17.8255 310.496 18.8897 308.62 19.3535C307.801 19.565 306.955 19.6946 306.116 19.8106C303.503 20.1517 300.775 20.5542 298.196 19.8515C292.568 18.0506 287.472 13.1593 285.541 7.59271C284.334 3.97032 284.504 -0.225095 286.517 -3.52686C287.663 -5.57341 289.614 -6.95824 290.917 -8.88882C291.408 -9.66651 291.988 -10.9081 293.025 -10.567C293.373 -10.4988 293.85 -10.26 293.673 -9.83705C293.264 -9.07983 292.629 -8.4113 292.227 -7.6609L292.206 -7.61996V-7.6336Z" fill="#A4DD26"/>
<path d="M267.204 44.6489C267.334 45.6926 268.371 46.0678 269.142 46.7227C269.592 47.1047 269.988 47.5345 270.363 47.9916C274.176 53.4217 279.791 58.2652 286.667 58.7564C293.264 59.1794 299.376 55.6252 305.236 52.9442C307.269 51.9619 309.288 50.9454 311.287 49.8949C312.829 49.0967 314.364 48.2576 315.878 47.439C316.062 47.3503 316.233 47.2821 316.431 47.2684C317.024 47.2139 317.365 47.821 317.87 48.2781C318.191 48.5714 318.498 48.9535 318.307 49.4105C317.147 51.2661 316.131 53.2307 315.339 55.3319C314.241 58.0606 313.156 60.8507 311.267 63.0883C310.448 64.0774 309.534 64.9847 308.606 65.8716C305.714 68.6139 302.726 71.5269 298.953 72.9663C290.467 75.7701 279.886 74.3102 272.573 69.2143C267.88 65.8511 264.36 60.571 263.882 54.7384C263.466 51.2183 264.626 47.7801 264.496 44.26C264.407 42.8684 264.012 40.8355 265.588 40.3375C266.072 40.1123 266.87 39.9827 267.027 40.6581C267.204 41.9474 267.013 43.3323 267.191 44.6011L267.204 44.6693V44.6489Z" fill="#A4DD26"/>
<path d="M275.902 6.31704C276.155 6.99923 275.643 7.55861 275.377 8.20668C275.22 8.58188 275.118 8.97756 275.036 9.37323C274.435 13.9166 272.553 18.6714 268.5 21.175C264.605 23.5422 259.728 23.3239 255.28 23.5558C253.724 23.6036 252.162 23.624 250.6 23.624C249.406 23.624 248.199 23.6036 247.005 23.5899C246.862 23.5899 246.739 23.6104 246.616 23.6581C246.234 23.815 246.22 24.2926 246.057 24.736C245.954 25.0157 245.886 25.3499 246.152 25.5682C247.455 26.3323 248.704 27.2123 249.863 28.2424C251.412 29.559 252.96 30.9166 254.836 31.6806C255.655 32.0285 256.501 32.2877 257.354 32.5333C260 33.2837 262.763 34.116 265.526 33.7885C271.611 32.7926 277.621 28.5153 280.466 23.0578C282.267 19.4968 282.731 15.1445 281.155 11.4198C280.282 9.12765 278.474 7.40171 277.43 5.20508C277.041 4.32507 276.632 2.95387 275.513 3.15171C275.145 3.17217 274.613 3.34273 274.736 3.80662C275.043 4.65252 275.602 5.43702 275.895 6.26929L275.909 6.31704H275.902Z" fill="#A4DD26"/>
<path d="M252.571 16.1882C251.644 16.0654 251.091 16.8636 250.354 17.3752C249.925 17.6754 249.461 17.9142 248.99 18.1325C243.464 20.1585 238.027 23.856 236.035 29.6409C234.159 35.1938 235.81 41.2448 236.765 46.8865C237.147 48.8512 237.557 50.8158 237.993 52.7737C238.327 54.2745 238.696 55.7821 239.051 57.2693C239.085 57.4467 239.105 57.6104 239.071 57.7809C238.982 58.3062 238.382 58.4563 237.877 58.7837C237.55 58.9884 237.154 59.1726 236.806 58.8997C235.483 57.4808 234.03 56.1641 232.413 55.0044C230.325 53.4354 228.183 51.8664 226.703 49.738C226.041 48.8102 225.475 47.8211 224.929 46.8251C223.244 43.7143 221.43 40.4876 221.061 36.9266C220.604 29.0133 224.275 20.2813 230.319 15.1786C234.275 11.9246 239.603 10.1168 244.713 11.0446C247.83 11.4948 250.504 13.2753 253.547 13.9711C254.761 14.2099 256.596 14.3395 256.658 15.7994C256.74 16.2633 256.671 16.9796 256.057 16.9591C254.911 16.8158 253.772 16.3315 252.64 16.1951H252.578L252.571 16.1882Z" fill="#A4DD26"/>
<path d="M250.593 -12.6136C250.32 -12.1292 250.641 -11.6449 250.764 -11.1264C250.839 -10.8263 250.866 -10.5193 250.88 -10.2055C250.791 -6.71271 251.644 -2.89931 254.4 -0.532138C257.054 1.71906 260.758 2.1352 264.08 2.83785C265.247 3.05615 266.42 3.26081 267.593 3.445C268.494 3.58826 269.408 3.71787 270.308 3.84749C270.417 3.86795 270.506 3.89524 270.595 3.94981C270.868 4.11353 270.82 4.4751 270.888 4.82983C270.929 5.05495 270.943 5.31418 270.718 5.44379C269.647 5.86674 268.596 6.37837 267.607 7.0128C266.283 7.8246 264.953 8.6637 263.452 9.01162C262.798 9.17534 262.122 9.27085 261.454 9.35271C259.366 9.60511 257.19 9.89845 255.143 9.32541C250.675 7.84508 246.657 3.90889 245.163 -0.538946C244.235 -3.43822 244.399 -6.77411 246.029 -9.39369C246.957 -11.0173 248.526 -12.102 249.577 -13.63C249.972 -14.244 250.45 -15.2332 251.269 -14.9467C251.541 -14.8921 251.924 -14.6942 251.78 -14.36C251.453 -13.7597 250.934 -13.2344 250.614 -12.6409L250.6 -12.6068L250.593 -12.6136Z" fill="#A4DD26"/>
<path d="M246.084 65.5237C246.65 65.2508 246.671 64.5891 246.896 64.0297C247.025 63.7023 247.196 63.3953 247.387 63.0951C249.747 59.8957 251.446 55.789 250.416 51.7845C249.406 47.9575 246.227 45.1537 243.587 42.3227C242.639 41.354 241.684 40.3989 240.708 39.4575C239.965 38.7344 239.194 38.0181 238.437 37.3154C238.355 37.2268 238.28 37.1449 238.232 37.0357C238.089 36.7083 238.368 36.4013 238.532 36.0261C238.641 35.7873 238.798 35.5418 239.091 35.5622C240.367 35.8692 241.677 36.0739 243.021 36.1285C244.781 36.2376 246.575 36.3263 248.205 36.9744C248.922 37.2541 249.611 37.602 250.293 37.9567C252.401 39.0823 254.625 40.2284 256.16 42.1044C259.359 46.3953 260.539 52.6918 259.025 57.815C258.002 61.1236 255.669 64.1252 252.442 65.5033C250.518 66.4106 248.342 66.4037 246.37 67.1405C245.6 67.4543 244.515 68.0683 243.935 67.2633C243.717 67.0313 243.492 66.6016 243.839 66.3833C244.535 66.0422 245.361 65.8853 246.05 65.5442L246.084 65.5237Z" fill="#A4DD26"/>
<path d="M327.155 85.73C326.316 85.2184 325.442 85.7573 324.521 85.9415C323.982 86.0506 323.437 86.0916 322.884 86.0984C316.704 85.7437 309.909 87.0261 305.563 91.7741C301.429 96.3448 300.481 102.873 299.042 108.713C298.585 110.766 298.155 112.833 297.759 114.9C297.452 116.49 297.173 118.093 296.893 119.682C296.852 119.866 296.797 120.03 296.702 120.18C296.395 120.651 295.754 120.542 295.133 120.651C294.73 120.712 294.273 120.719 294.055 120.317C293.373 118.393 292.52 116.51 291.449 114.716C290.092 112.328 288.686 109.92 288.147 107.246C287.895 106.073 287.765 104.879 287.656 103.692C287.336 99.9876 286.933 96.1128 288.072 92.5245C290.944 84.6999 298.141 77.8098 306.109 75.4222C311.294 73.9419 317.188 74.4331 321.731 77.4619C324.549 79.2015 326.384 82.0394 329.031 83.9836C330.102 84.7204 331.814 85.614 331.268 87.0534C331.152 87.5378 330.784 88.1995 330.204 87.9198C329.16 87.299 328.26 86.3576 327.23 85.7505L327.175 85.7164L327.155 85.73Z" fill="#A4DD26"/>
<path d="M298.98 157.209C298.728 156.527 299.24 155.968 299.506 155.319C299.663 154.944 299.765 154.549 299.847 154.153C300.447 149.61 302.33 144.855 306.382 142.351C310.277 139.984 315.155 140.202 319.603 139.97C321.158 139.923 322.72 139.902 324.283 139.902C325.476 139.902 326.684 139.923 327.878 139.936C328.021 139.936 328.144 139.916 328.267 139.868C328.649 139.711 328.662 139.234 328.826 138.79C328.928 138.51 328.997 138.176 328.731 137.958C327.428 137.194 326.179 136.314 325.019 135.284C323.471 133.967 321.922 132.61 320.046 131.846C319.228 131.498 318.382 131.238 317.529 130.993C314.882 130.242 312.119 129.41 309.356 129.738C303.271 130.734 297.261 135.011 294.417 140.468C292.616 144.029 292.152 148.382 293.728 152.106C294.601 154.399 296.409 156.124 297.452 158.321C297.841 159.201 298.251 160.572 299.369 160.374C299.738 160.354 300.27 160.183 300.147 159.72C299.84 158.874 299.281 158.089 298.987 157.257L298.974 157.209H298.98Z" fill="#A4DD26"/>
<path d="M187.232 165.648C186.911 166.268 186.175 166.268 185.54 166.5C185.172 166.637 184.824 166.814 184.483 167.012C180.84 169.536 176.208 171.282 171.781 170C167.551 168.745 164.536 165.109 161.48 162.08C160.436 160.995 159.406 159.89 158.389 158.771C157.612 157.919 156.841 157.039 156.077 156.172C155.981 156.077 155.893 155.995 155.77 155.94C155.408 155.77 155.054 156.07 154.631 156.24C154.364 156.35 154.078 156.52 154.098 156.848C154.399 158.28 154.576 159.747 154.596 161.241C154.658 163.205 154.692 165.204 155.36 167.039C155.647 167.851 156.009 168.629 156.384 169.393C157.564 171.78 158.765 174.291 160.797 176.065C165.47 179.776 172.436 181.304 178.193 179.789C181.911 178.766 185.336 176.262 186.98 172.722C188.051 170.614 188.119 168.192 189.006 166.016C189.381 165.163 190.097 163.983 189.231 163.308C188.978 163.055 188.508 162.789 188.255 163.178C187.846 163.942 187.648 164.856 187.246 165.614L187.225 165.654L187.232 165.648Z" fill="#A4DD26"/>
<path d="M270.704 152.563C270.97 153.211 270.492 153.771 270.254 154.405C270.117 154.774 270.029 155.156 269.96 155.545C269.517 159.951 267.846 164.611 264.005 167.155C260.308 169.563 255.587 169.502 251.296 169.864C249.788 169.959 248.281 170.027 246.773 170.075C245.613 170.116 244.447 170.13 243.294 170.15C243.157 170.157 243.035 170.177 242.919 170.232C242.55 170.396 242.557 170.86 242.407 171.289C242.318 171.562 242.264 171.89 242.523 172.087C243.805 172.79 245.04 173.602 246.186 174.557C247.721 175.785 249.263 177.054 251.098 177.736C251.896 178.043 252.728 178.268 253.554 178.48C256.139 179.128 258.827 179.844 261.495 179.441C267.348 178.289 273.03 173.977 275.609 168.608C277.239 165.109 277.553 160.886 275.923 157.339C275.009 155.149 273.208 153.532 272.13 151.445C271.727 150.606 271.291 149.296 270.213 149.521C269.858 149.548 269.346 149.732 269.476 150.176C269.797 150.981 270.363 151.724 270.677 152.522L270.69 152.563H270.704Z" fill="#A4DD26"/>
<path d="M-2.04649 156.957C-2.0806 156.234 -1.41888 155.852 -0.975465 155.319C-0.716236 155.006 -0.497937 154.665 -0.293283 154.31C1.65776 150.162 4.89131 146.199 9.51651 145.053C13.9507 143.982 18.5281 145.667 22.8327 146.792C24.3335 147.222 25.8275 147.672 27.3078 148.143C28.4471 148.504 29.5932 148.893 30.7188 149.268C30.8552 149.309 30.978 149.33 31.1144 149.316C31.5237 149.282 31.6875 148.832 31.974 148.457C32.1513 148.218 32.3219 147.925 32.1377 147.638C31.1281 146.512 30.2071 145.298 29.4158 143.968C28.3448 142.242 27.2737 140.475 25.7252 139.179C25.0498 138.606 24.3199 138.094 23.5831 137.603C21.291 136.082 18.9102 134.458 16.1746 133.926C10.0691 133.033 3.04941 135.284 -1.31656 139.616C-4.11351 142.46 -5.87354 146.472 -5.50516 150.496C-5.36872 152.939 -4.1749 155.135 -3.84063 157.543C-3.7383 158.498 -3.75877 159.931 -2.63317 160.081C-2.27843 160.177 -1.71905 160.17 -1.69176 159.692C-1.72587 158.799 -2.0192 157.878 -2.04649 156.991V156.943V156.957Z" fill="#A4DD26"/>
<path d="M15.9427 103.569C16.3861 102.941 16.011 102.239 15.9223 101.509C15.8677 101.086 15.8677 100.656 15.8882 100.233C16.5021 95.4579 15.8745 90.1096 12.4227 86.4803C9.10043 83.0217 4.08639 81.937 -0.368267 80.4976C-1.93729 80.0337 -3.51995 79.5835 -5.10262 79.1673C-6.31691 78.8399 -7.55165 78.5397 -8.76594 78.2396C-8.9092 78.1986 -9.03199 78.1509 -9.14114 78.0622C-9.48905 77.803 -9.37309 77.305 -9.42084 76.8138C-9.44813 76.5 -9.42766 76.1453 -9.10021 75.9952C-7.57212 75.5654 -6.0645 75.0128 -4.61145 74.2761C-2.68769 73.3483 -0.73664 72.3932 1.36448 72.1204C2.28543 71.9908 3.22001 71.9567 4.14778 71.9362C7.04024 71.8884 10.0691 71.7861 12.791 72.864C18.7056 75.5176 23.6582 81.4799 25.084 87.7901C25.9504 91.89 25.2545 96.4402 22.6554 99.8034C21.1546 101.898 18.8488 103.167 17.1979 105.111C16.5635 105.902 15.779 107.185 14.6943 106.68C14.326 106.564 13.828 106.243 14.0804 105.807C14.6193 105.029 15.397 104.381 15.9223 103.617L15.9495 103.576L15.9427 103.569Z" fill="#A4DD26"/>
<path d="M21.9527 110.207C21.7139 110.705 22.0686 111.169 22.2187 111.673C22.3074 111.967 22.362 112.274 22.4029 112.581C22.553 116.073 23.6581 119.819 26.5711 121.988C29.3748 124.055 33.0927 124.219 36.4559 124.696C37.6361 124.84 38.8231 124.962 40.0032 125.065C40.9105 125.147 41.8315 125.215 42.7388 125.283C42.8479 125.297 42.9434 125.317 43.0321 125.365C43.3118 125.508 43.2914 125.876 43.3869 126.224C43.4414 126.443 43.4755 126.702 43.2572 126.852C42.2135 127.343 41.2039 127.93 40.2556 128.632C38.9936 129.533 37.7179 130.454 36.2444 130.911C35.6032 131.116 34.9346 131.259 34.2729 131.388C32.2127 131.777 30.057 132.221 27.9763 131.784C23.4194 130.611 19.1421 126.954 17.3479 122.616C16.2223 119.791 16.1678 116.449 17.614 113.727C18.4326 112.049 19.9198 110.855 20.868 109.258C21.2227 108.617 21.6252 107.601 22.4643 107.826C22.744 107.867 23.1329 108.031 23.0101 108.378C22.7235 108.999 22.246 109.559 21.9595 110.173L21.9459 110.207H21.9527Z" fill="#A4DD26"/>
<path d="M-19.6878 131.743C-18.7532 131.805 -18.2552 130.972 -17.5526 130.413C-17.1433 130.086 -16.6999 129.813 -16.2428 129.567C-10.8672 127.166 -5.68942 123.114 -4.09311 117.206C-2.59913 111.537 -4.65251 105.609 -5.98959 100.049C-6.50122 98.1116 -7.04014 96.181 -7.61318 94.2641C-8.04977 92.7906 -8.51366 91.3102 -8.97072 89.8504C-9.01848 89.673 -9.04576 89.5161 -9.0253 89.3455C-8.97073 88.8202 -8.38404 88.6224 -7.89969 88.2609C-7.58589 88.0357 -7.20387 87.8243 -6.84232 88.0698C-5.42337 89.3933 -3.88163 90.6144 -2.19664 91.6581C-0.00683212 93.0839 2.23072 94.5028 3.86114 96.5221C4.58425 97.4021 5.21186 98.3504 5.82583 99.3122C7.71548 102.3 9.74838 105.397 10.3555 108.924C11.3515 116.79 8.28168 125.747 2.59228 131.245C-1.13927 134.758 -6.33067 136.921 -11.488 136.348C-14.626 136.109 -17.4161 134.52 -20.4996 134.029C-21.7275 133.872 -23.5626 133.865 -23.7332 132.412C-23.8423 131.955 -23.8218 131.232 -23.2079 131.211C-22.055 131.279 -20.8816 131.682 -19.7492 131.743H-19.6878Z" fill="#A4DD26"/>
<path d="M61.144 37.6701C60.7142 37.0903 59.9775 37.2131 59.3021 37.0834C58.9064 37.0084 58.5244 36.8856 58.1492 36.7355C54.0698 34.7777 49.1171 33.768 44.8603 35.7736C40.7945 37.7179 38.3454 41.8724 35.7532 45.4265C34.8731 46.6886 34.0136 47.9711 33.1677 49.2604C32.5196 50.2496 31.8852 51.2592 31.2576 52.2552C31.1757 52.3712 31.1007 52.4667 30.9847 52.5417C30.6504 52.7737 30.2411 52.5281 29.7909 52.4257C29.5044 52.3575 29.1906 52.2347 29.1564 51.9005C29.2247 50.4065 29.1769 48.8988 28.945 47.3912C28.6857 45.3992 28.406 43.38 28.7812 41.4221C28.9381 40.5626 29.1769 39.7167 29.4361 38.8776C30.2411 36.2853 31.0461 33.5497 32.8129 31.435C36.9265 26.9394 43.7074 24.2789 49.7584 24.8655C53.6741 25.3021 57.5284 27.2668 59.7592 30.5754C61.1849 32.5333 61.6352 34.9619 62.8904 37.0152C63.4088 37.8134 64.323 38.8912 63.5521 39.7099C63.3406 40.0032 62.904 40.3511 62.5902 40.0032C62.0581 39.2937 61.7102 38.4069 61.1781 37.711L61.1508 37.6769L61.144 37.6701Z" fill="#A4DD26"/>
<path d="M36.6877 -7.6336C36.3535 -7.02646 36.7628 -6.41932 36.9197 -5.77125C37.0152 -5.39605 37.0561 -5.0072 37.0834 -4.61836C37.0152 -0.231921 38.134 4.54337 41.6199 7.47675C44.9831 10.2669 49.6356 10.7444 53.8105 11.5835C55.284 11.8427 56.7576 12.0883 58.2311 12.3066C59.3635 12.4771 60.5096 12.6272 61.642 12.7773C61.7784 12.8046 61.8944 12.8319 62.0036 12.9001C62.3446 13.1047 62.2901 13.5618 62.3856 13.9984C62.4401 14.2781 62.4606 14.6056 62.1809 14.7761C60.837 15.315 59.534 15.9767 58.2925 16.7885C56.6416 17.8255 54.9771 18.8897 53.1011 19.3535C52.2824 19.565 51.4365 19.6946 50.5975 19.8106C47.9847 20.1517 45.256 20.5542 42.6773 19.8515C37.0493 18.0506 31.9534 13.1593 30.0228 7.59271C28.8153 3.97032 28.9859 -0.225095 30.9983 -3.52686C32.1444 -5.57341 34.0954 -6.95824 35.3984 -8.88882C35.8896 -9.66651 36.4694 -10.9081 37.5064 -10.567C37.8543 -10.4988 38.3318 -10.26 38.1544 -9.83705C37.7451 -9.07983 37.1107 -8.4113 36.7082 -7.6609L36.6877 -7.61996V-7.6336Z" fill="#A4DD26"/>
<path d="M11.6926 44.6489C11.8222 45.6926 12.8592 46.0678 13.63 46.7227C14.0803 47.1047 14.4759 47.5345 14.8511 47.9916C18.6645 53.4217 24.2789 58.2652 31.1553 58.7564C37.752 59.1794 43.8644 55.6252 49.7243 52.9442C51.7572 51.9619 53.7765 50.9454 55.7753 49.8949C57.317 49.0967 58.8519 48.2576 60.3664 47.439C60.5506 47.3503 60.7211 47.2821 60.9189 47.2684C61.5124 47.2139 61.8535 47.821 62.3583 48.2781C62.679 48.5714 62.986 48.9535 62.7949 49.4105C61.6352 51.2661 60.6188 53.2307 59.8275 55.3319C58.7291 58.0606 57.6445 60.8507 55.7548 63.0883C54.9362 64.0774 54.0221 64.9847 53.0943 65.8716C50.2018 68.6139 47.2139 71.5269 43.4414 72.9663C34.9551 75.7701 24.3744 74.3102 17.0614 69.2143C12.368 65.8511 8.84791 60.571 8.37038 54.7384C7.95425 51.2183 9.11397 47.7801 8.98436 44.26C8.89567 42.8684 8.5 40.8355 10.0758 40.3375C10.5602 40.1123 11.3583 39.9827 11.5152 40.6581C11.6926 41.9474 11.5016 43.3323 11.679 44.6011L11.6926 44.6693V44.6489Z" fill="#A4DD26"/>
<path d="M20.3904 6.31704C20.6428 6.99923 20.1312 7.55861 19.8652 8.20668C19.7083 8.58188 19.6059 8.97756 19.5241 9.37323C18.9237 13.9166 17.0409 18.6714 12.9887 21.175C9.09348 23.5422 4.21587 23.3239 -0.231965 23.5558C-1.78734 23.6036 -3.34954 23.624 -4.91174 23.624C-6.10556 23.624 -7.31302 23.6036 -8.50684 23.5899C-8.6501 23.5899 -8.7729 23.6104 -8.89569 23.6581C-9.27771 23.815 -9.29135 24.2926 -9.45507 24.736C-9.5574 25.0157 -9.62562 25.3499 -9.35957 25.5682C-8.0566 26.3323 -6.80821 27.2123 -5.6485 28.2424C-4.09995 29.559 -2.55138 30.9166 -0.675381 31.6806C0.143239 32.0285 0.989147 32.2877 1.84188 32.5333C4.48875 33.2837 7.25159 34.116 10.0144 33.7885C16.0995 32.7926 22.1095 28.5153 24.9542 23.0578C26.7552 19.4968 27.2191 15.1445 25.6432 11.4198C24.7701 9.12765 22.9623 7.40171 21.9185 5.20508C21.5297 4.32507 21.1204 2.95387 20.0016 3.15171C19.6332 3.17217 19.1011 3.34273 19.2239 3.80662C19.5309 4.65252 20.0903 5.43702 20.3836 6.26929L20.3973 6.31704H20.3904Z" fill="#A4DD26"/>
<path d="M-2.94011 16.1882C-3.86788 16.0654 -4.42044 16.8636 -5.1572 17.3752C-5.58698 17.6754 -6.05086 17.9142 -6.52157 18.1325C-12.0473 20.1585 -17.4842 23.856 -19.4762 29.6409C-21.3522 35.1938 -19.7013 41.2448 -18.7463 46.8865C-18.3643 48.8512 -17.955 50.8158 -17.5184 52.7737C-17.1841 54.2745 -16.8157 55.7821 -16.461 57.2693C-16.4269 57.4467 -16.4064 57.6104 -16.4405 57.7809C-16.5292 58.3062 -17.1295 58.4563 -17.6343 58.7837C-17.9618 58.9884 -18.3574 59.1726 -18.7054 58.8997C-20.0288 57.4808 -21.4818 56.1641 -23.0986 55.0044C-25.1861 53.4354 -27.3281 51.8664 -28.8085 49.738C-29.4702 48.8102 -30.0364 47.8211 -30.5822 46.8251C-32.2672 43.7143 -34.0818 40.4876 -34.4501 36.9266C-34.9072 29.0133 -31.2371 20.2813 -25.1929 15.1786C-21.2363 11.9246 -15.9084 10.1168 -10.7989 11.0446C-7.68128 11.4948 -5.00712 13.2753 -1.96458 13.9711C-0.750294 14.2099 1.08477 14.3395 1.14617 15.7994C1.22803 16.2633 1.15981 16.9796 0.545849 16.9591C-0.60022 16.8158 -1.73946 16.3315 -2.87189 16.1951H-2.93328L-2.94011 16.1882Z" fill="#A4DD26"/>
<path d="M-4.9186 -12.6136C-5.19147 -12.1292 -4.87084 -11.6449 -4.74805 -11.1264C-4.67301 -10.8263 -4.64572 -10.5193 -4.63208 -10.2055C-4.72076 -6.71271 -3.86803 -2.89931 -1.11201 -0.532138C1.54168 1.71906 5.24593 2.1352 8.56816 2.83785C9.7347 3.05615 10.908 3.26081 12.0814 3.445C12.9819 3.58826 13.896 3.71787 14.7965 3.84749C14.9056 3.86795 14.9943 3.89524 15.083 3.94981C15.3559 4.11353 15.3081 4.4751 15.3763 4.82983C15.4173 5.05495 15.4309 5.31418 15.2058 5.44379C14.1348 5.86674 13.0842 6.37837 12.095 7.0128C10.7716 7.8246 9.44136 8.6637 7.94056 9.01162C7.28566 9.17534 6.61029 9.27085 5.94176 9.35271C3.85428 9.60511 1.67811 9.89845 -0.368437 9.32541C-4.83674 7.84508 -8.85479 3.90889 -10.3488 -0.538946C-11.2765 -3.43822 -11.1128 -6.77411 -9.4824 -9.39369C-8.55463 -11.0173 -6.98561 -12.102 -5.93505 -13.63C-5.53939 -14.244 -5.06185 -15.2332 -4.24323 -14.9467C-3.97036 -14.8921 -3.58834 -14.6942 -3.73159 -14.36C-4.05904 -13.7597 -4.57751 -13.2344 -4.89813 -12.6409L-4.91178 -12.6068L-4.9186 -12.6136Z" fill="#A4DD26"/>
<path d="M-9.42773 65.5237C-8.86152 65.2508 -8.84105 64.5891 -8.61593 64.0297C-8.48631 63.7023 -8.31577 63.3953 -8.12476 63.0951C-5.7644 59.8957 -4.06577 55.789 -5.09586 51.7845C-6.10549 47.9575 -9.28447 45.1537 -11.9245 42.3227C-12.8728 41.354 -13.8278 40.3989 -14.8033 39.4575C-15.5469 38.7344 -16.3178 38.0181 -17.075 37.3154C-17.1569 37.2268 -17.2319 37.1449 -17.2797 37.0357C-17.4229 36.7083 -17.1432 36.4013 -16.9795 36.0261C-16.8703 35.7873 -16.7134 35.5418 -16.4201 35.5622C-15.1444 35.8692 -13.8346 36.0739 -12.4907 36.1285C-10.7307 36.2376 -8.93656 36.3263 -7.30614 36.9744C-6.58985 37.2541 -5.90085 37.602 -5.21866 37.9567C-3.11072 39.0823 -0.886797 40.2284 0.648115 42.1044C3.84755 46.3953 5.02773 52.6918 3.51328 57.815C2.49001 61.1236 0.156946 64.1252 -3.06978 65.5033C-4.99354 66.4106 -7.1697 66.4037 -9.14121 67.1405C-9.91208 67.4543 -10.9968 68.0683 -11.5766 67.2633C-11.7949 67.0313 -12.02 66.6016 -11.6721 66.3833C-10.9763 66.0422 -10.1508 65.8853 -9.46184 65.5442L-9.42773 65.5237Z" fill="#A4DD26"/>
<path d="M145.053 52.1802C144.718 51.5457 143.968 51.5526 143.32 51.3206C142.945 51.1842 142.583 51.0068 142.235 50.8022C138.497 48.2508 133.756 46.4976 129.246 47.8347C124.935 49.1444 121.879 52.876 118.782 55.9936C117.718 57.1124 116.674 58.2448 115.65 59.3908C114.859 60.2709 114.081 61.1713 113.311 62.0582C113.215 62.1605 113.12 62.2424 113.004 62.2969C112.635 62.4743 112.274 62.1673 111.844 61.9968C111.571 61.8876 111.278 61.7171 111.291 61.3828C111.585 59.9229 111.762 58.4222 111.769 56.8941C111.817 54.8884 111.844 52.8487 112.512 50.9659C112.799 50.1405 113.167 49.3423 113.543 48.551C114.736 46.1087 115.944 43.5301 118.011 41.7087C122.759 37.8884 129.86 36.2853 135.754 37.7861C139.561 38.8094 143.067 41.3403 144.773 44.949C145.885 47.0979 145.967 49.5674 146.888 51.7845C147.277 52.6509 148.02 53.8583 147.133 54.5474C146.881 54.8066 146.396 55.0795 146.137 54.6906C145.714 53.9129 145.51 52.9783 145.087 52.2143L145.059 52.1733L145.053 52.1802Z" fill="#A4DD26"/>
<path d="M71.6428 85.7299C70.8038 85.2182 69.9306 85.7572 69.0096 85.9414C68.4707 86.0505 67.9249 86.0914 67.3724 86.0983C61.1918 85.7435 54.3973 87.026 50.0518 91.774C45.9177 96.3446 44.9695 102.873 43.5301 108.713C43.073 110.766 42.6432 112.833 42.2476 114.9C41.9406 116.49 41.6609 118.093 41.3812 119.682C41.3403 119.866 41.2857 120.03 41.1902 120.18C40.8832 120.651 40.242 120.542 39.6212 120.651C39.2187 120.712 38.7616 120.719 38.5433 120.317C37.8611 118.393 37.0084 116.51 35.9374 114.716C34.5798 112.328 33.1745 109.92 32.6356 107.246C32.3832 106.073 32.2536 104.879 32.1445 103.692C31.8238 99.9875 31.4213 96.1127 32.5606 92.5244C35.4326 84.6998 42.6296 77.8097 50.5975 75.4221C55.7821 73.9417 61.6762 74.4329 66.2195 77.4618C69.0369 79.2014 70.872 82.0393 73.5188 83.9835C74.5899 84.7203 76.3022 85.6139 75.7564 87.0533C75.6404 87.5377 75.2721 88.1994 74.6922 87.9197C73.6485 87.2989 72.748 86.3575 71.7179 85.7503L71.6633 85.7162L71.6428 85.7299Z" fill="#A4DD26"/>
<path d="M136.512 127.016C135.877 126.388 136.157 125.501 136.116 124.648C136.096 124.15 136.007 123.659 135.891 123.175C134.199 117.82 133.824 111.557 137.03 106.68C140.134 102.027 145.66 99.742 150.483 97.177C152.188 96.3174 153.907 95.4783 155.64 94.6733C156.97 94.0457 158.321 93.4454 159.651 92.8519C159.808 92.7701 159.938 92.695 160.047 92.5722C160.388 92.2038 160.156 91.6581 160.108 91.0851C160.074 90.7235 159.979 90.3142 159.57 90.2119C157.728 90.0413 155.879 89.7071 154.064 89.1681C151.663 88.5064 149.234 87.8038 146.758 87.9266C145.673 87.9675 144.596 88.1176 143.525 88.2881C140.196 88.827 136.696 89.3387 133.797 91.1396C127.555 95.4101 123.1 103.269 122.766 110.807C122.616 115.691 124.362 120.774 128.039 124.089C130.195 126.183 133.101 127.166 135.4 129.055C136.287 129.833 137.453 131.143 138.599 130.338C138.995 130.126 139.5 129.656 139.124 129.205C138.347 128.428 137.317 127.841 136.553 127.07L136.512 127.029V127.016Z" fill="#A4DD26"/>
<path d="M89.3933 20.4654C89.1272 19.9061 89.5229 19.3944 89.6934 18.8214C89.7957 18.4939 89.8571 18.146 89.8981 17.8049C90.0618 13.9029 91.3034 9.72107 94.5506 7.2925C97.6818 4.98672 101.836 4.80254 105.595 4.27043C106.919 4.11353 108.235 3.9771 109.559 3.85431C110.575 3.75881 111.605 3.69058 112.615 3.61554C112.738 3.6019 112.84 3.58143 112.942 3.52686C113.256 3.36313 113.229 2.95383 113.338 2.5718C113.399 2.32622 113.433 2.0397 113.195 1.86916C112.028 1.31659 110.902 0.668512 109.845 -0.115998C108.433 -1.11881 107.007 -2.15573 105.363 -2.66055C104.647 -2.89249 103.903 -3.04939 103.16 -3.19265C100.854 -3.62925 98.4458 -4.12724 96.1196 -3.63606C91.0237 -2.32627 86.2484 1.75999 84.2428 6.61032C82.9876 9.76882 82.9193 13.5004 84.5361 16.5429C85.4502 18.4189 87.1148 19.756 88.1721 21.5365C88.5678 22.2528 89.0249 23.3852 89.9595 23.1328C90.2664 23.0919 90.7099 22.9008 90.5734 22.5188C90.2528 21.823 89.7139 21.2022 89.4001 20.5132L89.3864 20.4723L89.3933 20.4654Z" fill="#A4DD26"/>
<path d="M116.496 8.07704C116.108 8.54775 116.36 9.13442 116.387 9.7211C116.408 10.0622 116.38 10.4033 116.333 10.7444C115.541 14.5168 115.705 18.8146 118.222 21.9322C120.658 24.8997 124.587 26.0867 128.046 27.5124C129.267 27.9832 130.502 28.4402 131.736 28.87C132.685 29.2043 133.646 29.5249 134.602 29.8455C134.711 29.8864 134.806 29.9342 134.895 30.0092C135.154 30.2412 135.031 30.6232 135.038 31.0189C135.038 31.2713 135.004 31.551 134.731 31.6533C133.483 31.8989 132.248 32.2468 131.041 32.738C129.444 33.3519 127.834 34 126.136 34.0819C125.392 34.1296 124.648 34.0955 123.905 34.0546C121.592 33.9113 119.171 33.8022 117.069 32.7652C112.519 30.2753 108.945 25.2067 108.208 20.0835C107.771 16.7544 108.624 13.1729 110.909 10.6557C112.24 9.07985 114.156 8.21349 115.596 6.76726C116.148 6.18058 116.858 5.20506 117.69 5.67576C117.977 5.79173 118.352 6.07826 118.127 6.41253C117.649 6.99921 116.988 7.46308 116.517 8.04294L116.49 8.07704H116.496Z" fill="#A4DD26"/>
<path d="M100.07 59.1862C100.274 60.2163 101.332 60.5233 102.143 61.1236C102.621 61.4716 103.044 61.874 103.446 62.3038C107.621 67.4611 113.543 71.9158 120.44 71.9362C127.05 71.9158 132.903 67.9523 138.572 64.8825C140.53 63.7637 142.474 62.6108 144.405 61.4306C145.885 60.5301 147.359 59.5887 148.818 58.6678C148.996 58.5654 149.166 58.4904 149.357 58.4631C149.951 58.3676 150.326 58.9543 150.865 59.3704C151.199 59.6433 151.54 59.998 151.377 60.4687C150.346 62.3993 149.466 64.4322 148.818 66.5743C147.904 69.3712 147.011 72.2228 145.278 74.5831C144.527 75.6269 143.682 76.5887 142.815 77.537C140.114 80.4635 137.33 83.5811 133.66 85.2661C125.385 88.6361 114.73 87.8993 107.089 83.3082C102.178 80.2725 98.3096 75.238 97.4364 69.4531C96.7815 65.9671 97.7024 62.4607 97.3408 58.9611C97.1567 57.5831 96.6246 55.5775 98.1595 54.9704C98.6234 54.7179 99.4147 54.5269 99.6193 55.1887C99.8786 56.4575 99.7831 57.856 100.049 59.1112L100.063 59.1794L100.07 59.1862Z" fill="#A4DD26"/>
<path d="M98.5549 22.9964C98.8551 23.6581 98.3775 24.2516 98.1593 24.9133C98.0296 25.2953 97.9546 25.6978 97.8932 26.1003C97.5998 30.6709 96.0445 35.5486 92.1765 38.3182C88.445 40.9446 83.5674 41.0538 79.1468 41.5927C77.5983 41.7428 76.0429 41.8724 74.4875 41.9815C73.2937 42.0634 72.0862 42.1248 70.8992 42.1862C70.756 42.1998 70.6332 42.2203 70.5104 42.2817C70.142 42.4659 70.1556 42.9434 70.026 43.3937C69.9442 43.6802 69.8964 44.0213 70.1761 44.2191C71.5268 44.8945 72.8366 45.6858 74.0577 46.634C75.6881 47.8483 77.3322 49.0967 79.2491 49.7311C80.0882 50.0177 80.9546 50.2223 81.8142 50.4065C84.5088 50.9727 87.3125 51.6208 90.0549 51.1023C96.0581 49.697 101.761 45.0241 104.231 39.3824C105.786 35.7055 105.95 31.3327 104.128 27.7239C103.105 25.5 101.181 23.8969 99.9875 21.7753C99.5373 20.9226 99.0393 19.5855 97.9341 19.8583C97.5726 19.8993 97.0473 20.1108 97.2042 20.5678C97.5658 21.3864 98.1797 22.1368 98.5276 22.9486L98.5481 22.9964H98.5549Z" fill="#A4DD26"/>
<path d="M68.6754 26.3595C69.1393 26.0594 69.0847 25.4863 69.2211 24.9679C69.2962 24.6677 69.419 24.3812 69.5486 24.1015C71.2677 21.059 72.3114 17.2933 70.988 13.9097C69.6987 10.6761 66.6289 8.56819 64.0297 6.3852C63.102 5.64162 62.1606 4.91169 61.2123 4.1954C60.4824 3.64283 59.7388 3.1039 59.002 2.56497C58.9202 2.49675 58.8451 2.42855 58.7974 2.33986C58.6337 2.06699 58.852 1.76681 58.9543 1.42572C59.0225 1.20742 59.1317 0.975482 59.3909 0.961839C60.537 1.09145 61.7035 1.1324 62.8769 1.03689C64.4254 0.941384 65.9944 0.832227 67.4884 1.22107C68.1433 1.3848 68.7777 1.61673 69.4122 1.8555C71.37 2.61272 73.4302 3.37677 74.9651 4.85029C78.2123 8.25438 79.911 13.6163 79.1333 18.2484C78.5943 21.2431 76.8752 24.1083 74.2079 25.6569C72.6252 26.6529 70.7288 26.878 69.0847 27.7307C68.4435 28.0854 67.5634 28.7335 66.97 28.0991C66.7517 27.9217 66.5129 27.567 66.7926 27.3419C67.3656 26.9667 68.0683 26.7484 68.6345 26.3732L68.6618 26.3527L68.6754 26.3595Z" fill="#A4DD26"/>
<path d="M148.73 32.8335C148.968 32.3355 148.614 31.8716 148.464 31.3668C148.375 31.0735 148.32 30.7665 148.279 30.4595C148.129 26.9668 147.024 23.2216 144.111 21.0522C141.308 18.9852 137.59 18.8215 134.226 18.344C133.046 18.2007 131.859 18.0779 130.679 17.9756C129.772 17.8937 128.851 17.8255 127.944 17.7573C127.834 17.7436 127.739 17.7232 127.65 17.6754C127.371 17.5322 127.391 17.1638 127.295 16.8159C127.241 16.5976 127.207 16.3383 127.425 16.1883C128.469 15.6971 129.478 15.1104 130.427 14.4078C131.689 13.5073 132.964 12.5863 134.438 12.1293C135.079 11.9246 135.748 11.7814 136.409 11.6517C138.47 11.2629 140.625 10.8195 142.706 11.2561C147.263 12.4294 151.54 16.0859 153.334 20.4246C154.46 23.2488 154.515 26.5915 153.068 29.3135C152.25 30.9916 150.763 32.1855 149.814 33.7818C149.46 34.423 149.057 35.4394 148.218 35.2143C147.938 35.1734 147.549 35.0097 147.672 34.6618C147.959 34.041 148.436 33.4816 148.723 32.8676L148.736 32.8335H148.73Z" fill="#A4DD26"/>
<path d="M87.2785 83.3218C87.5582 82.7556 87.1625 82.2235 86.9988 81.6437C86.8965 81.3026 86.8419 80.9547 86.8078 80.6067C86.6986 76.6296 85.498 72.3523 82.2235 69.8283C79.0718 67.4338 74.8355 67.1882 71.0152 66.5879C69.6713 66.4105 68.3274 66.2468 66.9835 66.1104C65.9466 66.0012 64.9029 65.9125 63.8728 65.817C63.75 65.7966 63.6408 65.7761 63.5385 65.7215C63.2247 65.551 63.252 65.1349 63.1497 64.7392C63.0883 64.4868 63.061 64.1934 63.3066 64.0297C64.5004 63.484 65.6601 62.8359 66.7516 62.0514C68.2046 61.0486 69.6713 60.0185 71.3563 59.5273C72.0931 59.3022 72.8503 59.1521 73.6075 59.0157C75.9611 58.6064 78.4169 58.1356 80.7841 58.6677C85.955 60.073 90.7576 64.3094 92.7291 69.2757C93.9639 72.5092 93.9707 76.3158 92.2857 79.3856C91.3306 81.2821 89.6115 82.6192 88.5132 84.4201C88.0971 85.1433 87.6196 86.2893 86.6713 86.0233C86.3575 85.9755 85.9141 85.7777 86.0574 85.3889C86.3985 84.6862 86.951 84.0586 87.2785 83.3628L87.2921 83.3218H87.2785Z" fill="#A4DD26"/>
<path d="M92.2039 166.616C92.2175 165.886 92.8997 165.559 93.384 165.054C93.6637 164.761 93.9093 164.433 94.1344 164.092C96.3584 160.088 99.8579 156.35 104.545 155.517C109.04 154.746 113.495 156.738 117.718 158.157C119.184 158.689 120.644 159.235 122.09 159.808C123.202 160.245 124.321 160.709 125.419 161.166C125.556 161.213 125.672 161.248 125.808 161.241C126.224 161.241 126.409 160.791 126.722 160.443C126.92 160.217 127.104 159.931 126.941 159.638C126.013 158.451 125.174 157.168 124.471 155.79C123.516 153.996 122.568 152.161 121.115 150.762C120.48 150.142 119.791 149.589 119.089 149.043C116.906 147.372 114.641 145.585 111.946 144.875C105.916 143.565 98.7596 145.339 94.114 149.371C91.1328 152.024 89.1067 155.899 89.1954 159.938C89.1613 162.387 90.2119 164.659 90.3824 167.087C90.4234 168.049 90.3006 169.475 91.4125 169.7C91.7604 169.816 92.3198 169.85 92.3812 169.379C92.4085 168.486 92.1766 167.544 92.2107 166.657V166.61L92.2039 166.616Z" fill="#A4DD26"/>
<path d="M104.251 121.64C104.736 121.047 104.408 120.317 104.367 119.587C104.34 119.164 104.367 118.734 104.422 118.311C105.356 113.59 105.09 108.215 101.898 104.36C98.8142 100.683 93.8888 99.2576 89.5365 97.5249C88.0016 96.9518 86.4531 96.4061 84.9045 95.874C83.7107 95.4647 82.5032 95.0827 81.3162 94.7006C81.1798 94.6461 81.057 94.5915 80.9478 94.496C80.6204 94.2095 80.7705 93.7251 80.7568 93.2339C80.7568 92.9201 80.7978 92.5654 81.132 92.4358C82.6874 92.1152 84.2291 91.6581 85.7231 91.0237C87.7083 90.2323 89.7139 89.4069 91.8355 89.2773C92.7632 89.2091 93.6978 89.2363 94.6256 89.2773C97.5113 89.4205 100.54 89.5297 103.187 90.7917C108.911 93.8411 113.447 100.124 114.436 106.516C115.023 110.671 114.02 115.159 111.196 118.338C109.559 120.323 107.171 121.435 105.39 123.264C104.708 124.007 103.835 125.235 102.785 124.662C102.423 124.519 101.952 124.164 102.232 123.748C102.819 123.011 103.644 122.418 104.217 121.688L104.244 121.647L104.251 121.64Z" fill="#A4DD26"/>
<path d="M148.143 127.152C148.6 127.664 148.334 128.339 148.327 128.994C148.32 129.376 148.361 129.758 148.423 130.14C149.446 134.349 149.412 139.193 146.683 142.781C144.05 146.199 139.677 147.672 135.829 149.398C134.472 149.971 133.101 150.524 131.73 151.056C130.672 151.465 129.601 151.861 128.544 152.25C128.421 152.304 128.312 152.359 128.223 152.447C127.937 152.713 128.094 153.143 128.094 153.587C128.1 153.866 128.155 154.187 128.462 154.289C129.874 154.521 131.272 154.869 132.644 155.381C134.458 156.015 136.293 156.684 138.203 156.718C139.043 156.745 139.882 156.684 140.714 156.609C143.306 156.37 146.021 156.158 148.354 154.924C153.382 151.963 157.223 146.144 157.871 140.359C158.239 136.607 157.168 132.603 154.508 129.854C152.959 128.128 150.776 127.22 149.098 125.644C148.457 125.003 147.624 123.932 146.703 124.492C146.383 124.635 145.974 124.969 146.24 125.337C146.799 125.979 147.556 126.484 148.102 127.118L148.129 127.152H148.143Z" fill="#A4DD26"/>
<path d="M119.396 123.311C119.123 123.796 119.443 124.28 119.566 124.798C119.641 125.099 119.669 125.406 119.682 125.719C119.594 129.212 120.446 133.026 123.202 135.393C125.856 137.644 129.56 138.06 132.882 138.763C134.049 138.981 135.222 139.186 136.396 139.37C137.296 139.513 138.21 139.643 139.111 139.772C139.22 139.793 139.309 139.82 139.397 139.875C139.67 140.038 139.622 140.4 139.691 140.755C139.732 140.98 139.745 141.239 139.52 141.369C138.449 141.792 137.399 142.303 136.409 142.938C135.086 143.75 133.756 144.589 132.255 144.937C131.6 145.1 130.925 145.196 130.256 145.278C128.169 145.53 125.992 145.823 123.946 145.25C119.478 143.77 115.46 139.834 113.966 135.386C113.038 132.487 113.202 129.151 114.832 126.531C115.76 124.908 117.329 123.823 118.379 122.295C118.775 121.681 119.252 120.692 120.071 120.978C120.344 121.033 120.726 121.231 120.583 121.565C120.255 122.165 119.737 122.691 119.416 123.284L119.403 123.318L119.396 123.311Z" fill="#A4DD26"/>
<path d="M43.4619 157.209C43.2095 156.527 43.7212 155.968 43.9872 155.319C44.1441 154.944 44.2465 154.549 44.3283 154.153C44.9286 149.61 46.8115 144.855 50.8636 142.351C54.7589 139.984 59.6365 140.202 64.0843 139.97C65.6397 139.923 67.2019 139.902 68.7641 139.902C69.9579 139.902 71.1654 139.923 72.3592 139.936C72.5025 139.936 72.6253 139.916 72.7481 139.868C73.1301 139.711 73.1437 139.234 73.3074 138.79C73.4098 138.51 73.478 138.176 73.2119 137.958C71.909 137.194 70.6606 136.314 69.5009 135.284C67.9523 133.967 66.4038 132.61 64.5278 131.846C63.7091 131.498 62.8632 131.238 62.0105 130.993C59.3636 130.242 56.6008 129.41 53.8379 129.738C47.7529 130.734 41.7428 135.011 38.8981 140.468C37.0972 144.029 36.6333 148.382 38.2091 152.106C39.0823 154.399 40.8901 156.124 41.9338 158.321C42.3227 159.201 42.732 160.572 43.8508 160.374C44.2192 160.354 44.7513 160.183 44.6285 159.72C44.3215 158.874 43.7621 158.089 43.4688 157.257L43.4551 157.209H43.4619Z" fill="#A4DD26"/>
<path d="M66.7994 147.338C67.7272 147.461 68.2797 146.663 69.0165 146.151C69.4463 145.851 69.9102 145.612 70.3809 145.394C75.9065 143.368 81.3435 139.67 83.3355 133.885C85.2115 128.332 83.5606 122.281 82.6056 116.64C82.2235 114.675 81.8142 112.71 81.3776 110.752C81.0434 109.252 80.675 107.744 80.3203 106.257C80.2862 106.079 80.2657 105.916 80.2998 105.745C80.3885 105.22 80.9888 105.07 81.4936 104.742C81.8211 104.538 82.2167 104.354 82.5646 104.626C83.8881 106.045 85.3411 107.362 86.9579 108.522C89.0454 110.091 91.1874 111.66 92.6678 113.788C93.3295 114.716 93.8957 115.705 94.4414 116.701C96.1264 119.812 97.9411 123.039 98.3094 126.6C98.7665 134.513 95.0963 143.245 89.0522 148.348C85.0955 151.602 79.7677 153.409 74.6581 152.482C71.5406 152.031 68.8664 150.251 65.8239 149.555C64.6096 149.316 62.7745 149.187 62.7131 147.727C62.6313 147.263 62.6995 146.547 63.3134 146.567C64.4595 146.71 65.5988 147.195 66.7312 147.331H66.7926L66.7994 147.338Z" fill="#A4DD26"/>
<path d="M67.8705 173.281C68.1433 172.797 67.8227 172.313 67.6999 171.794C67.6249 171.494 67.5976 171.187 67.5839 170.873C67.6726 167.38 66.8199 163.567 64.0639 161.2C61.4102 158.949 57.7059 158.532 54.3837 157.83C53.2172 157.612 52.0438 157.407 50.8705 157.223C49.97 157.079 49.0559 156.95 48.1554 156.82C48.0462 156.8 47.9575 156.772 47.8689 156.718C47.596 156.554 47.6437 156.193 47.5755 155.838C47.5346 155.613 47.5209 155.354 47.7461 155.224C48.8171 154.801 49.8677 154.289 50.8568 153.655C52.1803 152.843 53.5105 152.004 55.0113 151.656C55.6662 151.492 56.3416 151.397 57.0101 151.315C59.0976 151.063 61.2738 150.769 63.3203 151.342C67.7886 152.823 71.8067 156.759 73.3006 161.207C74.2284 164.106 74.0647 167.442 72.4343 170.061C71.5065 171.685 69.9375 172.77 68.8869 174.298C68.4913 174.912 68.0137 175.901 67.1951 175.614C66.9222 175.56 66.5402 175.362 66.6835 175.028C67.0109 174.427 67.5294 173.902 67.85 173.309L67.8636 173.274L67.8705 173.281Z" fill="#A4DD26"/>
<path d="M67.0859 92.8793C66.5197 93.1521 66.4993 93.8138 66.2741 94.3732C66.1445 94.7007 65.974 95.0077 65.783 95.3078C63.4226 98.5073 61.724 102.614 62.7541 106.618C63.7637 110.445 66.9427 113.249 69.5827 116.08C70.531 117.049 71.486 118.004 72.4615 118.945C73.2051 119.669 73.976 120.385 74.7332 121.088C74.8151 121.176 74.8901 121.258 74.9379 121.367C75.0811 121.695 74.8014 122.002 74.6377 122.377C74.5286 122.616 74.3717 122.861 74.0783 122.841C72.8026 122.534 71.4928 122.329 70.1489 122.275C68.3889 122.165 66.5948 122.077 64.9644 121.429C64.2481 121.149 63.5591 120.801 62.8769 120.446C60.7689 119.321 58.545 118.175 57.0101 116.299C53.8107 112.008 52.6305 105.711 54.1449 100.588C55.1682 97.2793 57.5013 94.2777 60.728 92.8997C62.6517 91.9924 64.8279 91.9992 66.7994 91.2625C67.5703 90.9487 68.655 90.3347 69.2348 91.1397C69.4531 91.3716 69.6782 91.8014 69.3303 92.0197C68.6345 92.3608 67.8091 92.5177 67.1201 92.8588L67.0859 92.8793Z" fill="#A4DD26"/>
<path d="M123.925 -16.1064C123.871 -15.3764 124.526 -14.9808 124.962 -14.435C125.215 -14.1144 125.426 -13.7665 125.617 -13.4049C127.473 -9.19584 130.625 -5.13685 135.229 -3.86799C139.65 -2.68099 144.289 -4.26366 148.641 -5.28693C150.155 -5.6826 151.663 -6.09191 153.171 -6.53533C154.324 -6.8696 155.483 -7.23115 156.623 -7.57906C156.759 -7.61317 156.889 -7.63364 157.018 -7.61999C157.427 -7.57906 157.578 -7.11518 157.864 -6.73998C158.041 -6.4944 158.198 -6.19423 158.007 -5.91454C156.964 -4.8094 156.009 -3.61559 155.183 -2.29897C154.064 -0.593519 152.946 1.15287 151.356 2.41491C150.667 2.9743 149.923 3.46547 149.173 3.94299C146.833 5.40969 144.405 6.98554 141.649 7.44942C135.502 8.19983 128.51 5.76443 124.239 1.30295C121.504 -1.62362 119.839 -5.68942 120.303 -9.72112C120.501 -12.1702 121.756 -14.3463 122.152 -16.7544C122.281 -17.7095 122.288 -19.1489 123.427 -19.2717C123.789 -19.3604 124.348 -19.3399 124.362 -18.8624C124.308 -17.9619 123.987 -17.0478 123.939 -16.1609V-16.1132L123.925 -16.1064Z" fill="#A4DD26"/>
</svg>
