<svg width="294" height="170" viewBox="0 0 294 170" fill="none" xmlns="http://www.w3.org/2000/svg">
<path d="M170.437 114.648C170.9 115.193 171.63 115.023 172.313 115.105C172.708 115.152 173.097 115.255 173.486 115.371C177.688 117.049 182.702 117.724 186.809 115.432C190.732 113.215 192.894 108.904 195.241 105.186C196.032 103.862 196.803 102.532 197.56 101.188C198.14 100.158 198.706 99.1075 199.266 98.0706C199.341 97.9547 199.409 97.8523 199.518 97.7705C199.839 97.5181 200.262 97.7363 200.719 97.8046C201.012 97.8523 201.333 97.9547 201.387 98.2889C201.415 99.7829 201.571 101.284 201.899 102.778C202.288 104.749 202.711 106.741 202.465 108.726C202.37 109.6 202.185 110.452 201.988 111.305C201.36 113.952 200.739 116.728 199.122 118.959C195.323 123.728 188.74 126.838 182.661 126.661C178.725 126.49 174.748 124.792 172.299 121.64C170.744 119.784 170.13 117.39 168.745 115.432C168.172 114.675 167.189 113.659 167.899 112.785C168.09 112.478 168.499 112.103 168.84 112.431C169.42 113.099 169.829 113.965 170.402 114.62L170.437 114.654V114.648Z" fill="#023AB7"/>
<path d="M253.465 156.957C253.431 156.233 254.093 155.851 254.536 155.319C254.795 155.006 255.014 154.664 255.218 154.31C257.169 150.162 260.403 146.199 265.028 145.053C269.462 143.981 274.04 145.666 278.344 146.792C279.845 147.222 281.339 147.672 282.819 148.143C283.959 148.504 285.105 148.893 286.23 149.268C286.367 149.309 286.49 149.33 286.626 149.316C287.035 149.282 287.199 148.832 287.486 148.457C287.663 148.218 287.833 147.925 287.649 147.638C286.64 146.512 285.719 145.298 284.927 143.968C283.856 142.242 282.785 140.475 281.237 139.179C280.561 138.606 279.831 138.094 279.095 137.603C276.803 136.082 274.422 134.458 271.686 133.926C265.581 133.032 258.561 135.284 254.195 139.616C251.398 142.46 249.638 146.471 250.006 150.496C250.143 152.939 251.337 155.135 251.671 157.543C251.773 158.498 251.753 159.931 252.878 160.081C253.233 160.176 253.793 160.17 253.82 159.692C253.786 158.798 253.492 157.878 253.465 156.991V156.943V156.957Z" fill="#023AB7"/>
<path d="M271.454 103.569C271.898 102.941 271.523 102.239 271.434 101.509C271.379 101.086 271.379 100.656 271.4 100.233C272.014 95.4578 271.386 90.1095 267.934 86.4803C264.612 83.0216 259.598 81.9369 255.143 80.4975C253.574 80.0336 251.992 79.5834 250.409 79.1673C249.195 78.8398 247.96 78.5397 246.746 78.2395C246.603 78.1986 246.48 78.1508 246.371 78.0621C246.023 77.8029 246.139 77.3049 246.091 76.8137C246.064 76.4999 246.084 76.1452 246.412 75.9951C247.94 75.5654 249.447 75.0128 250.9 74.276C252.824 73.3482 254.775 72.3932 256.876 72.1203C257.797 71.9907 258.732 71.9566 259.66 71.9361C262.552 71.8884 265.581 71.786 268.303 72.8639C274.217 75.5176 279.17 81.4799 280.596 87.7901C281.462 91.89 280.766 96.4401 278.167 99.8033C276.666 101.898 274.361 103.166 272.71 105.111C272.075 105.902 271.291 107.185 270.206 106.68C269.838 106.564 269.34 106.243 269.592 105.806C270.131 105.029 270.909 104.381 271.434 103.617L271.461 103.576L271.454 103.569Z" fill="#023AB7"/>
<path d="M182.852 36.5104C183.487 37.138 183.207 38.0248 183.248 38.8776C183.268 39.3756 183.357 39.8667 183.473 40.3511C185.165 45.7062 185.54 51.9686 182.334 56.8463C179.23 61.4987 173.704 63.784 168.881 66.3491C167.176 67.2086 165.457 68.0477 163.724 68.8527C162.394 69.4803 161.043 70.0806 159.713 70.6741C159.556 70.7559 159.426 70.831 159.317 70.9538C158.976 71.3222 159.208 71.8679 159.256 72.4409C159.29 72.8025 159.385 73.2118 159.795 73.3141C161.636 73.4847 163.485 73.8189 165.3 74.3579C167.701 75.0196 170.13 75.7222 172.606 75.5994C173.691 75.5585 174.768 75.4084 175.84 75.2379C179.169 74.699 182.668 74.1873 185.567 72.3864C191.809 68.1159 196.264 60.2572 196.598 52.719C196.748 47.8346 195.002 42.7523 191.325 39.4369C189.169 37.3426 186.263 36.3603 183.964 34.4707C183.077 33.693 181.911 32.3832 180.765 33.1882C180.369 33.3996 179.864 33.8703 180.24 34.3206C181.017 35.0983 182.047 35.6849 182.811 36.4558L182.852 36.4967V36.5104Z" fill="#023AB7"/>
<path d="M277.464 110.207C277.226 110.705 277.58 111.168 277.73 111.673C277.819 111.967 277.874 112.274 277.914 112.581C278.065 116.073 279.17 119.819 282.083 121.988C284.886 124.055 288.604 124.219 291.967 124.696C293.148 124.839 294.335 124.962 295.515 125.065C296.422 125.146 297.343 125.215 298.25 125.283C298.36 125.296 298.455 125.317 298.544 125.365C298.823 125.508 298.803 125.876 298.898 126.224C298.953 126.443 298.987 126.702 298.769 126.852C297.725 127.343 296.715 127.93 295.767 128.632C294.505 129.533 293.23 130.454 291.756 130.911C291.115 131.115 290.446 131.259 289.784 131.388C287.724 131.777 285.569 132.221 283.488 131.784C278.931 130.611 274.654 126.954 272.86 122.615C271.734 119.791 271.679 116.449 273.126 113.727C273.944 112.048 275.431 110.855 276.38 109.258C276.734 108.617 277.137 107.601 277.976 107.826C278.256 107.867 278.644 108.03 278.522 108.378C278.235 108.999 277.758 109.559 277.471 110.172L277.457 110.207H277.464Z" fill="#023AB7"/>
<path d="M197.922 160.818C198.311 160.347 198.058 159.76 198.031 159.174C198.01 158.832 198.038 158.491 198.085 158.15C198.877 154.378 198.713 150.08 196.196 146.963C193.76 143.995 189.831 142.808 186.372 141.382C185.151 140.912 183.917 140.454 182.682 140.025C181.734 139.69 180.772 139.37 179.817 139.049C179.707 139.008 179.612 138.96 179.523 138.885C179.264 138.654 179.387 138.272 179.38 137.876C179.38 137.623 179.414 137.344 179.687 137.241C180.935 136.996 182.17 136.648 183.378 136.157C184.974 135.543 186.584 134.895 188.282 134.813C189.026 134.765 189.77 134.799 190.513 134.84C192.826 134.983 195.248 135.093 197.349 136.129C201.899 138.619 205.473 143.688 206.21 148.811C206.647 152.14 205.794 155.722 203.509 158.239C202.179 159.815 200.262 160.681 198.822 162.127C198.27 162.714 197.56 163.69 196.728 163.219C196.441 163.103 196.066 162.816 196.291 162.482C196.769 161.895 197.431 161.432 197.901 160.852L197.929 160.818H197.922Z" fill="#023AB7"/>
<path d="M219.301 104.34C219.097 103.31 218.039 103.003 217.228 102.402C216.75 102.055 216.327 101.652 215.925 101.222C211.75 96.065 205.828 91.6104 198.931 91.5899C192.321 91.6104 186.468 95.5738 180.799 98.6437C178.841 99.7624 176.897 100.915 174.966 102.095C173.486 102.996 172.013 103.937 170.553 104.858C170.375 104.961 170.205 105.036 170.014 105.063C169.42 105.159 169.045 104.572 168.506 104.156C168.172 103.883 167.831 103.528 167.994 103.057C169.025 101.127 169.905 99.0939 170.553 96.9518C171.467 94.1549 172.36 91.3034 174.093 88.943C174.844 87.8993 175.689 86.9374 176.556 85.9892C179.257 83.0626 182.041 79.945 185.711 78.26C193.986 74.8901 204.641 75.6268 212.282 80.2179C217.194 83.2536 221.061 88.2881 221.935 94.073C222.59 97.559 221.669 101.065 222.03 104.565C222.214 105.943 222.746 107.949 221.212 108.556C220.748 108.808 219.956 108.999 219.752 108.337C219.492 107.069 219.588 105.67 219.322 104.415L219.308 104.347L219.301 104.34Z" fill="#023AB7"/>
<path d="M213.216 143.17C212.916 142.508 213.394 141.914 213.612 141.253C213.742 140.871 213.817 140.468 213.878 140.066C214.171 135.495 215.727 130.617 219.595 127.848C223.326 125.221 228.204 125.112 232.624 124.573C234.173 124.423 235.728 124.294 237.284 124.185C238.478 124.103 239.685 124.041 240.872 123.98C241.015 123.966 241.138 123.946 241.261 123.884C241.629 123.7 241.616 123.223 241.745 122.772C241.827 122.486 241.875 122.145 241.595 121.947C240.244 121.272 238.935 120.48 237.714 119.532C236.083 118.318 234.439 117.069 232.522 116.435C231.683 116.148 230.817 115.944 229.957 115.76C227.262 115.193 224.459 114.545 221.716 115.064C215.713 116.469 210.01 121.142 207.541 126.784C205.985 130.461 205.821 134.833 207.643 138.442C208.666 140.666 210.59 142.269 211.784 144.391C212.234 145.243 212.732 146.581 213.837 146.308C214.199 146.267 214.724 146.055 214.567 145.598C214.205 144.78 213.592 144.029 213.244 143.217L213.223 143.17H213.216Z" fill="#023AB7"/>
<path d="M235.831 131.743C236.765 131.805 237.263 130.972 237.966 130.413C238.375 130.085 238.819 129.813 239.276 129.567C244.651 127.166 249.829 123.114 251.425 117.206C252.919 111.537 250.866 105.609 249.529 100.049C249.017 98.1116 248.478 96.181 247.905 94.2641C247.469 92.7906 247.005 91.3102 246.548 89.8504C246.5 89.673 246.473 89.5161 246.493 89.3455C246.548 88.8202 247.135 88.6224 247.619 88.2609C247.933 88.0357 248.315 87.8243 248.676 88.0698C250.095 89.3933 251.637 90.6144 253.322 91.6581C255.512 93.0839 257.749 94.5028 259.38 96.5221C260.103 97.4021 260.73 98.3503 261.344 99.3122C263.234 102.3 265.267 105.397 265.874 108.924C266.87 116.79 263.8 125.747 258.111 131.245C254.379 134.758 249.188 136.921 244.031 136.348C240.893 136.109 238.102 134.52 235.019 134.028C233.791 133.872 231.956 133.865 231.785 132.412C231.676 131.955 231.697 131.232 232.311 131.211C233.464 131.279 234.637 131.682 235.769 131.743H235.831Z" fill="#023AB7"/>
<path d="M239.753 160.34C239.992 159.842 239.637 159.378 239.487 158.874C239.399 158.58 239.344 158.273 239.303 157.966C239.153 154.474 238.048 150.728 235.135 148.559C232.331 146.492 228.613 146.328 225.25 145.851C224.07 145.708 222.883 145.585 221.703 145.482C220.795 145.401 219.875 145.332 218.967 145.264C218.858 145.25 218.763 145.23 218.674 145.182C218.394 145.039 218.415 144.671 218.319 144.323C218.265 144.104 218.23 143.845 218.449 143.695C219.493 143.204 220.502 142.617 221.45 141.915C222.712 141.014 223.988 140.093 225.462 139.636C226.103 139.431 226.771 139.288 227.433 139.159C229.493 138.77 231.649 138.326 233.73 138.763C238.287 139.936 242.564 143.593 244.358 147.931C245.484 150.756 245.538 154.098 244.092 156.82C243.273 158.498 241.786 159.692 240.838 161.289C240.483 161.93 240.081 162.946 239.242 162.721C238.962 162.68 238.573 162.517 238.696 162.169C238.982 161.548 239.46 160.988 239.747 160.374L239.76 160.34H239.753Z" fill="#023AB7"/>
<path d="M170.443 135.366C170.205 135.864 170.559 136.327 170.709 136.832C170.798 137.126 170.853 137.433 170.894 137.74C171.044 141.232 172.149 144.977 175.062 147.147C177.866 149.214 181.583 149.378 184.947 149.855C186.127 149.998 187.314 150.121 188.494 150.223C189.401 150.305 190.322 150.374 191.23 150.442C191.339 150.455 191.434 150.476 191.523 150.524C191.803 150.667 191.782 151.035 191.878 151.383C191.932 151.601 191.966 151.861 191.748 152.011C190.704 152.502 189.695 153.089 188.746 153.791C187.484 154.692 186.209 155.613 184.735 156.07C184.094 156.274 183.425 156.418 182.764 156.547C180.703 156.936 178.548 157.38 176.467 156.943C171.91 155.77 167.633 152.113 165.839 147.774C164.713 144.95 164.658 141.607 166.105 138.886C166.923 137.207 168.41 136.014 169.359 134.417C169.713 133.776 170.116 132.76 170.955 132.985C171.235 133.026 171.624 133.189 171.501 133.537C171.214 134.158 170.737 134.717 170.45 135.331L170.437 135.366H170.443Z" fill="#023AB7"/>
<path d="M238.962 82.0803C238.416 82.3941 238.443 83.049 238.252 83.6288C238.143 83.9631 237.993 84.2837 237.83 84.5975C235.687 87.9471 234.275 92.1629 235.572 96.0923C236.84 99.8443 240.197 102.423 243.021 105.07C244.031 105.97 245.054 106.857 246.091 107.73C246.882 108.399 247.701 109.061 248.499 109.716C248.588 109.797 248.669 109.879 248.717 109.982C248.881 110.302 248.622 110.63 248.485 111.012C248.397 111.257 248.253 111.516 247.96 111.51C246.664 111.291 245.347 111.175 244.003 111.209C242.236 111.223 240.449 111.257 238.778 110.718C238.041 110.493 237.332 110.186 236.629 109.879C234.453 108.897 232.154 107.908 230.496 106.141C227.01 102.075 225.407 95.874 226.574 90.6622C227.372 87.2922 229.493 84.1405 232.624 82.5442C234.48 81.5072 236.649 81.3708 238.573 80.4976C239.324 80.1292 240.36 79.4471 240.995 80.2043C241.227 80.4226 241.486 80.8387 241.145 81.0775C240.47 81.4663 239.658 81.6778 238.996 82.0666L238.962 82.0871V82.0803Z" fill="#023AB7"/>
<path d="M316.656 37.6701C316.226 37.0902 315.489 37.2131 314.814 37.0834C314.418 37.0084 314.036 36.8856 313.661 36.7355C309.581 34.7777 304.629 33.768 300.372 35.7736C296.306 37.7179 293.857 41.8723 291.265 45.4265C290.385 46.6886 289.525 47.9711 288.679 49.2604C288.031 50.2496 287.397 51.2592 286.769 52.2552C286.687 52.3711 286.612 52.4667 286.496 52.5417C286.162 52.7736 285.753 52.528 285.303 52.4257C285.016 52.3575 284.702 52.2347 284.668 51.9004C284.736 50.4065 284.689 48.8988 284.457 47.3912C284.197 45.3992 283.918 43.38 284.293 41.4221C284.45 40.5626 284.689 39.7167 284.948 38.8776C285.753 36.2853 286.558 33.5497 288.325 31.435C292.438 26.9394 299.219 24.2789 305.27 24.8655C309.186 25.3021 313.04 27.2668 315.271 30.5754C316.697 32.5333 317.147 34.9618 318.402 37.0152C318.921 37.8134 319.835 38.8912 319.064 39.7098C318.852 40.0032 318.416 40.3511 318.102 40.0032C317.57 39.2937 317.222 38.4069 316.69 37.711L316.663 37.6769L316.656 37.6701Z" fill="#023AB7"/>
<path d="M235.578 -8.02923C235.565 -7.29929 234.882 -6.97185 234.398 -6.46704C234.118 -6.1737 233.873 -5.84625 233.648 -5.50516C231.424 -1.50074 227.924 2.23761 223.238 3.06988C218.742 3.84074 214.287 1.84877 210.065 0.429832C208.598 -0.10227 207.138 -0.648005 205.692 -1.22104C204.58 -1.65764 203.461 -2.12153 202.363 -2.5786C202.226 -2.62635 202.11 -2.66045 201.974 -2.65363C201.558 -2.65363 201.374 -2.2034 201.06 -1.85548C200.862 -1.63036 200.678 -1.34383 200.842 -1.05049C201.769 0.136505 202.608 1.419 203.311 2.79701C204.266 4.59115 205.214 6.42622 206.667 7.82469C207.302 8.44548 207.991 8.99806 208.693 9.5438C210.876 11.2152 213.141 13.0025 215.836 13.7119C221.866 15.0217 229.023 13.248 233.668 9.21635C236.649 6.56266 238.675 2.68787 238.587 -1.35065C238.621 -3.79969 237.57 -6.07137 237.4 -8.49994C237.359 -9.46181 237.482 -10.8876 236.37 -11.1127C236.022 -11.2287 235.462 -11.2628 235.401 -10.7921C235.374 -9.89841 235.606 -8.957 235.571 -8.07016V-8.02241L235.578 -8.02923Z" fill="#023AB7"/>
<path d="M215.12 41.8792C214.635 42.4727 214.963 43.2026 215.004 43.9326C215.031 44.3555 215.004 44.7853 214.949 45.2082C214.015 49.9289 214.281 55.3045 217.473 59.1589C220.557 62.8358 225.482 64.2616 229.834 65.9943C231.369 66.5674 232.918 67.1131 234.466 67.6452C235.66 68.0545 236.868 68.4365 238.055 68.8186C238.191 68.8731 238.314 68.9277 238.423 69.0232C238.75 69.3098 238.6 69.7941 238.614 70.2853C238.614 70.5991 238.573 70.9538 238.239 71.0834C236.683 71.404 235.142 71.8611 233.648 72.4955C231.663 73.2869 229.657 74.1123 227.535 74.2419C226.608 74.3102 225.673 74.2829 224.745 74.2419C221.86 74.0987 218.831 73.9895 216.184 72.7275C210.46 69.6781 205.924 63.3952 204.935 57.0032C204.348 52.8487 205.351 48.3599 208.175 45.181C209.812 43.1958 212.2 42.0838 213.98 40.2556C214.663 39.512 215.536 38.2841 216.586 38.8571C216.948 39.0004 217.419 39.3551 217.139 39.7712C216.552 40.508 215.727 41.1015 215.154 41.8314L215.126 41.8724L215.12 41.8792Z" fill="#023AB7"/>
<path d="M171.214 39.5189C170.621 38.8504 170.962 37.984 170.976 37.1313C170.989 36.6333 170.935 36.1353 170.853 35.6441C169.529 30.1866 169.577 23.9106 173.104 19.2649C176.515 14.8307 182.184 12.9274 187.164 10.6899C188.924 9.94629 190.697 9.23 192.478 8.541C193.842 8.00889 195.234 7.49724 196.605 6.99243C196.762 6.92421 196.905 6.85599 197.021 6.74002C197.39 6.39211 197.192 5.83273 197.185 5.2597C197.171 4.89132 197.11 4.482 196.707 4.35238C194.879 4.05222 193.065 3.60198 191.284 2.94026C188.931 2.11482 186.557 1.24846 184.08 1.20753C182.996 1.17342 181.911 1.25528 180.826 1.35078C177.47 1.66459 173.943 1.93747 170.921 3.53378C164.399 7.36764 159.426 14.9126 158.587 22.4098C158.11 27.2737 159.501 32.4583 162.946 36.0193C164.952 38.25 167.79 39.4302 169.952 41.4768C170.785 42.309 171.862 43.6939 173.056 42.9776C173.466 42.7934 173.998 42.3568 173.657 41.8861C172.933 41.0538 171.944 40.4057 171.242 39.5803L171.207 39.5325L171.214 39.5189Z" fill="#023AB7"/>
<path d="M199.975 40.2147C200.248 39.7304 199.927 39.246 199.805 38.7276C199.73 38.4274 199.702 38.1204 199.689 37.8066C199.777 34.3138 198.925 30.5004 196.169 28.1333C193.515 25.8821 189.811 25.4659 186.488 24.7633C185.322 24.545 184.149 24.3403 182.975 24.1561C182.075 24.0129 181.161 23.8833 180.26 23.7536C180.151 23.7332 180.062 23.7059 179.974 23.6513C179.701 23.4876 179.748 23.126 179.68 22.7713C179.639 22.5462 179.626 22.287 179.851 22.1573C180.922 21.7344 181.972 21.2228 182.962 20.5883C184.285 19.7765 185.615 18.9374 187.116 18.5895C187.771 18.4258 188.446 18.3303 189.115 18.2484C191.202 17.996 193.378 17.7027 195.425 18.2757C199.893 19.7561 203.911 23.6922 205.405 28.1401C206.333 31.0394 206.169 34.3752 204.539 36.9948C203.611 38.6184 202.042 39.7031 200.992 41.2312C200.596 41.8451 200.118 42.8343 199.3 42.5478C199.027 42.4932 198.645 42.2954 198.788 41.9611C199.116 41.3608 199.634 40.8355 199.955 40.242L199.968 40.2079L199.975 40.2147Z" fill="#023AB7"/>
<path d="M292.206 -7.63355C291.872 -7.0264 292.281 -6.41926 292.438 -5.77119C292.534 -5.39599 292.575 -5.00714 292.602 -4.6183C292.534 -0.231865 293.653 4.54342 297.138 7.4768C300.502 10.2669 305.154 10.7445 309.329 11.5835C310.803 11.8428 312.276 12.0884 313.75 12.3066C314.882 12.4772 316.028 12.6273 317.161 12.7774C317.297 12.8046 317.413 12.8319 317.522 12.9001C317.863 13.1048 317.809 13.5619 317.904 13.9985C317.959 14.2782 317.979 14.6056 317.699 14.7761C316.356 15.3151 315.053 15.9768 313.811 16.7886C312.16 17.8255 310.496 18.8897 308.62 19.3536C307.801 19.5651 306.955 19.6947 306.116 19.8107C303.503 20.1517 300.774 20.5542 298.196 19.8516C292.568 18.0506 287.472 13.1594 285.541 7.59276C284.334 3.97038 284.504 -0.225039 286.517 -3.5268C287.663 -5.57335 289.614 -6.95818 290.917 -8.88876C291.408 -9.66645 291.988 -10.908 293.025 -10.5669C293.373 -10.4987 293.85 -10.2599 293.673 -9.83699C293.264 -9.07977 292.629 -8.41124 292.227 -7.66084L292.206 -7.6199V-7.63355Z" fill="#023AB7"/>
<path d="M267.204 44.6489C267.334 45.6926 268.371 46.0678 269.142 46.7227C269.592 47.1047 269.988 47.5345 270.363 47.9916C274.176 53.4217 279.791 58.2652 286.667 58.7564C293.264 59.1794 299.376 55.6252 305.236 52.9442C307.269 51.9619 309.288 50.9454 311.287 49.8949C312.829 49.0967 314.364 48.2576 315.878 47.439C316.062 47.3503 316.233 47.2821 316.431 47.2684C317.024 47.2139 317.365 47.821 317.87 48.2781C318.191 48.5714 318.498 48.9534 318.307 49.4105C317.147 51.266 316.131 53.2307 315.339 55.3318C314.241 58.0606 313.156 60.8507 311.267 63.0883C310.448 64.0774 309.534 64.9847 308.606 65.8716C305.714 68.6139 302.726 71.5269 298.953 72.9663C290.467 75.77 279.886 74.3102 272.573 69.2143C267.88 65.8511 264.36 60.571 263.882 54.7384C263.466 51.2183 264.626 47.7801 264.496 44.26C264.407 42.8684 264.012 40.8355 265.588 40.3375C266.072 40.1123 266.87 39.9827 267.027 40.6581C267.204 41.9474 267.013 43.3322 267.191 44.6011L267.204 44.6693V44.6489Z" fill="#023AB7"/>
<path d="M275.902 6.31713C276.155 6.99932 275.643 7.5587 275.377 8.20677C275.22 8.58197 275.118 8.97765 275.036 9.37332C274.435 13.9167 272.553 18.6715 268.5 21.1751C264.605 23.5422 259.728 23.3239 255.28 23.5559C253.724 23.6036 252.162 23.6241 250.6 23.6241C249.406 23.6241 248.199 23.6036 247.005 23.59C246.862 23.59 246.739 23.6105 246.616 23.6582C246.234 23.8151 246.22 24.2926 246.057 24.7361C245.954 25.0158 245.886 25.35 246.152 25.5683C247.455 26.3324 248.704 27.2124 249.863 28.2425C251.412 29.5591 252.96 30.9166 254.836 31.6807C255.655 32.0286 256.501 32.2878 257.354 32.5334C260 33.2838 262.763 34.1161 265.526 33.7886C271.611 32.7926 277.621 28.5154 280.466 23.0579C282.267 19.4969 282.731 15.1446 281.155 11.4199C280.282 9.12773 278.474 7.4018 277.43 5.20517C277.041 4.32516 276.632 2.95396 275.513 3.1518C275.145 3.17226 274.613 3.34282 274.736 3.80671C275.043 4.65261 275.602 5.43711 275.895 6.26938L275.909 6.31713H275.902Z" fill="#023AB7"/>
<path d="M252.571 16.1883C251.644 16.0655 251.091 16.8636 250.354 17.3753C249.925 17.6754 249.461 17.9142 248.99 18.1325C243.464 20.1586 238.027 23.856 236.035 29.6409C234.159 35.1939 235.81 41.2448 236.765 46.8865C237.147 48.8512 237.557 50.8158 237.993 52.7737C238.327 54.2745 238.696 55.7821 239.051 57.2693C239.085 57.4467 239.105 57.6104 239.071 57.7809C238.982 58.3062 238.382 58.4563 237.877 58.7837C237.55 58.9884 237.154 59.1726 236.806 58.8997C235.483 57.4808 234.03 56.1642 232.413 55.0044C230.325 53.4354 228.183 51.8664 226.703 49.738C226.041 48.8102 225.475 47.8211 224.929 46.8251C223.244 43.7143 221.43 40.4876 221.061 36.9266C220.604 29.0133 224.275 20.2813 230.319 15.1786C234.275 11.9246 239.603 10.1168 244.713 11.0446C247.83 11.4948 250.504 13.2753 253.547 13.9712C254.761 14.2099 256.596 14.3395 256.658 15.7994C256.74 16.2633 256.671 16.9796 256.057 16.9591C254.911 16.8159 253.772 16.3315 252.64 16.1951H252.578L252.571 16.1883Z" fill="#023AB7"/>
<path d="M250.593 -12.6136C250.32 -12.1292 250.641 -11.6449 250.764 -11.1264C250.839 -10.8263 250.866 -10.5193 250.88 -10.2055C250.791 -6.71269 251.644 -2.89929 254.4 -0.532117C257.054 1.71909 260.758 2.13522 264.08 2.83787C265.247 3.05617 266.42 3.26083 267.593 3.44502C268.494 3.58828 269.408 3.71789 270.308 3.84751C270.417 3.86797 270.506 3.89525 270.595 3.94983C270.868 4.11355 270.82 4.47511 270.888 4.82985C270.929 5.05497 270.943 5.31419 270.718 5.44381C269.647 5.86676 268.596 6.37839 267.607 7.01282C266.283 7.82462 264.953 8.66372 263.452 9.01163C262.798 9.17536 262.122 9.27086 261.454 9.35272C259.366 9.60513 257.19 9.89846 255.143 9.32543C250.675 7.84509 246.657 3.90891 245.163 -0.538924C244.235 -3.4382 244.399 -6.77408 246.029 -9.39366C246.957 -11.0173 248.526 -12.1019 249.577 -13.63C249.972 -14.244 250.45 -15.2331 251.269 -14.9466C251.541 -14.8921 251.924 -14.6942 251.78 -14.3599C251.453 -13.7596 250.934 -13.2343 250.614 -12.6408L250.6 -12.6067L250.593 -12.6136Z" fill="#023AB7"/>
<path d="M246.084 65.5237C246.65 65.2508 246.671 64.5891 246.896 64.0297C247.025 63.7023 247.196 63.3953 247.387 63.0951C249.747 59.8957 251.446 55.7889 250.416 51.7845C249.406 47.9575 246.227 45.1537 243.587 42.3227C242.639 41.354 241.684 40.3989 240.708 39.4575C239.965 38.7344 239.194 38.0181 238.437 37.3154C238.355 37.2268 238.28 37.1449 238.232 37.0357C238.089 36.7083 238.368 36.4013 238.532 36.0261C238.641 35.7873 238.798 35.5418 239.091 35.5622C240.367 35.8692 241.677 36.0739 243.021 36.1285C244.781 36.2376 246.575 36.3263 248.205 36.9744C248.922 37.254 249.611 37.602 250.293 37.9567C252.401 39.0823 254.625 40.2284 256.16 42.1044C259.359 46.3953 260.539 52.6918 259.025 57.815C258.002 61.1236 255.669 64.1252 252.442 65.5032C250.518 66.4105 248.342 66.4037 246.37 67.1405C245.6 67.4543 244.515 68.0682 243.935 67.2633C243.717 67.0313 243.492 66.6015 243.839 66.3832C244.535 66.0421 245.361 65.8853 246.05 65.5442L246.084 65.5237Z" fill="#023AB7"/>
<path d="M327.155 85.73C326.316 85.2184 325.442 85.7573 324.521 85.9415C323.982 86.0506 323.437 86.0916 322.884 86.0984C316.704 85.7436 309.909 87.0261 305.563 91.7741C301.429 96.3447 300.481 102.873 299.042 108.713C298.585 110.766 298.155 112.833 297.759 114.9C297.452 116.49 297.173 118.093 296.893 119.682C296.852 119.866 296.797 120.03 296.702 120.18C296.395 120.651 295.754 120.542 295.133 120.651C294.73 120.712 294.273 120.719 294.055 120.317C293.373 118.393 292.52 116.51 291.449 114.716C290.092 112.328 288.686 109.92 288.147 107.246C287.895 106.073 287.765 104.879 287.656 103.692C287.336 99.9876 286.933 96.1128 288.072 92.5245C290.944 84.6999 298.141 77.8098 306.109 75.4222C311.294 73.9419 317.188 74.4331 321.731 77.4619C324.549 79.2015 326.384 82.0394 329.031 83.9836C330.102 84.7204 331.814 85.614 331.268 87.0534C331.152 87.5378 330.784 88.1995 330.204 87.9198C329.16 87.299 328.26 86.3576 327.23 85.7505L327.175 85.7164L327.155 85.73Z" fill="#023AB7"/>
<path d="M298.98 157.209C298.728 156.527 299.24 155.967 299.506 155.319C299.663 154.944 299.765 154.548 299.847 154.153C300.447 149.609 302.33 144.855 306.382 142.351C310.277 139.984 315.155 140.202 319.603 139.97C321.158 139.922 322.72 139.902 324.283 139.902C325.476 139.902 326.684 139.922 327.878 139.936C328.021 139.936 328.144 139.916 328.267 139.868C328.649 139.711 328.662 139.233 328.826 138.79C328.928 138.51 328.997 138.176 328.731 137.958C327.428 137.194 326.179 136.314 325.019 135.284C323.471 133.967 321.922 132.609 320.046 131.845C319.228 131.497 318.382 131.238 317.529 130.993C314.882 130.242 312.119 129.41 309.356 129.737C303.271 130.733 297.261 135.011 294.417 140.468C292.616 144.029 292.152 148.381 293.728 152.106C294.601 154.398 296.409 156.124 297.452 158.321C297.841 159.201 298.251 160.572 299.369 160.374C299.738 160.354 300.27 160.183 300.147 159.719C299.84 158.873 299.281 158.089 298.987 157.257L298.974 157.209H298.98Z" fill="#023AB7"/>
<path d="M187.232 165.648C186.911 166.268 186.175 166.268 185.54 166.5C185.172 166.637 184.824 166.814 184.483 167.012C180.84 169.536 176.208 171.282 171.781 170C167.551 168.745 164.536 165.109 161.48 162.08C160.436 160.995 159.406 159.89 158.389 158.771C157.612 157.919 156.841 157.039 156.077 156.172C155.981 156.077 155.893 155.995 155.77 155.94C155.408 155.77 155.054 156.07 154.631 156.24C154.364 156.35 154.078 156.52 154.098 156.848C154.399 158.28 154.576 159.747 154.596 161.241C154.658 163.205 154.692 165.204 155.36 167.039C155.647 167.851 156.009 168.629 156.384 169.393C157.564 171.78 158.765 174.291 160.797 176.065C165.47 179.776 172.436 181.304 178.193 179.789C181.911 178.766 185.336 176.262 186.98 172.722C188.051 170.614 188.119 168.192 189.006 166.016C189.381 165.163 190.097 163.983 189.231 163.308C188.978 163.055 188.508 162.789 188.255 163.178C187.846 163.942 187.648 164.856 187.246 165.614L187.225 165.654L187.232 165.648Z" fill="#023AB7"/>
<path d="M270.704 152.563C270.97 153.211 270.492 153.771 270.254 154.405C270.117 154.774 270.028 155.156 269.96 155.544C269.517 159.951 267.846 164.611 264.005 167.155C260.307 169.563 255.587 169.502 251.296 169.863C249.788 169.959 248.281 170.027 246.773 170.075C245.613 170.116 244.447 170.129 243.294 170.15C243.157 170.157 243.035 170.177 242.919 170.232C242.55 170.396 242.557 170.859 242.407 171.289C242.318 171.562 242.264 171.889 242.523 172.087C243.805 172.79 245.04 173.602 246.186 174.557C247.721 175.785 249.263 177.054 251.098 177.736C251.896 178.043 252.728 178.268 253.554 178.479C256.139 179.127 258.827 179.844 261.494 179.441C267.348 178.288 273.03 173.977 275.609 168.608C277.239 165.109 277.553 160.886 275.923 157.339C275.008 155.149 273.207 153.532 272.13 151.444C271.727 150.605 271.291 149.296 270.213 149.521C269.858 149.548 269.346 149.732 269.476 150.176C269.797 150.981 270.363 151.724 270.677 152.522L270.69 152.563H270.704Z" fill="#023AB7"/>
<path d="M-2.04661 156.956C-2.08072 156.233 -1.41901 155.851 -0.975587 155.319C-0.716358 155.005 -0.498059 154.664 -0.293404 154.31C1.65764 150.162 4.89119 146.198 9.51639 145.052C13.9506 143.981 18.528 145.666 22.8326 146.792C24.3334 147.222 25.8274 147.672 27.3077 148.143C28.447 148.504 29.593 148.893 30.7186 149.268C30.8551 149.309 30.9779 149.33 31.1143 149.316C31.5236 149.282 31.6873 148.832 31.9739 148.456C32.1512 148.218 32.3218 147.924 32.1376 147.638C31.128 146.512 30.207 145.298 29.4157 143.968C28.3446 142.242 27.2736 140.475 25.7251 139.179C25.0497 138.606 24.3198 138.094 23.583 137.603C21.2909 136.082 18.91 134.458 16.1745 133.926C10.069 133.032 3.04929 135.284 -1.31668 139.615C-4.11363 142.46 -5.87366 146.471 -5.50528 150.496C-5.36885 152.938 -4.17502 155.135 -3.84075 157.543C-3.73843 158.498 -3.75889 159.931 -2.63329 160.081C-2.27855 160.176 -1.71917 160.17 -1.69188 159.692C-1.72599 158.798 -2.01932 157.877 -2.04661 156.991V156.943V156.956Z" fill="#023AB7"/>
<path d="M15.9426 103.569C16.386 102.941 16.0108 102.239 15.9221 101.509C15.8676 101.086 15.8676 100.656 15.888 100.233C16.502 95.4578 15.8744 90.1095 12.4225 86.4803C9.10031 83.0216 4.08626 81.9369 -0.36839 80.4975C-1.93741 80.0336 -3.52008 79.5834 -5.10274 79.1673C-6.31703 78.8398 -7.55178 78.5397 -8.76606 78.2395C-8.90932 78.1986 -9.03211 78.1508 -9.14126 78.0621C-9.48918 77.8029 -9.37321 77.3049 -9.42096 76.8137C-9.44825 76.4999 -9.42778 76.1452 -9.10033 75.9951C-7.57224 75.5654 -6.06462 75.0128 -4.61157 74.276C-2.68781 73.3482 -0.736763 72.3932 1.36436 72.1203C2.28531 71.9907 3.21989 71.9566 4.14766 71.9361C7.04011 71.8884 10.069 71.786 12.7909 72.8639C18.7055 75.5176 23.6581 81.4799 25.0839 87.7901C25.9502 91.89 25.2544 96.4401 22.6553 99.8033C21.1545 101.898 18.8487 103.166 17.1978 105.111C16.5634 105.902 15.7789 107.185 14.6942 106.68C14.3258 106.564 13.8278 106.243 14.0802 105.806C14.6192 105.029 15.3969 104.381 15.9221 103.617L15.9494 103.576L15.9426 103.569Z" fill="#023AB7"/>
<path d="M21.9527 110.207C21.7139 110.705 22.0686 111.168 22.2187 111.673C22.3074 111.967 22.362 112.274 22.4029 112.581C22.553 116.073 23.6581 119.819 26.5711 121.988C29.3748 124.055 33.0927 124.219 36.4559 124.696C37.6361 124.839 38.8231 124.962 40.0032 125.065C40.9105 125.146 41.8315 125.215 42.7388 125.283C42.8479 125.296 42.9434 125.317 43.0321 125.365C43.3118 125.508 43.2914 125.876 43.3869 126.224C43.4414 126.443 43.4755 126.702 43.2572 126.852C42.2135 127.343 41.2039 127.93 40.2556 128.632C38.9936 129.533 37.7179 130.454 36.2444 130.911C35.6032 131.115 34.9346 131.259 34.2729 131.388C32.2127 131.777 30.057 132.221 27.9764 131.784C23.4194 130.611 19.1421 126.954 17.3479 122.615C16.2223 119.791 16.1678 116.449 17.614 113.727C18.4326 112.048 19.9198 110.855 20.868 109.258C21.2227 108.617 21.6252 107.601 22.4643 107.826C22.744 107.867 23.1329 108.03 23.0101 108.378C22.7235 108.999 22.246 109.559 21.9595 110.172L21.9459 110.207H21.9527Z" fill="#023AB7"/>
<path d="M-19.6878 131.743C-18.7532 131.805 -18.2552 130.972 -17.5526 130.413C-17.1433 130.085 -16.6999 129.813 -16.2428 129.567C-10.8672 127.166 -5.68942 123.114 -4.09311 117.206C-2.59913 111.537 -4.65251 105.609 -5.98959 100.049C-6.50122 98.1116 -7.04014 96.181 -7.61318 94.2641C-8.04977 92.7906 -8.51366 91.3102 -8.97072 89.8504C-9.01848 89.673 -9.04576 89.5161 -9.0253 89.3455C-8.97073 88.8202 -8.38404 88.6224 -7.89969 88.2609C-7.58589 88.0357 -7.20387 87.8243 -6.84232 88.0698C-5.42337 89.3933 -3.88163 90.6144 -2.19664 91.6581C-0.00683212 93.0839 2.23072 94.5028 3.86114 96.5221C4.58425 97.4021 5.21186 98.3503 5.82583 99.3122C7.71548 102.3 9.74838 105.397 10.3555 108.924C11.3515 116.79 8.28168 125.747 2.59228 131.245C-1.13927 134.758 -6.33067 136.921 -11.488 136.348C-14.626 136.109 -17.4161 134.52 -20.4996 134.028C-21.7275 133.872 -23.5626 133.865 -23.7332 132.412C-23.8423 131.955 -23.8218 131.232 -23.2079 131.211C-22.055 131.279 -20.8816 131.682 -19.7492 131.743H-19.6878Z" fill="#023AB7"/>
<path d="M61.1441 37.6701C60.7144 37.0902 59.9776 37.2131 59.3022 37.0834C58.9066 37.0084 58.5245 36.8856 58.1493 36.7355C54.0699 34.7777 49.1172 33.768 44.8604 35.7736C40.7946 37.7179 38.3456 41.8723 35.7533 45.4265C34.8733 46.6886 34.0137 47.9711 33.1678 49.2604C32.5197 50.2496 31.8853 51.2592 31.2577 52.2552C31.1758 52.3711 31.1008 52.4667 30.9848 52.5417C30.6506 52.7736 30.2412 52.528 29.791 52.4257C29.5045 52.3575 29.1907 52.2347 29.1566 51.9004C29.2248 50.4065 29.177 48.8988 28.9451 47.3912C28.6859 45.3992 28.4062 43.38 28.7814 41.4221C28.9383 40.5626 29.177 39.7167 29.4363 38.8776C30.2412 36.2853 31.0462 33.5497 32.8131 31.435C36.9266 26.9394 43.7075 24.2789 49.7585 24.8655C53.6742 25.3021 57.5286 27.2668 59.7593 30.5754C61.1851 32.5333 61.6353 34.9618 62.8905 37.0152C63.409 37.8134 64.3231 38.8912 63.5522 39.7098C63.3408 40.0032 62.9042 40.3511 62.5904 40.0032C62.0583 39.2937 61.7103 38.4069 61.1782 37.711L61.151 37.6769L61.1441 37.6701Z" fill="#023AB7"/>
<path d="M36.6879 -7.63355C36.3536 -7.0264 36.7629 -6.41926 36.9198 -5.77119C37.0153 -5.39599 37.0562 -5.00714 37.0835 -4.6183C37.0153 -0.231865 38.1341 4.54342 41.62 7.4768C44.9832 10.2669 49.6357 10.7445 53.8106 11.5835C55.2842 11.8428 56.7577 12.0884 58.2312 12.3066C59.3636 12.4772 60.5097 12.6273 61.6421 12.7774C61.7786 12.8046 61.8945 12.8319 62.0037 12.9001C62.3448 13.1048 62.2902 13.5619 62.3857 13.9985C62.4403 14.2782 62.4607 14.6056 62.181 14.7761C60.8371 15.3151 59.5342 15.9768 58.2926 16.7886C56.6417 17.8255 54.9772 18.8897 53.1012 19.3536C52.2826 19.5651 51.4367 19.6947 50.5976 19.8107C47.9848 20.1517 45.2561 20.5542 42.6774 19.8516C37.0494 18.0506 31.9535 13.1594 30.0229 7.59276C28.8155 3.97038 28.986 -0.225039 30.9984 -3.5268C32.1445 -5.57335 34.0956 -6.95818 35.3985 -8.88876C35.8897 -9.66645 36.4696 -10.908 37.5065 -10.5669C37.8544 -10.4987 38.3319 -10.2599 38.1545 -9.83699C37.7452 -9.07977 37.1108 -8.41124 36.7083 -7.66084L36.6879 -7.6199V-7.63355Z" fill="#023AB7"/>
<path d="M11.6926 44.6489C11.8222 45.6926 12.8592 46.0678 13.63 46.7227C14.0803 47.1047 14.4759 47.5345 14.8511 47.9916C18.6645 53.4217 24.2789 58.2652 31.1553 58.7564C37.752 59.1794 43.8644 55.6252 49.7243 52.9442C51.7572 51.9619 53.7765 50.9454 55.7753 49.8949C57.317 49.0967 58.8519 48.2576 60.3664 47.439C60.5506 47.3503 60.7211 47.2821 60.9189 47.2684C61.5124 47.2139 61.8535 47.821 62.3583 48.2781C62.679 48.5714 62.986 48.9534 62.7949 49.4105C61.6352 51.266 60.6188 53.2307 59.8275 55.3318C58.7291 58.0606 57.6445 60.8507 55.7548 63.0883C54.9362 64.0774 54.0221 64.9847 53.0943 65.8716C50.2018 68.6139 47.2139 71.5269 43.4414 72.9663C34.9551 75.77 24.3744 74.3102 17.0614 69.2143C12.368 65.8511 8.84791 60.571 8.37038 54.7384C7.95425 51.2183 9.11397 47.7801 8.98436 44.26C8.89567 42.8684 8.5 40.8355 10.0758 40.3375C10.5602 40.1123 11.3583 39.9827 11.5152 40.6581C11.6926 41.9474 11.5016 43.3322 11.679 44.6011L11.6926 44.6693V44.6489Z" fill="#023AB7"/>
<path d="M20.3904 6.3171C20.6428 6.99929 20.1312 7.55867 19.8651 8.20674C19.7082 8.58194 19.6059 8.97762 19.5241 9.37329C18.9237 13.9166 17.0409 18.6714 12.9887 21.175C9.09348 23.5422 4.21587 23.3239 -0.231967 23.5559C-1.78734 23.6036 -3.34954 23.6241 -4.91174 23.6241C-6.10556 23.6241 -7.31302 23.6036 -8.50684 23.59C-8.6501 23.59 -8.7729 23.6104 -8.89569 23.6582C-9.27771 23.8151 -9.29135 24.2926 -9.45507 24.736C-9.5574 25.0157 -9.62562 25.35 -9.35957 25.5683C-8.0566 26.3323 -6.80821 27.2124 -5.6485 28.2425C-4.09995 29.5591 -2.55138 30.9166 -0.675382 31.6806C0.143238 32.0286 0.989145 32.2878 1.84187 32.5334C4.48874 33.2838 7.25158 34.116 10.0144 33.7886C16.0995 32.7926 22.1095 28.5153 24.9542 23.0579C26.7552 19.4969 27.2191 15.1446 25.6432 11.4198C24.77 9.1277 22.9623 7.40177 21.9185 5.20514C21.5297 4.32513 21.1204 2.95393 20.0016 3.15177C19.6332 3.17223 19.1011 3.34279 19.2239 3.80668C19.5309 4.65258 20.0903 5.43708 20.3836 6.26935L20.3973 6.3171H20.3904Z" fill="#023AB7"/>
<path d="M-2.94035 16.1882C-3.86812 16.0654 -4.42069 16.8636 -5.15744 17.3752C-5.58722 17.6754 -6.05111 17.9141 -6.52181 18.1324C-12.0475 20.1585 -17.4845 23.8559 -19.4765 29.6408C-21.3525 35.1938 -19.7016 41.2448 -18.7465 46.8864C-18.3645 48.8511 -17.9552 50.8158 -17.5186 52.7737C-17.1843 54.2745 -16.8159 55.7821 -16.4612 57.2692C-16.4271 57.4466 -16.4066 57.6103 -16.4407 57.7809C-16.5294 58.3061 -17.1298 58.4562 -17.6346 58.7837C-17.962 58.9883 -18.3577 59.1725 -18.7056 58.8996C-20.029 57.4807 -21.4821 56.1641 -23.0989 55.0044C-25.1863 53.4354 -27.3284 51.8663 -28.8087 49.7379C-29.4704 48.8102 -30.0367 47.821 -30.5824 46.825C-32.2674 43.7143 -34.082 40.4875 -34.4504 36.9265C-34.9074 29.0132 -31.2373 20.2813 -25.1932 15.1786C-21.2365 11.9246 -15.9086 10.1168 -10.7991 11.0445C-7.68152 11.4948 -5.00736 13.2753 -1.96482 13.9711C-0.750538 14.2099 1.08453 14.3395 1.14593 15.7994C1.22779 16.2632 1.15957 16.9795 0.545605 16.9591C-0.60046 16.8158 -1.7397 16.3315 -2.87213 16.195H-2.93352L-2.94035 16.1882Z" fill="#023AB7"/>
<path d="M-4.91847 -12.6136C-5.19135 -12.1292 -4.87072 -11.6449 -4.74793 -11.1264C-4.67289 -10.8263 -4.6456 -10.5193 -4.63196 -10.2055C-4.72064 -6.71269 -3.86791 -2.89929 -1.11189 -0.532117C1.5418 1.71909 5.24606 2.13522 8.56829 2.83787C9.73482 3.05617 10.9082 3.26083 12.0815 3.44502C12.982 3.58828 13.8961 3.71789 14.7966 3.84751C14.9058 3.86797 14.9945 3.89525 15.0831 3.94983C15.356 4.11355 15.3083 4.47511 15.3765 4.82985C15.4174 5.05497 15.431 5.31419 15.2059 5.44381C14.1349 5.86676 13.0843 6.37839 12.0952 7.01282C10.7717 7.82462 9.44148 8.66372 7.94068 9.01163C7.28579 9.17536 6.61042 9.27086 5.94188 9.35272C3.8544 9.60513 1.67824 9.89846 -0.368314 9.32543C-4.83661 7.84509 -8.85467 3.90891 -10.3487 -0.538924C-11.2764 -3.4382 -11.1127 -6.77408 -9.48228 -9.39366C-8.55451 -11.0173 -6.98549 -12.1019 -5.93493 -13.63C-5.53926 -14.244 -5.06173 -15.2331 -4.24311 -14.9466C-3.97024 -14.8921 -3.58821 -14.6942 -3.73147 -14.3599C-4.05892 -13.7596 -4.57738 -13.2343 -4.89801 -12.6408L-4.91166 -12.6067L-4.91847 -12.6136Z" fill="#023AB7"/>
<path d="M-9.42785 65.5236C-8.86164 65.2507 -8.84117 64.589 -8.61605 64.0296C-8.48644 63.7021 -8.31589 63.3952 -8.12488 63.095C-5.76453 59.8956 -4.06589 55.7888 -5.09598 51.7844C-6.10562 47.9574 -9.28459 45.1536 -11.9246 42.3225C-12.8729 41.3538 -13.8279 40.3988 -14.8035 39.4574C-15.547 38.7343 -16.3179 38.018 -17.0751 37.3153C-17.157 37.2266 -17.232 37.1448 -17.2798 37.0356C-17.423 36.7082 -17.1433 36.4012 -16.9796 36.026C-16.8705 35.7872 -16.7136 35.5416 -16.4202 35.5621C-15.1445 35.8691 -13.8348 36.0738 -12.4909 36.1283C-10.7308 36.2375 -8.93668 36.3262 -7.30626 36.9742C-6.58997 37.2539 -5.90097 37.6018 -5.21878 37.9566C-3.11084 39.0822 -0.886917 40.2282 0.647995 42.1042C3.84743 46.3952 5.02761 52.6917 3.51316 57.8149C2.48989 61.1235 0.156826 64.1251 -3.0699 65.5031C-4.99366 66.4104 -7.16983 66.4036 -9.14133 67.1403C-9.9122 67.4542 -10.9969 68.0681 -11.5767 67.2631C-11.795 67.0312 -12.0201 66.6014 -11.6722 66.3831C-10.9764 66.042 -10.151 65.8851 -9.46196 65.544L-9.42785 65.5236Z" fill="#023AB7"/>
<path d="M145.052 52.1801C144.718 51.5457 143.968 51.5525 143.32 51.3206C142.945 51.1841 142.583 51.0067 142.235 50.8021C138.497 48.2507 133.756 46.4975 129.246 47.8346C124.935 49.1444 121.879 52.8759 118.782 55.9935C117.717 57.1123 116.674 58.2447 115.65 59.3908C114.859 60.2708 114.081 61.1713 113.31 62.0581C113.215 62.1604 113.119 62.2423 113.003 62.2969C112.635 62.4742 112.274 62.1673 111.844 61.9967C111.571 61.8876 111.278 61.717 111.291 61.3827C111.585 59.9229 111.762 58.4221 111.769 56.894C111.816 54.8884 111.844 52.8487 112.512 50.9658C112.799 50.1404 113.167 49.3422 113.542 48.5509C114.736 46.1087 115.944 43.53 118.011 41.7086C122.759 37.8884 129.86 36.2853 135.754 37.7861C139.561 38.8093 143.067 41.3402 144.773 44.949C145.885 47.0978 145.967 49.5673 146.888 51.7844C147.276 52.6508 148.02 53.8583 147.133 54.5473C146.881 54.8065 146.396 55.0794 146.137 54.6905C145.714 53.9128 145.51 52.9783 145.087 52.2142L145.059 52.1733L145.052 52.1801Z" fill="#023AB7"/>
<path d="M71.6428 85.7299C70.8038 85.2182 69.9306 85.7572 69.0096 85.9413C68.4707 86.0505 67.925 86.0914 67.3724 86.0983C61.1918 85.7435 54.3973 87.026 50.0518 91.774C45.9177 96.3446 44.9695 102.873 43.5301 108.713C43.073 110.766 42.6432 112.833 42.2476 114.9C41.9406 116.489 41.6609 118.093 41.3812 119.682C41.3403 119.866 41.2857 120.03 41.1902 120.18C40.8832 120.651 40.242 120.542 39.6212 120.651C39.2187 120.712 38.7616 120.719 38.5433 120.317C37.8611 118.393 37.0084 116.51 35.9374 114.716C34.5798 112.328 33.1745 109.92 32.6356 107.246C32.3832 106.073 32.2536 104.879 32.1445 103.692C31.8238 99.9875 31.4213 96.1127 32.5606 92.5244C35.4326 84.6998 42.6296 77.8097 50.5975 75.4221C55.7821 73.9417 61.6762 74.4329 66.2195 77.4618C69.0369 79.2014 70.872 82.0393 73.5189 83.9835C74.5899 84.7202 76.3022 85.6139 75.7564 87.0533C75.6404 87.5377 75.2721 88.1994 74.6922 87.9197C73.6485 87.2989 72.748 86.3575 71.7179 85.7503L71.6633 85.7162L71.6428 85.7299Z" fill="#023AB7"/>
<path d="M136.512 127.016C135.877 126.388 136.157 125.501 136.116 124.648C136.095 124.15 136.007 123.659 135.891 123.175C134.199 117.82 133.824 111.557 137.03 106.68C140.134 102.027 145.66 99.742 150.483 97.177C152.188 96.3175 153.907 95.4784 155.64 94.6734C156.97 94.0458 158.321 93.4455 159.651 92.852C159.808 92.7701 159.938 92.6951 160.047 92.5723C160.388 92.2039 160.156 91.6582 160.108 91.0851C160.074 90.7236 159.979 90.3143 159.569 90.2119C157.727 90.0414 155.879 89.7071 154.064 89.1682C151.663 88.5065 149.234 87.8038 146.758 87.9266C145.673 87.9675 144.595 88.1176 143.524 88.2882C140.195 88.8271 136.696 89.3387 133.797 91.1397C127.555 95.4102 123.1 103.269 122.766 110.807C122.616 115.691 124.362 120.774 128.039 124.089C130.195 126.183 133.101 127.166 135.4 129.055C136.286 129.833 137.453 131.143 138.599 130.338C138.995 130.126 139.5 129.656 139.124 129.205C138.347 128.428 137.317 127.841 136.553 127.07L136.512 127.029V127.016Z" fill="#023AB7"/>
<path d="M89.3933 20.4655C89.1272 19.9061 89.5229 19.3945 89.6934 18.8214C89.7957 18.494 89.8571 18.1461 89.8981 17.805C90.0618 13.9029 91.3034 9.72113 94.5506 7.29256C97.6818 4.98678 101.836 4.80259 105.595 4.27049C106.919 4.11359 108.235 3.97716 109.559 3.85437C110.575 3.75886 111.605 3.69064 112.615 3.6156C112.738 3.60196 112.84 3.58149 112.942 3.52691C113.256 3.36319 113.229 2.95389 113.338 2.57186C113.399 2.32628 113.433 2.03976 113.195 1.86922C112.028 1.31665 110.902 0.668571 109.845 -0.115938C108.433 -1.11875 107.007 -2.15567 105.363 -2.66049C104.647 -2.89243 103.903 -3.04933 103.16 -3.19259C100.854 -3.62919 98.4458 -4.12718 96.1196 -3.636C91.0237 -2.32621 86.2484 1.76005 84.2428 6.61037C82.9876 9.76888 82.9193 13.5004 84.5361 16.543C85.4502 18.419 87.1148 19.756 88.1721 21.5365C88.5678 22.2528 89.0249 23.3852 89.9595 23.1328C90.2664 23.0919 90.7099 22.9009 90.5734 22.5189C90.2528 21.8231 89.7139 21.2023 89.4001 20.5133L89.3864 20.4723L89.3933 20.4655Z" fill="#023AB7"/>
<path d="M116.497 8.07701C116.108 8.54771 116.36 9.13439 116.387 9.72107C116.408 10.0622 116.381 10.4033 116.333 10.7443C115.541 14.5168 115.705 18.8146 118.222 21.9322C120.658 24.8996 124.587 26.0866 128.046 27.5124C129.267 27.9831 130.502 28.4402 131.736 28.8699C132.685 29.2042 133.647 29.5248 134.602 29.8455C134.711 29.8864 134.806 29.9342 134.895 30.0092C135.154 30.2411 135.031 30.6231 135.038 31.0188C135.038 31.2712 135.004 31.5509 134.731 31.6533C133.483 31.8988 132.248 32.2467 131.041 32.7379C129.444 33.3519 127.834 34 126.136 34.0818C125.392 34.1296 124.649 34.0955 123.905 34.0545C121.592 33.9113 119.171 33.8021 117.07 32.7652C112.519 30.2752 108.945 25.2066 108.208 20.0834C107.771 16.7544 108.624 13.1729 110.909 10.6557C112.24 9.07981 114.157 8.21345 115.596 6.76723C116.149 6.18055 116.858 5.20503 117.69 5.67573C117.977 5.7917 118.352 6.07823 118.127 6.4125C117.649 6.99918 116.988 7.46305 116.517 8.04291L116.49 8.07701H116.497Z" fill="#023AB7"/>
<path d="M100.069 59.1862C100.274 60.2163 101.332 60.5233 102.143 61.1236C102.621 61.4715 103.044 61.874 103.446 62.3038C107.621 67.4611 113.543 71.9158 120.439 71.9362C127.05 71.9158 132.903 67.9523 138.572 64.8825C140.53 63.7637 142.474 62.6108 144.405 61.4306C145.885 60.5301 147.358 59.5887 148.818 58.6678C148.996 58.5654 149.166 58.4904 149.357 58.4631C149.951 58.3676 150.326 58.9543 150.865 59.3704C151.199 59.6433 151.54 59.998 151.376 60.4687C150.346 62.3993 149.466 64.4322 148.818 66.5743C147.904 69.3712 147.01 72.2228 145.278 74.5831C144.527 75.6268 143.681 76.5887 142.815 77.5369C140.114 80.4635 137.33 83.5811 133.66 85.2661C125.385 88.6361 114.73 87.8993 107.089 83.3082C102.177 80.2725 98.3094 75.238 97.4362 69.4531C96.7813 65.9671 97.7023 62.4607 97.3407 58.9611C97.1565 57.5831 96.6244 55.5775 98.1594 54.9704C98.6232 54.7179 99.4146 54.5269 99.6192 55.1887C99.8784 56.4575 99.7829 57.856 100.049 59.1112L100.063 59.1794L100.069 59.1862Z" fill="#023AB7"/>
<path d="M98.5549 22.9964C98.8551 23.6581 98.3775 24.2516 98.1593 24.9133C98.0296 25.2953 97.9546 25.6978 97.8932 26.1003C97.5998 30.6709 96.0445 35.5485 92.1765 38.3182C88.445 40.9446 83.5674 41.0537 79.1468 41.5927C77.5983 41.7428 76.0429 41.8724 74.4875 41.9815C73.2937 42.0634 72.0862 42.1248 70.8992 42.1862C70.756 42.1998 70.6332 42.2203 70.5104 42.2817C70.142 42.4659 70.1556 42.9434 70.026 43.3936C69.9442 43.6802 69.8964 44.0212 70.1761 44.2191C71.5268 44.8944 72.8366 45.6858 74.0577 46.634C75.6881 47.8483 77.3322 49.0967 79.2491 49.7311C80.0882 50.0176 80.9546 50.2223 81.8142 50.4065C84.5088 50.9727 87.3125 51.6208 90.0549 51.1023C96.0581 49.697 101.761 45.0241 104.231 39.3824C105.786 35.7054 105.95 31.3327 104.128 27.7239C103.105 25.5 101.181 23.8969 99.9875 21.7753C99.5373 20.9225 99.0393 19.5855 97.9341 19.8583C97.5726 19.8993 97.0473 20.1108 97.2042 20.5678C97.5658 21.3864 98.1797 22.1368 98.5276 22.9486L98.5481 22.9964H98.5549Z" fill="#023AB7"/>
<path d="M68.6753 26.3595C69.1392 26.0593 69.0846 25.4863 69.221 24.9678C69.2961 24.6677 69.4189 24.3812 69.5485 24.1015C71.2676 21.0589 72.3113 17.2933 70.9879 13.9097C69.6986 10.6761 66.6287 8.56818 64.0296 6.3852C63.1019 5.64162 62.1604 4.91169 61.2122 4.1954C60.4823 3.64283 59.7387 3.1039 59.0019 2.56497C58.9201 2.49675 58.845 2.42854 58.7973 2.33986C58.6335 2.06699 58.8519 1.76681 58.9542 1.42572C59.0224 1.20742 59.1315 0.975482 59.3908 0.961839C60.5368 1.09145 61.7034 1.13239 62.8767 1.03689C64.4253 0.941384 65.9943 0.832227 67.4883 1.22107C68.1432 1.3848 68.7776 1.61673 69.412 1.8555C71.3699 2.61272 73.4301 3.37677 74.965 4.85029C78.2122 8.25438 79.9108 13.6163 79.1331 18.2483C78.5942 21.2431 76.8751 24.1083 74.2078 25.6569C72.6251 26.6528 70.7286 26.878 69.0846 27.7307C68.4433 28.0854 67.5633 28.7335 66.9698 28.0991C66.7515 27.9217 66.5128 27.567 66.7925 27.3418C67.3655 26.9666 68.0681 26.7483 68.6344 26.3731L68.6616 26.3527L68.6753 26.3595Z" fill="#023AB7"/>
<path d="M148.73 32.8335C148.968 32.3355 148.614 31.8716 148.463 31.3668C148.375 31.0735 148.32 30.7665 148.279 30.4595C148.129 26.9667 147.024 23.2215 144.111 21.0522C141.307 18.9852 137.589 18.8215 134.226 18.3439C133.046 18.2007 131.859 18.0779 130.679 17.9755C129.772 17.8937 128.851 17.8255 127.943 17.7572C127.834 17.7436 127.739 17.7231 127.65 17.6754C127.37 17.5321 127.391 17.1638 127.295 16.8158C127.241 16.5975 127.207 16.3383 127.425 16.1882C128.469 15.6971 129.478 15.1104 130.427 14.4077C131.689 13.5072 132.964 12.5863 134.438 12.1292C135.079 11.9246 135.748 11.7813 136.409 11.6517C138.47 11.2629 140.625 10.8194 142.706 11.256C147.263 12.4294 151.54 16.0859 153.334 20.4246C154.46 23.2488 154.514 26.5915 153.068 29.3134C152.25 30.9916 150.762 32.1854 149.814 33.7817C149.459 34.423 149.057 35.4394 148.218 35.2143C147.938 35.1734 147.549 35.0096 147.672 34.6617C147.959 34.0409 148.436 33.4816 148.723 32.8676L148.736 32.8335H148.73Z" fill="#023AB7"/>
<path d="M87.2785 83.3218C87.5582 82.7556 87.1625 82.2235 86.9988 81.6436C86.8965 81.3025 86.8419 80.9546 86.8078 80.6067C86.6986 76.6295 85.498 72.3523 82.2235 69.8282C79.0718 67.4337 74.8355 67.1882 71.0152 66.5878C69.6713 66.4105 68.3274 66.2467 66.9835 66.1103C65.9466 66.0011 64.9029 65.9125 63.8728 65.817C63.75 65.7965 63.6408 65.776 63.5385 65.7214C63.2247 65.5509 63.252 65.1348 63.1497 64.7391C63.0883 64.4867 63.061 64.1934 63.3066 64.0296C64.5004 63.4839 65.6601 62.8358 66.7516 62.0513C68.2046 61.0485 69.6713 60.0184 71.3563 59.5272C72.0931 59.3021 72.8503 59.152 73.6075 59.0156C75.9611 58.6063 78.4169 58.1356 80.7841 58.6677C85.955 60.073 90.7576 64.3093 92.7291 69.2756C93.9639 72.5092 93.9707 76.3157 92.2857 79.3856C91.3306 81.282 89.6115 82.6191 88.5132 84.4201C88.0971 85.1432 87.6196 86.2893 86.6713 86.0232C86.3575 85.9755 85.9141 85.7776 86.0574 85.3888C86.3985 84.6861 86.951 84.0585 87.2785 83.3627L87.2921 83.3218H87.2785Z" fill="#023AB7"/>
<path d="M92.2039 166.616C92.2175 165.886 92.8997 165.559 93.384 165.054C93.6637 164.761 93.9093 164.433 94.1344 164.092C96.3584 160.088 99.8579 156.349 104.545 155.517C109.04 154.746 113.495 156.738 117.717 158.157C119.184 158.689 120.644 159.235 122.09 159.808C123.202 160.245 124.321 160.709 125.419 161.166C125.556 161.213 125.672 161.248 125.808 161.241C126.224 161.241 126.409 160.79 126.722 160.443C126.92 160.217 127.104 159.931 126.941 159.638C126.013 158.451 125.174 157.168 124.471 155.79C123.516 153.996 122.568 152.161 121.115 150.762C120.48 150.142 119.791 149.589 119.089 149.043C116.906 147.372 114.641 145.585 111.946 144.875C105.916 143.565 98.7596 145.339 94.114 149.371C91.1328 152.024 89.1067 155.899 89.1954 159.938C89.1613 162.387 90.2119 164.658 90.3824 167.087C90.4234 168.049 90.3006 169.475 91.4125 169.7C91.7604 169.816 92.3198 169.85 92.3812 169.379C92.4085 168.485 92.1766 167.544 92.2107 166.657V166.609L92.2039 166.616Z" fill="#023AB7"/>
<path d="M104.251 121.64C104.736 121.046 104.408 120.317 104.367 119.587C104.34 119.164 104.367 118.734 104.422 118.311C105.356 113.59 105.09 108.215 101.898 104.36C98.8142 100.683 93.8888 99.2576 89.5365 97.5248C88.0016 96.9518 86.4531 96.406 84.9045 95.8739C83.7107 95.4646 82.5032 95.0826 81.3162 94.7006C81.1798 94.646 81.057 94.5914 80.9478 94.4959C80.6204 94.2094 80.7705 93.7251 80.7568 93.2339C80.7568 92.9201 80.7978 92.5653 81.132 92.4357C82.6874 92.1151 84.2291 91.658 85.7231 91.0236C87.7083 90.2323 89.7139 89.4068 91.8355 89.2772C92.7632 89.209 93.6978 89.2363 94.6256 89.2772C97.5113 89.4205 100.54 89.5296 103.187 90.7917C108.911 93.841 113.447 100.124 114.436 106.516C115.023 110.67 114.02 115.159 111.196 118.338C109.559 120.323 107.171 121.435 105.39 123.264C104.708 124.007 103.835 125.235 102.785 124.662C102.423 124.519 101.952 124.164 102.232 123.748C102.819 123.011 103.644 122.418 104.217 121.688L104.244 121.647L104.251 121.64Z" fill="#023AB7"/>
<path d="M148.143 127.152C148.6 127.664 148.334 128.339 148.327 128.994C148.32 129.376 148.361 129.758 148.423 130.14C149.446 134.349 149.412 139.193 146.683 142.781C144.05 146.199 139.677 147.672 135.829 149.398C134.472 149.971 133.101 150.524 131.73 151.056C130.672 151.465 129.601 151.861 128.544 152.25C128.421 152.304 128.312 152.359 128.223 152.447C127.937 152.713 128.094 153.143 128.094 153.587C128.1 153.866 128.155 154.187 128.462 154.289C129.874 154.521 131.272 154.869 132.644 155.381C134.458 156.015 136.293 156.684 138.203 156.718C139.043 156.745 139.882 156.684 140.714 156.609C143.306 156.37 146.021 156.159 148.354 154.924C153.382 151.963 157.223 146.144 157.871 140.359C158.239 136.607 157.168 132.603 154.508 129.854C152.959 128.128 150.776 127.22 149.098 125.645C148.457 125.003 147.624 123.932 146.703 124.492C146.383 124.635 145.974 124.969 146.24 125.338C146.799 125.979 147.556 126.484 148.102 127.118L148.129 127.152H148.143Z" fill="#023AB7"/>
<path d="M119.396 123.311C119.123 123.796 119.443 124.28 119.566 124.798C119.641 125.099 119.668 125.406 119.682 125.719C119.593 129.212 120.446 133.026 123.202 135.393C125.856 137.644 129.56 138.06 132.882 138.763C134.049 138.981 135.222 139.186 136.396 139.37C137.296 139.513 138.21 139.643 139.111 139.772C139.22 139.793 139.309 139.82 139.397 139.875C139.67 140.038 139.622 140.4 139.691 140.755C139.732 140.98 139.745 141.239 139.52 141.369C138.449 141.792 137.398 142.303 136.409 142.938C135.086 143.75 133.756 144.589 132.255 144.937C131.6 145.1 130.925 145.196 130.256 145.278C128.168 145.53 125.992 145.823 123.946 145.25C119.477 143.77 115.459 139.834 113.965 135.386C113.038 132.487 113.201 129.151 114.832 126.531C115.76 124.908 117.329 123.823 118.379 122.295C118.775 121.681 119.252 120.692 120.071 120.978C120.344 121.033 120.726 121.231 120.583 121.565C120.255 122.165 119.737 122.691 119.416 123.284L119.402 123.318L119.396 123.311Z" fill="#023AB7"/>
<path d="M43.4618 157.209C43.2094 156.527 43.721 155.967 43.9871 155.319C44.144 154.944 44.2463 154.548 44.3282 154.153C44.9285 149.609 46.8113 144.855 50.8635 142.351C54.7588 139.984 59.6364 140.202 64.0842 139.97C65.6396 139.922 67.2018 139.902 68.764 139.902C69.9578 139.902 71.1653 139.922 72.3591 139.936C72.5023 139.936 72.6251 139.916 72.7479 139.868C73.13 139.711 73.1436 139.233 73.3073 138.79C73.4096 138.51 73.4779 138.176 73.2118 137.958C71.9088 137.194 70.6604 136.314 69.5007 135.284C67.9522 133.967 66.4036 132.609 64.5276 131.845C63.709 131.497 62.8631 131.238 62.0104 130.993C59.3635 130.242 56.6007 129.41 53.8378 129.737C47.7528 130.733 41.7427 135.011 38.898 140.468C37.097 144.029 36.6332 148.381 38.209 152.106C39.0822 154.398 40.89 156.124 41.9337 158.321C42.3226 159.201 42.7319 160.572 43.8507 160.374C44.219 160.354 44.7511 160.183 44.6284 159.719C44.3214 158.873 43.762 158.089 43.4686 157.257L43.455 157.209H43.4618Z" fill="#023AB7"/>
<path d="M66.7994 147.338C67.7272 147.461 68.2797 146.662 69.0165 146.151C69.4463 145.851 69.9102 145.612 70.3809 145.394C75.9065 143.368 81.3435 139.67 83.3355 133.885C85.2115 128.332 83.5606 122.281 82.6056 116.64C82.2235 114.675 81.8142 112.71 81.3776 110.752C81.0434 109.252 80.675 107.744 80.3203 106.257C80.2862 106.079 80.2657 105.916 80.2998 105.745C80.3885 105.22 80.9888 105.07 81.4936 104.742C81.8211 104.538 82.2167 104.354 82.5646 104.626C83.8881 106.045 85.3411 107.362 86.9579 108.522C89.0454 110.091 91.1874 111.66 92.6678 113.788C93.3295 114.716 93.8957 115.705 94.4414 116.701C96.1264 119.812 97.9411 123.039 98.3094 126.599C98.7665 134.513 95.0963 143.245 89.0522 148.347C85.0955 151.601 79.7677 153.409 74.6581 152.482C71.5406 152.031 68.8664 150.251 65.8239 149.555C64.6096 149.316 62.7745 149.187 62.7131 147.727C62.6313 147.263 62.6995 146.547 63.3134 146.567C64.4595 146.71 65.5988 147.195 66.7312 147.331H66.7926L66.7994 147.338Z" fill="#023AB7"/>
<path d="M67.8703 173.281C68.1432 172.797 67.8226 172.313 67.6998 171.794C67.6248 171.494 67.5975 171.187 67.5838 170.873C67.6725 167.38 66.8198 163.567 64.0638 161.2C61.4101 158.949 57.7058 158.532 54.3836 157.83C53.2171 157.612 52.0437 157.407 50.8703 157.223C49.9699 157.079 49.0557 156.95 48.1553 156.82C48.0461 156.8 47.9574 156.772 47.8687 156.718C47.5959 156.554 47.6436 156.193 47.5754 155.838C47.5345 155.613 47.5208 155.354 47.7459 155.224C48.817 154.801 49.8675 154.289 50.8567 153.655C52.1801 152.843 53.5104 152.004 55.0112 151.656C55.6661 151.492 56.3415 151.397 57.01 151.315C59.0975 151.063 61.2736 150.769 63.3202 151.342C67.7885 152.823 71.8065 156.759 73.3005 161.207C74.2283 164.106 74.0646 167.442 72.4342 170.061C71.5064 171.685 69.9374 172.77 68.8868 174.298C68.4911 174.912 68.0136 175.901 67.195 175.614C66.9221 175.56 66.5401 175.362 66.6834 175.028C67.0108 174.427 67.5293 173.902 67.8499 173.309L67.8635 173.274L67.8703 173.281Z" fill="#023AB7"/>
<path d="M67.0859 92.8791C66.5197 93.152 66.4993 93.8137 66.2741 94.3731C66.1445 94.7006 65.974 95.0076 65.783 95.3077C63.4226 98.5072 61.724 102.614 62.7541 106.618C63.7637 110.445 66.9427 113.249 69.5827 116.08C70.531 117.049 71.486 118.004 72.4615 118.945C73.2051 119.668 73.976 120.385 74.7332 121.087C74.8151 121.176 74.8901 121.258 74.9379 121.367C75.0811 121.695 74.8014 122.002 74.6377 122.377C74.5286 122.615 74.3717 122.861 74.0783 122.841C72.8026 122.534 71.4928 122.329 70.1489 122.274C68.3889 122.165 66.5948 122.077 64.9644 121.428C64.2481 121.149 63.5591 120.801 62.8769 120.446C60.7689 119.321 58.545 118.174 57.0101 116.298C53.8107 112.008 52.6305 105.711 54.1449 100.588C55.1682 97.2792 57.5013 94.2776 60.728 92.8996C62.6517 91.9923 64.8279 91.9991 66.7994 91.2624C67.5703 90.9486 68.655 90.3346 69.2348 91.1396C69.4531 91.3715 69.6782 91.8013 69.3303 92.0196C68.6345 92.3607 67.8091 92.5176 67.1201 92.8587L67.0859 92.8791Z" fill="#023AB7"/>
<path d="M123.925 -16.1063C123.871 -15.3764 124.526 -14.9807 124.962 -14.435C125.215 -14.1144 125.426 -13.7664 125.617 -13.4049C127.473 -9.19582 130.624 -5.13683 135.229 -3.86797C139.65 -2.68097 144.289 -4.26363 148.641 -5.28691C150.155 -5.68257 151.663 -6.09188 153.171 -6.5353C154.323 -6.86957 155.483 -7.23113 156.622 -7.57904C156.759 -7.61315 156.888 -7.63361 157.018 -7.61997C157.427 -7.57904 157.577 -7.11516 157.864 -6.73996C158.041 -6.49437 158.198 -6.19421 158.007 -5.91451C156.963 -4.80938 156.008 -3.61557 155.183 -2.29895C154.064 -0.593498 152.945 1.15289 151.356 2.41493C150.667 2.97432 149.923 3.46548 149.173 3.94301C146.833 5.4097 144.404 6.98556 141.648 7.44944C135.502 8.19984 128.51 5.76444 124.239 1.30297C121.504 -1.62359 119.839 -5.68939 120.303 -9.72109C120.501 -12.1701 121.756 -14.3463 122.152 -16.7544C122.281 -17.7095 122.288 -19.1489 123.427 -19.2716C123.789 -19.3603 124.348 -19.3399 124.362 -18.8623C124.307 -17.9619 123.987 -17.0477 123.939 -16.1609V-16.1132L123.925 -16.1063Z" fill="#023AB7"/>
</svg>
