<svg width="137" height="136" viewBox="0 0 137 136" fill="none" xmlns="http://www.w3.org/2000/svg">
<path d="M136.15 39.0197C136.15 33.6782 131.825 29.3531 126.484 29.3531C131.825 29.3531 136.15 25.0213 136.15 19.6866C136.15 14.3519 131.825 10.0201 126.484 10.0201C126.484 4.67856 122.152 0.353516 116.817 0.353516C111.483 0.353516 107.151 4.68539 107.151 10.0201C107.151 4.67856 102.819 0.353516 97.4843 0.353516C92.1496 0.353516 87.8246 4.67856 87.8177 10.0132C87.8177 4.67856 83.4859 0.353516 78.1512 0.353516C72.8165 0.353516 68.4847 4.68539 68.4847 10.0201C68.4847 4.67856 64.1528 0.353516 58.8181 0.353516C53.4835 0.353516 49.1516 4.68539 49.1516 10.0201C49.1516 4.67856 44.8198 0.353516 39.4851 0.353516C34.1504 0.353516 29.8254 4.67856 29.8185 10.0132C29.8185 4.67856 25.4867 0.353516 20.152 0.353516C14.8174 0.353516 10.4855 4.68539 10.4855 10.0201C5.144 10.0201 0.81897 14.3519 0.81897 19.6866C0.81897 25.0213 5.15082 29.3531 10.4855 29.3531C5.144 29.3531 0.81897 33.685 0.81897 39.0197C0.81897 44.3543 5.15082 48.6862 10.4855 48.6862C5.144 48.6862 0.81897 53.018 0.81897 58.3527C0.81897 63.6874 5.15082 68.0192 10.4855 68.0192C5.144 68.0192 0.81897 72.3511 0.81897 77.6858C0.81897 83.0204 5.15082 87.3523 10.4855 87.3523C5.144 87.3523 0.81897 91.6842 0.81897 97.0188C0.81897 102.353 5.15082 106.685 10.4855 106.685C5.144 106.685 0.81897 111.017 0.81897 116.352C0.81897 121.687 5.15082 126.018 10.4855 126.018C10.4855 131.36 14.8174 135.685 20.152 135.685C25.4867 135.685 29.8117 131.36 29.8185 126.025C29.8185 131.36 34.1504 135.685 39.4851 135.685C44.8198 135.685 49.1516 131.353 49.1516 126.018C49.1516 131.36 53.4835 135.685 58.8181 135.685C64.1528 135.685 68.4847 131.353 68.4847 126.018C68.4847 131.36 72.8165 135.685 78.1512 135.685C83.4859 135.685 87.8109 131.36 87.8177 126.025C87.8177 131.36 92.1496 135.685 97.4843 135.685C102.819 135.685 107.151 131.353 107.151 126.018C107.151 131.36 111.483 135.685 116.817 135.685C122.152 135.685 126.484 131.353 126.484 126.018C131.825 126.018 136.15 121.687 136.15 116.352C136.15 111.017 131.825 106.685 126.484 106.685C131.825 106.685 136.15 102.353 136.15 97.0188C136.15 91.6842 131.825 87.3523 126.484 87.3523C131.825 87.3523 136.15 83.0204 136.15 77.6858C136.15 72.3511 131.825 68.0192 126.484 68.0192C131.825 68.0192 136.15 63.6874 136.15 58.3527C136.15 53.018 131.825 48.6862 126.484 48.6862C131.825 48.6862 136.15 44.3543 136.15 39.0197Z" fill="#003CE9"/>
</svg>
