<svg width="137" height="136" viewBox="0 0 137 136" fill="none" xmlns="http://www.w3.org/2000/svg">
<path d="M136.151 39.0197C136.151 33.6782 131.826 29.3531 126.484 29.3531C131.826 29.3531 136.151 25.0213 136.151 19.6866C136.151 14.3519 131.826 10.0201 126.484 10.0201C126.484 4.67856 122.152 0.353516 116.817 0.353516C111.483 0.353516 107.151 4.68539 107.151 10.0201C107.151 4.67856 102.819 0.353516 97.4844 0.353516C92.1497 0.353516 87.8247 4.67856 87.8179 10.0132C87.8179 4.67856 83.486 0.353516 78.1514 0.353516C72.8167 0.353516 68.4848 4.68539 68.4848 10.0201C68.4848 4.67856 64.153 0.353516 58.8183 0.353516C53.4836 0.353516 49.1518 4.68539 49.1518 10.0201C49.1518 4.67856 44.8199 0.353516 39.4852 0.353516C34.1506 0.353516 29.8255 4.67856 29.8187 10.0132C29.8187 4.67856 25.4868 0.353516 20.1522 0.353516C14.8175 0.353516 10.4856 4.68539 10.4856 10.0201C5.14412 10.0201 0.819092 14.3519 0.819092 19.6866C0.819092 25.0213 5.15094 29.3531 10.4856 29.3531C5.14412 29.3531 0.819092 33.685 0.819092 39.0197C0.819092 44.3543 5.15094 48.6862 10.4856 48.6862C5.14412 48.6862 0.819092 53.0181 0.819092 58.3527C0.819092 63.6874 5.15094 68.0192 10.4856 68.0192C5.14412 68.0192 0.819092 72.3511 0.819092 77.6858C0.819092 83.0205 5.15094 87.3523 10.4856 87.3523C5.14412 87.3523 0.819092 91.6842 0.819092 97.0188C0.819092 102.354 5.15094 106.685 10.4856 106.685C5.14412 106.685 0.819092 111.017 0.819092 116.352C0.819092 121.687 5.15094 126.018 10.4856 126.018C10.4856 131.36 14.8175 135.685 20.1522 135.685C25.4868 135.685 29.8119 131.36 29.8187 126.025C29.8187 131.36 34.1506 135.685 39.4852 135.685C44.8199 135.685 49.1518 131.353 49.1518 126.018C49.1518 131.36 53.4836 135.685 58.8183 135.685C64.153 135.685 68.4848 131.353 68.4848 126.018C68.4848 131.36 72.8167 135.685 78.1514 135.685C83.486 135.685 87.8111 131.36 87.8179 126.025C87.8179 131.36 92.1497 135.685 97.4844 135.685C102.819 135.685 107.151 131.353 107.151 126.018C107.151 131.36 111.483 135.685 116.817 135.685C122.152 135.685 126.484 131.353 126.484 126.018C131.826 126.018 136.151 121.687 136.151 116.352C136.151 111.017 131.826 106.685 126.484 106.685C131.826 106.685 136.151 102.354 136.151 97.0188C136.151 91.6842 131.826 87.3523 126.484 87.3523C131.826 87.3523 136.151 83.0205 136.151 77.6858C136.151 72.3511 131.826 68.0192 126.484 68.0192C131.826 68.0192 136.151 63.6874 136.151 58.3527C136.151 53.0181 131.826 48.6862 126.484 48.6862C131.826 48.6862 136.151 44.3543 136.151 39.0197Z" fill="#FF00B7"/>
</svg>
