<svg width="140" height="210" viewBox="0 0 140 210" fill="none" xmlns="http://www.w3.org/2000/svg">
<path d="M140 35C140 28.56 135.52 23.3333 130 23.3333C135.52 23.3333 140 18.1067 140 11.6667C140 5.22667 135.52 0 130 0C124.48 0 120 5.22667 120 11.6667C120 5.22667 115.52 0 110 0C104.48 0 100 5.22667 100 11.6667C100 5.22667 95.52 0 90 0C84.48 0 80 5.22667 80 11.6667C80 5.22667 75.52 0 70 0C64.48 0 60 5.22667 60 11.6667C60 5.22667 55.52 0 50 0C44.48 0 40 5.22667 40 11.6667C40 5.22667 35.52 0 30 0C24.48 0 20 5.22667 20 11.6667C20 5.22667 15.52 0 10 0C4.48 0 0 5.22667 0 11.6667C0 18.1067 4.48 23.3333 10 23.3333C4.48 23.3333 0 28.56 0 35C0 41.44 4.48 46.6667 10 46.6667C4.48 46.6667 0 51.8933 0 58.3333C0 64.7733 4.48 70 10 70C4.48 70 0 75.2267 0 81.6667C0 88.1067 4.48 93.3333 10 93.3333C4.48 93.3333 0 98.56 0 105C0 111.44 4.48 116.667 10 116.667C4.48 116.667 0 121.893 0 128.333C0 134.773 4.48 140 10 140C4.48 140 0 145.227 0 151.667C0 158.107 4.48 163.333 10 163.333C4.48 163.333 0 168.56 0 175C0 181.44 4.48 186.667 10 186.667C4.48 186.667 0 191.893 0 198.333C0 204.773 4.48 210 10 210C15.52 210 20 204.773 20 198.333C20 204.773 24.48 210 30 210C35.52 210 40 204.773 40 198.333C40 204.773 44.48 210 50 210C55.52 210 60 204.773 60 198.333C60 204.773 64.48 210 70 210C75.52 210 80 204.773 80 198.333C80 204.773 84.48 210 90 210C95.52 210 100 204.773 100 198.333C100 204.773 104.48 210 110 210C115.52 210 120 204.773 120 198.333C120 204.773 124.48 210 130 210C135.52 210 140 204.773 140 198.333C140 191.893 135.52 186.667 130 186.667C135.52 186.667 140 181.44 140 175C140 168.56 135.52 163.333 130 163.333C135.52 163.333 140 158.107 140 151.667C140 145.227 135.52 140 130 140C135.52 140 140 134.773 140 128.333C140 121.893 135.52 116.667 130 116.667C135.52 116.667 140 111.44 140 105C140 98.56 135.52 93.3333 130 93.3333C135.52 93.3333 140 88.1067 140 81.6667C140 75.2267 135.52 70 130 70C135.52 70 140 64.7733 140 58.3333C140 51.8933 135.52 46.6667 130 46.6667C135.52 46.6667 140 41.44 140 35Z" fill="#B5FE28"/>
</svg>
