<svg width="529" height="299" viewBox="0 0 529 299" fill="none" xmlns="http://www.w3.org/2000/svg">
<path d="M6.92879 190.885L29.1412 187.101L39.691 167.179C40.9234 164.867 44.383 165.437 44.8053 168.03L48.5893 190.242L68.5115 200.792C70.8239 202.025 70.2539 205.484 67.6605 205.906L45.4481 209.691L34.8984 229.613C33.6659 231.925 30.2064 231.355 29.7841 228.762L26 206.549L6.07787 196C3.76548 194.767 4.33532 191.308 6.92879 190.885Z" fill="#003CE9"/>
<path d="M485.684 143.225L495.509 134.257L494.392 120.995C494.266 119.453 496.166 118.632 497.204 119.785L506.172 129.611L519.434 128.493C520.976 128.367 521.797 130.267 520.643 131.305L510.818 140.273L511.936 153.535C512.062 155.077 510.161 155.898 509.124 154.745L500.156 144.919L486.894 146.037C485.352 146.163 484.531 144.263 485.684 143.225Z" fill="#003CE9"/>
<path d="M40.3849 144.108L244.074 196.469L472.899 176.941L249.136 127.469L40.3849 144.108Z" fill="#023AB7"/>
<path d="M466.527 4.24725e-05L33.8988 22.7913L40.2291 144.211L472.857 121.42L466.527 4.24725e-05Z" fill="#003BE2"/>
<path d="M98.9728 59.8415L98.3407 47.481L62.311 49.343L62.9826 61.7035L73.4518 61.1885L76.2172 114.078L91.3876 113.285L88.6222 60.3566L98.9728 59.8415Z" fill="#B5FE28"/>
<path d="M103.358 47.2038L95.9308 113.048L111.812 112.216L112.247 101.281L121.531 100.806L123.23 111.621L138.993 110.789L124.81 46.0945L103.319 47.2434L103.358 47.2038ZM112.681 91.3374L114.025 58.2174H114.815L119.99 90.9412L112.681 91.3374Z" fill="#B5FE28"/>
<path d="M175.062 84.0082C174.114 81.75 172.889 79.7691 171.388 78.0656C169.887 76.362 168.188 74.8566 166.37 73.5096C164.514 72.2022 162.617 70.9345 160.642 69.7856C159.22 68.9536 157.837 68.082 156.494 67.1708C155.151 66.2993 154.084 65.2692 153.215 64.0807C152.346 62.8922 151.911 61.5056 151.793 59.8417C151.753 58.8512 151.832 58.0193 152.109 57.3061C152.385 56.593 152.78 56.0384 153.294 55.6026C153.847 55.1668 154.44 54.9291 155.19 54.9291C156.257 54.8895 157.126 55.1668 157.877 55.8403C158.588 56.5138 159.18 57.425 159.536 58.5739C159.931 59.7624 160.168 61.0698 160.287 62.5356C160.405 64.0015 160.405 65.5465 160.287 67.1312L173.916 64.6353C174.193 60.0001 173.64 56.0384 172.257 52.7502C170.874 49.5016 168.701 47.0453 165.738 45.421C162.775 43.7967 159.062 43.0836 154.598 43.3213C150.647 43.5193 147.328 44.3909 144.603 45.9756C141.877 47.5207 139.862 49.6204 138.558 52.2351C137.254 54.8499 136.662 57.8212 136.859 61.1886C136.978 63.7638 137.491 66.0219 138.361 67.9632C139.23 69.9044 140.336 71.608 141.64 73.0738C142.983 74.5793 144.445 75.8866 145.985 77.0355C147.566 78.1844 149.106 79.2145 150.607 80.2049C152.306 81.235 154.005 82.3839 155.625 83.612C157.284 84.8401 158.667 86.306 159.773 88.0095C160.879 89.7131 161.511 91.7732 161.63 94.2294C161.709 95.4972 161.63 96.5272 161.353 97.3196C161.116 98.1119 160.682 98.7458 160.168 99.142C159.615 99.5778 158.983 99.8155 158.193 99.8551C156.533 99.9343 155.309 99.2608 154.519 97.795C153.728 96.3688 153.215 94.4671 153.017 92.1297C152.82 89.7923 152.859 87.3756 153.136 84.8401L139.23 87.4549C138.44 91.2581 138.321 94.6652 138.835 97.6365C139.348 100.608 140.454 103.143 142.153 105.203C143.852 107.263 146.064 108.769 148.83 109.759C151.595 110.75 154.835 111.146 158.588 110.948C163.17 110.71 166.845 109.72 169.57 108.056C172.296 106.352 174.193 104.094 175.338 101.321C176.484 98.5081 176.958 95.4179 176.761 91.9712C176.603 88.9207 176.049 86.306 175.101 84.0082H175.062Z" fill="#B5FE28"/>
<path d="M210.657 41.5388L174.667 43.4404L175.338 55.801L185.768 55.2464L188.533 108.175L203.743 107.383L200.978 54.454L211.328 53.8994L210.657 41.5388Z" fill="#B5FE28"/>
<path d="M239.457 40.0332L236.336 70.5385L235.941 70.5781L229.817 40.5482L212.237 41.4594L228.316 84.1668L229.462 106.036L245.462 105.164L244.316 83.3349L255.733 39.1616L239.457 40.0332Z" fill="#B5FE28"/>
<path d="M301.561 49.264L300.929 36.8242L288.089 37.4977L272.919 38.2901L276.316 103.54L291.526 102.747L290.222 78.2242L301.284 77.63L300.652 65.6656L289.59 66.2598L288.761 49.9375L301.561 49.264Z" fill="#B5FE28"/>
<path d="M342.212 79.6109C341.383 77.4319 340.04 75.7284 338.183 74.5002C336.326 73.2721 333.679 72.6778 330.163 72.7571V71.8459C332.454 71.3308 334.469 70.4989 336.128 69.3896C337.788 68.2803 339.131 66.9333 340.237 65.3883C341.304 63.8432 342.054 62.1 342.489 60.1588C342.923 58.2175 343.082 56.1574 342.963 53.9785C342.805 51.3241 342.37 48.9867 341.541 46.9662C340.751 44.9458 339.684 43.163 338.341 41.7368C336.998 40.3105 335.496 39.0824 333.758 38.092C332.02 37.1412 330.123 36.428 328.069 36.0715C326.015 35.6753 323.842 35.5565 321.63 35.6753L303.694 36.6261L307.131 101.915L322.301 101.123L321.116 78.5808H321.827C323.802 78.5016 325.264 79.0166 326.212 80.007C327.161 80.9975 327.832 82.4237 328.267 84.2065C328.701 85.9892 329.057 88.0097 329.373 90.2283L330.795 100.648L346.558 99.8157L344.227 87.1381C343.753 84.2461 343.082 81.7106 342.252 79.5712L342.212 79.6109ZM327.595 62.5754C327.319 63.962 326.963 65.0713 326.489 65.8637C326.015 66.656 325.462 67.2106 324.83 67.6068C324.237 67.9634 323.644 68.2011 323.052 68.2803C322.459 68.3992 321.946 68.4388 321.472 68.4784H320.602L319.536 48.0359L320.919 47.9567C321.432 47.9567 322.025 47.9567 322.617 47.9567C323.21 47.9567 323.802 48.1548 324.356 48.3925C324.948 48.6698 325.462 49.1056 325.975 49.7394C326.449 50.3733 326.884 51.2845 327.2 52.5126C327.516 53.7012 327.753 55.2859 327.832 57.1875C327.951 59.3664 327.872 61.1492 327.635 62.5358L327.595 62.5754Z" fill="#B5FE28"/>
<path d="M368.286 33.2586L370.499 75.2925C370.657 78.1449 370.617 80.3635 370.42 81.9878C370.222 83.6121 369.827 84.8006 369.274 85.4741C368.721 86.1476 367.97 86.5438 367.062 86.5834C366.193 86.623 365.442 86.3457 364.849 85.6722C364.217 84.9987 363.704 83.8894 363.348 82.2651C362.953 80.6804 362.716 78.4619 362.558 75.7283L360.346 33.6944L345.136 34.4867L347.427 77.9072C347.467 78.8977 347.625 80.2843 347.862 82.1067C348.099 83.9291 348.573 85.9099 349.244 88.0492C349.956 90.1886 351.022 92.2091 352.484 94.0711C353.946 95.9331 355.881 97.4385 358.37 98.5874C360.82 99.6967 363.98 100.172 367.773 99.974C370.736 99.8156 373.383 99.2213 375.674 98.2309C378.005 97.2008 379.941 95.735 381.521 93.7541C383.101 91.7733 384.247 89.317 384.998 86.3853C385.748 83.4536 385.985 79.9673 385.788 75.9264L383.496 32.5059L368.286 33.2982V33.2586Z" fill="#B5FE28"/>
<path d="M402.9 31.4022L387.317 32.2239L390.74 97.5022L406.323 96.6804L402.9 31.4022Z" fill="#B5FE28"/>
<path d="M442.005 41.7764L441.373 29.4158L405.343 31.3174L406.015 43.678L416.484 43.1233L419.249 96.052L434.42 95.22L431.654 42.331L442.005 41.7764Z" fill="#B5FE28"/>
<path d="M472.792 176.989H127.192V298.574H472.792V176.989Z" fill="#003BE2"/>
<path d="M178.313 247.191C178.313 250.043 178.155 252.262 177.878 253.886C177.602 255.51 177.128 256.659 176.535 257.293C175.942 257.966 175.192 258.283 174.244 258.283C173.375 258.283 172.663 257.927 172.071 257.253C171.478 256.58 171.044 255.391 170.728 253.767C170.412 252.143 170.293 249.964 170.293 247.191V205.117H155.083V248.577C155.083 249.568 155.162 250.954 155.281 252.777C155.399 254.599 155.755 256.58 156.347 258.759C156.94 260.938 157.928 262.998 159.271 264.939C160.614 266.88 162.51 268.505 164.92 269.733C167.33 271 170.451 271.595 174.244 271.595C177.207 271.595 179.854 271.159 182.224 270.248C184.594 269.337 186.609 267.95 188.308 266.088C189.967 264.226 191.271 261.809 192.14 258.917C193.049 256.025 193.483 252.539 193.483 248.538V205.077H178.273V247.151L178.313 247.191Z" fill="#B5FE28"/>
<path d="M226.51 244.219H226.194L213.948 205.117H197.355V270.486H211.775V231.344H212.091L224.14 270.486H240.812V205.117H226.51V244.219Z" fill="#B5FE28"/>
<path d="M260.367 205.117H244.762V270.486H260.367V205.117Z" fill="#B5FE28"/>
<path d="M284.466 257.214H283.794L278.935 205.117H262.738L273.128 270.486H294.659L305.799 205.117H290.115L284.466 257.214Z" fill="#B5FE28"/>
<path d="M319.034 205.117H308.17V270.486H319.034H323.498H337.009V258.006H323.498V242.952H334.441V231.542H323.498V217.597H337.009V205.117H323.498H319.034Z" fill="#B5FE28"/>
<path d="M376.239 250.004C375.528 247.785 374.263 246.042 372.486 244.695C370.708 243.388 368.061 242.635 364.584 242.516V241.605C366.955 241.209 369.009 240.496 370.708 239.465C372.407 238.435 373.829 237.168 375.014 235.702C376.199 234.236 376.989 232.532 377.542 230.591C378.056 228.69 378.333 226.629 378.333 224.451C378.333 221.796 377.977 219.459 377.305 217.359C376.634 215.299 375.646 213.477 374.382 211.971C373.118 210.466 371.656 209.158 369.997 208.128C368.298 207.059 366.441 206.306 364.426 205.791C362.412 205.276 360.239 205.038 358.026 205.038H340.051V270.407H355.261V247.825H355.972C357.947 247.904 359.37 248.459 360.278 249.489C361.187 250.558 361.779 251.985 362.096 253.807C362.412 255.629 362.688 257.65 362.886 259.908L363.755 270.407H379.557L377.898 257.65C377.582 254.758 377.029 252.183 376.318 249.964L376.239 250.004ZM362.491 232.255C362.175 233.642 361.74 234.711 361.187 235.464C360.673 236.217 360.081 236.771 359.449 237.088C358.817 237.405 358.224 237.603 357.631 237.683C357.039 237.762 356.525 237.802 356.051 237.802H355.142V217.319H356.525C357.039 217.319 357.592 217.319 358.184 217.399C358.777 217.478 359.37 217.636 359.923 217.953C360.476 218.27 360.989 218.746 361.463 219.38C361.938 220.053 362.293 220.964 362.53 222.192C362.767 223.42 362.925 224.966 362.925 226.907C362.925 229.086 362.767 230.869 362.451 232.255H362.491Z" fill="#B5FE28"/>
<path d="M415.113 239.465C413.691 237.683 412.111 236.098 410.333 234.672C408.555 233.246 406.698 231.899 404.802 230.67C403.419 229.759 402.076 228.808 400.812 227.858C399.508 226.907 398.481 225.798 397.691 224.569C396.901 223.341 396.506 221.915 396.506 220.251C396.506 219.261 396.664 218.429 396.94 217.716C397.256 217.042 397.651 216.487 398.244 216.091C398.797 215.695 399.429 215.497 400.18 215.497C401.246 215.497 402.116 215.854 402.787 216.527C403.459 217.201 403.972 218.151 404.328 219.34C404.644 220.528 404.841 221.875 404.881 223.341C404.881 224.847 404.841 226.352 404.644 227.937L418.392 226.154C418.906 221.519 418.59 217.557 417.365 214.229C416.14 210.901 414.086 208.326 411.241 206.544C408.358 204.761 404.723 203.889 400.219 203.889C396.269 203.889 392.911 204.602 390.106 206.028C387.301 207.455 385.167 209.436 383.745 211.971C382.323 214.507 381.572 217.478 381.572 220.845C381.572 223.42 381.967 225.718 382.718 227.699C383.469 229.68 384.496 231.463 385.72 233.008C386.985 234.553 388.367 235.94 389.869 237.168C391.37 238.396 392.871 239.545 394.293 240.575C395.953 241.684 397.572 242.912 399.153 244.22C400.733 245.527 402.037 247.072 403.064 248.815C404.091 250.558 404.604 252.658 404.604 255.114C404.604 256.382 404.446 257.412 404.17 258.204C403.854 258.997 403.459 259.591 402.866 259.987C402.313 260.383 401.641 260.581 400.851 260.581C399.192 260.581 398.007 259.829 397.296 258.363C396.585 256.897 396.19 254.956 396.111 252.618C396.032 250.281 396.229 247.864 396.585 245.329L382.56 247.191C381.572 250.954 381.256 254.322 381.612 257.333C381.967 260.344 382.955 262.919 384.535 265.058C386.116 267.198 388.249 268.822 390.935 269.971C393.622 271.12 396.861 271.635 400.614 271.635C405.237 271.635 408.911 270.842 411.716 269.297C414.52 267.752 416.535 265.613 417.839 262.879C419.143 260.146 419.775 257.056 419.775 253.609C419.775 250.558 419.38 247.904 418.55 245.567C417.72 243.269 416.614 241.209 415.192 239.426L415.113 239.465Z" fill="#B5FE28"/>
<path d="M451.498 217.597V205.117H437.947H433.523H422.659V270.486H433.523H437.947H451.498V258.006H437.947V242.952H448.93V231.542H437.947V217.597H451.498Z" fill="#B5FE28"/>
</svg>
