<svg width="439" height="299" viewBox="0 0 439 299" fill="none" xmlns="http://www.w3.org/2000/svg">
<path d="M6.48621 144.108L210.175 196.469L439 176.941L215.237 127.469L6.48621 144.108Z" fill="#023AB7"/>
<path d="M432.628 -3.30391e-06L0 22.7912L6.33034 144.211L438.959 121.419L432.628 -3.30391e-06Z" fill="#003BE2"/>
<path d="M65.074 59.8416L64.4419 47.481L28.4122 49.343L29.0838 61.7036L39.553 61.1886L42.3184 114.078L57.4888 113.285L54.7234 60.3566L65.074 59.8416Z" fill="#B5FE28"/>
<path d="M69.4593 47.2038L62.0321 113.048L77.9136 112.216L78.3482 101.281L87.6321 100.806L89.3309 111.621L105.094 110.789L90.9111 46.0945L69.4198 47.2434L69.4593 47.2038ZM78.7827 91.3374L80.1259 58.2174H80.9161L86.0914 90.9413L78.7827 91.3374Z" fill="#B5FE28"/>
<path d="M141.163 84.0081C140.215 81.7499 138.99 79.7691 137.489 78.0655C135.988 76.362 134.289 74.8565 132.472 73.5095C130.615 72.2022 128.719 70.9344 126.743 69.7855C125.321 68.9535 123.938 68.082 122.595 67.1708C121.252 66.2992 120.185 65.2691 119.316 64.0806C118.447 62.8921 118.012 61.5055 117.894 59.8416C117.854 58.8511 117.933 58.0192 118.21 57.3061C118.486 56.593 118.882 56.0383 119.395 55.6025C119.948 55.1667 120.541 54.929 121.291 54.929C122.358 54.8894 123.227 55.1667 123.978 55.8402C124.689 56.5137 125.282 57.4249 125.637 58.5738C126.032 59.7623 126.269 61.0697 126.388 62.5355C126.506 64.0014 126.506 65.5465 126.388 67.1312L140.017 64.6353C140.294 60 139.741 56.0383 138.358 52.7501C136.975 49.5015 134.803 47.0452 131.84 45.4209C128.877 43.7966 125.163 43.0835 120.699 43.3212C116.748 43.5193 113.43 44.3908 110.704 45.9755C107.978 47.5206 105.963 49.6203 104.659 52.2351C103.356 54.8498 102.763 57.8211 102.961 61.1886C103.079 63.7637 103.593 66.0219 104.462 67.9631C105.331 69.9044 106.437 71.6079 107.741 73.0737C109.084 74.5792 110.546 75.8866 112.086 77.0355C113.667 78.1844 115.207 79.2144 116.709 80.2048C118.407 81.2349 120.106 82.3838 121.726 83.6119C123.385 84.8401 124.768 86.3059 125.874 88.0094C126.98 89.713 127.612 91.7731 127.731 94.2294C127.81 95.4971 127.731 96.5271 127.454 97.3195C127.217 98.1118 126.783 98.7457 126.269 99.1419C125.716 99.5777 125.084 99.8154 124.294 99.855C122.635 99.9342 121.41 99.2607 120.62 97.7949C119.83 96.3687 119.316 94.4671 119.119 92.1296C118.921 89.7922 118.961 87.3756 119.237 84.8401L105.331 87.4548C104.541 91.2581 104.422 94.6651 104.936 97.6364C105.449 100.608 106.556 103.143 108.254 105.203C109.953 107.263 112.165 108.769 114.931 109.759C117.696 110.75 120.936 111.146 124.689 110.948C129.272 110.71 132.946 109.72 135.672 108.056C138.398 106.352 140.294 104.094 141.44 101.321C142.585 98.508 143.059 95.4179 142.862 91.9712C142.704 88.9206 142.151 86.3059 141.203 84.0081H141.163Z" fill="#B5FE28"/>
<path d="M176.758 41.5387L140.768 43.4403L141.439 55.8009L151.869 55.2462L154.634 108.175L169.844 107.383L167.079 54.4539L177.43 53.8993L176.758 41.5387Z" fill="#B5FE28"/>
<path d="M205.558 40.0332L202.437 70.5385L202.042 70.5781L195.919 40.5482L178.338 41.4594L194.417 84.1668L195.563 106.036L211.563 105.164L210.417 83.3349L221.835 39.1616L205.558 40.0332Z" fill="#B5FE28"/>
<path d="M267.662 49.264L267.03 36.8241L254.19 37.4976L239.02 38.29L242.417 103.54L257.627 102.747L256.324 78.2242L267.385 77.6299L266.753 65.6655L255.692 66.2598L254.862 49.9375L267.662 49.264Z" fill="#B5FE28"/>
<path d="M308.314 79.6108C307.484 77.4318 306.141 75.7283 304.284 74.5002C302.427 73.272 299.78 72.6778 296.264 72.757V71.8458C298.556 71.3308 300.57 70.4988 302.23 69.3895C303.889 68.2803 305.232 66.9333 306.338 65.3882C307.405 63.8431 308.156 62.1 308.59 60.1587C309.025 58.2175 309.183 56.1574 309.064 53.9784C308.906 51.3241 308.472 48.9867 307.642 46.9662C306.852 44.9457 305.785 43.1629 304.442 41.7367C303.099 40.3105 301.598 39.0823 299.859 38.0919C298.121 37.1411 296.225 36.428 294.17 36.0714C292.116 35.6753 289.943 35.5564 287.731 35.6753L269.795 36.6261L273.232 101.915L288.402 101.123L287.217 78.5807H287.928C289.904 78.5015 291.365 79.0165 292.314 80.007C293.262 80.9974 293.933 82.4236 294.368 84.2064C294.802 85.9892 295.158 88.0096 295.474 90.2282L296.896 100.648L312.659 99.8156L310.328 87.1381C309.854 84.246 309.183 81.7105 308.353 79.5712L308.314 79.6108ZM293.696 62.5754C293.42 63.962 293.064 65.0713 292.59 65.8636C292.116 66.656 291.563 67.2106 290.931 67.6068C290.338 67.9633 289.746 68.201 289.153 68.2803C288.56 68.3991 288.047 68.4387 287.573 68.4783H286.704L285.637 48.0358L287.02 47.9566C287.533 47.9566 288.126 47.9566 288.719 47.9566C289.311 47.9566 289.904 48.1547 290.457 48.3924C291.049 48.6697 291.563 49.1055 292.077 49.7394C292.551 50.3733 292.985 51.2845 293.301 52.5126C293.617 53.7011 293.854 55.2858 293.933 57.1874C294.052 59.3664 293.973 61.1491 293.736 62.5358L293.696 62.5754Z" fill="#B5FE28"/>
<path d="M334.388 33.2587L336.6 75.2926C336.758 78.145 336.718 80.3636 336.521 81.9879C336.323 83.6122 335.928 84.8007 335.375 85.4742C334.822 86.1477 334.072 86.5439 333.163 86.5835C332.294 86.6231 331.543 86.3458 330.951 85.6723C330.318 84.9988 329.805 83.8895 329.449 82.2652C329.054 80.6805 328.817 78.4619 328.659 75.7283L326.447 33.6944L311.237 34.4868L313.528 77.9073C313.568 78.8977 313.726 80.2843 313.963 82.1067C314.2 83.9291 314.674 85.91 315.346 88.0493C316.057 90.1886 317.123 92.2091 318.585 94.0711C320.047 95.9331 321.983 97.4386 324.472 98.5875C326.921 99.6968 330.081 100.172 333.874 99.9741C336.837 99.8156 339.484 99.2214 341.775 98.2309C344.106 97.2009 346.042 95.7351 347.622 93.7542C349.202 91.7733 350.348 89.3171 351.099 86.3854C351.849 83.4537 352.086 79.9674 351.889 75.9264L349.597 32.5059L334.388 33.2983V33.2587Z" fill="#B5FE28"/>
<path d="M369.002 31.4021L353.418 32.2238L356.841 97.5021L372.425 96.6804L369.002 31.4021Z" fill="#B5FE28"/>
<path d="M408.106 41.7763L407.474 29.4157L371.444 31.3174L372.116 43.6779L382.585 43.1233L385.351 96.0519L400.521 95.22L397.756 42.3309L408.106 41.7763Z" fill="#B5FE28"/>
<path d="M438.893 176.989H93.2932V298.574H438.893V176.989Z" fill="#003BE2"/>
<path d="M144.414 247.191C144.414 250.043 144.256 252.262 143.98 253.886C143.703 255.51 143.229 256.659 142.636 257.293C142.044 257.966 141.293 258.283 140.345 258.283C139.476 258.283 138.765 257.927 138.172 257.253C137.58 256.58 137.145 255.391 136.829 253.767C136.513 252.143 136.394 249.964 136.394 247.191V205.117H121.184V248.577C121.184 249.568 121.263 250.954 121.382 252.777C121.5 254.599 121.856 256.58 122.449 258.759C123.041 260.938 124.029 262.998 125.372 264.939C126.715 266.88 128.612 268.505 131.021 269.733C133.431 271.001 136.552 271.595 140.345 271.595C143.308 271.595 145.955 271.159 148.325 270.248C150.696 269.337 152.71 267.95 154.409 266.088C156.068 264.226 157.372 261.809 158.241 258.917C159.15 256.025 159.584 252.539 159.584 248.538V205.077H144.375V247.151L144.414 247.191Z" fill="#B5FE28"/>
<path d="M192.612 244.22H192.296L180.049 205.117H163.456V270.486H177.876V231.344H178.192L190.241 270.486H206.913V205.117H192.612V244.22Z" fill="#B5FE28"/>
<path d="M226.468 205.117H210.864V270.486H226.468V205.117Z" fill="#B5FE28"/>
<path d="M250.567 257.214H249.896L245.036 205.117H228.839L239.229 270.486H260.76L271.901 205.117H256.217L250.567 257.214Z" fill="#B5FE28"/>
<path d="M285.135 205.117H274.271V270.486H285.135H289.599H303.111V258.006H289.599V242.952H300.543V231.542H289.599V217.597H303.111V205.117H289.599H285.135Z" fill="#B5FE28"/>
<path d="M342.34 250.004C341.629 247.785 340.365 246.042 338.587 244.695C336.809 243.388 334.162 242.635 330.686 242.516V241.605C333.056 241.209 335.11 240.495 336.809 239.465C338.508 238.435 339.93 237.168 341.115 235.702C342.3 234.236 343.091 232.532 343.644 230.591C344.157 228.69 344.434 226.629 344.434 224.45C344.434 221.796 344.078 219.459 343.407 217.359C342.735 215.299 341.747 213.477 340.483 211.971C339.219 210.466 337.757 209.158 336.098 208.128C334.399 207.059 332.542 206.306 330.528 205.791C328.513 205.276 326.34 205.038 324.128 205.038H306.152V270.406H321.362V247.825H322.073C324.049 247.904 325.471 248.459 326.379 249.489C327.288 250.558 327.881 251.984 328.197 253.807C328.513 255.629 328.789 257.65 328.987 259.908L329.856 270.406H345.659L343.999 257.65C343.683 254.758 343.13 252.183 342.419 249.964L342.34 250.004ZM328.592 232.255C328.276 233.642 327.841 234.711 327.288 235.464C326.775 236.217 326.182 236.771 325.55 237.088C324.918 237.405 324.325 237.603 323.733 237.683C323.14 237.762 322.626 237.802 322.152 237.802H321.244V217.319H322.626C323.14 217.319 323.693 217.319 324.286 217.399C324.878 217.478 325.471 217.636 326.024 217.953C326.577 218.27 327.091 218.746 327.565 219.379C328.039 220.053 328.394 220.964 328.631 222.192C328.868 223.42 329.026 224.966 329.026 226.907C329.026 229.086 328.868 230.868 328.552 232.255H328.592Z" fill="#B5FE28"/>
<path d="M381.214 239.466C379.792 237.683 378.212 236.098 376.434 234.672C374.656 233.246 372.8 231.899 370.903 230.671C369.521 229.759 368.177 228.809 366.913 227.858C365.609 226.907 364.582 225.798 363.792 224.569C363.002 223.341 362.607 221.915 362.607 220.251C362.607 219.261 362.765 218.429 363.041 217.716C363.358 217.042 363.753 216.488 364.345 216.091C364.898 215.695 365.53 215.497 366.281 215.497C367.348 215.497 368.217 215.854 368.888 216.527C369.56 217.201 370.074 218.151 370.429 219.34C370.745 220.529 370.943 221.876 370.982 223.341C370.982 224.847 370.943 226.352 370.745 227.937L384.493 226.154C385.007 221.519 384.691 217.557 383.466 214.229C382.242 210.902 380.187 208.326 377.343 206.544C374.459 204.761 370.824 203.889 366.32 203.889C362.37 203.889 359.012 204.602 356.207 206.029C353.402 207.455 351.269 209.436 349.846 211.971C348.424 214.507 347.674 217.478 347.674 220.845C347.674 223.421 348.069 225.718 348.819 227.699C349.57 229.68 350.597 231.463 351.822 233.008C353.086 234.553 354.469 235.94 355.97 237.168C357.471 238.396 358.972 239.545 360.395 240.575C362.054 241.684 363.674 242.912 365.254 244.22C366.834 245.527 368.138 247.072 369.165 248.815C370.192 250.558 370.706 252.658 370.706 255.114C370.706 256.382 370.548 257.412 370.271 258.205C369.955 258.997 369.56 259.591 368.967 259.987C368.414 260.383 367.743 260.582 366.953 260.582C365.293 260.582 364.108 259.829 363.397 258.363C362.686 256.897 362.291 254.956 362.212 252.618C362.133 250.281 362.33 247.864 362.686 245.329L348.661 247.191C347.674 250.955 347.358 254.322 347.713 257.333C348.069 260.344 349.056 262.919 350.637 265.058C352.217 267.198 354.35 268.822 357.037 269.971C359.723 271.12 362.962 271.635 366.716 271.635C371.338 271.635 375.012 270.842 377.817 269.297C380.622 267.752 382.637 265.613 383.94 262.879C385.244 260.146 385.876 257.056 385.876 253.609C385.876 250.558 385.481 247.904 384.651 245.567C383.822 243.269 382.716 241.209 381.293 239.426L381.214 239.466Z" fill="#B5FE28"/>
<path d="M417.599 217.597V205.117H404.049H399.624H388.76V270.486H399.624H404.049H417.599V258.006H404.049V242.952H415.031V231.542H404.049V217.597H417.599Z" fill="#B5FE28"/>
</svg>
