<svg width="251" height="173" viewBox="0 0 251 173" fill="none" xmlns="http://www.w3.org/2000/svg">
<path d="M78.3544 76.877L156.696 76.882L118.427 95.9853L27.1765 95.9803L78.3544 76.877Z" fill="#023AB7"/>
<path d="M251 95.9854H27.1765V172.862H251V95.9854Z" fill="#003CE9"/>
<path d="M58.2803 155.795C55.8567 155.795 53.8865 155.397 52.3598 154.606C50.8331 153.814 49.644 152.802 48.7924 151.567C47.9358 150.337 47.3211 149.032 46.9432 147.652C46.5653 146.276 46.3386 145.011 46.2529 143.862C46.1673 142.713 46.127 141.826 46.127 141.201V113.708H55.771V140.325C55.771 142.078 55.8667 143.469 56.0532 144.487C56.2396 145.51 56.5218 146.241 56.8997 146.679C57.2776 147.117 57.7361 147.334 58.2752 147.334C58.8597 147.334 59.3384 147.127 59.7163 146.709C60.0942 146.291 60.3764 145.57 60.5628 144.547C60.7492 143.525 60.845 142.114 60.845 140.32V113.703H70.489V141.196C70.489 143.741 70.2068 145.938 69.6425 147.772C69.0782 149.612 68.2669 151.124 67.1987 152.313C66.1305 153.502 64.8507 154.379 63.3492 154.943C61.8477 155.508 60.1547 155.79 58.2752 155.79L58.2803 155.795Z" fill="#9CFF00"/>
<path d="M72.9329 155.044V113.708H83.4536L91.2183 138.445H91.4047V113.708H100.484V155.044H89.9032L82.2645 130.307H82.0781V155.044H72.9329Z" fill="#9CFF00"/>
<path d="M102.994 155.044V113.708H112.89V155.044H102.994Z" fill="#9CFF00"/>
<path d="M120.967 155.044L114.391 113.708H124.66L127.729 146.649H128.167L131.734 113.708H141.691L134.616 155.044H120.967Z" fill="#9CFF00"/>
<path d="M143.197 155.044V113.708H152.902V155.044H143.197ZM150.085 121.599V113.708H161.483V121.599H150.085ZM150.085 137.634V130.433H159.855V137.634H150.085ZM150.085 155.044V147.153H161.483V155.044H150.085Z" fill="#9CFF00"/>
<path d="M163.362 155.044V113.708H174.76C176.181 113.708 177.536 113.864 178.831 114.177C180.126 114.489 181.305 114.983 182.368 115.648C183.431 116.318 184.363 117.13 185.154 118.092C185.946 119.055 186.565 120.188 187.004 121.504C187.442 122.819 187.664 124.31 187.664 125.983C187.664 127.359 187.497 128.654 187.16 129.868C186.827 131.078 186.293 132.156 185.563 133.094C184.832 134.031 183.925 134.827 182.837 135.472C181.748 136.122 180.458 136.565 178.952 136.817V137.382C181.164 137.467 182.837 137.926 183.96 138.757C185.089 139.594 185.88 140.713 186.339 142.109C186.797 143.509 187.13 145.127 187.341 146.961L188.404 155.039H178.382L177.818 148.402C177.692 146.981 177.526 145.701 177.319 144.552C177.108 143.404 176.725 142.497 176.16 141.826C175.596 141.156 174.689 140.803 173.434 140.763H172.996V155.044H163.352H163.362ZM173.006 134.378H173.571C173.863 134.378 174.195 134.358 174.573 134.318C174.951 134.278 175.334 134.152 175.732 133.94C176.13 133.733 176.493 133.386 176.825 132.907C177.158 132.428 177.43 131.748 177.642 130.871C177.848 129.994 177.954 128.866 177.954 127.49C177.954 126.281 177.868 125.288 177.702 124.517C177.536 123.746 177.304 123.151 177.012 122.733C176.72 122.315 176.397 122.012 176.039 121.826C175.682 121.64 175.319 121.524 174.946 121.483C174.568 121.443 174.215 121.423 173.883 121.423H173.006V134.389V134.378Z" fill="#9CFF00"/>
<path d="M201.747 155.795C199.369 155.795 197.323 155.442 195.61 154.732C193.897 154.021 192.541 152.988 191.538 151.632C190.536 150.277 189.921 148.649 189.689 146.75C189.457 144.85 189.659 142.708 190.284 140.33L199.177 139.14C198.925 140.728 198.819 142.265 198.865 143.741C198.905 145.223 199.157 146.432 199.615 147.374C200.074 148.312 200.825 148.785 201.868 148.785C202.372 148.785 202.795 148.659 203.153 148.407C203.505 148.155 203.777 147.783 203.969 147.279C204.16 146.775 204.251 146.13 204.251 145.339C204.251 143.797 203.929 142.466 203.279 141.363C202.629 140.259 201.807 139.287 200.805 138.45C199.802 137.614 198.779 136.843 197.736 136.132C196.819 135.467 195.877 134.746 194.919 133.97C193.957 133.199 193.08 132.323 192.289 131.34C191.498 130.357 190.858 129.244 190.38 127.989C189.901 126.734 189.659 125.298 189.659 123.665C189.659 121.534 190.118 119.669 191.035 118.062C191.952 116.454 193.297 115.205 195.076 114.303C196.849 113.406 198.991 112.957 201.495 112.957C204.332 112.957 206.66 113.522 208.479 114.65C210.297 115.779 211.587 117.397 212.363 119.503C213.134 121.614 213.356 124.129 213.018 127.052L204.312 128.18C204.437 127.178 204.488 126.205 204.468 125.268C204.448 124.33 204.332 123.484 204.125 122.733C203.913 121.982 203.591 121.388 203.153 120.949C202.714 120.511 202.16 120.294 201.495 120.294C201.036 120.294 200.628 120.42 200.276 120.672C199.918 120.924 199.651 121.267 199.459 121.705C199.273 122.143 199.177 122.678 199.177 123.302C199.177 124.346 199.429 125.253 199.928 126.029C200.427 126.8 201.087 127.49 201.903 128.095C202.719 128.699 203.561 129.294 204.437 129.879C205.647 130.675 206.816 131.516 207.944 132.413C209.073 133.31 210.086 134.323 210.983 135.452C211.88 136.581 212.59 137.876 213.114 139.337C213.638 140.798 213.895 142.491 213.895 144.411C213.895 146.583 213.487 148.533 212.676 150.267C211.859 152 210.57 153.356 208.791 154.338C207.017 155.321 204.669 155.81 201.747 155.81V155.795Z" fill="#9CFF00"/>
<path d="M215.775 155.044V113.708H225.479V155.044H215.775ZM222.662 121.599V113.708H234.06V121.599H222.662ZM222.662 137.634V130.433H232.432V137.634H222.662ZM222.662 155.044V147.153H234.06V155.044H222.662Z" fill="#9CFF00"/>
<path d="M156.696 0H0.0129395V76.877H156.696V0Z" fill="#003CE9"/>
<path d="M16.9531 25.5181V17.6873H39.8086V25.5181H16.9531ZM23.589 59.0283V17.6924H33.2331V59.0283H23.589Z" fill="#9CFF00"/>
<path d="M36.1151 59.0284L43.003 17.6924H56.6528L63.4802 59.0284H53.4583L49.8909 25.0193H49.3921L46.1975 59.0284H36.1151ZM42.3782 52.1348V45.8712H56.8443V52.1348H42.3782Z" fill="#9CFF00"/>
<path d="M75.82 59.7792C73.4417 59.7792 71.396 59.4214 69.6829 58.7159C67.9697 58.0054 66.6143 56.9724 65.6116 55.6169C64.6089 54.2614 63.9942 52.6337 63.7624 50.734C63.5306 48.8342 63.7322 46.6926 64.357 44.3141L73.2503 43.1249C72.9983 44.7122 72.8925 46.2441 72.9379 47.7256C72.9782 49.2071 73.2301 50.4165 73.6886 51.3588C74.1472 52.2961 74.8979 52.7698 75.9409 52.7698C76.4398 52.7698 76.8681 52.6438 77.2258 52.3918C77.5785 52.1399 77.8506 51.767 78.0421 51.2631C78.2285 50.7642 78.3242 50.1141 78.3242 49.323C78.3242 47.781 78.0018 46.4507 77.3518 45.3471C76.7018 44.2436 75.8805 43.271 74.8778 42.4345C73.8751 41.598 72.8522 40.827 71.8092 40.1165C70.8922 39.4514 69.9499 38.7308 68.9926 37.9547C68.0302 37.1837 67.1535 36.3069 66.3624 35.3243C65.5663 34.3417 64.9314 33.228 64.4527 31.9733C63.9741 30.7185 63.7322 29.2824 63.7322 27.6497C63.7322 25.5182 64.1907 23.6537 65.1078 22.0462C66.0248 20.4387 67.3701 19.189 69.1488 18.287C70.9224 17.39 73.0638 16.9416 75.5681 16.9416C78.4049 16.9416 80.7327 17.5059 82.5517 18.6347C84.3656 19.7635 85.6606 21.381 86.4365 23.4874C87.2074 25.5988 87.4291 28.1133 87.0916 31.036L78.3847 32.1648C78.5107 31.162 78.5611 30.1894 78.5409 29.2522C78.5207 28.3149 78.4049 27.4683 78.1983 26.7175C77.9866 25.9666 77.6642 25.372 77.2258 24.9336C76.7874 24.4952 76.2332 24.2785 75.5681 24.2785C75.1096 24.2785 74.7014 24.4045 74.3487 24.6565C73.991 24.9084 73.7239 25.2511 73.5324 25.6895C73.346 26.1279 73.2503 26.662 73.2503 27.2869C73.2503 28.33 73.5022 29.237 74.001 30.0131C74.4999 30.784 75.1599 31.4744 75.9762 32.0791C76.7925 32.6838 77.6339 33.2784 78.5107 33.863C79.7199 34.6591 80.8889 35.5007 82.0176 36.3976C83.1463 37.2946 84.159 38.3075 85.0559 39.4362C85.9528 40.565 86.6633 41.8601 87.1873 43.3214C87.7113 44.7828 87.9683 46.4759 87.9683 48.3958C87.9683 50.5677 87.5601 52.5178 86.7489 54.2513C85.9327 55.9847 84.6427 57.3403 82.8641 58.3229C81.0905 59.3055 78.7424 59.7943 75.82 59.7943V59.7792Z" fill="#9CFF00"/>
<path d="M88.2806 25.5181V17.6873H111.136V25.5181H88.2806ZM94.9216 59.0283V17.6924H104.566V59.0283H94.9216Z" fill="#9CFF00"/>
<path d="M120.906 59.0284V45.1859L112.139 17.6924H123.284L126.167 36.8562H126.418L129.422 17.6924H139.756L131.049 45.1859V59.0284H120.906Z" fill="#9CFF00"/>
<path d="M178.165 46.8034L195.086 36.7046L197.384 17.1183C197.653 14.8442 200.661 14.2086 201.835 16.1648L211.933 33.0857L231.52 35.3843C233.794 35.6532 234.429 38.6609 232.473 39.8346L215.552 49.9334L213.254 69.5197C212.985 71.7938 209.977 72.4294 208.803 70.4733L198.705 53.5523L179.118 51.2538C176.844 50.9848 176.209 47.9771 178.165 46.8034Z" fill="#003CE9"/>
<path d="M3.70352 92.4568L8.88111 92.9834L12.4572 89.1989C12.874 88.7601 13.609 89.1002 13.5431 89.7035L13.0166 94.8811L16.8011 98.4572C17.2399 98.874 16.8998 99.6089 16.2965 99.5431L11.1189 99.0166L7.54284 102.801C7.126 103.24 6.39104 102.9 6.45686 102.296L6.98339 97.1188L3.19892 93.5429C2.76014 93.126 3.1002 92.391 3.70352 92.4568Z" fill="#003CE9"/>
<path d="M224.251 53.1482L232.122 58.089L240.841 54.8614C241.856 54.4889 242.763 55.615 242.18 56.5287L237.24 64.3998L240.467 73.1194C240.84 74.134 239.714 75.0413 238.8 74.4584L230.929 69.5177L222.209 72.7454C221.195 73.1178 220.287 71.9917 220.87 71.0781L225.811 63.2068L222.583 54.4873C222.211 53.4728 223.337 52.5654 224.251 53.1482Z" fill="#003CE9"/>
</svg>
