<svg width="260" height="173" viewBox="0 0 260 173" fill="none" xmlns="http://www.w3.org/2000/svg">
<path d="M235.325 81.3572L240.867 76.4022L240.319 68.9842C240.258 68.1218 241.325 67.674 241.898 68.3246L246.853 73.8673L254.271 73.3195C255.133 73.2581 255.581 74.3248 254.931 74.8979L249.388 79.8529L249.936 87.271C249.997 88.1334 248.93 88.5811 248.357 87.9306L243.402 82.3877L235.984 82.9356C235.122 82.997 234.674 81.9303 235.325 81.3572Z" fill="#003BE2"/>
<path d="M10.9363 149.346L19.5557 151.962L26.8789 146.725C27.7283 146.117 28.8712 146.936 28.5673 147.936L25.9513 156.556L31.1885 163.879C31.7963 164.728 30.978 165.871 29.9773 165.567L21.3579 162.951L14.0347 168.189C13.1853 168.796 12.0424 167.978 12.3463 166.977L14.9623 158.358L9.72509 151.035C9.11733 150.185 9.93565 149.042 10.9363 149.346Z" fill="#003BE2"/>
<path d="M7.68164 75.78L114.735 103.317L235 93.0472L117.396 67.0293L7.68164 75.78Z" fill="#023AB7"/>
<path d="M231.652 1.44816e-05L4.27283 11.9785L7.602 75.834L234.981 63.8555L231.652 1.44816e-05Z" fill="#003BE2"/>
<path d="M38.4743 31.4636L38.1421 24.9631L19.2058 25.9423L19.5588 32.4429L25.0611 32.172L26.5145 59.9868L34.4877 59.5701L33.0343 31.7345L38.4743 31.4636Z" fill="#B5FE28"/>
<path d="M40.7789 24.8174L36.8754 59.4453L45.2223 59.0077L45.4507 53.2572L50.3301 53.0072L51.2229 58.6952L59.5075 58.2577L52.0535 24.234L40.7581 24.8382L40.7789 24.8174ZM45.6791 48.0276L46.385 30.6095H46.8003L49.5203 47.8193L45.6791 48.0276Z" fill="#B5FE28"/>
<path d="M78.4644 44.173C77.9661 42.9854 77.3224 41.9436 76.5334 41.0477C75.7444 40.1518 74.8515 39.3601 73.8964 38.6517C72.9205 37.9641 71.9239 37.2974 70.8857 36.6932C70.1382 36.2556 69.4115 35.7973 68.7056 35.3181C67.9996 34.8597 67.439 34.318 66.9822 33.6929C66.5254 33.0679 66.297 32.3386 66.2347 31.4636C66.214 30.9427 66.2555 30.5052 66.4008 30.1301C66.5462 29.7551 66.7538 29.4634 67.0237 29.2342C67.3144 29.005 67.6259 28.88 68.0204 28.88C68.581 28.8592 69.0378 29.005 69.4323 29.3592C69.806 29.7134 70.1175 30.1926 70.3043 30.7968C70.512 31.4219 70.6366 32.1095 70.6989 32.8803C70.7611 33.6512 70.7611 34.4638 70.6989 35.2972L77.8622 33.9846C78.0076 31.5469 77.7169 29.4634 76.9902 27.7341C76.2635 26.0256 75.1215 24.7338 73.5642 23.8796C72.007 23.0254 70.0552 22.6503 67.7089 22.7753C65.6326 22.8795 63.8884 23.3379 62.4558 24.1713C61.0231 24.9839 59.9641 26.0881 59.279 27.4632C58.5938 28.8383 58.2823 30.401 58.3861 32.172C58.4484 33.5262 58.7183 34.7138 59.1751 35.7348C59.6319 36.7557 60.2133 37.6516 60.8985 38.4225C61.6045 39.2142 62.3727 39.9018 63.1825 40.506C64.013 41.1102 64.8228 41.6519 65.6118 42.1728C66.5046 42.7145 67.3975 43.3187 68.2488 43.9646C69.1208 44.6105 69.8476 45.3814 70.4289 46.2773C71.0103 47.1732 71.3425 48.2566 71.4048 49.5484C71.4463 50.2151 71.4048 50.7568 71.2595 51.1735C71.1349 51.5902 70.9065 51.9236 70.6366 52.1319C70.3459 52.3611 70.0137 52.4861 69.5984 52.507C68.7263 52.5487 68.0827 52.1945 67.6674 51.4236C67.2521 50.6735 66.9822 49.6734 66.8784 48.4441C66.7746 47.2149 66.7953 45.9439 66.9407 44.6105L59.6319 45.9856C59.2167 47.9858 59.1544 49.7776 59.4243 51.3402C59.6942 52.9028 60.2756 54.2363 61.1684 55.3197C62.0613 56.4031 63.224 57.1949 64.6775 57.7158C66.1309 58.2366 67.8335 58.445 69.806 58.3408C72.2146 58.2158 74.1456 57.6949 75.5783 56.8198C77.0109 55.9239 78.0076 54.7363 78.6097 53.2779C79.2119 51.7986 79.461 50.1735 79.3572 48.3608C79.2742 46.7565 78.9835 45.3814 78.4852 44.173H78.4644Z" fill="#B5FE28"/>
<path d="M97.1721 21.838L78.2566 22.8381L78.6096 29.3386L84.0911 29.0469L85.5446 56.8826L93.5385 56.4659L92.0851 28.6302L97.5251 28.3385L97.1721 21.838Z" fill="#B5FE28"/>
<path d="M112.309 21.0463L110.669 37.0893L110.461 37.1101L107.243 21.3171L98.0029 21.7963L106.454 44.2565L107.056 55.7575L115.465 55.2991L114.863 43.819L120.864 20.5879L112.309 21.0463Z" fill="#B5FE28"/>
<path d="M144.949 25.9008L144.617 19.3586L137.869 19.7127L129.895 20.1294L131.681 54.4448L139.675 54.0281L138.99 41.1312L144.804 40.8187L144.471 34.5265L138.658 34.839L138.222 26.255L144.949 25.9008Z" fill="#B5FE28"/>
<path d="M166.315 41.8604C165.879 40.7145 165.173 39.8186 164.197 39.1727C163.221 38.5268 161.83 38.2143 159.982 38.256V37.7768C161.186 37.5059 162.245 37.0684 163.117 36.485C163.989 35.9016 164.695 35.1932 165.277 34.3807C165.837 33.5681 166.232 32.6513 166.46 31.6304C166.688 30.6095 166.771 29.5261 166.709 28.3802C166.626 26.9842 166.398 25.7549 165.962 24.6924C165.546 23.6298 164.986 22.6922 164.28 21.9421C163.574 21.1921 162.785 20.5462 161.871 20.0253C160.958 19.5253 159.961 19.1502 158.881 18.9627C157.802 18.7544 156.66 18.6919 155.497 18.7544L146.07 19.2544L147.877 53.5906L155.85 53.1739L155.227 41.3187H155.601C156.639 41.2771 157.407 41.5479 157.905 42.0688C158.404 42.5897 158.757 43.3397 158.985 44.2773C159.214 45.2149 159.4 46.2775 159.567 47.4442L160.314 52.9239L168.599 52.4863L167.374 45.8191C167.124 44.2982 166.771 42.9647 166.335 41.8396L166.315 41.8604ZM158.632 32.9014C158.487 33.6306 158.3 34.214 158.051 34.6307C157.802 35.0474 157.511 35.3391 157.179 35.5474C156.867 35.7349 156.556 35.8599 156.244 35.9016C155.933 35.9641 155.663 35.985 155.414 36.0058H154.957L154.396 25.2549L155.123 25.2132C155.393 25.2132 155.705 25.2132 156.016 25.2132C156.327 25.2132 156.639 25.3174 156.93 25.4424C157.241 25.5883 157.511 25.8174 157.781 26.1508C158.03 26.4842 158.258 26.9634 158.425 27.6093C158.591 28.2343 158.715 29.0677 158.757 30.0678C158.819 31.2137 158.778 32.1513 158.653 32.8805L158.632 32.9014Z" fill="#B5FE28"/>
<path d="M180.018 17.4835L181.181 39.5895C181.264 41.0896 181.244 42.2564 181.14 43.1106C181.036 43.9648 180.828 44.5899 180.538 44.9441C180.247 45.2983 179.852 45.5066 179.375 45.5275C178.918 45.5483 178.523 45.4025 178.212 45.0483C177.88 44.6941 177.61 44.1107 177.423 43.2564C177.215 42.423 177.091 41.2563 177.008 39.8187L175.845 17.7127L167.851 18.1294L169.055 40.9646C169.076 41.4855 169.159 42.2147 169.284 43.1731C169.408 44.1315 169.657 45.1733 170.01 46.2984C170.384 47.4235 170.945 48.486 171.713 49.4653C172.481 50.4445 173.499 51.2363 174.807 51.8405C176.094 52.4239 177.755 52.6739 179.749 52.5697C181.306 52.4864 182.697 52.1739 183.901 51.653C185.126 51.1113 186.144 50.3404 186.974 49.2986C187.805 48.2569 188.407 46.9651 188.801 45.4233C189.196 43.8815 189.32 42.048 189.217 39.9228L188.012 17.0876L180.018 17.5043V17.4835Z" fill="#B5FE28"/>
<path d="M198.211 16.507L190.021 16.9391L191.819 51.2696L200.01 50.8374L198.211 16.507Z" fill="#B5FE28"/>
<path d="M218.763 21.9629L218.431 15.4624L199.495 16.4625L199.848 22.963L205.35 22.6713L206.804 50.5069L214.777 50.0694L213.323 22.2546L218.763 21.9629Z" fill="#B5FE28"/>
<path d="M234.944 93.0724H53.3052V157.015H234.944V93.0724Z" fill="#003BE2"/>
<path d="M80.1734 129.992C80.1734 131.492 80.0903 132.659 79.945 133.513C79.7996 134.367 79.5505 134.972 79.239 135.305C78.9276 135.659 78.5331 135.826 78.0348 135.826C77.578 135.826 77.2042 135.638 76.8928 135.284C76.5813 134.93 76.3529 134.305 76.1868 133.451C76.0207 132.596 75.9584 131.451 75.9584 129.992V107.865H67.9645V130.721C67.9645 131.242 68.006 131.971 68.0683 132.93C68.1306 133.888 68.3175 134.93 68.6289 136.076C68.9404 137.222 69.4594 138.305 70.1654 139.326C70.8714 140.347 71.868 141.201 73.1346 141.847C74.4011 142.514 76.0415 142.826 78.0348 142.826C79.592 142.826 80.9832 142.597 82.229 142.118C83.4748 141.639 84.5337 140.91 85.4265 139.93C86.2986 138.951 86.9838 137.68 87.4406 136.159C87.9182 134.638 88.1466 132.805 88.1466 130.7V107.844H80.1526V129.971L80.1734 129.992Z" fill="#B5FE28"/>
<path d="M105.505 128.43H105.339L98.902 107.865H90.1814V142.243H97.7601V121.658H97.9262L104.259 142.243H113.021V107.865H105.505V128.43Z" fill="#B5FE28"/>
<path d="M123.299 107.865H115.097V142.243H123.299V107.865Z" fill="#B5FE28"/>
<path d="M135.964 135.263H135.611L133.058 107.865H124.545L130.005 142.243H141.321L147.177 107.865H138.934L135.964 135.263Z" fill="#B5FE28"/>
<path d="M154.133 107.865H148.423V142.243H154.133H156.479H163.58V135.68H156.479V127.763H162.23V121.762H156.479V114.428H163.58V107.865H156.479H154.133Z" fill="#B5FE28"/>
<path d="M184.198 131.471C183.825 130.305 183.16 129.388 182.226 128.68C181.291 127.992 179.9 127.596 178.073 127.534V127.054C179.319 126.846 180.399 126.471 181.291 125.929C182.184 125.388 182.932 124.721 183.555 123.95C184.178 123.179 184.593 122.283 184.883 121.262C185.153 120.262 185.299 119.179 185.299 118.033C185.299 116.637 185.112 115.408 184.759 114.303C184.406 113.22 183.887 112.261 183.222 111.47C182.558 110.678 181.79 109.99 180.918 109.449C180.025 108.886 179.049 108.49 177.99 108.219C176.931 107.949 175.789 107.824 174.626 107.824H165.179V142.201H173.173V130.325H173.547C174.585 130.367 175.332 130.659 175.81 131.201C176.287 131.763 176.599 132.513 176.765 133.472C176.931 134.43 177.076 135.493 177.18 136.68L177.637 142.201H185.942L185.07 135.493C184.904 133.972 184.614 132.617 184.24 131.451L184.198 131.471ZM176.973 122.137C176.806 122.867 176.578 123.429 176.287 123.825C176.017 124.221 175.706 124.512 175.374 124.679C175.042 124.846 174.73 124.95 174.419 124.992C174.107 125.033 173.837 125.054 173.588 125.054H173.111V114.282H173.837C174.107 114.282 174.398 114.282 174.709 114.324C175.021 114.366 175.332 114.449 175.623 114.616C175.914 114.783 176.184 115.033 176.433 115.366C176.682 115.72 176.869 116.199 176.993 116.845C177.118 117.491 177.201 118.304 177.201 119.325C177.201 120.47 177.118 121.408 176.952 122.137H176.973Z" fill="#B5FE28"/>
<path d="M204.629 125.929C203.882 124.992 203.051 124.158 202.117 123.408C201.183 122.658 200.207 121.95 199.21 121.304C198.483 120.825 197.777 120.325 197.113 119.825C196.428 119.325 195.888 118.741 195.473 118.095C195.057 117.45 194.85 116.699 194.85 115.824C194.85 115.303 194.933 114.866 195.078 114.491C195.244 114.137 195.452 113.845 195.763 113.637C196.054 113.428 196.386 113.324 196.781 113.324C197.341 113.324 197.798 113.512 198.151 113.866C198.504 114.22 198.774 114.72 198.961 115.345C199.127 115.97 199.231 116.679 199.252 117.45C199.252 118.241 199.231 119.033 199.127 119.866L206.353 118.929C206.623 116.491 206.457 114.408 205.813 112.657C205.169 110.907 204.09 109.553 202.595 108.615C201.079 107.678 199.169 107.219 196.802 107.219C194.725 107.219 192.96 107.595 191.486 108.345C190.012 109.095 188.891 110.136 188.143 111.47C187.396 112.803 187.001 114.366 187.001 116.137C187.001 117.491 187.209 118.7 187.603 119.741C187.998 120.783 188.538 121.721 189.181 122.533C189.846 123.346 190.572 124.075 191.362 124.721C192.151 125.367 192.94 125.971 193.687 126.513C194.559 127.096 195.41 127.742 196.241 128.43C197.071 129.117 197.757 129.93 198.297 130.846C198.836 131.763 199.106 132.867 199.106 134.159C199.106 134.826 199.023 135.368 198.878 135.784C198.712 136.201 198.504 136.514 198.193 136.722C197.902 136.93 197.549 137.034 197.134 137.034C196.262 137.034 195.639 136.639 195.265 135.868C194.891 135.097 194.684 134.076 194.642 132.847C194.601 131.617 194.704 130.346 194.891 129.013L187.52 129.992C187.001 131.972 186.835 133.743 187.022 135.326C187.209 136.909 187.728 138.264 188.558 139.389C189.389 140.514 190.51 141.368 191.922 141.972C193.334 142.577 195.037 142.847 197.009 142.847C199.438 142.847 201.37 142.431 202.844 141.618C204.318 140.806 205.377 139.681 206.062 138.243C206.747 136.805 207.079 135.18 207.079 133.367C207.079 131.763 206.872 130.367 206.436 129.138C206 127.93 205.418 126.846 204.671 125.909L204.629 125.929Z" fill="#B5FE28"/>
<path d="M223.752 114.428V107.865H216.631H214.305H208.595V142.243H214.305H216.631H223.752V135.68H216.631V127.763H222.403V121.762H216.631V114.428H223.752Z" fill="#B5FE28"/>
<path d="M6.89967 96.0032C7.12846 92.3163 8.54801 89.2709 10.9971 87.1959C12.5545 85.8789 14.5226 84.9966 16.8444 84.5801C19.3507 84.1299 22.2444 84.2489 25.2135 84.9216C28.063 85.5684 30.9853 86.7276 33.6866 88.28C37.0457 85.0949 41.255 82.8595 45.5319 82.016L48.618 78.3238C48.618 78.3238 54.2676 81.3303 58.1623 84.8595C58.7004 85.32 59.2074 85.8246 59.6806 86.3757C60.2708 87.0355 60.7726 87.6978 61.1366 88.3524C62.4807 90.5258 63.3803 93.0925 63.8093 95.9851C64.6594 101.721 63.5701 108.179 60.7414 114.174C58.8018 118.286 56.1421 121.936 53.0482 124.731C49.9595 127.522 46.5224 129.398 43.1035 130.156C42.8903 130.206 42.6693 130.252 42.4483 130.291C42.0844 130.356 41.7074 130.41 41.3226 130.449H41.294C41.2368 130.459 41.1796 130.467 41.125 130.472H41.1146H41.1042C41.047 130.477 40.9924 130.48 40.9352 130.485H40.904C40.2878 130.537 39.6794 130.55 39.0919 130.524C35.5716 130.405 31.6431 129.228 27.7354 127.119C27.7354 127.119 20.2112 123.321 15.0296 118.503L15.8772 117.491C13.0485 114.247 10.7501 110.684 9.19279 107.124C7.48465 103.214 6.69167 99.3668 6.90227 96.0007L6.89967 96.0032Z" fill="#003BE2"/>
<path d="M35.2674 123.812C35.4598 123.778 35.6496 123.74 35.8368 123.696C38.9697 123 42.1312 121.266 44.9911 118.681C47.9134 116.04 50.4301 112.583 52.2708 108.681C54.954 102.997 55.9887 96.8958 55.1906 91.4985C54.798 88.8465 53.9816 86.5023 52.7622 84.5334C51.4831 82.4686 49.8217 80.9085 47.8198 79.8994C45.4409 78.7014 42.5055 78.3677 39.3259 78.9395C35.2804 79.6665 31.2739 81.7519 28.0448 84.8128L27.0828 85.7235L25.9337 85.0612C23.3858 83.5967 20.6272 82.5023 17.9545 81.8942C15.2168 81.2733 12.5675 81.1594 10.2926 81.5682C8.28023 81.9305 6.59548 82.6782 5.27993 83.7908C3.20519 85.5476 2.00143 88.166 1.80124 91.364C1.60884 94.4533 2.35242 98.0187 3.94877 101.675C5.57892 105.406 8.06964 109.147 11.1531 112.492C14.3094 115.921 17.9597 118.8 21.7088 120.821C25.3773 122.798 29.0328 123.903 32.2827 124.014C32.8131 124.037 33.3486 124.024 33.892 123.98C33.892 123.98 34.0454 123.97 34.0844 123.967C34.126 123.962 34.2742 123.947 34.2742 123.947C34.6122 123.913 34.945 123.866 35.2648 123.809L35.2674 123.812Z" fill="#B5FE28"/>
<path d="M10.6097 83.3096C12.6507 82.9422 15.053 83.0508 17.5619 83.6201C20.0656 84.1893 22.6525 85.2165 25.0471 86.5929L27.3454 87.9151L29.2693 86.091C32.2488 83.2656 35.9329 81.3406 39.6404 80.6756C42.4353 80.1737 44.9858 80.4505 47.0164 81.4726C48.7219 82.3316 50.1467 83.6744 51.2516 85.4571C52.341 87.2191 53.0768 89.3381 53.4356 91.7547C54.1843 96.8104 53.2016 102.554 50.6667 107.928C48.9247 111.62 46.5484 114.886 43.8003 117.372C41.1666 119.753 38.2858 121.341 35.4675 121.967H35.4519L35.4363 121.975C35.2803 122.011 35.1165 122.045 34.9553 122.073C34.6824 122.123 34.3938 122.161 34.1 122.192H34.0636L34.0298 122.2H34.0012C33.9726 122.208 33.9518 122.211 33.931 122.213C33.905 122.213 33.8842 122.216 33.866 122.218H33.8244L33.7906 122.223H33.7568C33.2862 122.265 32.8234 122.273 32.3814 122.255H32.3658H32.3502C29.3733 122.154 25.9882 121.121 22.5615 119.274C18.9841 117.346 15.4924 114.588 12.4687 111.305C9.51775 108.099 7.13622 104.529 5.58407 100.973C4.09692 97.5737 3.40534 94.2903 3.57954 91.4779C3.74853 88.7715 4.7365 86.5774 6.43685 85.1388C7.51061 84.2307 8.91717 83.6149 10.6149 83.3096M9.97793 79.8348C7.65361 80.2513 5.68807 81.131 4.13072 82.4506C1.679 84.5256 0.26204 87.571 0.0332467 91.258C-0.177347 94.6241 0.615628 98.4715 2.32377 102.381C4.03192 106.288 6.63444 110.197 9.84794 113.688C13.1368 117.258 16.9483 120.265 20.8664 122.376C24.7741 124.482 28.7025 125.66 32.2228 125.781C32.8104 125.807 33.4214 125.794 34.035 125.745H34.0662C34.1234 125.74 34.1806 125.737 34.2352 125.732H34.2456H34.256C34.3132 125.727 34.3678 125.719 34.425 125.714H34.4536C34.8358 125.672 35.2153 125.618 35.5793 125.553C35.8003 125.515 36.0213 125.468 36.2345 125.419C39.6534 124.661 43.0931 122.782 46.1792 119.993C49.2731 117.196 51.9328 113.545 53.8724 109.437C56.7011 103.442 57.7904 96.9812 56.9403 91.2476C56.5113 88.3575 55.6117 85.7883 54.2675 83.6149C52.8168 81.2682 50.9136 79.4906 48.6153 78.3315C45.8906 76.9576 42.5679 76.5695 39.006 77.2086C34.6122 77.9977 30.2677 80.2694 26.8176 83.5424C24.1189 81.99 21.194 80.8283 18.3445 80.1841C15.3754 79.5087 12.4817 79.3923 9.97533 79.8425L9.97793 79.8348Z" fill="white"/>
</svg>
